<svg id="Layer_1" data-name="Layer 1" xmlns="http://www.w3.org/2000/svg" viewBox="0 0 960 418.98"><defs><style>.cls-1{font-size:12px;font-family:ITVReem-Medium, ITV Reem;}.cls-1,.cls-11{fill:#a90061;}.cls-2{font-size:8px;}.cls-13,.cls-3{opacity:0.7;}.cls-13,.cls-15,.cls-4{fill:#eb7083;}.cls-5,.cls-6{fill:none;stroke:#000;}.cls-5{stroke-linecap:round;stroke-linejoin:round;}.cls-6{stroke-miterlimit:10;}.cls-7{font-size:6.7px;}.cls-14,.cls-16,.cls-7,.cls-8,.cls-9{font-family:ITVReem-Light, ITV Reem;}.cls-14,.cls-8{font-size:10.72px;}.cls-9{font-size:9.38px;}.cls-10,.cls-31{fill:#fa0;}.cls-12,.cls-31{opacity:0.5;}.cls-14{fill:#e1e2e3;}.cls-15{opacity:0.4;}.cls-16{font-size:8.04px;}.cls-17{letter-spacing:-0.02em;}.cls-18{letter-spacing:-0.01em;}.cls-19{letter-spacing:-0.03em;}.cls-20{letter-spacing:-0.02em;}.cls-21{letter-spacing:-0.01em;}.cls-22{letter-spacing:0em;}.cls-23{letter-spacing:0em;}.cls-24{letter-spacing:-0.01em;}.cls-25{letter-spacing:0em;}.cls-26{letter-spacing:0em;}.cls-27{letter-spacing:-0.02em;}.cls-28{letter-spacing:-0.02em;}.cls-29{letter-spacing:0.01em;}.cls-30{letter-spacing:-0.03em;}.cls-32{letter-spacing:-0.01em;}.cls-33{letter-spacing:0.01em;}.cls-34{letter-spacing:-0.01em;}.cls-35{letter-spacing:-0.03em;}.cls-36{letter-spacing:-0.01em;}.cls-37{letter-spacing:-0.01em;}.cls-38{font-size:10px;fill:#808184;font-family:MyriadPro-Regular, Myriad Pro;}.cls-39{letter-spacing:-0.04em;}.cls-40{letter-spacing:-0.01em;}.cls-41{letter-spacing:-0.01em;}.cls-42{letter-spacing:0em;}.cls-43{letter-spacing:-0.01em;}.cls-44{letter-spacing:0em;}.cls-45{letter-spacing:0em;}.cls-46{letter-spacing:0em;}.cls-47{letter-spacing:-0.03em;}.cls-48{letter-spacing:0em;}.cls-49{letter-spacing:-0.08em;}.cls-50{letter-spacing:-0.08em;}.cls-51{letter-spacing:-0.01em;}.cls-52{letter-spacing:-0.02em;}.cls-53{letter-spacing:0em;}.cls-54{letter-spacing:-0.01em;}.cls-55{letter-spacing:0em;}.cls-56{letter-spacing:0.02em;}.cls-57{letter-spacing:-0.01em;}.cls-58{letter-spacing:0em;}.cls-59{letter-spacing:-0.01em;}.cls-60{letter-spacing:-0.01em;}.cls-61{letter-spacing:-0.01em;}.cls-62{letter-spacing:-0.01em;}.cls-63{letter-spacing:0em;}.cls-64{letter-spacing:0.01em;}.cls-65{letter-spacing:-0.04em;}</style></defs><title>People - C1 - Website</title><text class="cls-1" transform="translate(423.35 201.32)">ITV UK workforce** <tspan class="cls-2"><tspan x="44.77" y="11">(2016)</tspan></tspan></text><text class="cls-1" transform="translate(323.31 12.68)">On-screen perceived contributions in ITV programmes*<tspan class="cls-2"><tspan x="92.34" y="11">(15 August 2016 - 14 August 2017)</tspan></tspan></text><g class="cls-3"><rect class="cls-4" x="694.08" y="311.09" width="41.6" height="8.11"/></g><line class="cls-5" x1="677.9" y1="319.2" x2="789.14" y2="319.2"/><line class="cls-6" x1="789.14" y1="319.2" x2="789.14" y2="317.18"/><text class="cls-7" transform="translate(670.47 320.52)">0</text><text class="cls-7" transform="translate(667.5 307)">10</text><text class="cls-7" transform="translate(666.75 293.48)">20</text><text class="cls-7" transform="translate(666.59 279.95)">30</text><text class="cls-7" transform="translate(666.38 266.43)">40</text><text class="cls-7" transform="translate(666.64 252.91)">50</text><text class="cls-7" transform="translate(666.36 239.39)">60</text><line class="cls-5" x1="677.9" y1="319.2" x2="677.9" y2="238.08"/><line class="cls-6" x1="677.9" y1="305.68" x2="680.68" y2="305.68"/><line class="cls-6" x1="677.9" y1="292.16" x2="680.68" y2="292.16"/><line class="cls-6" x1="677.9" y1="278.64" x2="680.68" y2="278.64"/><line class="cls-6" x1="677.9" y1="265.12" x2="680.68" y2="265.12"/><line class="cls-6" x1="677.9" y1="251.6" x2="680.68" y2="251.6"/><line class="cls-6" x1="677.9" y1="238.08" x2="680.68" y2="238.08"/><text class="cls-8" transform="translate(702.58 300.01)">6.0%</text><text class="cls-8" transform="translate(754.93 308.46)">***</text><text class="cls-9" transform="translate(689.46 152.8)">Lesbian, Gay, Bi-sexual</text><rect class="cls-10" x="739.42" y="119.56" width="42.48" height="8.65"/><rect class="cls-11" x="692.21" y="118.75" width="42.48" height="9.46"/><line class="cls-5" x1="677.9" y1="128.21" x2="789.14" y2="128.21"/><line class="cls-6" x1="789.14" y1="128.21" x2="789.14" y2="126.18"/><text class="cls-7" transform="translate(670.47 129.53)">0</text><text class="cls-7" transform="translate(667.5 116)">10</text><text class="cls-7" transform="translate(666.75 102.48)">20</text><text class="cls-7" transform="translate(666.59 88.96)">30</text><text class="cls-7" transform="translate(666.38 75.44)">40</text><text class="cls-7" transform="translate(666.64 61.92)">50</text><text class="cls-7" transform="translate(666.36 48.4)">60</text><line class="cls-5" x1="677.9" y1="128.21" x2="677.9" y2="47.09"/><line class="cls-6" x1="677.9" y1="114.69" x2="680.68" y2="114.69"/><line class="cls-6" x1="677.9" y1="101.17" x2="680.68" y2="101.17"/><line class="cls-6" x1="677.9" y1="87.65" x2="680.68" y2="87.65"/><line class="cls-6" x1="677.9" y1="74.13" x2="680.68" y2="74.13"/><line class="cls-6" x1="677.9" y1="60.61" x2="680.68" y2="60.61"/><line class="cls-6" x1="677.9" y1="47.09" x2="680.68" y2="47.09"/><text class="cls-8" transform="translate(748.57 108.75)">6.4%</text><text class="cls-8" transform="translate(701.46 107.94)">7.0%</text><g class="cls-12"><rect class="cls-10" x="407.15" y="301.63" width="41.57" height="17.58"/></g><g class="cls-3"><rect class="cls-4" x="360.9" y="304.2" width="41.6" height="15.01"/></g><line class="cls-5" x1="344.72" y1="319.2" x2="455.95" y2="319.2"/><line class="cls-6" x1="455.95" y1="319.2" x2="455.95" y2="317.18"/><text class="cls-7" transform="translate(337.29 320.52)">0</text><text class="cls-7" transform="translate(334.33 307)">10</text><text class="cls-7" transform="translate(333.58 293.48)">20</text><text class="cls-7" transform="translate(333.41 279.95)">30</text><text class="cls-7" transform="translate(333.2 266.43)">40</text><text class="cls-7" transform="translate(333.46 252.91)">50</text><text class="cls-7" transform="translate(333.18 239.39)">60</text><line class="cls-5" x1="344.72" y1="319.2" x2="344.72" y2="238.08"/><line class="cls-6" x1="344.72" y1="305.68" x2="347.5" y2="305.68"/><line class="cls-6" x1="344.72" y1="292.16" x2="347.5" y2="292.16"/><line class="cls-6" x1="344.72" y1="278.64" x2="347.5" y2="278.64"/><line class="cls-6" x1="344.72" y1="265.12" x2="347.5" y2="265.12"/><line class="cls-6" x1="344.72" y1="251.6" x2="347.5" y2="251.6"/><line class="cls-6" x1="344.72" y1="238.08" x2="347.5" y2="238.08"/><text class="cls-8" transform="translate(369.05 293.39)">11.1%</text><text class="cls-8" transform="translate(413.43 290.82)">13.0%</text><text class="cls-9" transform="translate(369.78 147.17)">Black, Asian and<tspan x="2.94" y="11.25">Minority Ethnic</tspan></text><rect class="cls-10" x="406.24" y="110.77" width="42.48" height="17.44"/><rect class="cls-11" x="359.04" y="111.58" width="42.48" height="16.63"/><line class="cls-5" x1="344.72" y1="128.21" x2="455.96" y2="128.21"/><line class="cls-6" x1="455.96" y1="128.21" x2="455.96" y2="126.19"/><text class="cls-7" transform="translate(337.29 129.53)">0</text><text class="cls-7" transform="translate(334.33 116.01)">10</text><text class="cls-7" transform="translate(333.58 102.48)">20</text><text class="cls-7" transform="translate(333.41 88.96)">30</text><text class="cls-7" transform="translate(333.2 75.44)">40</text><text class="cls-7" transform="translate(333.46 61.92)">50</text><text class="cls-7" transform="translate(333.18 48.4)">60</text><line class="cls-5" x1="344.72" y1="128.21" x2="344.72" y2="47.09"/><line class="cls-6" x1="344.72" y1="114.69" x2="347.5" y2="114.69"/><line class="cls-6" x1="344.72" y1="101.17" x2="347.5" y2="101.17"/><line class="cls-6" x1="344.72" y1="87.65" x2="347.5" y2="87.65"/><line class="cls-6" x1="344.72" y1="74.13" x2="347.5" y2="74.13"/><line class="cls-6" x1="344.72" y1="60.61" x2="347.5" y2="60.61"/><line class="cls-6" x1="344.72" y1="47.09" x2="347.5" y2="47.09"/><text class="cls-8" transform="translate(413.36 99.97)">12.9%</text><text class="cls-8" transform="translate(366.3 100.78)">12.3%</text><g class="cls-12"><rect class="cls-10" x="573.75" y="296.22" width="41.57" height="22.99"/></g><line class="cls-6" x1="622.55" y1="319.2" x2="622.55" y2="317.18"/><text class="cls-7" transform="translate(503.88 320.52)">0</text><text class="cls-7" transform="translate(500.91 307)">10</text><text class="cls-7" transform="translate(500.16 293.48)">20</text><text class="cls-7" transform="translate(500 279.95)">30</text><text class="cls-7" transform="translate(499.79 266.43)">40</text><text class="cls-7" transform="translate(500.05 252.91)">50</text><text class="cls-7" transform="translate(499.77 239.39)">60</text><line class="cls-5" x1="511.31" y1="319.2" x2="511.31" y2="238.08"/><line class="cls-6" x1="511.31" y1="305.68" x2="514.09" y2="305.68"/><line class="cls-6" x1="511.31" y1="292.16" x2="514.09" y2="292.16"/><line class="cls-6" x1="511.31" y1="278.64" x2="514.09" y2="278.64"/><line class="cls-6" x1="511.31" y1="265.12" x2="514.09" y2="265.12"/><line class="cls-6" x1="511.31" y1="251.6" x2="514.09" y2="251.6"/><line class="cls-6" x1="511.31" y1="238.08" x2="514.09" y2="238.08"/><rect class="cls-13" x="527.49" y="316.9" width="41.6" height="2.3"/><line class="cls-5" x1="511.31" y1="319.2" x2="622.55" y2="319.2"/><text class="cls-8" transform="translate(537.12 305.42)">1.8%</text><text class="cls-8" transform="translate(580.15 285.41)">17.0%</text><text class="cls-9" transform="translate(516.17 147.17)">People with a disability or <tspan x="-3.18" y="11.25">long term health condition</tspan></text><rect class="cls-10" x="572.83" y="103.88" width="42.48" height="24.34"/><rect class="cls-11" x="525.63" y="125.24" width="42.48" height="2.97"/><line class="cls-5" x1="511.31" y1="128.21" x2="622.55" y2="128.21"/><line class="cls-6" x1="622.55" y1="128.21" x2="622.55" y2="126.19"/><text class="cls-7" transform="translate(503.88 129.53)">0</text><text class="cls-7" transform="translate(500.91 116.01)">10</text><text class="cls-7" transform="translate(500.16 102.49)">20</text><text class="cls-7" transform="translate(500 88.96)">30</text><text class="cls-7" transform="translate(499.79 75.44)">40</text><text class="cls-7" transform="translate(500.05 61.92)">50</text><text class="cls-7" transform="translate(499.77 48.4)">60</text><line class="cls-5" x1="511.31" y1="128.21" x2="511.31" y2="47.09"/><line class="cls-6" x1="511.31" y1="114.69" x2="514.09" y2="114.69"/><line class="cls-6" x1="511.31" y1="101.17" x2="514.09" y2="101.17"/><line class="cls-6" x1="511.31" y1="87.65" x2="514.09" y2="87.65"/><line class="cls-6" x1="511.31" y1="74.13" x2="514.09" y2="74.13"/><line class="cls-6" x1="511.31" y1="60.61" x2="514.09" y2="60.61"/><line class="cls-6" x1="511.31" y1="47.09" x2="514.09" y2="47.09"/><text class="cls-8" transform="translate(579.42 93.07)">18.0%</text><text class="cls-8" transform="translate(535.39 114.43)">2.2%</text><text class="cls-9" transform="translate(54.56 152.8)">Female</text><rect class="cls-10" x="73.06" y="59.25" width="42.48" height="68.96"/><rect class="cls-11" x="25.86" y="61.28" width="42.48" height="66.93"/><line class="cls-5" x1="11.54" y1="128.21" x2="122.78" y2="128.21"/><line class="cls-6" x1="122.78" y1="128.21" x2="122.78" y2="126.18"/><text class="cls-7" transform="translate(4.11 129.53)">0</text><text class="cls-7" transform="translate(1.15 116)">10</text><text class="cls-7" transform="translate(0.4 102.48)">20</text><text class="cls-7" transform="translate(0.23 88.96)">30</text><text class="cls-7" transform="translate(0.02 75.44)">40</text><text class="cls-7" transform="translate(0.28 61.92)">50</text><text class="cls-7" transform="translate(0 48.4)">60</text><line class="cls-5" x1="11.54" y1="128.21" x2="11.54" y2="47.09"/><line class="cls-6" x1="11.54" y1="114.69" x2="14.32" y2="114.69"/><line class="cls-6" x1="11.54" y1="101.17" x2="14.32" y2="101.17"/><line class="cls-6" x1="11.54" y1="87.65" x2="14.32" y2="87.65"/><line class="cls-6" x1="11.54" y1="74.13" x2="14.32" y2="74.13"/><line class="cls-6" x1="11.54" y1="60.61" x2="14.32" y2="60.61"/><line class="cls-6" x1="11.54" y1="47.09" x2="14.32" y2="47.09"/><text class="cls-8" transform="translate(79.86 95.42)">51.0%</text><text class="cls-14" transform="translate(31.57 97.45)">49.0%</text><rect class="cls-15" x="27.72" y="249.03" width="41.6" height="70.18"/><g class="cls-12"><rect class="cls-10" x="73.98" y="255.65" width="41.57" height="63.55"/></g><text class="cls-7" transform="translate(4.11 320.52)">0</text><text class="cls-7" transform="translate(1.15 307)">10</text><text class="cls-7" transform="translate(0.4 293.48)">20</text><text class="cls-7" transform="translate(0.23 279.95)">30</text><text class="cls-7" transform="translate(0.02 266.43)">40</text><text class="cls-7" transform="translate(0.28 252.91)">50</text><text class="cls-7" transform="translate(0 239.39)">60</text><line class="cls-5" x1="11.54" y1="319.2" x2="11.54" y2="238.08"/><line class="cls-6" x1="11.54" y1="305.68" x2="14.32" y2="305.68"/><line class="cls-6" x1="11.54" y1="292.16" x2="14.32" y2="292.16"/><line class="cls-6" x1="11.54" y1="278.64" x2="14.32" y2="278.64"/><line class="cls-6" x1="11.54" y1="265.12" x2="14.32" y2="265.12"/><line class="cls-6" x1="11.54" y1="251.6" x2="14.32" y2="251.6"/><line class="cls-6" x1="11.54" y1="238.08" x2="14.32" y2="238.08"/><text class="cls-8" transform="translate(34.31 283.57)">51.9%</text><text class="cls-8" transform="translate(79.48 290.2)">47.0%</text><line class="cls-6" x1="122.78" y1="319.2" x2="122.78" y2="317.18"/><line class="cls-5" x1="11.54" y1="319.2" x2="122.78" y2="319.2"/><g class="cls-12"><rect class="cls-10" x="240.58" y="314.15" width="41.6" height="5.06"/></g><rect class="cls-13" x="194.36" y="313.93" width="41.6" height="5.27"/><line class="cls-5" x1="178.09" y1="319.2" x2="289.41" y2="319.2"/><line class="cls-6" x1="289.41" y1="319.2" x2="289.41" y2="317.18"/><text class="cls-7" transform="translate(170.66 320.52)">0</text><text class="cls-7" transform="translate(167.69 307)">10</text><text class="cls-7" transform="translate(166.94 293.48)">20</text><text class="cls-7" transform="translate(166.77 279.95)">30</text><text class="cls-7" transform="translate(166.56 266.43)">40</text><text class="cls-7" transform="translate(166.83 252.91)">50</text><text class="cls-7" transform="translate(166.54 239.39)">60</text><line class="cls-5" x1="178.09" y1="319.2" x2="178.09" y2="238.08"/><line class="cls-6" x1="178.09" y1="305.68" x2="180.88" y2="305.68"/><line class="cls-6" x1="178.09" y1="292.16" x2="180.88" y2="292.16"/><line class="cls-6" x1="178.09" y1="278.64" x2="180.88" y2="278.64"/><line class="cls-6" x1="178.09" y1="265.12" x2="180.88" y2="265.12"/><line class="cls-6" x1="178.09" y1="251.6" x2="180.88" y2="251.6"/><line class="cls-6" x1="178.09" y1="238.08" x2="180.88" y2="238.08"/><text class="cls-8" transform="translate(203.27 303.04)">3.9%</text><text class="cls-16" transform="translate(197.61 286.97)">(Age 60+)</text><text class="cls-8" transform="translate(249.45 303.04)">3.6%</text><text class="cls-16" transform="translate(244.16 286.97)">(Age 65+)</text><text class="cls-9" transform="translate(219.01 152.8) scale(1.02 1)">Age 50+</text><text class="cls-9" transform="translate(689.46 344.72)">Lesbian, Gay, Bi-sexual</text><text class="cls-9" transform="translate(369.78 339.1)">Black, Asian and<tspan x="2.94" y="11.25">Minority Ethnic</tspan></text><text class="cls-9" transform="translate(516.17 339.1)">People with a disability or <tspan x="-3.18" y="11.25">long term health condition</tspan></text><text class="cls-9" transform="translate(54.56 344.72)">Female</text><text class="cls-9" transform="translate(219.01 344.72) scale(1.02 1)">Age 50+</text><rect class="cls-10" x="240.58" y="79.54" width="41.6" height="48.68"/><rect class="cls-11" x="193.38" y="96.17" width="41.6" height="32.05"/><line class="cls-5" x1="177.84" y1="128.21" x2="289.41" y2="128.21"/><line class="cls-6" x1="289.41" y1="128.21" x2="289.41" y2="126.18"/><text class="cls-7" transform="translate(170.57 129.53) scale(0.98 1)">0</text><text class="cls-7" transform="translate(167.66 116) scale(0.98 1)">10</text><text class="cls-7" transform="translate(166.93 102.48) scale(0.98 1)">20</text><text class="cls-7" transform="translate(166.76 88.96) scale(0.98 1)">30</text><text class="cls-7" transform="translate(166.56 75.44) scale(0.98 1)">40</text><text class="cls-7" transform="translate(166.82 61.92) scale(0.98 1)">50</text><text class="cls-7" transform="translate(166.54 48.4) scale(0.98 1)">60</text><line class="cls-5" x1="177.84" y1="128.21" x2="177.84" y2="47.09"/><line class="cls-6" x1="177.84" y1="114.69" x2="180.57" y2="114.69"/><line class="cls-6" x1="177.84" y1="101.17" x2="180.57" y2="101.17"/><line class="cls-6" x1="177.84" y1="87.65" x2="180.57" y2="87.65"/><line class="cls-6" x1="177.84" y1="74.13" x2="180.57" y2="74.13"/><line class="cls-6" x1="177.84" y1="60.61" x2="180.57" y2="60.61"/><line class="cls-6" x1="177.84" y1="47.09" x2="180.57" y2="47.09"/><text class="cls-8" transform="translate(245.54 68.73)">36.0%</text><text class="cls-8" transform="translate(198.86 85.36)">23.8%</text><text class="cls-9" transform="translate(876.35 152.8)">Transgender</text><line class="cls-6" x1="955.73" y1="128.21" x2="955.73" y2="126.19"/><text class="cls-7" transform="translate(837.06 129.53)">0</text><text class="cls-7" transform="translate(834.09 116.01)">10</text><text class="cls-7" transform="translate(833.34 102.49)">20</text><text class="cls-7" transform="translate(833.18 88.96)">30</text><text class="cls-7" transform="translate(832.97 75.44)">40</text><text class="cls-7" transform="translate(833.23 61.92)">50</text><text class="cls-7" transform="translate(832.95 48.4)">60</text><line class="cls-5" x1="844.49" y1="127.74" x2="844.49" y2="47.1"/><line class="cls-6" x1="844.49" y1="114.69" x2="847.27" y2="114.69"/><line class="cls-6" x1="844.49" y1="101.17" x2="847.27" y2="101.17"/><line class="cls-6" x1="844.49" y1="87.65" x2="847.27" y2="87.65"/><line class="cls-6" x1="844.49" y1="74.13" x2="847.27" y2="74.13"/><line class="cls-6" x1="844.49" y1="60.61" x2="847.27" y2="60.61"/><line class="cls-6" x1="844.49" y1="47.09" x2="847.27" y2="47.09"/><rect class="cls-10" x="906.01" y="127.13" width="42.48" height="1.08"/><line class="cls-5" x1="844.49" y1="128.21" x2="955.73" y2="128.21"/><text class="cls-8" transform="translate(914.97 116.32)">0.8%</text><text class="cls-8" transform="translate(867.56 116.39)">0.0%</text><rect class="cls-11" x="846.44" y="240.09" width="9.76" height="9.76"/><text class="cls-9" transform="translate(866.65 241.55)">IT<tspan class="cls-17" x="7.64" y="0">V</tspan><tspan class="cls-18" x="13.37" y="0"> </tspan><tspan x="15.39" y="0">on-sc</tspan><tspan class="cls-19" x="38.57" y="0">r</tspan><tspan x="41.82" y="0">een </tspan><tspan x="0" y="11.25">perceived</tspan></text><rect class="cls-10" x="846.44" y="261.64" width="9.76" height="9.76"/><text class="cls-9" transform="translate(866.65 269.53)">2<tspan class="cls-20" x="5.2" y="0">0</tspan><tspan x="11.08" y="0">11</tspan><tspan class="cls-21" x="19.39" y="0"> </tspan><tspan class="cls-18" x="21.4" y="0">c</tspan><tspan class="cls-22" x="25.84" y="0">e</tspan><tspan class="cls-23" x="31.03" y="0">n</tspan><tspan x="36.44" y="0">su</tspan><tspan class="cls-21" x="45.81" y="0">s</tspan><tspan class="cls-18" x="49.91" y="0"> </tspan><tspan x="51.93" y="0">d</tspan><tspan class="cls-24" x="57.4" y="0">a</tspan><tspan class="cls-25" x="62.34" y="0">t</tspan><tspan x="66.21" y="0">a</tspan></text><rect class="cls-13" x="846.44" y="284" width="9.76" height="9.76"/><text class="cls-9" transform="translate(866.65 291.88)">IT<tspan class="cls-17" x="7.64" y="0">V</tspan><tspan class="cls-18" x="13.37" y="0"> </tspan><tspan class="cls-26" x="15.39" y="0">U</tspan><tspan class="cls-27" x="21.57" y="0">K</tspan><tspan class="cls-28" x="27.23" y="0"> </tspan><tspan class="cls-18" x="29.18" y="0">w</tspan><tspan class="cls-26" x="36.42" y="0">or</tspan><tspan class="cls-29" x="45.49" y="0">k</tspan><tspan class="cls-24" x="50.3" y="0">f</tspan><tspan class="cls-26" x="53.75" y="0">o</tspan><tspan class="cls-30" x="59.33" y="0">r</tspan><tspan class="cls-18" x="62.58" y="0">c</tspan><tspan x="67.02" y="0">e</tspan></text><rect class="cls-31" x="846.1" y="307.15" width="9.76" height="9.76"/><text class="cls-9" transform="translate(866.31 308.61)">Labou<tspan class="cls-20" x="26" y="0">r</tspan><tspan class="cls-28" x="29.29" y="0"> </tspan><tspan class="cls-32" x="31.24" y="0">w</tspan><tspan x="38.48" y="0">or</tspan><tspan class="cls-33" x="47.56" y="0">k</tspan><tspan class="cls-34" x="52.37" y="0">f</tspan><tspan x="55.82" y="0">o</tspan><tspan class="cls-35" x="61.39" y="0">r</tspan><tspan class="cls-36" x="64.64" y="0">c</tspan><tspan x="69.08" y="0">e</tspan><tspan class="cls-36" x="74.26" y="0" xml:space="preserve"> </tspan><tspan x="0" y="11.25">e</tspan><tspan class="cls-24" x="5.19" y="11.25">s</tspan><tspan x="9.27" y="11.25">ti</tspan><tspan class="cls-37" x="15.32" y="11.25">m</tspan><tspan class="cls-24" x="23.83" y="11.25">a</tspan><tspan class="cls-27" x="28.78" y="11.25">t</tspan><tspan class="cls-22" x="32.53" y="11.25">es</tspan></text><text class="cls-38" transform="translate(0 388.98)"><tspan xml:space="preserve">*   </tspan><tspan class="cls-39" x="10.51" y="0"> </tspan><tspan class="cls-40" x="12.22" y="0">T</tspan><tspan x="17.12" y="0">he figu</tspan><tspan class="cls-41" x="46.13" y="0">r</tspan><tspan class="cls-42" x="49.3" y="0">es a</tspan><tspan class="cls-41" x="65.21" y="0">r</tspan><tspan x="68.38" y="0">e based on 70.4% of p</tspan><tspan class="cls-41" x="159.63" y="0">r</tspan><tspan x="162.8" y="0">o</tspan><tspan class="cls-43" x="168.29" y="0">g</tspan><tspan class="cls-44" x="173.82" y="0">r</tspan><tspan x="177.04" y="0">ammes </tspan><tspan class="cls-41" x="209.63" y="0">r</tspan><tspan x="212.8" y="0">etu</tspan><tspan class="cls-45" x="226.63" y="0">r</tspan><tspan x="229.94" y="0">ning d</tspan><tspan class="cls-46" x="256.73" y="0">a</tspan><tspan class="cls-42" x="261.51" y="0">ta. </tspan><tspan x="0" y="12" xml:space="preserve">**  </tspan><tspan class="cls-47" x="12.54" y="12">F</tspan><tspan class="cls-42" x="17.15" y="12">igu</tspan><tspan class="cls-41" x="30.59" y="12">r</tspan><tspan x="33.76" y="12">es include pe</tspan><tspan class="cls-45" x="88.56" y="12">r</tspan><tspan class="cls-42" x="91.87" y="12">mane</tspan><tspan class="cls-48" x="115.59" y="12">n</tspan><tspan x="121.1" y="12">t and </tspan><tspan class="cls-49" x="144.66" y="12">P</tspan><tspan class="cls-50" x="149.14" y="12">A</tspan><tspan class="cls-51" x="154.47" y="12">Y</tspan><tspan x="159.81" y="12">E fi</tspan><tspan class="cls-52" x="172.08" y="12">x</tspan><tspan x="176.56" y="12">ed-</tspan><tspan class="cls-43" x="190.28" y="12">t</tspan><tspan x="193.53" y="12">e</tspan><tspan class="cls-53" x="198.54" y="12">r</tspan><tspan x="201.85" y="12">m empl</tspan><tspan class="cls-51" x="233.71" y="12">o</tspan><tspan class="cls-41" x="239.13" y="12">y</tspan><tspan x="243.74" y="12">ees only (it does not include f</tspan><tspan class="cls-41" x="365.29" y="12">r</tspan><tspan x="368.46" y="12">eelan</tspan><tspan class="cls-43" x="391.21" y="12">c</tspan><tspan class="cls-54" x="395.63" y="12">e</tspan><tspan x="400.52" y="12">, </tspan><tspan class="cls-43" x="404.71" y="12">c</tspan><tspan x="409.13" y="12">o</tspan><tspan class="cls-55" x="414.62" y="12">n</tspan><tspan class="cls-42" x="420.13" y="12">tinge</tspan><tspan class="cls-55" x="441.93" y="12">n</tspan><tspan class="cls-42" x="447.44" y="12">t or agen</tspan><tspan class="cls-56" x="484.72" y="12">c</tspan><tspan x="489.38" y="12">y </tspan><tspan class="cls-57" x="496.21" y="12">w</tspan><tspan x="503.47" y="12">o</tspan><tspan class="cls-45" x="508.96" y="12">r</tspan><tspan x="512.27" y="12">kers) and a</tspan><tspan class="cls-41" x="557.11" y="12">r</tspan><tspan x="560.28" y="12">e based on the number of empl</tspan><tspan class="cls-51" x="691.22" y="12">o</tspan><tspan class="cls-41" x="696.64" y="12">y</tspan><tspan x="701.25" y="12">ees who chose </tspan><tspan class="cls-43" x="764.48" y="12">t</tspan><tspan x="767.73" y="12">o disclos</tspan><tspan class="cls-54" x="803.57" y="12">e</tspan><tspan class="cls-58" x="808.46" y="12">.</tspan><tspan x="0" y="24">***</tspan><tspan class="cls-39" x="12.45" y="24"> </tspan><tspan class="cls-51" x="14.16" y="24">T</tspan><tspan x="19.06" y="24">he</tspan><tspan class="cls-41" x="29.62" y="24">r</tspan><tspan x="32.79" y="24">e a</tspan><tspan class="cls-41" x="44.74" y="24">r</tspan><tspan class="cls-42" x="47.91" y="24">e no </tspan><tspan class="cls-57" x="68.2" y="24">w</tspan><tspan x="75.46" y="24">o</tspan><tspan class="cls-45" x="80.95" y="24">r</tspan><tspan class="cls-42" x="84.26" y="24">k</tspan><tspan class="cls-59" x="88.95" y="24">f</tspan><tspan class="cls-58" x="91.74" y="24">o</tspan><tspan class="cls-60" x="97.23" y="24">r</tspan><tspan class="cls-61" x="100.4" y="24">c</tspan><tspan x="104.82" y="24">e estim</tspan><tspan class="cls-55" x="134.91" y="24">a</tspan><tspan class="cls-43" x="139.69" y="24">t</tspan><tspan x="142.94" y="24">es </tspan><tspan class="cls-62" x="154.03" y="24">a</tspan><tspan class="cls-55" x="158.77" y="24">v</tspan><tspan x="163.54" y="24">ailable </tspan><tspan class="cls-59" x="193.06" y="24">f</tspan><tspan x="195.85" y="24">or s</tspan><tspan class="cls-63" x="210.69" y="24">e</tspan><tspan class="cls-42" x="215.67" y="24">xual o</tspan><tspan class="cls-53" x="240.6" y="24">r</tspan><tspan x="243.91" y="24">ie</tspan><tspan class="cls-55" x="251.26" y="24">n</tspan><tspan class="cls-42" x="256.77" y="24">t</tspan><tspan class="cls-46" x="260.08" y="24">a</tspan><tspan class="cls-42" x="264.86" y="24">tion or gender ide</tspan><tspan class="cls-55" x="339.73" y="24">n</tspan><tspan x="345.24" y="24">ti</tspan><tspan class="cls-64" x="350.89" y="24">t</tspan><tspan class="cls-65" x="354.29" y="24">y</tspan><tspan class="cls-58" x="358.61" y="24">.</tspan></text></svg>