<svg xmlns="http://www.w3.org/2000/svg" viewBox="0 0 250 250"><defs><style>.cls-1{fill:#fff;fill-rule:evenodd;}</style></defs><title>client_6</title><g id="MTV"><path class="cls-1" d="M38.88,183.88V66.12h64.3l11.65,11.65L126,66.12h55.76l10.45,10.45v11.8l4.86-4.27c2.36-1.79,4.42-2.67,6.18-2.67A6.78,6.78,0,0,1,209,84.35c1.45,1.94,2.16,4.69,2.16,8.27a8.37,8.37,0,0,1-1.74,4.24,33.24,33.24,0,0,1-4.17,4.1,29.46,29.46,0,0,0-3.83,3.73c-1.25,1.62-2.85,3.56-4.78,5.79s-3.43,4-4.51,5.42V174.6l-9.84,9.27H126V143l-11.65,10.6-10.75-7.65v28.26l-10.28,9.71Zm54.46-45.16v40.6l6.62-6.48V143.42l-6.62-4.71Zm88.91-7.38v48.75l6.62-6.65V121.17l-6.62,10.16Zm0-60.5v30.91L189,92V77.63l-6.77-6.8Zm-32.51,42.24-1.2,2.21a7.93,7.93,0,0,0-1,4,12.3,12.3,0,0,0,1.13,5,66.83,66.83,0,0,0,3.85,7.07c1.84,3,3.21,5.35,4.15,7.14a19.64,19.64,0,0,1,1.91,5.37q1.8,14.28,7.65,14.28a8.12,8.12,0,0,0,1.62-.29,2.46,2.46,0,0,0,1.91-.78,5.12,5.12,0,0,0,1.08-2.06,18,18,0,0,0,.54-2.82q.15-1.55.29-3.16a16,16,0,0,1,1.86-5.18,16.93,16.93,0,0,0,1.82-4.1q3.53-7.1,5.5-10.4c1.3-2.23,3.34-5.42,6.16-9.62a30.65,30.65,0,0,1,2.21-3.88c.64-.86,1.62-2.13,3-3.8s2.53-3.24,3.48-4.69a34.22,34.22,0,0,1,5.32-5.79,35.77,35.77,0,0,0,5.59-6.11,12.26,12.26,0,0,0,1.77-6.92A5.06,5.06,0,0,0,207,85.31a4.49,4.49,0,0,0-3.66-1.64c-2.28.47-5.08,2.55-8.37,6.28a112.82,112.82,0,0,0-9.05,11.78c-2.72,4.1-5.5,8.44-8.32,13a26.69,26.69,0,0,0-2.09,5.45,39.6,39.6,0,0,1-2.06,5.59,14.66,14.66,0,0,0-2.13,3.61,16.3,16.3,0,0,1-2.67,4.22,5.31,5.31,0,0,1-4,1.45,12.64,12.64,0,0,1-2.94-5.67c-.69-2.45-1.47-5.81-2.36-10.11s-1.59-6.45-2.09-6.57a6.22,6.22,0,0,0-3.95-1.47,4.31,4.31,0,0,0-3.51,1.89Zm-30.2,0a30.67,30.67,0,0,1-3,3,37.39,37.39,0,0,1-4.29,2.87c-1.94,1.18-3.07,1.86-3.43,2.11a6.81,6.81,0,0,0-2.06,5,3,3,0,0,0,1.62,2.94,4.16,4.16,0,0,0,1.77.27c1.86,0,4-1.2,6.48-3.66,1.84-1.94,3.58-3.75,5.25-5.42a28.68,28.68,0,0,1,5.13-4.22,15.71,15.71,0,0,1,6-2.28q0,.11,1,3.83a23.81,23.81,0,0,1,1,5.91c0,3.26.07,6.55.22,9.81s.22,5.27.22,6.06a92,92,0,0,1-1,11,29.8,29.8,0,0,0-.61,4.56,24.67,24.67,0,0,0,1.47,7.07,20,20,0,0,1,.49,3,10.52,10.52,0,0,0,.66,3.07,1.63,1.63,0,0,0,1.64,1,3.92,3.92,0,0,0,1.62.47c1.5,0,2.7-1.13,3.56-3.36a23.06,23.06,0,0,0,1.3-8.29,42.87,42.87,0,0,1-1.35-10.45V142c.42-6.16.61-10.13.61-11.95a18.51,18.51,0,0,0-.15-2.94,48.49,48.49,0,0,0-1.13-5.3,24.44,24.44,0,0,1-.93-5.57,10.51,10.51,0,0,1,1.74-5.62q4.45-9.05,21.37-12.78c2.13-1.08,3.21-2.4,3.21-4,0-2-1.89-2.94-5.72-2.94a12.27,12.27,0,0,0-5,1,38,38,0,0,0-5.35,3,49.54,49.54,0,0,1-5.37,3.09,12.77,12.77,0,0,1-4.78,1.25c-1.45.07-2.75.12-3.85.2a7.88,7.88,0,0,0-3,.69,7.76,7.76,0,0,0-2.65,2.28,24.31,24.31,0,0,0-2.89,4.76c-.12.54-1.57,1.4-4.27,2.55a16.5,16.5,0,0,0-5.57,3.48Z"/></g></svg>