<svg xmlns="http://www.w3.org/2000/svg" viewBox="0 0 250 250"><defs><style>.cls-1{fill:#fff;fill-rule:evenodd;}</style></defs><title>client_8</title><g id="Sains"><path class="cls-1" d="M41.95,111.08a22.87,22.87,0,0,0-9.34,1.86,1.58,1.58,0,0,0-.9,1.44v2.69a1.13,1.13,0,0,0,1,1.2c.72,0,1.26-.66,1.62-.9a12.58,12.58,0,0,1,7.36-2.52c3.65,0,4.19,2.4,4.19,5.33v.11c0,1.37-.47,1.63-5.67,2.29C37,123,29.79,124.43,29.79,131c0,5.39,4.31,8.26,9.34,8.26a10.44,10.44,0,0,0,6.94-2.87l.12,1.56a.67.67,0,0,0,.6.72h5.45a.69.69,0,0,0,.72-.72V119.28c0-4.85-2.58-8.2-11-8.2Zm3.83,21.79c0,.78-2,2.89-4.81,2.89-3.19,0-4.39-2.29-4.39-4.57,0-3.24,2.52-6.24,9.19-6.24v7.92Z"/><path class="cls-1" d="M61.48,101.5c-2.64,0-3.91,1.56-3.91,3.37,0,2.16,1.56,3.6,3.91,3.6a3.46,3.46,0,0,0,3.79-3.6c0-1.8-1.26-3.37-3.79-3.37Z"/><path class="cls-1" d="M58.06,112.5V138a.68.68,0,0,0,.6.72h5.77a.7.7,0,0,0,.72-.72V112.5a.7.7,0,0,0-.72-.72H58.66a.68.68,0,0,0-.6.72Z"/><path class="cls-1" d="M2.17,137.14c10.09,4.75,24.46,2,24.46-10.09,0-11.12-19-10.4-19-17.25,0-2.76,2.64-4.62,6-4.62a12.41,12.41,0,0,1,7.69,2.77,2.89,2.89,0,0,0,1.62.78c.66,0,.84-.42.84-1v-3.48a1,1,0,0,0-.66-1.09,29,29,0,0,0-9.61-1.57c-8,0-12.32,4.93-12.32,10.52,0,12.14,18.75,9.62,18.75,17.85,0,5-7.21,8.47-15.56,2.64-.78-.54-1.14-.84-1.68-.84-1,0-1.2.54-1.2,1.08v3.06a1.19,1.19,0,0,0,.72,1.2Z"/><path class="cls-1" d="M71.1,112.5V138a.68.68,0,0,0,.6.72h5.77a.7.7,0,0,0,.72-.72V117.43a12.76,12.76,0,0,1,5.59-1.86c4,0,4.21,2.4,4.21,4.44v18a.68.68,0,0,0,.6.72h5.77a.7.7,0,0,0,.72-.72V119.41c0-4.87-2.58-8.24-8.35-8.24a18.35,18.35,0,0,0-8.59,2.71H78V112.5a.7.7,0,0,0-.72-.72H71.7a.68.68,0,0,0-.6.72Z"/><path class="cls-1" d="M117.13,112.68c-7.81-3.25-18.27-1.5-18.27,7,0,9.56,15.14,7.57,15.14,12.74,0,4.15-7.15,4.57-12.32.6a1.76,1.76,0,0,0-1.14-.48c-.6,0-1,.24-1,1.08v2.34a1.54,1.54,0,0,0,.9,1.56c6.67,3,18.93,3.07,18.93-8,0-9.49-15.32-7.33-15.32-12.08,0-3.9,7.51-3.54,11.84-.6a2.57,2.57,0,0,0,1.14.48c.6,0,1-.24,1-1.08v-2a1.49,1.49,0,0,0-.9-1.56Z"/><path class="cls-1" d="M246.57,112.68c-7.81-3.25-18.27-1.5-18.27,7,0,9.56,15.15,7.57,15.15,12.74,0,4.15-7.15,4.57-12.32.6a1.76,1.76,0,0,0-1.14-.48c-.6,0-1,.24-1,1.08v2.34a1.54,1.54,0,0,0,.9,1.56c6.67,3,18.93,3.07,18.93-8,0-9.49-15.32-7.33-15.32-12.08,0-3.9,7.51-3.54,11.84-.6a2.59,2.59,0,0,0,1.14.48c.6,0,1-.24,1-1.08v-2a1.49,1.49,0,0,0-.9-1.56Z"/><path class="cls-1" d="M187.56,119.83c0-2.88,1-4.69,7.27-3.06a8.25,8.25,0,0,0,1.92.36.85.85,0,0,0,.78-.84v-3.55c0-.6-.42-1.08-1.2-1.26-4.32-1-7,1-9.19,3.06l-.12-.06v-2a.7.7,0,0,0-.72-.72h-5.23a.68.68,0,0,0-.6.72V138a.68.68,0,0,0,.6.72h5.77a.7.7,0,0,0,.72-.72V119.83Z"/><path class="cls-1" d="M227.7,111.9c2.83,0,6-10.58.78-10.58h-2.82c-.66,0-.78.48-.78.84,0,.72,1.8,2.53,1.8,5s-1,3.42-1,4.21c0,.31.3.54.72.54Z"/><path class="cls-1" d="M212.49,130.41l-.36-1.14-5.71-16.83a.87.87,0,0,0-1-.66h-6.13a.48.48,0,0,0-.54.54,2.79,2.79,0,0,0,.3,1l10,24.22c1.68,4.09-3.24,7-8,5.71a7.24,7.24,0,0,0-1.86-.36.85.85,0,0,0-.78.84v3.43c0,.72.48,1.56,3.12,1.56,6.37,0,9.79-3.24,12.86-10.88l9.86-24.7a2.74,2.74,0,0,0,.24-.78.54.54,0,0,0-.54-.54H219.7a.84.84,0,0,0-.84.66L213,129.27l-.48,1.14Z"/><path class="cls-1" d="M175.3,138V112.5a.68.68,0,0,0-.6-.72h-5.77a.7.7,0,0,0-.72.72v20.55a12.8,12.8,0,0,1-5.59,1.86c-4,0-4.21-2.4-4.21-4.45v-18a.68.68,0,0,0-.6-.72H152a.7.7,0,0,0-.72.72v18.57c0,4.87,2.59,8.23,8.36,8.23a18.43,18.43,0,0,0,8.59-2.7h.12V138a.69.69,0,0,0,.72.72h5.59a.68.68,0,0,0,.6-.72Z"/><path class="cls-1" d="M122.66,102.35a.68.68,0,0,1,.6-.73H129a.7.7,0,0,1,.72.73v12a12,12,0,0,1,7.87-3.07c6.19,0,10.09,5.41,10.09,12.62,0,9.25-6.43,15.39-14.36,15.39a15.48,15.48,0,0,1-9.62-3.13,3.26,3.26,0,0,1-1.08-2.76v-31Zm7.93,33a6.09,6.09,0,0,0,3.24.66c3.85,0,6.55-4,6.55-10.69,0-2.53-.54-9.62-6-9.62a7.75,7.75,0,0,0-4.63,1.86v16.23a1.69,1.69,0,0,0,.84,1.57Z"/></g></svg>