<?xml version="1.0" encoding="utf-8"?>
<!-- Generator: Adobe Illustrator 24.1.1, SVG Export Plug-In . SVG Version: 6.00 Build 0)  -->
<svg version="1.1" id="Layer_1" xmlns="http://www.w3.org/2000/svg" xmlns:xlink="http://www.w3.org/1999/xlink" x="0px" y="0px"
	 viewBox="0 0 252 71" style="enable-background:new 0 0 252 71;" xml:space="preserve">
<style type="text/css">
	.st0{fill:#FFFFFF;}
</style>
<g id="Nura_x5F_Logo_x5F_WordMark_x5F_White_x5F_1500px_1_">
	<g>
		<g>
			<path class="st0" d="M3,35.5L3,35.5C3,17.7,17.4,3.3,35.2,3.3s32.2,14.4,32.2,32.2"/>
			<path class="st0" d="M131.7,35.5L131.7,35.5c0,17.8-14.4,32.2-32.2,32.2S67.3,53.2,67.3,35.5"/>
		</g>
		<path class="st0" d="M136.9,4.3h5.2v4.8c1.5-2.1,3.2-3.5,5.1-4.4c1.9-0.9,3.8-1.3,5.8-1.3c3.5,0,6.2,1,7.9,2.9s2.6,4.8,2.6,8.5
			v20.7h-5.2V15.8c0-2.9-0.5-4.9-1.6-6.1s-2.7-1.8-4.8-1.8c-1.2,0-2.3,0.2-3.5,0.6c-1.1,0.4-2.2,1-3.1,1.9c-1,0.9-1.8,1.8-2.3,2.8
			s-0.8,2.3-0.8,3.8v18.5h-5.2L136.9,4.3L136.9,4.3z"/>
		<path class="st0" d="M170.3,4.3h5.2V24c0,2.9,0.5,5,1.4,6.1c0.9,1.2,2.5,1.8,4.6,1.8c2.3,0,4.4-0.8,6.3-2.5c1-0.9,1.8-1.8,2.3-2.8
			s0.8-2.3,0.8-3.8V4.3h5.2v31.2H191v-4.8c-1.5,2-3.2,3.5-5,4.4c-1.8,0.9-3.7,1.4-5.7,1.4c-3.5,0-6.1-1-7.7-2.9
			c-1.6-1.9-2.4-4.8-2.4-8.6V4.3z"/>
		<path class="st0" d="M203.5,4.3h5.2v4.8c1.2-1.7,2.5-3,4.1-4c1.6-0.9,3.2-1.4,5-1.4c1.1,0,2,0.1,2.8,0.2l-0.7,4.9
			c-0.4-0.1-0.8-0.2-1.2-0.2c-0.4-0.1-0.8-0.1-1.3-0.1c-1,0-2,0.2-2.9,0.5c-1,0.3-2,0.9-2.8,1.7c-0.9,0.8-1.6,1.7-2.1,2.7
			c-0.5,1-0.8,2.2-0.8,3.5v18.5h-5.2L203.5,4.3L203.5,4.3z"/>
		<path class="st0" d="M243.8,19.8l-5,0.2c-2.1,0.1-3.9,0.3-5.3,0.6c-1.4,0.3-2.5,0.8-3.4,1.3c-0.8,0.5-1.4,1.2-1.8,2
			c-0.3,0.8-0.5,1.7-0.5,2.8c0,1.6,0.5,2.8,1.4,3.8c0.9,0.9,2.5,1.4,4.7,1.4c3.1,0,5.5-0.8,7.2-2.3s2.6-3.6,2.6-6.3V19.8z
			 M243.9,31.2c-1.1,1.4-2.6,2.5-4.3,3.5c-1.7,1-3.9,1.5-6.5,1.5c-1.6,0-3-0.2-4.3-0.6c-1.3-0.4-2.4-1-3.4-1.8
			c-0.9-0.8-1.7-1.8-2.2-2.9c-0.5-1.2-0.8-2.5-0.8-4.1c0-2.1,0.5-3.9,1.4-5.2c0.9-1.3,2.1-2.4,3.6-3.1c1.5-0.8,3.2-1.3,5.1-1.6
			c1.9-0.3,3.8-0.5,5.8-0.6l5.4-0.2v-1.2c0-2.7-0.6-4.6-1.7-5.7c-1.1-1.2-2.9-1.8-5.5-1.8c-2.5,0-4.3,0.4-5.5,1.2
			c-1.2,0.8-1.9,2-2.3,3.4l-4.8-0.5c0.6-2.8,1.9-4.9,4-6.2c2.1-1.3,5-2,8.7-2c2.3,0,4.1,0.3,5.7,0.8c1.6,0.5,2.8,1.3,3.8,2.3
			c1,1,1.7,2.3,2.1,3.7c0.4,1.5,0.6,3.2,0.6,5v20.3h-5.1V31.2z"/>
	</g>
</g>
</svg>
