<svg xmlns="http://www.w3.org/2000/svg" viewBox="0 0 250 250"><defs><style>.cls-1{fill:#fff;}</style></defs><title>client_13_1</title><g id="TKMAXX"><path class="cls-1" d="M93.75,163.17h0M82.31,139c0,7.92-1.27,12.21-4.07,15.22a14.33,14.33,0,0,1-10.58,4.08c-4.15,0-7.84-1.38-10-3.7s-3.36-5.78-3.36-10.74v-31c0-1.36-.51-2-2-2H31.17c-1.48,0-2,.58-2,2v28c0,11.2,2.89,17.59,7.93,22.63,6.55,6.55,17.74,9.47,28.38,9.47s21.69-3.76,28.24-9.81c6.43,5.85,18.09,9.8,31,9.8,17,0,29.53-7,36.83-19,3.24,5,5.64,8.76,7.94,12.16,3.39,5,6.47,6.85,13.38,6.85,6.54,0,10.46-1.57,14-7,9.27-14.18,17.18-30.95,22.88-46.38A15.71,15.71,0,0,0,221,115.4c0-.9-.59-1.61-2-2.06s-5-1.55-6.85-2.11a21.8,21.8,0,0,0-4.81-1.2c-1.23,0-1.9.69-2.33,2.11-4.27,14.22-10.78,30.19-16.58,40.12-1.9-3.63-5.41-9.93-8.67-15.62-5-8.8-10-17.67-12.52-21.75a22.67,22.67,0,0,0-1.88-2.67,6.51,6.51,0,0,0-5.67-2.55c-6.85,0-17,6.15-17,11.88,0,1.95.54,3.4,2.56,6.85l0,.06c2.27,3.89,3.41,7.06,3.41,11,0,9.75-7.28,18.58-21.35,18.58-6.67,0-11.83-1.89-15.18-5.34-3.2-3.29-4.75-7.71-4.75-15.09V125.19a22.08,22.08,0,0,0,8.7,1.51h11.13c1.5,0,2-.6,2-2V112.82c0-1.36-.53-2-2-2H107.39V91.35a6.42,6.42,0,0,0-1.92-5.13c-1.93-1.76-5.92-2.62-10.62-2.62s-8.68.86-10.62,2.62a6.43,6.43,0,0,0-1.92,5.14Z"/><path class="cls-1" d="M41.73,102.21c7.85,0,12.7-5.57,12.7-12.6S49.59,77,41.73,77,29,82.59,29,89.61,33.88,102.21,41.73,102.21Z"/></g></svg>