<svg id="ZIZZI" xmlns="http://www.w3.org/2000/svg" viewBox="0 0 250 250"><defs><style>.cls-1{fill:#fff;}</style></defs><title>client_12</title><path class="cls-1" d="M220.79,139.82a58.57,58.57,0,0,1-2.9,12.46c-1.33,3.87-2.66,7.62-4.11,11.25-.61,1.45-1.57,2.9-2.3,4.48a125.28,125.28,0,0,1-7.38,13.07,90.17,90.17,0,0,1-6.9,8.35l-3.63,4c-1.21,1.21-2.78,2.18-4.11,3.39-2.78,2.42-5.45,4.84-8.35,6.9-.73.48-1.45,1.09-2.18,1.57a24.1,24.1,0,0,1-2.3,1.45c-1.45,1-3,2.06-4.6,2.9-.48.24-1.21.36-1.69.61-1.45.73-3,1.45-4.6,2.3-1,.48-2.18.85-3.15,1.45s-2.06,1.09-3,1.45a29.7,29.7,0,0,1-3.51,1,22,22,0,0,0-3.51,1c-2.3.61-4.6,1.45-7,2.06s-5.08,1-7.62,1.57a21.31,21.31,0,0,1-4,.36c-1.33.12-2.66.48-4,.48-2.78.12-5.69,0-8.59-.12s-5.69-.12-8.59-.48c-2.66-.36-5.57-1.09-8.47-1.69-1-.24-1.82-.73-2.9-1a68.23,68.23,0,0,1-8.47-2.54,119.33,119.33,0,0,1-15.49-6.66,43.3,43.3,0,0,1-4.72-2.54c-1.45-1-2.78-2.06-4.36-2.9s-2.78-2.06-4.24-3a51.83,51.83,0,0,1-4-3.51c-2.66-2.3-4.84-4.84-7.38-7.26a34,34,0,0,1-3.51-3.75c-2.06-2.78-3.87-5.81-5.93-8.71a22.48,22.48,0,0,1-1.33-2.3c-1.09-2.3-2.78-4.6-4.11-6.9a67.08,67.08,0,0,1-4.36-10.41,112.38,112.38,0,0,1-3.27-11.38,77.58,77.58,0,0,1-1.82-12.95c-.12-2.42-.24-4.72-.24-6.9s.24-4.48.36-6.9c.24-5,0-8.83,1-13.31.85-3.75,2.3-7.87,3.15-11.5a43.88,43.88,0,0,1,1.69-5.57c1.45-3.39,3.27-6.41,4.84-9.8.73-1.57,1.94-2.9,2.78-4.6.48-.85.61-1.69,1.09-2.42,3.51-4.72,6.9-9.68,11.13-13.8A147.81,147.81,0,0,1,65.29,48.81c.61-.48,1.33-1,2.06-1.57a21,21,0,0,1,1.82-1.57c1.21-.85,2.42-1.57,3.63-2.3s2.3-1.69,3.51-2.42c4.84-3.27,10.41-5.45,16.82-7.26,2.3-.61,4.48-1.33,7-2.06a14.83,14.83,0,0,1,2.3-.24c.85-.12,1.45-.73,2.3-1a13.48,13.48,0,0,0,2.06-.24,56.9,56.9,0,0,1,12.95-2.06H120c2.06-.12,4.84.12,7.26.12,4.84,0,9.44,1,13.8,1.45a31.67,31.67,0,0,1,6.05,1.57c1.09.24,2.18.36,3.27.61s1.94.73,2.9,1c1.94.73,3.75,1.45,5.69,2.06a72.07,72.07,0,0,1,10.77,4.6,25.6,25.6,0,0,1,2.42,1.45,25.6,25.6,0,0,1,2.42,1.45c2.42,1.45,4.6,3,7,4.6A74.59,74.59,0,0,1,196,59.46a87.8,87.8,0,0,1,6.78,8.59c.61.73,1,1.57,1.57,2.3s1.33,1.33,1.82,2.06c1.09,1.45,1.94,3.27,2.9,4.84,1.82,3.27,3.51,6.66,5.45,9.92s2.9,7.5,4.11,11.38a67.42,67.42,0,0,1,2.66,12.71c.24,2.42,0,5,.36,7.38C222.25,126.14,221.52,133,220.79,139.82Zm-5.2-17.55c-.24-3,.12-5.69-.12-8.47-.24-3.87-1.57-7.26-2.18-10.89-.36-1.57-1.09-3.27-1.57-4.84s-1-3.51-1.57-5.08c-1-2.66-2.54-5-3.63-7.75a46.19,46.19,0,0,0-3.75-7.75c-.48-.73-1.09-1.33-1.57-2.06-1.57-2.18-3-4.36-4.72-6.41-2.3-2.78-4.24-5.57-6.66-8s-5.32-4.48-8-6.78c-3.39-2.78-7.38-5.2-10.89-7.62-.73-.48-1.57-.85-2.3-1.33a112.84,112.84,0,0,0-15.49-6.78,75.85,75.85,0,0,0-24.45-4.36c-2.66,0-6.41.36-9.56.36A54.87,54.87,0,0,0,105.34,36c-2.3.61-4.48,1-6.66,1.57A59.12,59.12,0,0,0,92.88,40c-1,.48-2.06.73-2.9,1.09-3.75,1.82-7.38,3.75-10.89,5.57-.85.48-1.57,1.21-2.42,1.69-1.82,1-3.75,1.57-5.32,2.9a59.64,59.64,0,0,0-5.93,5.08c-1.45,1.45-2.66,2.9-4,4.24-.48.48-1.09.61-1.57,1.09-1.33,1.33-2.06,3.39-4,4.11-2.3,3-4.72,6.29-7,9.68A17.9,17.9,0,0,0,47.25,78c-1.45,2.66-3.39,5.2-4.72,7.87-.61,1.21-1,2.54-1.57,3.87a37,37,0,0,0-1.57,3.87,39.12,39.12,0,0,1-1.09,4.72l-1.45,4c-.85,2.78-1,6.05-1.57,9.32-1.09,6.29-1.94,12.95-.73,20.09.61,3.51.73,7,1.33,10.53a61.63,61.63,0,0,0,2.3,9.32c.48,1.45.85,3,1.33,4.48,2.54,7.14,5.69,14.16,9.8,19.36a13.34,13.34,0,0,0,2.42,3.39c.85,1.09,1.57,2.3,2.42,3.39,1.82,2.18,3.39,4.36,5.32,6.41,1.69,1.94,4.24,3.39,6.41,5.2,1.09.85,2.06,1.94,3,2.78A30.85,30.85,0,0,0,73.64,200c1.45.85,2.78,1.45,4.24,2.3,5.57,3.15,11.5,6.53,18,8.47,1.09.36,2.3.61,3.51,1,3.39.85,6.9,2.3,10.41,2.66,2.54.24,5.08.85,7.62,1.09a116.88,116.88,0,0,0,13.07.48,26.92,26.92,0,0,0,4.48-.12,27.44,27.44,0,0,0,3-.73c1.09-.24,2.3-.24,3.39-.48.73-.12,1.21-.61,1.82-.73s1.21,0,1.82-.12,1-.36,1.45-.48c2.06-.61,4-1.09,5.93-1.82a27.44,27.44,0,0,1,3-.73,38.52,38.52,0,0,0,7-2.78,52.61,52.61,0,0,0,6.29-3.51c1-.61,2.18-1.09,3.15-1.69s1.94-1.33,2.9-1.94c1.57-.85,2.9-2.06,4.36-2.9.48-.36,1.21-.48,1.57-.85.73-.48,1.45-1.33,2.18-1.94a38.86,38.86,0,0,0,6.66-5.81c.73-.73,1.21-1.57,1.94-2.3a41.69,41.69,0,0,0,6.66-8c.85-1.33,1.82-2.78,2.78-4.24a61.74,61.74,0,0,0,6.41-11.86c.85-2.3,2.06-4.24,2.9-6.29,1-2.66,1.82-5.32,2.66-8.11a70.84,70.84,0,0,0,1.82-9.08,14.07,14.07,0,0,0,.48-2.18c.12-1.45.12-3.15.24-4.72A97.24,97.24,0,0,0,215.59,122.27Zm-3.75,14.52c-.12,1.94-.48,3.87-.73,5.69-.61,5.08-2.3,9.32-3.87,13.43a72,72,0,0,1-4.48,9.2c-1.33,2.06-2.78,4.11-4,6.29A66.18,66.18,0,0,1,190.05,183a67.72,67.72,0,0,1-5,5.2c-.85.85-1.57,1.69-2.54,2.66s-1.94,1.45-2.66,2.3a51.45,51.45,0,0,1-5.69,4.48c-1.94,1.45-4.24,2.3-6.29,3.87-3.75,2.78-9.2,4.24-14.16,6.29a69.45,69.45,0,0,1-8,2.18A63.85,63.85,0,0,1,128,212.43c-3.27,0-6.53-.12-9.68-.36-1.69-.12-3.27,0-4.84-.24-2.66-.48-5.57-.85-8.47-1.57a9.86,9.86,0,0,0-3.75-.73,55.81,55.81,0,0,1-11.5-3.87,84.35,84.35,0,0,1-18.52-10.77,107.84,107.84,0,0,1-10.17-9.44c-3.27-3.27-5.81-7.14-8.47-11-1.45-1.94-2.54-3.87-3.87-6.05-2.3-4-5-8-6.53-12.95-.73-2.42-1.57-4.84-2.3-7.38a44.49,44.49,0,0,1-1.45-8.35c-.36-2.9-.85-5.81-1-8.71a112.51,112.51,0,0,1,1.82-26.74c1-5.32,3.39-9.8,5-14.52.36-1.09,1-2.3,1.45-3.39s1.09-2.18,1.57-3.27a66.6,66.6,0,0,1,9-13.19,11.41,11.41,0,0,1,1.21-1.21c2.42-2.3,4.6-5.08,7-7.5q2.54-2.54,5.08-4.72a85.58,85.58,0,0,1,11.74-7.75A27.71,27.71,0,0,1,84.53,47l3.27-1.45c.48-.24,1-.73,1.45-1s1.21-.36,1.82-.61c1.09-.48,2.18-1.09,3.27-1.57A70.09,70.09,0,0,1,102,40.34a23.51,23.51,0,0,1,4-.85c2.66-.36,5.32-1.21,8.23-1.45,1.45-.12,3-.48,4.48-.48,4.24-.24,8.47.36,12.71.61a78.35,78.35,0,0,1,23.11,4.6c1.69.61,3.27,1.33,5,2.06s3.27,1.33,4.84,2.06c2.9,1.57,5.69,3.63,8.47,5.45S178.32,56.07,181,58s4.72,4.6,7.14,6.78,4.36,5,6.53,7.38a21.55,21.55,0,0,1,3,4c4.48,7,8.71,14.4,11.38,23.48.48,1.69,1,3.63,1.45,5.57a24.79,24.79,0,0,1,.61,2.9c.12,1,.36,1.94.48,2.9.24,2.3.24,4.48.36,6.66s.48,4.36.48,6.41c0,2.3-.12,4.48-.24,6.78C212.44,132.56,212,134.61,211.84,136.79ZM209.18,115c-.12-.48-.36-1.09-.48-1.57s-.12-1.33-.24-1.94a103.42,103.42,0,0,0-2.66-13.55c-.85-2.78-2.06-4.72-3-7.14a88.68,88.68,0,0,0-4.6-9c-1.69-2.78-3.27-5.81-5.45-8.11-1.09-1.21-1.82-2.66-2.9-3.87s-2.54-2.06-3.27-3.63c-2.06-1.33-3.51-3.39-5.45-5s-3.75-3-5.93-4.48c-3.15-2.06-6.17-4.24-9.56-6.05-1.09-.61-2.18-1.45-3.27-2.06s-2.3-1-3.51-1.57a23.53,23.53,0,0,0-3.63-1.57c-1.21-.48-2.54-1-3.87-1.45a43.43,43.43,0,0,0-4.24-1,61.78,61.78,0,0,0-8.47-1.94c-1.45-.24-3-.24-4.6-.36a51.18,51.18,0,0,0-8.47-.48,114.77,114.77,0,0,0-20.94,2.06q-4.72,1.09-9.08,2.54a32,32,0,0,0-8.71,4,27.93,27.93,0,0,1-3.39,2.3C77,54.86,70.85,58.86,65.89,63.82a63.57,63.57,0,0,0-7.26,7.87,89.39,89.39,0,0,0-9.08,13.67A85.24,85.24,0,0,0,45.08,96c-1.94,5.45-4.48,11.13-4.6,17.79-.12,2.3-.61,4.48-.73,6.78-.12,2.66-.24,5.45-.24,8,0,3.51.85,7,1.21,10.41a26.64,26.64,0,0,0,.85,4.48c.36,1.69.73,3.27,1.09,4.84s1,3,1.45,4.48c1,2.9,2.42,5.69,3.51,8.35.61,1.45,1.45,2.54,2.06,3.87.24.48.36,1.09.61,1.57a14.68,14.68,0,0,0,1.21,1.69c1.09,1.82,2.18,3.87,3.27,5.45,2.06,2.78,4.72,5.45,7.14,8.35a38.64,38.64,0,0,0,3.75,4,38.94,38.94,0,0,0,3.87,3.87,72.3,72.3,0,0,0,9.08,6.53,45.73,45.73,0,0,0,7.62,4c1,.36,1.69,1,2.66,1.33s1.82.48,2.66.85A21.29,21.29,0,0,0,94,203.71c3.63,1.09,7.26,2.42,10.89,3.27,1.94.36,3.87.85,5.93,1.21a73.68,73.68,0,0,0,18.64,1.45c2.06-.12,4.24-.24,6.17-.48.48,0,1-.36,1.45-.36s1.33,0,1.94-.12c2.54-.48,4.84-1.57,7.38-2.18,1.69-.36,3.39-.61,5-1.09s3-1.09,4.6-1.45c3.15-1.94,6.9-2.9,9.8-4.6a15.43,15.43,0,0,0,1.45-.85c.48-.36.73-.85,1.21-1.21s1.33-.61,1.94-1.09c6.41-5,13.43-9.32,18.27-15.73,1.33-1.82,2.78-3.51,4-5.2.48-.61,1.21-1.09,1.45-1.57a15.75,15.75,0,0,1,1-2.06,18.22,18.22,0,0,0,1.21-2.06c.85-1.33,1.82-2.54,2.54-3.87,1.45-2.78,2.54-5.81,4.24-8.59,1.33-4.11,2.9-8.47,4.11-13.19a67.94,67.94,0,0,0,1.09-7.62,60.64,60.64,0,0,0,1-7.87A49.93,49.93,0,0,0,209.18,115Zm-27-41.15-.36.24c-.12.12-.24.12-.36.24l-.12.12c-1.09.73-1.69,1-2.3,1.45h0l-.36.24c-.24.12-.36.24-.61.36h-.24l-.12.12c-.12,0-.12,0-.12.12a.12.12,0,0,1-.12.12l-.24.12a1.33,1.33,0,0,0-.73.36,17.14,17.14,0,0,1-2.18,1l-4,4.11-.12.12-.24.24c0,.12-.12.12-.24.24l-1.21,1.21-.12.12-.24.24c-.24.12-.36.24-.48.24a.44.44,0,0,1-.36.12c-.24,0-.36-.12-.61-.24l-.24-.12c-.12-.12-.12-.12-.24-.12l-.24-.36c-.48-.73-.36-1.09-.12-1.21l4.36-4.48.61-.61c.24-.12.24-.24.36-.24l1.09-1.09.24-.73a.93.93,0,0,1,.24-.36.12.12,0,0,1,.12-.12l.73-1.69c1-2.06,2.06-4,3-5.81l.12-.12.48-.24c.36,0,.61.12,1.21.73.36.24.85.85.61,1.33a.37.37,0,0,0-.12.24l-.24.48c-.12.12-.12.24-.24.36a2.43,2.43,0,0,1-.48,1L176.5,74.1l-.36.73.24-.12a7.17,7.17,0,0,1,.73-.48s.36-.24.85-.61L180,72.17c.12-.12.12-.12.24-.12l.24-.12a.12.12,0,0,0,.12-.12c0-.12.12-.12.24-.24l.24-.12c.36-.12.73.12,1.09.48a2.64,2.64,0,0,1,.61.48l.12.12c.24.24.36.36.36.61l-.12.36C182.91,73.38,182.55,73.62,182.19,73.86ZM171.54,65l-.36.48c-.48.73-1.09,1.45-1.57,2.18a3.31,3.31,0,0,1-.48.61,1.67,1.67,0,0,0-.36.48l-.24.36-4.36,6.05a12.67,12.67,0,0,1-1,1.33l-.48.61.48.36a8.25,8.25,0,0,0,.85.61l.48.36c.48.36.73.48.85.61l.12.12c.24.12.36.48.12,1-.12.12-.12.24-.24.36l-.12.24c-.12.12-.12.24-.24.36l-.36.61-.73.12V82h-.12c-.12,0-.12,0-.12-.12l-.24-.24.36-.48h0l-.36.36-.24-.12c-.12,0-.12-.12-.24-.12l-.12-.12q-.36-.18-.36-.36a7.63,7.63,0,0,1-1.21-.85l-.36-.36c-.24-.12-.48-.36-.85-.61-.12,0-.12-.12-.24-.12l-.24-.24c-.24-.12-.61-.48-.48-.85l.24-.48.36-.61.12-.12V76.4l.12-.12c.12-.24.24-.24.24-.24s.12-.24.24-.36l.12-.12c.12-.12.12-.24.36-.36l.48-.73c.24-.24,1.09-1.45,1.94-2.66l.48-.61a17.8,17.8,0,0,1,1.57-2.06l.36-.48c.12-.24.24-.24.24-.36l.12-.12.36-.36.48-.73.36-.36c0-.12.12-.12.12-.24l.12-.12.24-.36.24-.24.12-.24c.12-.12.24-.36.48-.61a7.9,7.9,0,0,1,.85-1l.73-.85a1.67,1.67,0,0,0,.36-.48l.12-.12a1.31,1.31,0,0,1,.61-.48h.12a.92.92,0,0,1,.48.24l.61.48a.82.82,0,0,1,.48.73,1,1,0,0,1-.36.73A1.93,1.93,0,0,0,171.54,65Zm-9.2-5.93-.24.48a22.48,22.48,0,0,1-1.33,2.3,1.87,1.87,0,0,0-.36.73c-.12.12-.12.36-.24.48l-.12.36-3.51,6.66a16.21,16.21,0,0,1-.73,1.45l-.36.61.48.24a2.89,2.89,0,0,0,.85.36l.61.36a6.73,6.73,0,0,1,1,.48l.12.12c.24.12.48.36.24,1,0,.12-.12.24-.12.36l-.12.24c-.12.12-.12.24-.24.36l-.36.61-.73.24h-.24l-.61-.36c-.12,0-.12,0-.24-.12l-.12-.12c-.24-.12-.36-.12-.48-.24l-1.21-.61c-.12-.12-.24-.12-.36-.24a6.94,6.94,0,0,1-.85-.48.37.37,0,0,0-.24-.12l-.36-.12c-.24-.12-.61-.36-.61-.73l.12-.48.24-.61a.12.12,0,0,1,.12-.12v-.24c.12-.24.12-.24.12-.36s.12-.24.24-.48l.12-.12c.12-.12.12-.24.24-.36l.36-.73c.12-.36.85-1.57,1.57-2.9l.24-.48c.61-1,1-1.82,1.33-2.42l.24-.48a.93.93,0,0,1,.24-.36l.12-.24c.12-.12.24-.24.24-.36l.36-.73c.12-.12.12-.24.24-.36a.42.42,0,0,1,.12-.24l.12-.24.24-.36c.12-.12.12-.12.12-.24l.12-.24c.12-.12.12-.36.36-.73s.61-1,.73-1.09l.61-1c.12-.12.12-.24.24-.48l.12-.12c.12-.24.24-.48.61-.48h.12a5.24,5.24,0,0,0,.61.12l.73.36c.24.12.61.36.61.73s-.12.48-.24.73C162.83,58.25,162.58,58.74,162.34,59.1Zm-7.75-4.6v.36a.91.91,0,0,0-.12.48l-.24,1.09a4.28,4.28,0,0,0-.12.73v.48l-.73,3.27h0V61a.44.44,0,0,1-.12.36,7.71,7.71,0,0,1-.24.85l-.24,1.33-.61,2.3c-.12.36-.12.73-.24,1l-.12.24a9.86,9.86,0,0,1-.24,1.09l-.24,1.09c0,.24-.12.48-.12.73l-.12.85c0,.12-.12.24-.12.36l-.12.36a.44.44,0,0,1-.12.36V72c0,.12-.24.36-.61.36h-.36l-.24-.12c-.12,0-.24,0-.24-.12L149,72c-.12,0-.12,0-.24-.12s-.61-.24-.73-.61v-.24a.44.44,0,0,1,.12-.36l.12-.61c.12-.48.24-1.09.36-1.57v-.12a.37.37,0,0,1,.12-.24.91.91,0,0,0,.12-.48c.12-.48.24-.85.24-.85a.37.37,0,0,0,.12-.24l.12-.61a.12.12,0,0,1-.12-.12l-.48-.12c-.12,0-.24,0-.24-.12a8.34,8.34,0,0,0-1-.36l-.12.24c-.24.36-.24.48-.36.48l-.12.12c0,.12-.12.12-.12.24l-.12.24a.42.42,0,0,1-.12.24c0,.12-.12.24-.24.36l-.12.24a.44.44,0,0,0-.12.36,1.86,1.86,0,0,0-.36.85c-.48,1-.61,1.21-.73,1.21a1.43,1.43,0,0,1-1,.12,2.51,2.51,0,0,1-.73-.24c-.61-.24-.73-.61-.73-.85l.24-.48a.37.37,0,0,1,.12-.24c0-.12.12-.24.24-.36l.61-1.09c.12-.24.12-.36.24-.48a2,2,0,0,1,.48-.85l.85-1.69a1.87,1.87,0,0,0,.36-.73c0-.12,0-.12.12-.24s.12-.24.12-.36v-.12l.48-1a2,2,0,0,0,.24-.61l1.21-2.42a9.12,9.12,0,0,0,.73-1.57,5.9,5.9,0,0,1,.36-.85l1-1.94c.12-.12.12-.24.24-.36s.12-.24.24-.36,0-.12.12-.24.12-.36.36-.48l.24-.36a7.17,7.17,0,0,1,.48-.73c.24-.36.61-.36,1.21-.12l.61.24a.94.94,0,0,0,.36.12l.12.12c.61.36.85.61.85,1v.61A3.66,3.66,0,0,0,154.6,54.5ZM151,57.65l-1.09,2.3a7.13,7.13,0,0,1-.48,1,2,2,0,0,0-.24.61l-.12.24a2,2,0,0,1-.24.61l-.12.24c-.12.12-.12.36-.24.48l.24.12h0a.94.94,0,0,1,.36.12l.73.24.24-.85v-.24l.24-.85c.12-.36.12-.73.24-1.09,0-.12.12-.24.12-.36s.12-.24.12-.36,0-.12.12-.36l.12-.36c0-.12,0-.12.12-.24l.12-.48a1.22,1.22,0,0,1,.12-.36,1.62,1.62,0,0,1,.12-.61V57h0A1.21,1.21,0,0,0,151,57.65Zm-6.29-5.32a2.36,2.36,0,0,0-.12.85l-.36,1.21c0,.12-.12.61-.24,1.21V56l-.12.48a.44.44,0,0,1-.12.36l-1.09,4.6a.91.91,0,0,1-.12.48l-.24,1c0,.12-.12.24-.12.36l-.24.85a10.15,10.15,0,0,1-1,2.54,7.41,7.41,0,0,1-.48.73l-.61.61c-.12.12-.24.24-.36.24s0,0,0,0a2.56,2.56,0,0,1-1.21.48h-.48a2.06,2.06,0,0,1-.85-.12,4.1,4.1,0,0,1-1-.36,2.53,2.53,0,0,1-.73-.48,2.31,2.31,0,0,1-.61-1.21,6.92,6.92,0,0,1-.12-1.69,34.77,34.77,0,0,1,.61-5.08L137.17,50v-.36h0c0-.12,0-.24.12-.24v-.36c.12-.61.73-.61,1.09-.61l.48.12a.92.92,0,0,1,.48.24c.61.12.73.61.61.85a2.12,2.12,0,0,1-.12.61h0l-.61-.12h0l.61.12a10.48,10.48,0,0,0-.24,1.21l-.24,1.21c0,.24-.12.48-.12.73l-.24,1v.48l-.48,2.06v.24l-.24,1a11.42,11.42,0,0,1-.36,1.94v.24c-.12.61-.24,1.09-.36,1.57l-.12.73v.73l-.12.36v.24a5.4,5.4,0,0,0,0,1.57l.24.24c.36.12.61.12,1.09-.36a1.54,1.54,0,0,0,.48-.73l.12-.24c.12-.36.24-.85.36-1.21l.61-2.42a5.24,5.24,0,0,1,.12-.61l1.33-5.81c.12-.61.24-1.21.36-1.69l.48-1.82c0-.24,0-.36.12-.48l.12-.24.24-.36c.12-.12.36-.12.73-.12l.73.24h.36a.65.65,0,0,1,.48.36l.12.24v.85ZM138.62,75.8c1.21.36,2.18.73,3.27,1.09.48.12.85.36,1.33.48,3.87,1.21,7.75,3.51,12.22,7a32,32,0,0,1,4.72,4.36,3.26,3.26,0,0,0,1,.85,9.24,9.24,0,0,1,1.09,1.09v.12a20.84,20.84,0,0,1,3,4.48,3.77,3.77,0,0,1,.85,1.09l.12.12a1.21,1.21,0,0,0,.48.61c.48.73.61,1.21.48,1.57a.82.82,0,0,1-.73.36h-.24c-1.09,0-1.69-.73-2.78-2.06a3.21,3.21,0,0,0-.61-.73h0l-.12-.12V96A55.65,55.65,0,0,0,145.4,81c-1.33-.36-2.54-1-3.87-1.45a33.56,33.56,0,0,0-3.15-1.21,1.53,1.53,0,0,0-.73-.12c-.24,0-.61-.12-.85-.12A28.36,28.36,0,0,0,131,76.77c-.36,0-.73-.12-1.21-.12a5,5,0,0,1-1.33-.12c-.24,0-.36-.12-.61-.12a10.66,10.66,0,0,0-2.06-.24h-2.54a44.44,44.44,0,0,0-12.83,1.94,22.93,22.93,0,0,0-2.54,1.09c-.48.24-.85.48-1.33.73C99.17,83.3,93.85,86.81,89.73,91a25.3,25.3,0,0,0-2.78,3.51c-.73,1-1.45,1.94-2.18,2.78l-.12.12h-.12a4,4,0,0,0-1.21,0,4,4,0,0,1-1.21,0l-.36-.12L82,97A43.9,43.9,0,0,1,95.06,83.06a7.72,7.72,0,0,1,1.69-1l1.09-.73c1.45-.85,2.9-1.69,4.48-2.54,1.21-.61,2.54-1.33,3.87-2.06h.24a1.72,1.72,0,0,0,.73-.24,1.3,1.3,0,0,1,1-.24c3.15-1.57,7.38-2.54,13.19-3a31.1,31.1,0,0,1,5.69.24l1,.12a33.17,33.17,0,0,1,3.39.61c.73.12,1.57.36,2.3.48a23.33,23.33,0,0,1,4.6,1.09Zm-6.29-22.15V59.7L132.21,61a17.27,17.27,0,0,1-.61,4,4.89,4.89,0,0,1-1.21,2.06,3.87,3.87,0,0,1-1.69.36h-.61a1.53,1.53,0,0,1-.73-.12h-.61a.44.44,0,0,1-.36-.12c-.36-.12-.61-.12-.73-.24l-.12-.24a9.1,9.1,0,0,1,0-2.78c0-.85.12-1.94.12-3.15v-2.3a20.84,20.84,0,0,1,.12-2.42l.12-1.09V54c0-.36.12-.73.12-1.09l.12-1.09V50.75a1.32,1.32,0,0,1,.12-.61v-2.3a.91.91,0,0,1,.12-.61c0-.24.36-.48.85-.48h1.21a.44.44,0,0,1,.36.12,5.24,5.24,0,0,1,.61.12h.24a4.76,4.76,0,0,0,.73.24l.24.12a.42.42,0,0,0,.24.12c.12,0,.24.12.36.24l.48.61.12.24a1.72,1.72,0,0,1,.24.73,5.24,5.24,0,0,1,.12.61,13.15,13.15,0,0,1,.12,2.18v1.57Zm-4.84,9Zm2.06-12.34a1.86,1.86,0,0,0-.85-.36v.36l-.12,1.21v2.3a4.17,4.17,0,0,1-.12,1.09v.61c-.12,2.54-.24,4.36-.24,5.45l-.12,1.69H128l.12.12v1.94h.12c.12,0,.24,0,.36-.24a1.7,1.7,0,0,0,.48-.48v-.12h0a.91.91,0,0,1,.12-.48v-.24c.12-.73.12-1.21.24-2.18V59.34l.12-1.69c.12-1,.12-1.82.24-2.66s.12-1.82.12-2.54A5.72,5.72,0,0,0,129.55,50.26Zm-7,17.18a9,9,0,0,0-1.33.12,2.08,2.08,0,0,0-1,.12l-1.45.12h-.85l-.36-.24a2.11,2.11,0,0,1-.48-1.82,1.22,1.22,0,0,1,.61-1,5.49,5.49,0,0,1,1-.24V62l-.36-8.71V52l-.12-1.82c-1,.12-1.33,0-1.69-.48a2.64,2.64,0,0,1-.24-1.82l.73-.48a9.64,9.64,0,0,1,1.33-.12,2.66,2.66,0,0,0,1-.12h.36a1.32,1.32,0,0,0,.61-.12,6.82,6.82,0,0,0,.85-.12,3.73,3.73,0,0,1,1.21.12,1.85,1.85,0,0,1,.61.85,1.71,1.71,0,0,1-.12,1.09c-.24.36-.73.61-1.69.85l.12,3.15V57c0,.48,0,.73.12.85V59l.12,2.66v2.78c.85.12,1.45.36,1.57,1.33a3.43,3.43,0,0,1-.12,1.45Zm-9.56,0a1.09,1.09,0,0,1-.12.61h0v.24a1,1,0,0,1-.73.36h-.73l-1,.24h-.36a.86.86,0,0,1-.73-.36l-.12-.12c0-.12-.12-.36-.24-.85a3.53,3.53,0,0,1-.24-1.09l-.36-1.09a5.49,5.49,0,0,1-.24-1,5.63,5.63,0,0,1-.36-1.09,15.42,15.42,0,0,1-.48-1.69,8.34,8.34,0,0,0-.36-1l-1.21-4.24-.36-1.09V55.1a7.83,7.83,0,0,0-.36-1.21l-1.09-3.51c-.12-.61.36-.85.73-1a3.08,3.08,0,0,1,.85-.24c.85-.12,1.09.12,1.21.36s.48,1.33.85,2.66a1.25,1.25,0,0,1,.12.48.73.73,0,0,1,.12.48c0,.24.12.36.12.48a1.32,1.32,0,0,1,.12.61,5.24,5.24,0,0,1,.12.61l.24.61,1.45,5a3.74,3.74,0,0,1,.24,1c0,.12,0,.12.12.24,0-1.21-.12-3.27-.36-6.53-.24-3.75-.24-5.93-.24-6.29,0-.12,0-.61.85-.85h.24c.12,0,.24-.12.48-.12a1.3,1.3,0,0,1,1,.24v.48h.12v.36l.12,2.3a13.86,13.86,0,0,0,.12,1.82V55a4.12,4.12,0,0,0,.12,1.21v.61l.24,8.11a8.74,8.74,0,0,1,0,1.82ZM104.13,67l.24.73h0a.42.42,0,0,0,.24-.12,5.33,5.33,0,0,1,1.21-.24c.48.12.85.48.85.73a1.18,1.18,0,0,1,.12,1.09c-.24.48-.73,1-2.9,1.82l-.61.24a7,7,0,0,1-2.06.61.92.92,0,0,1-.61-.24A2.16,2.16,0,0,1,99.78,70l.61-.73s.61-.24,1.09-.48l-.24-.73c0-.12-.12-.24-.12-.36l-.24-.61a4.39,4.39,0,0,0-.36-.85l-3-7.75c-.24-.48-.36-1-.48-1.21L96.51,56a5.09,5.09,0,0,0-.61.24h-.48a2,2,0,0,1-1.21-1.45,1.09,1.09,0,0,1,.24-1.09,3.86,3.86,0,0,1,1.33-.73L97,52.32c1.57-.73,2.54-1,3.27,0,.48.73.48,1.21.36,1.33l-.48.61-.61.48,1,2.54a2.79,2.79,0,0,1,.36,1.09,5.9,5.9,0,0,1,.36.85l.48,1.09a.44.44,0,0,1,.12.36,3.15,3.15,0,0,1,.36.85l.24.73c0,.12.12.24.12.36l1,2.42a1.72,1.72,0,0,1,.24.73l.36,1Zm-7.26.24L97.6,69a7.1,7.1,0,0,1,.48,2.66,3.74,3.74,0,0,1-.24,1A3.38,3.38,0,0,1,96.51,74L96,74.1c-.12,0-.24.12-.36.24s-.36.24-.48.24a2,2,0,0,1-.61.24c-.12,0-.24.12-.36.12l-.24.12-.73-.24-1.33-2.66a.42.42,0,0,0-.12-.24c-.12-.12-.12-.12-.12-.24l-.12-.24-.12-.24-2.18-4.36c0-.12,0-.12-.12-.12a2,2,0,0,1-.36-.73l-2.42-4.84a.44.44,0,0,1-.12-.36v-.12c-.12-.12-.24-.48-.48-.85l-.48-1a1.12,1.12,0,0,1-.12-.85,3.21,3.21,0,0,1,.61-.73l.48-.36c.36-.24.48-.36.61-.36l.36-.24a.42.42,0,0,0,.24-.12,2.75,2.75,0,0,1,2.3-.36.92.92,0,0,1,.61.24,2.78,2.78,0,0,1,1,.85l.12.12a.42.42,0,0,1,.12.24c.24.36.24.48.24.48.36.61,1.09,1.82,2.3,4a.44.44,0,0,1,.12.36A41.55,41.55,0,0,1,96.87,67.21Zm-2.54.85a14.2,14.2,0,0,0-.61-1.33l-.61-1.09c-.12-.24-.12-.36-.24-.48L92.76,65a.42.42,0,0,1-.12-.24l-1.09-2.06a2.65,2.65,0,0,0-.36-.61A5.31,5.31,0,0,0,90.58,61c-.12-.12-.12-.12-.12-.24l-.24-.48a3.73,3.73,0,0,0-1-1.33s-.24-.12-.73.12l-.24.12.61,1.21c0,.12.12.12.12.36v.12l3,6.17a.12.12,0,0,0,.12.12l.12.12L93,68.9a.37.37,0,0,0,.12.24l.24.36a.94.94,0,0,1,.12.36l.61,1.21a2.65,2.65,0,0,0,.36.61h0l.12.24.24-.12h-.36a1.41,1.41,0,0,0,.73-.73,2.28,2.28,0,0,0-.24-1.45.53.53,0,0,1-.12-.36.42.42,0,0,0-.12-.24C94.69,68.9,94.45,68.54,94.33,68.05ZM87.43,70a1.5,1.5,0,0,0,.24.36l1,1.33a1.11,1.11,0,0,1,.36.61c.36.48.73,1,1.33,1.69a19.06,19.06,0,0,1,1.21,1.57l.12.24.12.36c.12.12.12.48-.24.85-.12,0-.12.12-.36.24h-.12l-.36.36A1.8,1.8,0,0,1,89,78.1a18.18,18.18,0,0,1-2.42-1.69,22.24,22.24,0,0,0-2.3-1.82C84,74.35,83.56,74,83,73.38a2.12,2.12,0,0,1-.61-.48h0c-.12-.12-.24-.12-.36-.24l1.21,1.57c.61.85,1.09,1.45,1.33,1.82a4.61,4.61,0,0,0,.61.73l.73,1a.12.12,0,0,0,.12.12c.12.12.12.12.12.24l.12.12.73,1c.12.12.24.48-.24,1-.12.12-.24.36-.36.36a.42.42,0,0,1-.24.12l-.36.24a1.09,1.09,0,0,1-.61.12.44.44,0,0,1-.36-.12c-.12,0-.12-.12-.24-.24v-.12a.37.37,0,0,1,.24.12l-.24-.12-.12-.36v.24l-.24-.24L84,80c-.24-.36-.61-.73-.85-1.09a1.67,1.67,0,0,0-.36-.48l-.24-.24-.24-.48c-.24-.48-.73-1.09-1.21-1.82L79.08,73a7.17,7.17,0,0,1-.48-.73l-.36-.48a4.61,4.61,0,0,1-.61-.73,11.16,11.16,0,0,1-.61-1L75.69,68.3c-.61-.85-1.09-1.45-1.45-2.06l-.48-.61a.42.42,0,0,1-.12-.24v-.73l.48-.24a2.12,2.12,0,0,1,.61-.48,1.41,1.41,0,0,1,1.57-.36,8.21,8.21,0,0,1,1.09.73c3.27,3.15,5.2,5,6.05,5.69l.73.73.12.12.36.36.85.73c-.24-.36-.48-.61-.61-.85l-.36-.48c-.12-.12-.24-.36-.36-.36l-.36-.61a.92.92,0,0,1-.24-.48h-.12l-.24-.24-.36-.48a1.67,1.67,0,0,1-.36-.48c-.12-.24-.36-.36-.36-.48l-.24-.36a4.61,4.61,0,0,1-.61-.73c-.24-.36-.48-.61-.61-.85a11.72,11.72,0,0,1-.85-1.09l-.36-.36c-.24-.24-.36-.48-.48-.61-.24-.36-.48-.61-.73-1l-.12-.24a.72.72,0,0,1,.36-1l.24-.24.24-.24.24-.12a.89.89,0,0,1,.73-.12h0l.61.12.36.48c.12.24.24.36.36.61a.42.42,0,0,1,.12.24,2.12,2.12,0,0,0,.48.61,4.61,4.61,0,0,0,.61.73c.12.12.12.24.36.36l.48.61c.12.12.24.36.36.48l.48.73c.48.61,1.09,1.45,1.94,2.54ZM75.09,76.28c.12.12.24.24.36.24a3.73,3.73,0,0,0,.73.73l.48.61.24.24L78.72,80c.24.24.36.48.48.48l.73.73c0,.12.12.12.24.24l.12.12a1.55,1.55,0,0,1,2.18-.36c.73.48.85,1,.85,1.21l-.12.61L82,84.39a.26.26,0,0,1-.24.24l-1.21,1.45a2.09,2.09,0,0,1-.61.61l-.48.12h-.12A2,2,0,0,1,77.75,86a1.16,1.16,0,0,1-.24-1.21,2.79,2.79,0,0,1,.61-.85l-.24-.24c0,.12-.12.12-.24-.12l-.48-.48c-.12-.24-.36-.36-.61-.61l-5.93-6.17a5.29,5.29,0,0,1-.85-1L68.55,74l-.12.12a2.86,2.86,0,0,1-1.09.73,1,1,0,0,1-1-.24,1.1,1.1,0,0,1-.48-1c0-.61.36-1.21,2.06-2.9l.36-.36h0c1.33-1.33,1.82-1.69,2.42-1.45a2.51,2.51,0,0,1,1.33,1.21.94.94,0,0,1-.24,1,6.54,6.54,0,0,1-1,1l1.94,2.06a5.21,5.21,0,0,0,.85.85,4.61,4.61,0,0,1,.61.73ZM72.67,179c.36.24.61.48,1,.73l.85-1c.73-.85,1.33-1.69,2.06-2.54a12.86,12.86,0,0,0,1.09-1.33c1-1.21,2.06-2.78,3-3.87a12.82,12.82,0,0,1,1.21-1.45c-.24-.12-.61-.48-1-.73l1.21-1.45,1.33-1.69c3.63,2.78,6.17,5.08,6.41,5l-.36.36c-1.09,1.33-1.21,1.57-2.18,2.9l-.85-.61-2.18,2.54c-1.45,1.69-3.15,3.63-4.6,5.45a22.09,22.09,0,0,0-1.57,1.94c.48.36.73.61.85.48l-.36.36a21.4,21.4,0,0,0-1.94,2.66s-5.08-4.24-5.45-4.36a3.86,3.86,0,0,1-.85-.73l1-1.09Zm14,9.92,1.45.73a16.2,16.2,0,0,0,.73-1.45c1.09-2.18,2.42-5.08,4.24-9a3.29,3.29,0,0,0-1.45-.85,6.94,6.94,0,0,0-.48.85,6.05,6.05,0,0,1-.85-.61,21.84,21.84,0,0,1-2.06-1.09.92.92,0,0,0,.24-.48,27,27,0,0,0,2.3-4.6c.73.36,1.33.61,2.42,1.09a7.19,7.19,0,0,1,1,.48l1.45.73,1.45.73a45.4,45.4,0,0,1,5.32,2.9c1.21.61,1.57,1,2.06,1.21a.92.92,0,0,0-.24.48,27,27,0,0,0-2.3,4.6c-.73-.36-1.45-.61-2.66-1.21l-.48-.24.48-1.09c-.48-.24-1.21-.61-1.21-.48a7,7,0,0,0-.85,1.45C96.51,184.47,95.3,187,93,192c.12,0,.12,0,.24.12.48.24,1.33.61,1.33.61l-.24.48A24.56,24.56,0,0,0,93,196.33l-2.06-1.09L85,192.34l.73-1.33Zm13.67,6.9a4.49,4.49,0,0,0,1.09.24c1.57-3.75,3.27-8,5.69-12.71-.61-.12-1.09-.24-1.09-.24.12-.48.24-1,.48-2.3a2.27,2.27,0,0,1,.48-1.21l2.3.61c.24.12.61.12,1.21.36l.73.12c.85.24,1.33.24,4.11,1l-.12.61a22.26,22.26,0,0,1-.73,2.78,3.74,3.74,0,0,1-1-.24v7l-.24,6.9a3.89,3.89,0,0,1,1,.12c-.12.73-.24,1.45-.36,2.3a3.35,3.35,0,0,0-.12,1.09c-2.06-.36-5-1.21-6.41-1.45h-.12l.12-.48c.12-.73.24-1,.24-1.21.12-.73,0-.85.36-1.45a.91.91,0,0,0,.48.12,5,5,0,0,0-.12-1.45c-.61-.12-.48-.12-1-.24-.24.36-.36.85-.61,1.21.12,0,.36.12.48.12-.12.48-.24,1-.48,2.3a1.83,1.83,0,0,1-.48,1.09c-.48-.12-1-.36-1.45-.48a11.2,11.2,0,0,1-1.21-.36l-.73-.12c-.85-.24-.48-.12-3.15-.73l.12-.48A25,25,0,0,1,100.38,195.85Zm8.71-3.15c.48-4.11.73-5.69.73-5.69v-.24c-.12,0-.36,1.69-1.21,3.87l-.73,1.82Zm17.18-10.77v.48a31.65,31.65,0,0,0,0,3.39h-1.69c0,1.69.12,3.51.12,5.2s.12,3.39.12,5.08v1.82h3.27c0-1.45,0-2.42-.24-2.54h.48c1.69,0,2.06-.12,3.75-.24v.24c0,.24.24,6.66.24,7.14h-2.54c-.85,0-2.42.12-5.2.12h-6.29v-2.06l-.12-1.94h1.21V192.7c0-1.82-.12-3.39-.12-5.32v-1.45H118v-3.87C122.65,182.05,126.28,182.17,126.28,181.93ZM140.2,180l.12.48c.36,1.57.36,1.94.85,3.51l-1,.24c.24,1.09.36,2.3.61,3.39.36,2.18.85,4.72,1.33,7,.12.85.36,1.69.48,2.42.61-.12,1-.24,1-.36l.12.48c.36,1.57.36,1.45.85,3.15,0,0-6.53,1.33-6.78,1.45a6.14,6.14,0,0,0-1.09.24l-.24-1.45-.48-2.06c.36-.12.73-.12,1.09-.24l-.24-1.33c-.24-1.09-.48-2.18-.73-3.15-.12-.48-.24-1.09-.36-1.57-.36-1.45-.73-3.39-1.09-4.84l-.36-1.82a10.48,10.48,0,0,1-1.21.24l-.36-1.82-.48-2.06C136.69,180.84,140.2,180.24,140.2,180Zm3.51-.73a16.16,16.16,0,0,0,2.18-.85c.24-.12.61-.24,1.21-.48l.61-.24c.73-.36,1.33-.61,3.87-1.57l.24.48c.48,1.21.73,1.94,1.09,2.66a8.34,8.34,0,0,1-1,.36c1.57,2.18,3.27,4.72,4.11,5.69l3.75,5.81c.24-.12.36-.24.85-.48.36.61.73,1.33,1.09,2.06.24.48.24.61.48.85-1.94.85-4.72,1.94-6.05,2.54H156l-.24-.36c-.24-.61-.36-.85-.48-1.21-.24-.73-.48-.73-.61-1.45.24,0,.36-.12.48-.12a4.39,4.39,0,0,0-1-1.09c-.48.24-.48.12-1,.36a5.15,5.15,0,0,0,.24,1.33c.12-.12.36-.12.48-.24.24.36.36.85,1,2.18.24.61.36.85.24,1.21-.48.12-1,.36-1.45.48-.24.12-.61.24-1.21.48l-.61.24a24.71,24.71,0,0,1-3,1.33l-.12-.36c-.48-1.21-.73-1.94-1-2.66a4.1,4.1,0,0,0,1-.36A132.4,132.4,0,0,1,146,182.29a5.77,5.77,0,0,0-1,.48c-.24-.36-.36-.85-1-2.18C143.71,180,143.58,179.63,143.71,179.27Zm7.5,8,.48,1.82,1.09-.48C150.85,185,150,183.5,150,183.5l-.12-.24C149.88,183.38,150.6,185,151.21,187.26Zm-.48-21.54a10.58,10.58,0,0,1,1.21-1l.24-.24a14.28,14.28,0,0,0,2.18-1.57c1.57-1.33,2.9-2.78,4.36-4.24h0a11.41,11.41,0,0,1,1.21-1.21c1.09-1.09,2.06-2.18,3-3.27.61-.85,1.33-1.69,1.94-2.54a22.26,22.26,0,0,1,2.06-2.66l.12-.12.24.12c.12.12.48.12.85.12a3.35,3.35,0,0,1,1.09.12l.24.12-.12.24A28.38,28.38,0,0,1,165,156c-.24.36-.48.61-.73,1l-.73,1.09-.85.85a3.68,3.68,0,0,0-1,1,28.52,28.52,0,0,1-4.84,4.6c-.24.12-.48.36-.73.48s-.61.48-1,.73l-2.9,2.18c-.61.36-1.09.73-1.69,1.09a30.23,30.23,0,0,1-9.08,4.48A50.37,50.37,0,0,1,127,176.12h-3.75a30.81,30.81,0,0,1-8.11-.85c-.73-.12-1.33-.36-2.06-.48-1-.24-1.82-.36-2.78-.61-.61-.24-1.21-.48-1.94-.73a5.06,5.06,0,0,0-1.21-.48c-.36-.12-.85-.36-1.21-.48a36.27,36.27,0,0,1-5-2.18,41.51,41.51,0,0,1-8.11-5.81c-.48-.36-1-.85-1.45-1.21-.73-.61-1.45-1.09-2.3-1.82a42.66,42.66,0,0,1-4.11-5v-.12c-.24-.36-.48-.61-.73-1a14.6,14.6,0,0,1-3-5.57l-.12-.24.24-.12a5.11,5.11,0,0,1,1.94,0h.12l.12.12a21,21,0,0,1,2.9,4.36c.48.73.85,1.45,1.33,2.18a25.35,25.35,0,0,0,1.69,2.06l.73.73a19.79,19.79,0,0,0,3.27,2.9c.73.61,1.45,1.21,2.3,1.82l2.3,1.94a24.35,24.35,0,0,0,3.51,2.06c.48.24.85.48,1.33.73a40.5,40.5,0,0,0,13.67,4.72,7.44,7.44,0,0,0,1.69.12c.48,0,1,.12,1.45.12.24,0,.61.12,1,.12,1.21.12,2.66.36,4,.36a45.59,45.59,0,0,0,7.75-.73,29.87,29.87,0,0,0,5-1.09,49.75,49.75,0,0,0,12.34-5.2C149.88,166.44,150.36,166.08,150.72,165.71Zm10.41,14.4c-.73-1-1.57-1.94-2.3-3l-1.69,1.33-1.33-1.82-1.09-1.33.61-.48,2.06-1.69c.12-.12.36-.24.48-.36s.48-.36,1-.61a8.32,8.32,0,0,1,1.57-.73c1.82.73,5.2,2.78,7,3.75l-2.42-3-.73.61-1.33-1.82-1.09-1.33-.12-.12,2.18-1.69a10.58,10.58,0,0,0,1.21-1l2.06-1.57c1.09,1.33,1.33,1.69,2.3,3l.36.36a2.17,2.17,0,0,0-1,.48l9.8,12.71c-.12.12-.12.24-.24.24a3.73,3.73,0,0,1-.73.73c-.24.24-2.3,1.57-2.42,1.69l-2.3-1.09c-2.06-1.09-3.87-2.06-5.2-2.9l2.42,3,.73-.73.36.36a15.75,15.75,0,0,0,2.18,2.78l-3.27,2.54-2.3,1.82-1-1.33-1.45-1.82a4.52,4.52,0,0,0,.85-.73c-.73-.85-1.33-1.69-2.06-2.54C163.19,182.78,162.22,181.45,161.13,180.12Z"/><path class="cls-1" d="M201.46,151.24a10.18,10.18,0,0,1-5-3c-1.09-1.4-1.09-3.42-1.24-5-.47-4.2-1.56-8.56-1.4-12.76a47.48,47.48,0,0,1,1.71-13.22c.47-1.87.31-4.36,1.71-5.76.78-.78,3.27-1.71,4.36-1.24,1.87.78,2.64,3.11,3.27,4.82.62,2,.93,4,1.4,6.22.31,2.18,1.24,4.2,1.71,6.22a40.75,40.75,0,0,1,1.71,6.22,40.12,40.12,0,0,1,.62,6.07,38.12,38.12,0,0,1-.62,5.91C209.23,148.76,204.72,151.87,201.46,151.24Zm.62-45.27a43.65,43.65,0,0,0-4.82,1.24c-.62.16-1.4.47-2,.62a2.52,2.52,0,0,1-2.33-.93,7.33,7.33,0,0,1-.62-2.64c-.16-1.09-.47-2.64.31-3.42.16-.16.47-.31.62-.62a12.13,12.13,0,0,1,3.42-.47c2.49-.16,5.76-.62,7.47,1.71a6.68,6.68,0,0,1-.78,3.27C203,105.67,202.7,105.82,202.08,106ZM73,120.6a74.1,74.1,0,0,1-4.82,7.31c-1.87,2.64-3.27,5.6-5.13,8.4-.31.47-.62.93-.16,1.4.16.16.62.16,1.09.16a30.21,30.21,0,0,1,3.73.31c1.24.16,2.33.31,3.42.47a51.72,51.72,0,0,1,14.31,5.6c.47.78-.62,3-1.4,3.27a8.76,8.76,0,0,1-2,0,18.64,18.64,0,0,0-4.2-.16c-3,.16-6.07,0-9.33.47a18.66,18.66,0,0,0-3.11.47c-3.89,1.09-8.24,1.56-12.29,2.33-.62.16-1.4.31-2,.47-2.8.47-5.44.47-7.93-.93-.62-.62-1.56-1.09-2-1.87a2.55,2.55,0,0,1-1.24-3.11c.47-1.4,2.18-3.42,3.27-5,1.09-1.4,5-6.69,8.4-10.58a45.68,45.68,0,0,0,4.36-5.44,44.5,44.5,0,0,1,4.36-5.76c3.42-3.89,7-9,7-9-1.09-.62-3.11-.16-4.2-.47-3.11-.62-5.76.16-8.87-.16q-5.13,0-10.27-.47c-.62-1.56.31-3,.78-4.36.93-3,5.91-4.82,8.87-5.13a30.31,30.31,0,0,1,9.18.31c1.56.31,3.42.62,4.82.93a7.88,7.88,0,0,0,2,.31,9.1,9.1,0,0,0,2,.31,26.84,26.84,0,0,0,8.56-.62c1.71-.47,3.27,1.71,4.51,2.64,0,1.09-.93,1.71-1.56,2.64a28.13,28.13,0,0,0-3,4.51m16.49-3.27a5.07,5.07,0,0,1-2,.62c-1.24.16-2.49.78-3.89.62-.31,0-.47-.16-.78-.16-.47-.62-.62-1.56-1.09-2.33a4.48,4.48,0,0,1,.16-2c1.24-1.87,3.58-2.18,5.13-3.42a1.59,1.59,0,0,0,.93-.78,3.18,3.18,0,0,1,3.11.16c.93.47,2.18.93,2.49,1.87.16,1.56-.78,4.2-2.33,5C98,106.6,97.23,106.44,96.61,106.6ZM103,122.78c.62,2,1.56,3.89,2,5.91a40.47,40.47,0,0,1,.78,6.07,42.85,42.85,0,0,1-.47,12.6c-.31,1.56-2.18,2.8-3.58,3.42a6.52,6.52,0,0,1-5.13.16,10.46,10.46,0,0,1-4.36-3.42c-1.09-1.56-.78-4-.93-5.91-.31-4.36-.78-8.71-1.09-13.07-.16-4.51,1.09-9,2-13.38.47-2,.62-3.42,2.64-4.51,1.4-.78,2.49-.93,3.58.47a12.39,12.39,0,0,1,2.49,5.44A36.45,36.45,0,0,0,103,122.78Zm27.53,16.64a35.05,35.05,0,0,1,4,0c2.33.16,4.51-.16,6.84-.16H142c1.24.16,2.33,0,3.42.16a.93.93,0,0,1,.62,1.24,9,9,0,0,1-2,3.58,8.31,8.31,0,0,1-3.89,2.64,21.49,21.49,0,0,1-5.44.47c-2.64,0-6.07.16-9,0-.78,0-1.71-.16-2.64-.16-.47,0-1.09.16-1.71.16H119c-1.56.16-3.27.62-4.51-.16-2-1.24-3-3-1.87-4.67a19,19,0,0,1,1.87-3,14.59,14.59,0,0,0,1.4-1.87c.93-1.4,2.33-2.49,3-3.89.62-1.56,1.87-2.64,2.8-4l2.8-4.2c.78-1.24,1.71-2.49,2.64-3.73a27,27,0,0,0,2.33-3.11,20.38,20.38,0,0,0-4.36,0c-2.8.16-5.91-.16-8.71,0H115a16.91,16.91,0,0,1-2.8.16c-.16,0-.62,0-.78-.31v-.16c-.31-.93.16-1.71.62-2.64a9.12,9.12,0,0,1,2.18-2.8,12.86,12.86,0,0,1,2-1.09,6.92,6.92,0,0,1,3.11-1.24c2-.31,4,0,6.22-.16a15,15,0,0,1,5.29.62c1.09-.16,2.49.47,3.89.31a7.81,7.81,0,0,0,1.87-.31,20.42,20.42,0,0,1,4.36-.16c.47,0,.93-.16,1.4-.16.78.16,1.56,1.09,2.33,1.87a2.58,2.58,0,0,1,1.24,2.33c-.16,1.24-1.4,1.87-2,2.8a32.91,32.91,0,0,0-1.87,3.11c-.62.93-1.24,2-1.87,2.8a32.59,32.59,0,0,1-2.18,2.64c-2.8,3-4.36,6.84-6.53,10.27-.62.93-1.56,1.56-2.18,2.64C129.59,139.58,130.06,139.27,130.52,139.42Zm46.36.31a35.16,35.16,0,0,0,4-.16h4c.62,0,1.71,0,1.87.62.31.78-.78,2.33-1.24,3.11a10.89,10.89,0,0,1-2.18,2.49c-1.4,1.09-3.27,1.4-4.82,1.87-1.24-.16-2.49.31-3.89,0-1.71,0-3.73-.16-5.76-.16h-1.87c-1.87-.16-3.89.16-5.91.16-1.24,0-3.11.16-4.67.16-.62,0-1.09,0-1.4-.31a11.37,11.37,0,0,1-2.49-2.18c-1.24-1.56.62-3.27,1.56-4.51,1.24-1.71,2.49-3.58,3.89-5.29.47-.62.62-1.24,1.09-1.87.78-.93,1.4-1.71,2.18-2.64.93-.93,1.4-2.33,2.18-3.42.78-1.4,2-2.49,3-3.89.93-1.24,1.87-2.33,2.8-3.58.16-.31.62-.78.62-1.09h-5.6a5.19,5.19,0,0,1-1.56,0,13.7,13.7,0,0,0-2.64-.31c-.47,0-1.09.16-1.56.16a22.9,22.9,0,0,0-3.27,0c-.62,0-2.64.62-3.11-.16-.31-.47.16-1.4.31-1.87a8.93,8.93,0,0,1,2.33-3.58,7.7,7.7,0,0,1,3.58-2.18c2-.16,4.36-.31,6.22-.31.93,0,2,.16,3.11.16h1.56c1.24,0,2.64-.31,3.73.16a20.85,20.85,0,0,1,3.11.16c2.49,0,5-.31,7.47-.16a16.53,16.53,0,0,1,1.4,1.71c.62.62,1.24,1.09,1.09,2,.31,1.87-1.71,3-2.8,4.36-1.24,1.71-2.49,3.89-3.73,5.76-.78.93-1.4,2-2.18,3.11a14.59,14.59,0,0,0-1.4,1.87,5.59,5.59,0,0,1-1.09,1.56,23.92,23.92,0,0,0-1.87,2c-1.24,1.56-2.18,3.73-3.27,5.29-.16.31-.31.47-.16.78C172.06,140,174.55,139.42,176.88,139.73Z"/></svg>