<?xml version="1.0" encoding="utf-8"?>
<!-- Generator: Adobe Illustrator 24.0.2, SVG Export Plug-In . SVG Version: 6.00 Build 0)  -->
<svg version="1.1" id="Layer_1" xmlns="http://www.w3.org/2000/svg" xmlns:xlink="http://www.w3.org/1999/xlink" x="0px" y="0px"
	 viewBox="0 0 252 84" style="enable-background:new 0 0 252 84;" xml:space="preserve">
<style type="text/css">
	.st0{fill:#FFFFFF;}
</style>
<title>client_3</title>
<g>
	<g>
		<polygon class="st0" points="136.4,60.4 106.9,32.9 106.9,79.7 115.6,79.7 115.6,53.5 145.1,81 145.1,34.2 136.4,34.2 		"/>
		<path class="st0" d="M68.4,32.4c-13.5,0-24.5,11-24.5,24.5s11,24.5,24.5,24.5s24.5-11,24.5-24.5C93,43.5,81.9,32.4,68.4,32.4z
			 M68.4,72.7c-8.5,0-15.6-7.1-15.6-15.7c0-8.7,6.9-15.7,15.6-15.7C76.9,41.3,84,48.3,84,57C84,65.6,77,72.7,68.4,72.7z"/>
		<path class="st0" d="M28.9,57.4c-2.3-1.8-5.4-3.2-10-4.6C10,49.9,10,47.6,10,46.6c0-2.6,2.8-5.1,7.6-5.1c4,0,7.1,1.9,8.2,2.8
			l0.6,0.5l7.1-4.8l-0.7-1c-0.2-0.2-5.6-6.6-15.1-6.6c-4.5,0-8.8,1.5-11.8,4.1C2.7,39.3,1,43,1,46.6c0,4,1.7,7.4,5.2,10.1
			c2.3,1.8,5.4,3.2,10,4.6c8.9,2.8,8.9,5.1,8.9,6.1c0,2.6-2.8,5.1-7.6,5.1c-4,0-7.1-1.9-8.2-2.8l-0.6-0.5l-7.1,4.8l0.7,1
			c0.2,0.2,5.6,6.6,15.1,6.6c4.5,0,8.8-1.5,11.8-4.1c3-2.7,4.8-6.3,4.8-10C34.1,63.3,32.4,60,28.9,57.4z"/>
		<path class="st0" d="M183.6,32.6c-13.5,0-24.5,11-24.5,24.5s11,24.5,24.5,24.5s24.5-11,24.5-24.5
			C208.1,43.6,197.2,32.6,183.6,32.6z M183.6,72.8c-8.5,0-15.6-7.1-15.6-15.7c0-8.7,6.9-15.7,15.6-15.7c8.5,0,15.6,7.1,15.6,15.7
			C199.1,65.8,192.2,72.8,183.6,72.8z"/>
		<path class="st0" d="M223.1,56.8c2.3,1.8,5.4,3.2,10,4.6c8.9,2.8,8.9,5.1,8.9,6.1c0,2.6-2.8,5.1-7.6,5.1c-4,0-7.1-1.9-8.2-2.8
			l-0.6-0.5l-7.1,4.8l0.7,1c0.2,0.2,5.6,6.6,15.1,6.6c4.5,0,8.8-1.5,11.8-4.1c3-2.7,4.8-6.3,4.8-10c0-4-1.7-7.4-5.2-10.1
			c-2.3-1.8-5.4-3.2-10-4.6c-8.9-2.8-8.9-5.1-8.9-6.1c0-2.6,2.8-5.1,7.6-5.1c4,0,7.1,1.9,8.2,2.8l0.6,0.5l7.1-4.8l-0.7-1
			c-0.2-0.2-5.6-6.6-15.1-6.6c-4.5,0-8.8,1.5-11.8,4.1c-3,2.7-4.8,6.3-4.8,10C217.9,50.7,219.6,54.1,223.1,56.8z"/>
	</g>
	<g id="L_x2F_C">
		<path class="st0" d="M9.7,17.8c-1,0-1.9-0.1-2.8-0.5c-0.9-0.4-1.6-0.9-2.2-1.5s-1.1-1.5-1.3-2.4c-0.4-1-0.5-2.1-0.5-3.3
			s0.1-2.3,0.5-3.3c0.4-1,0.9-1.8,1.3-2.4C5.3,3.8,6,3.1,6.8,2.9c0.9-0.4,1.7-0.5,2.7-0.5c1,0,1.9,0.1,2.8,0.5
			c0.9,0.4,1.6,0.9,2.1,1.5C15,5,15.5,5.8,15.7,6.8c0.4,1,0.5,2.1,0.5,3.3s-0.1,2.3-0.5,3.3c-0.4,1-0.7,1.8-1.3,2.4
			c-0.6,0.6-1.3,1.2-2.1,1.5C11.6,17.6,10.6,17.8,9.7,17.8z M9.7,16.2c0.7,0,1.5-0.1,2.1-0.5c0.6-0.2,1.1-0.7,1.5-1.2
			c0.4-0.5,0.7-1.2,0.9-1.9c0.2-0.7,0.4-1.6,0.4-2.6c0-0.9-0.1-1.7-0.4-2.4c-0.2-0.7-0.5-1.3-1-1.9c-0.4-0.5-0.9-1-1.5-1.2
			C11,4.1,10.4,3.9,9.5,3.9C8.7,3.9,8.1,4,7.5,4.4C6.8,4.6,6.4,5.1,6,5.6C5.6,6.1,5.3,6.8,5.1,7.5C4.9,8.3,4.9,9.1,4.9,10
			c0,1,0.1,1.7,0.2,2.6c0.2,0.7,0.5,1.3,0.9,1.9c0.4,0.5,0.9,1,1.5,1.2C8.2,16.1,8.8,16.2,9.7,16.2z"/>
		<path class="st0" d="M18.9,6.8h1.8v1.6c0.5-0.7,1.1-1.2,1.7-1.5c0.6-0.2,1.3-0.5,1.9-0.5c1.2,0,2.1,0.4,2.7,1s0.9,1.6,0.9,2.9v7.1
			h-1.8v-6.7c0-1-0.1-1.7-0.5-2.1C25.2,8.3,24.8,8,23.9,8c-0.4,0-0.9,0.1-1.2,0.2c-0.4,0.1-0.7,0.4-1.1,0.6c-0.4,0.2-0.6,0.6-0.7,1
			c-0.1,0.4-0.2,0.7-0.2,1.3v6.3h-1.8V6.8H18.9z"/>
		<path class="st0" d="M30.6,2.8h1.8v14.7h-1.8V2.8z"/>
		<path class="st0" d="M35.2,19.7c0.4,0.1,0.7,0.2,1.1,0.2c0.5,0,0.7-0.1,1-0.4c0.2-0.2,0.5-0.6,0.7-1.2l0.5-1.1L34,6.9h2.1l3.4,8.4
			l3-8.4h1.9l-4.6,11.7c-0.2,0.5-0.4,0.9-0.6,1.2c-0.2,0.4-0.4,0.7-0.6,1c-0.2,0.2-0.5,0.5-0.9,0.6c-0.4,0.1-0.7,0.2-1.2,0.2
			c-0.4,0-0.6,0-0.9-0.1c-0.2,0-0.6-0.1-0.9-0.2L35.2,19.7z"/>
	</g>
</g>
</svg>
