<svg xmlns="http://www.w3.org/2000/svg" viewBox="0 0 250 250"><defs><style>.cls-1{fill:#fff;fill-rule:evenodd;}</style></defs><title>client_3</title><g id="CH4"><polygon class="cls-1" points="160.63 49.7 160.63 195.92 140.67 195.92 140.67 73.48 160.63 49.7 160.63 49.7"/><polygon class="cls-1" points="92.9 219.21 92.9 199.26 113.27 199.26 113.27 219.21 92.9 219.21 92.9 219.21"/><polygon class="cls-1" points="163.9 160.07 163.9 140.12 196.11 140.12 196.11 160.07 163.9 160.07 163.9 160.07"/><polygon class="cls-1" points="140.25 219.21 140.25 199.26 183.31 199.26 183.31 219.21 140.25 219.21 140.25 219.21"/><polygon class="cls-1" points="116.54 219.12 116.54 163.15 136.49 163.15 136.49 219.12 116.54 219.12 116.54 219.12"/><polygon class="cls-1" points="116.54 136.19 116.54 64.21 136.49 40.32 136.49 136.19 116.54 136.19 116.54 136.19"/><polygon class="cls-1" points="56.51 136.19 113.04 68.41 113.04 99.7 82.7 136.19 56.51 136.19 56.51 136.19"/><polygon class="cls-1" points="140.38 35.63 144.41 30.79 160.13 43.06 140.38 66.83 140.38 35.63 140.38 35.63"/><polygon class="cls-1" points="53.89 160.07 53.89 140.12 136.59 140.12 136.59 160.07 53.89 160.07 53.89 160.07"/></g></svg>