<svg xmlns="http://www.w3.org/2000/svg" viewBox="0 0 250 250"><defs><style>.cls-1{fill:#fff;}</style></defs><title>client_4</title><g id="EAT"><polyline class="cls-1" points="77.33 89.73 77.33 104.93 44.57 104.93 44.57 115.11 75.12 115.11 75.12 130.02 44.57 130.02 44.57 143.74 80.14 143.74 80.14 158.65 22.73 158.65 22.73 89.73 77.33 89.73"/><path class="cls-1" d="M110.69,89.73,84.42,158.65h23.46l3-9.74h24.06l3,9.74h23.47L135.48,89.73Zm12.4,19.63,7.23,24.35H115.56l7.53-24.35"/><polyline class="cls-1" points="211.48 89.73 211.48 106.7 193.92 106.7 193.92 158.65 172.23 158.65 172.23 106.7 154.66 106.7 154.66 89.73 211.48 89.73"/><path class="cls-1" d="M208.53,150.83a9.37,9.37,0,1,1,9.3,9.45,9.26,9.26,0,0,1-9.3-9.45"/></g></svg>