<svg xmlns="http://www.w3.org/2000/svg" viewBox="0 0 250 250"><defs><style>.cls-1,.cls-2{fill:#fff;}.cls-1{fill-rule:evenodd;}</style></defs><title>client_10</title><g id="TKMAXX"><path class="cls-1" d="M157.56,108.59a9.38,9.38,0,1,1-9.31,9.38,9.34,9.34,0,0,1,9.31-9.38Zm-1.33-11.13h1.62a14.8,14.8,0,0,1,7.85,2.4l.53.36c.94.33-.17-1.64.75-1.64H192.3c.52,0,.81.41,1.31,1a37.39,37.39,0,0,1,2.89,4c-.3.42-.41.28-.86.49.05.62,2.09,3.08,2.52,3.65l4.25,5.75c1,1.32,5.86,8.15,6.81,9.24a13.43,13.43,0,0,1-1.51,2.32c-.6.88-4.45,6.13-4.91,6.45-1-.64-3.09-4.55-4.08-4.82-.58.39-5.48,7.08-6.47,8.34-.81,1-1.64,2.52-2.42,2.52H166.61v-1.85c-.85,0-1.1.46-2.23,1.11a11.27,11.27,0,0,1-2.08.89,15.86,15.86,0,0,1-5.57.85,19.49,19.49,0,0,1-14.11-6.14,20.45,20.45,0,0,1-5.4-9.78,16.28,16.28,0,0,1-.38-2.09c-.07-.66-.09-1.56-.19-2.29a21.19,21.19,0,0,1,.43-4.52,21.49,21.49,0,0,1,11-14.27,20.13,20.13,0,0,1,8.1-2Zm22.36,34.94V107.71c0-1.95-.22-6.68.12-8.15.68.36,1.16,1.35,1.62,2l6.14,8.18c.71.95,4.53,6,4.55,6.3s-1.13,1.74-1.41,2.12c-.53.71-1,1.36-1.55,2l-4.68,6.18c-.53.71-1,1.31-1.55,2-.31.42-2.7,3.89-3.25,4Z"/><path class="cls-1" d="M79.56,114.87v22.84H91.17V114.26a5.44,5.44,0,1,1,10.87.37v23.09h11.61c0-2.64-.13-23,0-24.17a5.06,5.06,0,0,1,1-2.36c2-2.72,6.28-2.93,8.17-.79a6.35,6.35,0,0,1,1.57,3.74v23.46h11.73c0-1.28-.13-2.07-.12-3.33V116.48a21.12,21.12,0,0,0-.62-6.55A17,17,0,0,0,110.24,100c-2.56,1.53-1.86,2.13-3.47.9a8.94,8.94,0,0,0-1.11-.74c-5.08-2.81-10.87-3.58-16.22-1a19.51,19.51,0,0,0-5,3.55,17.49,17.49,0,0,0-4.91,12.13Z"/><path class="cls-1" d="M39.68,98.08v38.4H51.41v-8.77c.38.28,13.13,17.42,13.9,18.45l4.62,6.24c2.55,0,5.11,0,7.66,0,.72,0,1,.1,1.54.13h4.42a9.36,9.36,0,0,0,1.45-.12c-.06-.68-3.53-5.12-4.06-5.82L70.25,132.34c-.28-.38-.45-.64-.72-1l-2.84-3.83c-.69-.92-4-5.15-4-6a4.91,4.91,0,0,1,.67-1.06c.28-.42.47-.67.77-1.09l10.16-14.28c.24-.34.24-.16.26-.73-1.31-.31-11.75-.12-14-.12-.37,0-2,2.41-2.36,2.82l-6.77,8.78v-9.14c0-3.15-.12-5.88-.12-9H40c-.28,0-.37.09-.37.37Z"/><path class="cls-1" d="M197.61,104.26l9.56,13c.49.65,3.16,4.09,3.16,4.62,0,.31-10.82,14.93-12,16.53-.55.75-1.57,1.92-1.59,2.61h14.82c.56,0,3.64-4.52,4.16-5.22l2.5-3.3a9.08,9.08,0,0,1,2,2.33l5.68,7.53c1.27,1.7,2.49,3.29,3.77,5l1.85,2.47c.65.87,1.3,1.68,1.89,2.56h13.46c1,0,.82.29,1.6-.12a12.07,12.07,0,0,0-1-1.46l-12.15-16.25c-1.47-2-2.89-4-4.39-6s-2.84-3.92-4.34-5.91c-.9-1.2-.52-1.33.83-3.2l3.23-4.55c.22-.31.31-.41.52-.71l6.45-9.11c.31-.45.35-.33.24-.87h-14.2c-.11.43-3.42,4.6-3.85,5.17-1.6,2.15-1.33,2.18-2.95,0l-1.38-1.83-1.32-1.76a12.64,12.64,0,0,1-1.38-1.83H205l-5.8-.12c-1.2,0-.89-.12-1.6.37Z"/><path class="cls-1" d="M1.52,109.07h5.8c1.84,0,3.23.12,5.06.12v27.41H24.24l.12-27.54H35.23V97.59H1.52v11.48Z"/><path class="cls-1" d="M71.9,127.84a7.29,7.29,0,0,0,4.4-1.78,6,6,0,0,0,2-4.76,6.25,6.25,0,0,0-.6-2.49,6.18,6.18,0,0,0-3.28-3.14,6.45,6.45,0,0,0-9,5.88A6.57,6.57,0,0,0,67.37,126a6.76,6.76,0,0,0,4.54,1.88Z"/><path class="cls-1" d="M25.72,121.54a6.34,6.34,0,1,0,11-4.23,6.33,6.33,0,0,0-11,4.23Z"/><path class="cls-1" d="M214.4,104.5c.78-.52,5-6.52,5-6.58s-.09-.33-.41-.33H205.26c-.91,0-2.52,2.38-3.07,3.1-.11.15-1.27,1.78-1.28,1.81-.19.62,1.62.4,2.62.4l9.24,0c.82.17,1,1.16,1.63,1.58Z"/><path class="cls-2" d="M242.29,101a3.08,3.08,0,0,1,1.47.39,2.75,2.75,0,0,1,1.12,1.11,3,3,0,0,1,0,3,2.78,2.78,0,0,1-1.11,1.11,3,3,0,0,1-3,0,2.78,2.78,0,0,1-1.11-1.11,3,3,0,0,1-.4-1.49,3.05,3.05,0,0,1,.4-1.5,2.75,2.75,0,0,1,1.12-1.11,3.08,3.08,0,0,1,1.47-.39Zm0,.5a2.56,2.56,0,0,0-1.23.32,2.33,2.33,0,0,0-.93.92,2.49,2.49,0,0,0,0,2.49,2.35,2.35,0,0,0,.93.93,2.49,2.49,0,0,0,2.48,0,2.34,2.34,0,0,0,.92-.93,2.51,2.51,0,0,0,.33-1.24,2.54,2.54,0,0,0-.33-1.25,2.32,2.32,0,0,0-.93-.92,2.56,2.56,0,0,0-1.23-.32ZM241,105.7v-3.22h1.11a2.71,2.71,0,0,1,.82.09.8.8,0,0,1,.4.31.83.83,0,0,1,.15.47.86.86,0,0,1-.25.61,1,1,0,0,1-.67.29.85.85,0,0,1,.27.17,3.73,3.73,0,0,1,.48.64l.39.63H243l-.29-.51a2.56,2.56,0,0,0-.54-.75.66.66,0,0,0-.42-.11h-.3v1.37Zm.52-1.81h.63a1,1,0,0,0,.62-.14.46.46,0,0,0,.08-.61.47.47,0,0,0-.22-.17,1.6,1.6,0,0,0-.52-.06h-.59v1Z"/></g></svg>