<svg xmlns="http://www.w3.org/2000/svg" viewBox="0 0 250 250"><defs><style>.cls-1,.cls-2{fill:#fff;}.cls-2{opacity:0;}</style></defs><title>client_5</title><g id="EY"><path class="cls-1" d="M44.56,189.31h3.54l.48-.1.38-.1.38-.19.19-.19.19-.19.1-.29.1-.58-.1-.38-.1-.29-.1-.29-.19-.19-.29-.19-.38-.1-.86-.09H44.56Zm0,6.59h4l.48-.1.38-.19.29-.29L50,195l.19-.38.1-.38.1-.48-.1-.48-.1-.48-.19-.38-.19-.29-.38-.19-.38-.19-.38-.1H44.56Zm-2.68,2.48V183.58h6.31l1,.1,1,.19.76.29.67.48.57.58.38.67.19.77.1.86-.1.38-.1.48-.1.38-.19.48-.29.29-.29.38-.29.29-.38.19.67.38.38.29.38.38.29.38.29.57.1.57.1.76-.1,1.05-.29,1-.38.76-.57.67-.76.57-.86.38-1.05.19-1.15.09Z"/><path class="cls-2" d="M48.09,189.31H44.56v-3.15H47.9l.86.09.38.1.29.19.19.19.1.29.1.29.1.38-.1.57-.1.29-.19.19-.19.19-.38.19-.38.1Zm0,6.59H44.56v-4.2h4.11l.38.1.38.19.38.19.19.29.19.38.1.48.1.48-.1.48-.1.38L50,195l-.29.29-.29.29-.38.19-.48.1Zm5.16-2.2h0l-.1-.76-.1-.57-.29-.57-.29-.38-.38-.38-.38-.29-.67-.38.38-.19.29-.29.29-.38.29-.29.19-.48.1-.38.1-.48.1-.38-.1-.86-.19-.76-.38-.67-.57-.58-.67-.48-.76-.29-1-.19-1-.1H41.88v14.81h6.21l1.15-.1,1.05-.19.86-.38.76-.57.57-.67.38-.76.29-1Z"/><polygon class="cls-1" points="58.61 198.57 58.03 198.48 57.56 198.38 57.08 198.1 56.7 197.91 56.41 197.52 55.84 196.86 55.45 196.09 55.26 195.23 55.17 194.47 55.17 193.7 55.17 187.59 57.84 187.59 57.84 193.51 57.84 194.18 57.94 194.75 58.13 195.14 58.32 195.52 58.61 195.81 58.9 196 59.37 196.19 59.85 196.19 60.23 196.19 60.71 196 61 195.81 61.28 195.52 61.57 195.14 61.67 194.75 61.76 194.18 61.86 193.61 61.86 187.59 64.44 187.59 64.44 198.38 61.86 198.38 61.86 197.52 61.28 198 60.71 198.38 59.95 198.57 59.18 198.67 58.61 198.57"/><polygon class="cls-2" points="59.18 198.67 59.18 198.67 59.95 198.57 60.71 198.38 61.28 198 61.86 197.52 61.86 198.38 64.44 198.38 64.44 187.59 61.86 187.59 61.86 193.61 61.76 194.18 61.67 194.75 61.57 195.14 61.28 195.52 61 195.81 60.71 196 60.23 196.19 59.85 196.19 59.37 196.19 58.9 196 58.61 195.81 58.32 195.52 58.13 195.14 57.94 194.75 57.84 194.18 57.84 193.51 57.84 187.59 55.17 187.59 55.17 193.7 55.17 194.47 55.26 195.23 55.45 196.09 55.84 196.86 56.41 197.52 56.7 197.91 57.08 198.1 57.56 198.38 58.03 198.48 58.61 198.57 59.18 198.67"/><polygon class="cls-1" points="99.91 198.38 99.91 192.46 99.91 191.79 99.81 191.31 99.62 190.84 99.43 190.45 99.14 190.17 98.85 189.98 98.38 189.88 97.99 189.78 97.52 189.88 97.04 189.98 96.75 190.17 96.46 190.45 96.18 190.84 95.99 191.31 95.89 191.79 95.89 192.46 95.89 198.38 93.21 198.38 93.21 187.59 95.89 187.59 95.89 188.54 96.46 187.97 97.13 187.68 97.8 187.4 98.57 187.4 99.52 187.4 100.29 187.68 100.96 188.06 101.53 188.64 102.01 189.31 102.3 190.17 102.49 191.12 102.58 192.27 102.58 198.38 99.91 198.38"/><polygon class="cls-2" points="95.89 192.46 95.89 192.46 95.89 191.79 95.99 191.31 96.18 190.84 96.46 190.45 96.75 190.17 97.04 189.98 97.52 189.88 97.99 189.78 98.38 189.88 98.85 189.98 99.14 190.17 99.43 190.45 99.62 190.84 99.81 191.31 99.91 191.79 99.91 192.46 99.91 198.38 102.58 198.38 102.58 192.27 102.49 191.12 102.3 190.17 102.01 189.31 101.53 188.64 100.96 188.06 100.29 187.68 99.52 187.4 98.57 187.4 97.8 187.4 97.13 187.68 96.46 187.97 95.89 188.54 95.89 187.59 93.21 187.59 93.21 198.38 95.89 198.38 95.89 192.46"/><rect class="cls-1" x="66.93" y="187.59" width="2.68" height="10.8"/><rect class="cls-2" x="66.93" y="187.59" width="2.68" height="10.8"/><polygon class="cls-1" points="71.9 198.38 71.9 184.44 74.57 183.1 74.57 198.38 71.9 198.38"/><polygon class="cls-2" points="71.9 198.38 74.57 198.38 74.57 183.1 71.9 184.44 71.9 198.38"/><path class="cls-1" d="M80.88,189.88l-.38.1-.38.09-.29.29-.29.38-.19.57-.1.67-.1.86.1,1,.1.76.19.58.29.38.38.29.29.19.38.19h.38l.57-.09.57-.29.38-.29.29-.38v-4.3l-.29-.29-.38-.38-.57-.29-.67-.09Zm-1.15,8.7-.86-.29-.67-.48-.67-.67-.48-.86-.29-1-.19-1.15-.1-1.24.1-1.24.19-1.15.38-.86.48-.86.57-.58.76-.48.76-.29,1-.1h.67l.67.19.57.29.48.48v-3.92l2.68-1.34v15.29H83.08v-.77l-.57.38-.57.38-.57.19-.67.09Z"/><path class="cls-2" d="M81.26,196.18h-.38L80.5,196l-.29-.19-.38-.29-.29-.38-.19-.57-.1-.76-.1-1,.1-.86.1-.67.19-.57.29-.38.29-.29.38-.09.38-.1.29-.09.67.09.57.29.38.38.29.29v4.3l-.29.38-.38.29-.57.29Zm1.82-7.83h0l-.48-.48-.57-.29-.67-.19h-.67l-1,.1-.76.29-.76.48-.57.58-.48.86-.38.86-.19,1.15-.1,1.24.1,1.24.19,1.15.29,1,.48.86.67.67.67.48.86.29,1,.09.67-.09.57-.19.57-.38.57-.38v.76h2.68V183.1l-2.68,1.34Z"/><path class="cls-1" d="M140.34,189.88l-.57.19-.38.38-.38.48v4.2l.29.29.38.38.57.29.29.09h.38l.48-.09.38-.1.38-.29.29-.38.19-.48.1-.57.1-.67.1-.76-.1-.76-.1-.67-.19-.48-.29-.48-.29-.29-.38-.19-.38-.1-.29-.09Zm.38,8.7-.67-.19-.57-.38-.48-.38v.76h-2.68V184.72l2.68-1.34v5l.48-.38.67-.38.57-.19h.67l1,.1.76.29.77.48.57.58.48.86.38.86.19,1.15.1,1.24-.1,1.24-.19,1.15-.29,1-.48.86-.67.67-.67.48-.86.29-1,.09Z"/><path class="cls-2" d="M140.92,189.78h0l.29.1.38.1.38.19.29.29.29.48.19.48.1.67.1.76-.1.76-.1.67-.1.57-.19.48-.29.38-.38.29-.38.1-.48.09h-.38l-.29-.09-.57-.29-.38-.39-.29-.29v-4.2l.38-.48.38-.38.57-.19Zm.48-2.39h-.67l-.57.19-.67.38-.48.38v-5l-2.68,1.34v13.66H139v-.76l.48.38.57.38.67.19.67.09,1-.09.86-.29.67-.48.67-.67.48-.86.29-1,.19-1.15.1-1.24-.1-1.24-.19-1.15-.38-.86-.48-.86-.57-.58-.77-.48-.76-.29Z"/><path class="cls-1" d="M108.41,189.88l-.38.19-.29.29-.29.38-.19.57-.1.67-.1.86.1,1,.1.67.19.67.29.38.29.29.38.19.38.19h.29l.67-.09.48-.29.48-.29.29-.38v-4.3l-.29-.38-.38-.29-.57-.29-.67-.1h-.38Zm-1,10.8h.1l1.15-.09.86-.19.57-.29.48-.38.19-.48.19-.48v-1.15l-.57.38-.57.38-.57.19-.76.09-.86-.09-.86-.39-.67-.48-.67-.57-.48-.86-.29-1-.29-1.15V191.7l.29-1.15.29-1,.57-.76.57-.67.76-.38.77-.29,1-.1h.67l.67.19.57.38.48.38v-.77h2.68v9.84l-.1,1.24-.19,1.05-.48,1-.19.38-.38.38-.29.29-.38.29-1,.38-1.05.29-1.24.09Z"/><path class="cls-2" d="M111,190.83v4.3l-.29.38-.48.29-.48.29-.67.1h-.29l-.38-.19-.38-.19-.29-.29-.29-.38-.19-.67-.1-.67-.1-1,.1-.86.1-.67.19-.57.29-.38.29-.29.38-.19.29-.1h.38l.67.1.57.29.38.29Zm0-2.48h0l-.48-.38-.57-.38-.67-.19h-.67l-1,.1-.77.29-.76.38-.57.67-.57.76-.29,1-.29,1.15v2.49l.29,1.15.29,1,.48.86.67.57.67.48.86.38.86.1.76-.1.57-.19.57-.38.57-.38v1.15l-.19.48-.19.48-.48.38-.57.29-.86.19-1.15.09h-.1l1,2.1,1.24-.09,1.05-.29,1-.38.38-.29.29-.29.38-.38.19-.38.48-1,.19-1.05.1-1.24v-9.84H111Z"/><path class="cls-1" d="M123.8,193.41l-.29.1-.29.19-.19.19-.19.29-.1.29v.67l.1.38.19.29.19.19.29.19.29.1.38.1.38.1.67-.1.67-.29.38-.38.38-.38V193.8l-.48-.19-.48-.19-.57-.1h-1Zm-.48,5.16-.67-.09-.67-.29-.57-.38-.57-.57-.38-.67-.29-.76-.1-1,.1-1,.29-.77.48-.57.57-.48.67-.39.67-.19.76-.19H125l.67.09.57.19.48.19v-1.05l-.1-.38-.19-.29-.19-.19-.29-.19-.38-.09-.76-.1-.76.1-.76.09-.67.29-.57.29-1.05-1.82,1-.48,1-.38,1.05-.19h2l.86.19.76.38.67.38.48.57.38.58.19.76.1.86v7.26h-2.68v-.86l-.57.48-.76.38-.67.19-.57.1Z"/><path class="cls-2" d="M122.75,194.85h0v-.38l.1-.29.19-.29.19-.19.29-.19.29-.1.38-.1h1l.57.1.48.19.48.19v1.53l-.38.38-.38.38-.67.29-.67.1-.38-.1-.38-.1-.29-.1-.29-.19-.19-.19-.19-.29-.1-.38Zm-.77-4.59h0l.57-.29.67-.29.76-.1.76-.09.76.09.38.1.29.19.19.19.19.29.1.38v1.05l-.48-.19-.57-.19-.67-.09h-1.34l-.76.19-.67.19-.67.38-.57.48-.48.57-.29.77-.1,1,.1,1,.29.76.38.67.57.57.57.38.67.29.67.09.76.1.57-.1.67-.19.76-.38.57-.48v.86h2.68v-7.26l-.1-.86-.19-.76-.38-.58-.48-.57-.67-.38-.76-.38-.86-.19h-2l-1.05.19-1,.38-1,.48Z"/><path class="cls-1" d="M151.34,189.69l-.38.1-.38.19-.29.29-.19.29-.19.38-.19.48v.48h4l-.1-.86-.19-.38-.19-.29-.29-.29-.38-.29-.38-.1-.48-.1Zm-.38,8.88-1.05-.38-.86-.48-.67-.57-.67-.86-.38-1-.29-1.05-.1-1.24.1-1.24.29-1.05.38-1,.58-.86.76-.67.76-.48,1-.29,1.05-.1,1,.1.86.29.77.48.67.67.57.77.38,1,.19,1.15.1,1.24v.76h-6.69l.19.77.19.57.38.38.29.29.48.19.28.09.67.1.67-.1.57-.19.48-.29.38-.38,1.72,1.72-.48.38-.38.38-.48.29-.48.19-1,.38-1,.1Z"/><path class="cls-2" d="M149.71,191.89h0v-.48l.19-.48.19-.38.19-.29.29-.29.38-.19.38-.1.38-.1.48.1.38.1.38.29.29.29.19.29.19.38.1.86Zm4.49,3.34h0l-.38.38-.48.29-.57.19-.67.1-.67-.1-.28-.09-.48-.19-.29-.29-.38-.38-.19-.57-.19-.77h6.69V193l-.1-1.24-.19-1.15-.38-1-.57-.77-.67-.67-.77-.48-.86-.29-1-.1-1.05.1-1,.29-.76.48-.76.67-.58.86-.38,1-.29,1.05-.1,1.24.1,1.24.29,1.05.38,1,.67.86.67.57.86.48,1.05.38,1.15.1,1-.1,1-.38.48-.19.48-.29.38-.38.48-.38Z"/><path class="cls-1" d="M177.05,189.69l-.38.1-.29.19-.29.29-.29.29-.19.38-.1.48v.48h4l-.19-.86-.1-.38-.19-.29-.29-.29-.38-.29-.38-.1-.48-.1Zm-.29,8.88-1.05-.38-.86-.48-.77-.57-.57-.86-.48-1-.19-1.05-.1-1.24.1-1.24.19-1.05.48-1,.57-.86.67-.67.86-.48,1-.29,1-.09,1,.09.86.29.76.48.67.67.48.77.38,1,.29,1.15.09,1.24v.76h-6.69l.1.77.29.57.29.38.38.29.38.19.38.09.57.1.67-.1.57-.19.48-.29.48-.38,1.63,1.72-.38.38-.48.38-.38.29-.48.19-1.05.38-1.05.1Z"/><path class="cls-2" d="M175.52,191.88h0v-.48l.1-.48.19-.38.29-.29.29-.29.29-.19.38-.1.48-.1.48.1.38.1.38.29.29.29.19.29.1.38.19.86Zm4.49,3.34h0l-.48.38-.48.29-.57.19-.67.1-.57-.1-.38-.09-.38-.19-.38-.29-.29-.38-.29-.57-.1-.77h6.69V193l-.09-1.24-.29-1.15-.38-1-.48-.77-.67-.67-.76-.48-.86-.29-1-.09-1,.09-1,.29-.86.48-.67.67-.57.86-.48,1-.19,1.05-.1,1.24.1,1.24.19,1.05.48,1,.57.86.77.57.86.48,1.05.38,1.05.1,1.05-.1,1.05-.38.48-.19.38-.29.48-.38.38-.38Z"/><polygon class="cls-1" points="168.54 198.57 167.88 198.29 167.4 198 167.01 197.52 166.73 197.04 166.54 196.47 166.44 195.9 166.34 195.32 166.34 190.07 164.72 190.07 164.72 187.59 166.34 187.59 166.34 184.81 169.02 183.48 169.02 187.59 171.51 187.59 171.51 190.07 169.02 190.07 169.02 194.65 169.12 195.32 169.31 195.71 169.5 195.9 169.69 195.99 170.17 196.09 170.65 196.09 171.03 195.99 171.79 195.61 171.51 198.1 171.03 198.38 170.46 198.48 169.88 198.57 169.21 198.67 168.54 198.57"/><polygon class="cls-2" points="169.02 190.07 171.51 190.07 171.51 187.59 169.02 187.59 169.02 183.48 166.34 184.81 166.34 187.59 164.72 187.59 164.72 190.07 166.34 190.07 166.34 195.32 166.44 195.9 166.54 196.47 166.73 197.04 167.01 197.52 167.4 198 167.88 198.29 168.54 198.57 169.21 198.67 169.88 198.57 170.46 198.48 171.03 198.38 171.51 198.1 171.79 195.61 171.03 195.99 170.65 196.09 170.17 196.09 169.69 195.99 169.5 195.9 169.31 195.71 169.12 195.32 169.02 194.65 169.02 190.07"/><polygon class="cls-1" points="160.9 198.57 160.23 198.29 159.75 198 159.37 197.52 159.08 197.04 158.89 196.47 158.79 195.9 158.7 195.32 158.7 190.07 157.07 190.07 157.07 187.59 158.7 187.59 158.7 184.81 161.37 183.48 161.37 187.59 163.67 187.59 163.67 190.07 161.37 190.07 161.37 194.65 161.47 195.32 161.66 195.71 161.85 195.9 162.04 195.99 162.52 196.09 163 196.09 163.38 195.99 164.15 195.61 163.86 198.1 163.38 198.38 162.81 198.48 162.23 198.57 161.56 198.67 160.9 198.57"/><polygon class="cls-2" points="164.15 195.61 164.15 195.61 163.38 195.99 163 196.09 162.52 196.09 162.04 195.99 161.85 195.9 161.66 195.71 161.47 195.32 161.37 194.65 161.37 190.07 163.67 190.07 163.67 187.59 161.37 187.59 161.37 183.48 158.7 184.81 158.7 187.59 157.07 187.59 157.07 190.07 158.7 190.07 158.7 195.32 158.79 195.9 158.89 196.47 159.08 197.04 159.37 197.52 159.75 198 160.23 198.29 160.9 198.57 161.56 198.67 162.23 198.57 162.81 198.48 163.38 198.38 163.86 198.1 164.15 195.61"/><polygon class="cls-1" points="183.84 198.38 183.84 187.59 186.51 187.59 186.51 188.54 186.99 187.97 187.57 187.68 188.24 187.39 188.91 187.39 189.38 187.39 189.96 187.49 190.44 187.78 190.91 187.97 190.15 190.64 189.76 190.36 189.38 190.16 188.91 190.07 188.43 190.07 187.95 190.07 187.57 190.16 187.28 190.36 186.99 190.64 186.8 191.03 186.61 191.41 186.51 191.98 186.51 192.55 186.51 198.38 183.84 198.38"/><polygon class="cls-2" points="190.91 187.97 190.91 187.97 190.44 187.78 189.96 187.49 189.38 187.39 188.91 187.39 188.24 187.39 187.57 187.68 186.99 187.97 186.51 188.54 186.51 187.59 183.84 187.59 183.84 198.38 186.51 198.38 186.51 192.55 186.51 191.98 186.61 191.41 186.8 191.03 186.99 190.64 187.28 190.36 187.57 190.16 187.95 190.07 188.43 190.07 188.91 190.07 189.38 190.16 189.77 190.36 190.15 190.64 190.91 187.97"/><rect class="cls-1" x="66.93" y="183.38" width="2.68" height="2.67"/><rect class="cls-2" x="66.93" y="183.38" width="2.68" height="2.67"/><rect class="cls-1" x="88.15" y="187.58" width="2.68" height="10.8"/><rect class="cls-2" x="88.15" y="187.58" width="2.68" height="10.8"/><rect class="cls-1" x="88.15" y="183.38" width="2.68" height="2.67"/><rect class="cls-2" x="88.15" y="183.38" width="2.68" height="2.67"/><path class="cls-1" d="M161.56,208.79l-.29.19-.29.29-.29.38-.19.48-.19.77v1.72l.19.76.19.58.29.48.29.29.38.19.29.09h1l.48-.29.38-.38.38-.38v-4.2l-.29-.38-.48-.29-.48-.29-.67-.1h-.38Zm.19,8.69-1-.09-.77-.29-.76-.48-.57-.67-.48-.77-.38-1-.19-1.05-.1-1.34.1-1.24.19-1.05.38-1,.48-.76.57-.67.76-.48.86-.29,1-.1.57.1.67.19.57.29.57.48v-3.92l2.68-1.34V217.3h-2.68v-.86l-.57.48-.67.38-.57.19Z"/><path class="cls-2" d="M162.33,215h-.38l-.29-.09-.38-.19-.29-.29-.29-.48-.19-.57-.19-.76V210.9l.19-.77.19-.48.29-.38.29-.29.29-.19.38-.1h.38l.67.1.48.29.48.29.29.38V214l-.38.38-.38.38L163,215Zm1.91-7.74h0l-.57-.48-.57-.29-.67-.19-.57-.1-1,.1-.86.29-.77.48-.57.67-.48.76-.38,1-.19,1.05-.1,1.24.1,1.34.19,1.05.38,1,.48.77.57.67.77.48.76.29,1,.09h.67l.57-.19.67-.38.57-.48v.86h2.68V202l-2.68,1.34Z"/><polygon class="cls-1" points="67.12 217.3 67.12 206.5 69.79 206.5 69.79 207.46 70.27 206.88 70.84 206.5 71.42 206.31 72.18 206.22 72.66 206.31 73.23 206.41 73.71 206.6 74.19 206.88 73.43 209.46 73.04 209.27 72.56 209.08 72.18 208.99 71.7 208.89 71.23 208.99 70.84 209.08 70.46 209.27 70.27 209.56 69.98 209.85 69.89 210.32 69.79 210.8 69.79 211.47 69.79 217.3 67.12 217.3"/><polygon class="cls-2" points="74.19 206.88 74.19 206.88 73.71 206.59 73.23 206.41 72.66 206.31 72.18 206.22 71.42 206.31 70.84 206.5 70.27 206.88 69.79 207.46 69.79 206.5 67.12 206.5 67.12 217.3 69.79 217.3 69.79 211.47 69.79 210.8 69.89 210.32 69.98 209.84 70.27 209.56 70.46 209.27 70.84 209.08 71.23 208.99 71.7 208.89 72.18 208.99 72.56 209.08 73.04 209.27 73.43 209.46 74.19 206.88"/><polygon class="cls-1" points="49.72 217.3 48.57 212.81 47.9 210.42 47.33 212.9 46.18 217.3 43.89 217.3 43.79 217.2 40.93 206.88 40.93 206.5 43.5 206.5 44.55 210.51 45.03 213.19 45.42 211.76 45.7 210.42 46.85 206.5 49.14 206.5 50.2 210.42 50.87 213.19 51.44 210.42 52.39 206.5 55.07 206.5 52.01 217.3 49.72 217.3"/><polygon class="cls-2" points="51.44 210.42 51.44 210.42 50.87 213.19 50.2 210.42 49.14 206.5 46.85 206.5 45.7 210.42 45.42 211.76 45.03 213.19 44.55 210.51 43.5 206.5 40.83 206.5 43.79 217.2 43.89 217.3 46.18 217.3 47.33 212.9 47.9 210.42 48.57 212.81 49.72 217.3 52.01 217.3 55.07 206.5 52.39 206.5 51.44 210.42"/><path class="cls-1" d="M59.66,209l-.38.29-.38.29-.19.48-.19.57-.1.57-.1.67.1.67.1.67.19.48.19.48.38.38.38.29.38.1.48.09.48-.09.38-.1.38-.29.38-.38.19-.48.19-.48.19-.67v-1.34l-.19-.57-.19-.57-.19-.48-.38-.29-.38-.29-.38-.19H60Zm-.19,8.41-1-.29-.76-.48L57,216l-.57-.86-.48-1-.19-1.05-.1-1.24.1-1.15.19-1.05.48-1.05.57-.76.76-.67.76-.48,1-.38,1.05-.1,1.05.1,1,.38.77.48.76.67.57.76.48,1.05.19,1.05.1,1.15-.1,1.24-.19,1.05-.48,1-.57.86-.76.67-.77.48-1,.29-1.05.09Z"/><path class="cls-2" d="M60.52,215h0l-.48-.1-.38-.09-.38-.29-.38-.38-.19-.48-.19-.48-.1-.67-.1-.67.1-.67.1-.57.19-.58.19-.48.38-.29.38-.29.38-.19h1l.38.19.38.29.38.29.19.48.19.58.19.57v1.34l-.19.67-.19.48-.19.48-.38.38-.38.29-.38.09Zm0-8.79h0l-1.05.1-1,.38-.76.48-.76.67-.57.76-.48,1.05-.19,1.05-.1,1.15.1,1.24.19,1.05.48,1L57,216l.76.67.76.48,1,.29,1.05.1,1.05-.1,1-.29.77-.48.76-.67.57-.86.48-1,.19-1.05.1-1.24-.1-1.15-.19-1.05-.48-1.05-.57-.76-.76-.67-.77-.48-1-.38Z"/><polygon class="cls-1" points="144.65 217.3 144.65 206.5 147.32 206.5 147.32 207.46 147.89 206.88 148.47 206.5 149.04 206.31 149.71 206.22 150.28 206.31 150.86 206.41 151.34 206.59 151.72 206.88 151.05 209.46 150.67 209.27 150.19 209.08 149.71 208.99 149.23 208.89 148.85 208.99 148.47 209.08 148.09 209.27 147.8 209.56 147.61 209.84 147.51 210.32 147.42 210.8 147.32 211.47 147.32 217.3 144.65 217.3"/><polygon class="cls-2" points="151.72 206.88 151.72 206.88 151.34 206.59 150.86 206.41 150.28 206.31 149.71 206.22 149.04 206.31 148.47 206.5 147.89 206.88 147.32 207.46 147.32 206.5 144.65 206.5 144.65 217.3 147.32 217.3 147.32 211.47 147.42 210.8 147.51 210.32 147.61 209.84 147.8 209.56 148.09 209.27 148.47 209.08 148.85 208.99 149.23 208.89 149.71 208.99 150.19 209.08 150.67 209.27 151.05 209.46 151.72 206.88"/><polygon class="cls-1" points="127.34 217.3 126.1 212.81 125.53 210.42 124.95 212.9 123.71 217.3 121.42 217.3 121.42 217.2 118.36 206.5 121.13 206.5 122.08 210.51 122.66 213.19 122.94 211.76 123.33 210.42 124.47 206.5 126.67 206.5 127.82 210.42 128.49 213.19 129.06 210.42 130.02 206.5 132.7 206.5 129.64 217.3 127.34 217.3"/><polygon class="cls-2" points="129.06 210.42 129.06 210.42 128.49 213.19 127.82 210.42 126.67 206.5 124.47 206.5 123.33 210.42 122.94 211.76 122.66 213.19 122.08 210.51 121.13 206.5 118.36 206.5 121.42 217.2 121.42 217.3 123.71 217.3 124.95 212.9 125.53 210.42 126.1 212.81 127.34 217.3 129.64 217.3 132.7 206.5 130.02 206.5 129.06 210.42"/><path class="cls-1" d="M137.19,209l-.38.29-.29.29-.29.48-.19.58-.1.57v1.34l.1.67.19.48.29.48.29.38.38.29.48.09.48.1.48-.1.38-.09.38-.29.29-.38.29-.48.19-.48.1-.67v-1.34l-.1-.57L140,210l-.29-.48-.29-.29L139,209l-.38-.19h-1Zm-.1,8.41-1-.29-.86-.48-.67-.67-.57-.86-.48-1-.29-1.05-.09-1.24.09-1.15.29-1,.48-1,.57-.86.67-.67.86-.48,1-.38,1.05-.09,1,.09,1,.38.86.48.67.67.67.86.38,1,.29,1,.1,1.15-.1,1.24-.29,1.05-.38,1-.67.86-.67.67-.86.48-1,.29-1,.1Z"/><path class="cls-2" d="M138.14,215h0l-.48-.1-.48-.09-.38-.29-.29-.38-.29-.48-.19-.48-.1-.67v-1.34l.1-.57.19-.58.29-.48.29-.29.38-.29.48-.19h1l.38.19.38.29.29.29.29.48.19.58.1.57v1.34l-.1.67-.19.48-.29.48-.29.38-.38.29-.38.09Zm0-8.79h0l-1.05.09-1,.38-.86.48-.67.67-.57.86-.48,1-.29,1-.09,1.15.09,1.24.29,1.05.48,1,.57.86.67.67.86.48,1,.29,1.05.1,1-.1,1-.29.86-.48.67-.67.67-.86.38-1,.29-1.05.1-1.24-.1-1.15-.29-1-.38-1-.67-.86-.67-.67-.86-.48-1-.38Z"/><polygon class="cls-1" points="81.74 217.3 79.45 212.23 78.11 214.05 78.11 217.3 75.43 217.3 75.43 203.35 78.11 202.01 78.11 210.61 79.06 209.27 81.17 206.5 84.32 206.5 81.46 210.03 84.7 217.3 81.74 217.3"/><polygon class="cls-2" points="84.32 206.5 81.17 206.5 79.06 209.27 78.11 210.61 78.11 202.01 75.43 203.35 75.43 217.3 78.11 217.3 78.11 214.05 79.45 212.23 81.74 217.3 84.7 217.3 81.46 210.03 84.32 206.5"/><polygon class="cls-1" points="98.09 217.3 98.09 211.28 98.09 210.7 97.99 210.13 97.8 209.65 97.61 209.37 97.33 209.08 97.04 208.89 96.66 208.7 96.18 208.7 95.7 208.7 95.22 208.89 94.94 209.08 94.65 209.37 94.36 209.75 94.27 210.13 94.17 210.7 94.07 211.28 94.07 217.3 91.4 217.3 91.4 206.5 94.07 206.5 94.07 207.36 94.65 206.88 95.32 206.5 95.99 206.31 96.85 206.21 97.71 206.31 98.57 206.59 99.24 206.98 99.81 207.46 100.19 208.22 100.48 209.08 100.67 210.03 100.77 211.18 100.77 217.3 98.09 217.3"/><polygon class="cls-2" points="94.07 211.28 94.07 211.28 94.17 210.7 94.27 210.13 94.36 209.75 94.65 209.37 94.94 209.08 95.22 208.89 95.7 208.7 96.18 208.7 96.66 208.7 97.04 208.89 97.33 209.08 97.61 209.37 97.8 209.65 97.99 210.13 98.09 210.7 98.09 211.28 98.09 217.3 100.77 217.3 100.77 211.18 100.67 210.03 100.48 209.08 100.19 208.22 99.81 207.46 99.24 206.98 98.57 206.59 97.71 206.31 96.85 206.21 95.99 206.31 95.32 206.5 94.65 206.88 94.07 207.36 94.07 206.5 91.4 206.5 91.4 217.3 94.07 217.3 94.07 211.28"/><path class="cls-1" d="M106.6,208.79l-.38.19-.29.29-.29.39-.19.48-.1.76-.1.77.1,1,.1.76.19.57.29.48.38.29.29.19.38.1h1l.48-.29.48-.38.29-.38v-4.2l-.29-.38-.38-.29-.57-.29-.67-.1H107Zm-1,10.8h.1l1.15-.1.86-.19.57-.38.48-.38.19-.38.19-.48v-1.24l-.48.48-.67.29-.57.29h-.67l-1-.1-.86-.29-.67-.48-.67-.67-.48-.76-.29-1.05-.19-1.15-.1-1.24.1-1.24.19-1.05.38-1,.48-.76.57-.67.77-.48.76-.29,1-.1.67.1.67.19.57.29.48.48v-.77h2.68v9.75l-.1,1.24-.19,1.15-.38,1-.29.38-.29.29-.38.38-.38.29-1,.38-1.05.29-1.24.1Z"/><path class="cls-2" d="M109.18,209.75V214l-.29.38-.48.38-.48.29h-1l-.38-.1-.29-.19-.38-.29-.29-.48-.19-.57-.1-.76-.1-1,.1-.77.1-.76.19-.48.29-.38.29-.29.38-.19.38-.09h.29l.67.09.57.29.38.29Zm0-2.48h0l-.48-.48-.57-.29-.67-.19-.67-.1-1,.1-.76.29-.77.48-.57.67-.48.76-.38,1-.19,1.05-.1,1.24.1,1.24.19,1.15.29,1.05.48.76.67.67.67.48.86.29,1,.1h.67l.57-.29.67-.29.48-.48v1.24l-.19.48-.19.38-.48.38-.57.38-.86.19-1.15.1h-.1l1,2.1,1.24-.1,1.05-.29,1-.38.38-.29.38-.38.29-.29.29-.38.38-1,.19-1.15.1-1.24V206.5h-2.68Z"/><rect class="cls-1" x="86.33" y="206.5" width="2.68" height="10.8"/><rect class="cls-2" x="86.33" y="206.5" width="2.68" height="10.8"/><rect class="cls-1" x="86.33" y="202.29" width="2.68" height="2.68"/><rect class="cls-2" x="86.33" y="202.29" width="2.68" height="2.68"/><polygon class="cls-1" points="153.06 217.29 153.06 203.35 155.73 202.01 155.73 217.29 153.06 217.29"/><polygon class="cls-2" points="153.06 217.29 155.73 217.29 155.73 202.01 153.06 203.35 153.06 217.29"/><polygon class="cls-1" points="40.93 89.7 209.15 28.31 209.17 28.31 209.17 60.03 40.93 89.72 40.93 89.7"/><polygon class="cls-2" points="40.83 89.74 209.17 28.31 209.17 60.03 40.83 89.74"/><polygon class="cls-1" points="41.88 168.76 41.88 107.99 76.39 107.99 84.42 121.94 60.04 121.94 60.04 131.97 82.12 131.97 82.12 144.78 60.04 144.78 60.04 154.81 90.54 154.81 90.54 168.76 41.88 168.76"/><polygon class="cls-2" points="60.04 144.78 82.12 144.78 82.12 131.97 60.04 131.97 60.04 121.94 84.42 121.94 76.39 107.99 41.88 107.99 41.88 168.76 90.54 168.76 90.54 154.81 60.04 154.81 60.04 144.78"/><polygon class="cls-1" points="103.35 168.76 103.35 144.78 82.12 107.99 102.3 107.99 112.52 127.86 122.85 107.99 142.83 107.99 121.51 144.78 121.51 168.76 103.35 168.76"/><polygon class="cls-2" points="122.85 107.99 112.52 127.86 102.3 107.99 82.12 107.99 103.35 144.78 103.35 168.76 121.51 168.76 121.51 144.78 142.83 107.99 122.85 107.99"/></g></svg>