<svg xmlns="http://www.w3.org/2000/svg" viewBox="0 0 250 250"><defs><style>.cls-1{fill:#fff;}</style></defs><title>client_1</title><g id="Arcadia"><path class="cls-1" d="M31.45,101.41q13.79,23.81,27.5,47.67-2.51,0-5,0c-5.17-4.93-10.88-9.54-17.58-12.2a21.31,21.31,0,0,0-19.39,1.6c-3.89,2.58-6.29,6.7-8.63,10.61-1.45,0-2.91,0-4.36,0q13.74-23.84,27.5-47.67m0,8.06c-4.79,8.24-9.53,16.51-14.33,24.74a20.13,20.13,0,0,1,11.34-2.61c8.11.11,15.62,4.3,21.45,9.7-6.2-10.59-12.29-21.23-18.47-31.83Zm0,0"/><path class="cls-1" d="M189.66,101.73h3.76V149.1h-3.89c0-2.31,0-4.62,0-6.92a19.63,19.63,0,0,1-9.78,6.57,16.7,16.7,0,0,1-15.48-3.49c-8.08-7-8.76-20.92-1.27-28.62,6.28-6.58,18-7,24.53-.57.76.73,1.43,1.55,2.13,2.34,0-5.55,0-11.11,0-16.67M173,115.24a13.36,13.36,0,0,0-7.55,4.24c-5.89,6.59-4.93,18.09,2.07,23.53,6.06,4.71,15.87,2.81,19.88-3.68,3.6-5.83,3.46-14.09-1-19.43A14.19,14.19,0,0,0,173,115.24Zm0,0"/><path class="cls-1" d="M202.08,101.92a2.8,2.8,0,1,1,1.42,5.2c-2.61.12-3.56-3.91-1.42-5.2Zm0,0"/><path class="cls-1" d="M67.66,116.41c3-4.52,9.63-6.49,14.36-3.57-.68,1.12-1.33,2.25-2,3.39a10.73,10.73,0,0,0-5.45-.88,8.54,8.54,0,0,0-6.94,8.37q0,12.69,0,25.38H63.78q0-18.45,0-36.9h3.89c0,1.41,0,2.81,0,4.22Zm0,0"/><path class="cls-1" d="M88.57,115.66c6.53-5.66,17.06-5.59,23.62,0-.6,1-1.18,2.1-1.75,3.16a15,15,0,0,0-20.41.47c-6.19,6-6.17,17.31.61,22.85a15.6,15.6,0,0,0,13.23,3.21,20.24,20.24,0,0,0,6.58-3.48c.61,1.07,1.23,2.13,1.84,3.21-7.51,6.72-20.31,5.43-26.51-2.44-6.5-7.81-5.12-20.63,2.8-27Zm0,0"/><path class="cls-1" d="M120.82,116.81c5.29-5.77,14.59-6.88,21.36-3.19a19.41,19.41,0,0,1,5.35,4.71c0-2,0-4.09,0-6.13h3.75q0,18.46,0,36.91h-3.76c0-2.34,0-4.68,0-7a19,19,0,0,1-11.78,7.09,16.78,16.78,0,0,1-13.77-4.1c-7.79-7-8.5-20.65-1.16-28.27m8.83-1.27a13.33,13.33,0,0,0-6.45,4.18c-5.67,6.58-4.67,17.78,2.12,23.21,6.09,4.83,16.07,2.93,20.08-3.69,3.82-6.3,3.29-15.46-2.28-20.6a14.43,14.43,0,0,0-13.47-3.1Zm0,0"/><path class="cls-1" d="M215.35,117.91c5.11-6.66,15.2-8.27,22.41-4.26a18.69,18.69,0,0,1,5.32,4.72c0-2.06,0-4.12,0-6.18h3.76v36.9h-3.76c0-2.36,0-4.72,0-7.08a19.31,19.31,0,0,1-10.57,6.91,16.75,16.75,0,0,1-15.27-4.09c-7.19-6.79-8.08-19.19-1.91-26.93m9.88-2.39a13.25,13.25,0,0,0-6.23,3.89c-6.07,6.6-5,18.36,2.16,23.74,6,4.5,15.54,2.64,19.59-3.66s3.51-16-2.41-21.12a14.38,14.38,0,0,0-13.11-2.85Zm0,0"/><path class="cls-1" d="M201.6,149q0-18.38,0-36.77h3.89q0,18.38,0,36.76Zm0,0"/></g></svg>