<svg xmlns="http://www.w3.org/2000/svg" viewBox="0 0 250 250"><defs><style>.cls-1{fill:#fff;}</style></defs><title>client_7</title><g id="RB"><path class="cls-1" d="M28.74,117c.32-18.91,9.73-42,28.94-60.85C76.3,38,98.92,29.06,124.94,28.7q39.7.53,68.15,28.23,27.7,28.51,28.17,68.25-.56,40.25-29,68.74-29.17,27.83-69.48,27.39C97,220.44,74.86,211,56.61,192.84,38.89,175.15,28.58,150.88,28.74,117Zm189.83,8.12c-.39-25.8-9.28-48-27.48-66.25-17.7-17.72-39.33-26.7-64.36-27.44Q87.67,31.2,59.43,58.21q-27.27,27.37-28.06,66,.16,39,27.33,66.93c18.21,17.77,40,27.19,65.48,27.39,25.73.2,47.86-9,66.42-26.79C208.93,173.29,218.15,151,218.58,125.16Z"/><path class="cls-1" d="M117.82,216.67c-18-.28-39.69-9.14-57.72-26.78C42,171.32,32.85,149.07,33.32,123.16,33.78,98.63,43,77.63,60.15,60.09Q87.22,33.78,125,33.3c25.44.33,47.37,9.26,65.25,27.37,17.55,17.77,26.13,39.44,26.48,64.39-.36,25.19-9.19,46.94-26.94,64.83C172.71,207.09,149.58,216.78,117.82,216.67ZM135,70.07v.19c-.86,1-1.75,2-2.57,3q-2.14,2.65-4.22,5.36a3.51,3.51,0,0,1-2.45,1.46c-.77.09-1.54.16-2.3.29a.87.87,0,0,1-1-.43c-.49-.79-1-1.57-1.43-2.39-.8-1.5-1.51-3.06-2.34-4.55a10.76,10.76,0,0,0-5.81-5,15.51,15.51,0,0,0-7.77-.86,9.4,9.4,0,0,0-5.92,2.94c-2.68,3-3.66,6.54-2.21,10.48A5.56,5.56,0,0,0,98.84,83a17.38,17.38,0,0,1-.36-2.26,10.33,10.33,0,0,1,3-7.59,6.07,6.07,0,0,1,3.9-2.07l-1.1.83a6.65,6.65,0,0,0-2.58,4.77,9.28,9.28,0,0,0,.54,4.35c.16.43.3.87.45,1.31.32-1.26.56-2.47.94-3.64a7.26,7.26,0,0,1,3-4.17,4.27,4.27,0,0,1,2.54-.74l-.46.33a5.31,5.31,0,0,0-2.18,3.37,23.81,23.81,0,0,0-.23,2.93,3.53,3.53,0,0,0,.15,1.51c.16-.23.27-.37.35-.52a8,8,0,0,1,1.93-2.3,4.56,4.56,0,0,1,3.32-1.24,3.27,3.27,0,0,1,2.42,1.52c-2.51.25-4.08,1.28-4.81,3.13l.53,0c.85,0,1.7-.11,2.55-.05,1.3.09,1.76.79,1.31,2-.38,1-.88,2-1.33,3l-.41.91,1.75-.92a9.49,9.49,0,0,1-.07,1.07,3,3,0,0,0,1.43,3.46c1,.61,1.93,1.3,2.9,1.94.42.28.85.55,1.43.92.26.86.58,1.9.87,2.94s.6,2.35,1,3.5a2.21,2.21,0,0,0,1.16,1.55v3.81c-.92.13-1.86.14-2.35,1.22.35,0,.6-.07.85-.09a1.71,1.71,0,0,1,1.24.34,9.74,9.74,0,0,1,.9.85c.47.5.91,1,1.37,1.54.54-.76,0-1.38-.28-2l.15-.1,2.7,2a2.76,2.76,0,0,0-1.08-2.23l2,.28,0-.2a7.28,7.28,0,0,0-4.16-1.52,32.19,32.19,0,0,1,.94-7.68,14.67,14.67,0,0,1,.66,1.65c.15.42.28.84.82.9l.33,3.87c-.72.17-1.39.29-1.74,1a3.36,3.36,0,0,0,.58,0,2.75,2.75,0,0,1,2,.61c.6.44,1.26.82,1.89,1.22a4.11,4.11,0,0,0,.44.21l.11-.12-1-1.44.11-.13,2.27,1.42c.09-1.11-.7-1.54-1.3-2.13l2.48.59a5.27,5.27,0,0,0-4.63-1.57c0-1.16.06-2.21.1-3.26a4.76,4.76,0,0,1,.09-.92c.47-2,1-4,1.43-5.95a.8.8,0,0,1,.56-.66A3.37,3.37,0,0,0,132,93.11a8.49,8.49,0,0,1,2.32-2A11,11,0,0,0,137,88.72a11.78,11.78,0,0,0,2.33-7.09,35.67,35.67,0,0,0-.18-3.86,7.73,7.73,0,0,1,.77-3.94,12.4,12.4,0,0,0,.84,1.78,1.78,1.78,0,0,0,1.81.78,1.69,1.69,0,0,0,1.38-1.31,3,3,0,0,0-.21-2.54c-.19-.33-.44-.64-.64-1a7.73,7.73,0,0,1-.62-1.16c-.15-.39,0-.64.35-.71a6.31,6.31,0,0,0,3-1.66,5,5,0,0,0,.45-.52,12.47,12.47,0,0,1-3.33-.28,15,15,0,0,1,.88-1.33,14.85,14.85,0,0,1,1.14-1.12,3.35,3.35,0,0,0-2.33.25,2.56,2.56,0,0,1-2.08.18l-.1-.37c-.29-1.05-.64-1.38-1.72-1.44a11.57,11.57,0,0,0-2.07.08,18,18,0,0,1-4,.57c.38.67,1,.84,1.64,1.17a4.55,4.55,0,0,1-4.17-.1,3.49,3.49,0,0,0,2.27,2c-1.41.49-2.19.66-4.52-.15C129.57,69.76,132,70.55,135,70.07Zm-61,80.78V171.5c.22,0,.4,0,.58,0H85.43a4.88,4.88,0,0,0,1.08-.1,6.07,6.07,0,0,0,3.43-9.75,5.75,5.75,0,0,1-.34-.49,3.5,3.5,0,0,1,.24-.35,5.46,5.46,0,0,0,1.41-3.2,5.93,5.93,0,0,0-2-5.28,6.38,6.38,0,0,0-4.42-1.55H74.72C74.52,150.81,74.32,150.83,74.07,150.84ZM61.15,135.1c.2-.11.35-.21.51-.29a6,6,0,0,0,2-1.64,6.83,6.83,0,0,0,1.58-5.25,6.6,6.6,0,0,0-1.4-3.46,6.93,6.93,0,0,0-5.74-2.69H48.73a5.84,5.84,0,0,0-.6.06v20.6h3.45c0-2.3,0-4.54,0-6.77h5.73c1.25,2.15,2.48,4.24,3.68,6.35a.82.82,0,0,0,.85.49c.75,0,1.5,0,2.25,0h1.29Zm49.77-13.33v20.67h3.38l.08-.12a.21.21,0,0,0,0-.08q0-5.74,0-11.49a1.34,1.34,0,0,1,0-.23s0,0,0-.05l.11,0,6.66,6.65,1.69-1.69,1.65-1.65c.57-.57,1.12-1.15,1.7-1.7a12.4,12.4,0,0,1,1.75-1.62c0,2.1,0,4.09,0,6.08s0,4,0,6c.67,0,1.24,0,1.81,0a5.71,5.71,0,0,0,1.73-.1c.15-1.52.08-19.92-.09-20.57L121.31,132Zm75.6,20.68c.2,0,.33,0,.46,0,2.09,0,4.19,0,6.28,0a11.48,11.48,0,0,0,3.42-.52,10.47,10.47,0,0,0,5.53-4.38,9.43,9.43,0,0,0,1.51-4.89,10.17,10.17,0,0,0-4.78-9.31,9,9,0,0,0-5-1.55c-2.35,0-4.7,0-7.05-.05a2.8,2.8,0,0,0-.4.06Zm-44.94,17.07.16-.1c4.51,4,9,8.08,13.54,12.13.18-.94.15-20.12,0-20.75h-1.68l-1.81,0V163c-2.36-2.13-4.59-4.15-6.83-6.15s-4.46-4.08-6.86-6.13v20.73h3.5v-12Zm15.58-27.36a10.35,10.35,0,1,0-10.35,10.33A10.37,10.37,0,0,0,157.16,132.17Zm22.37,10.32c.18-1.29.13-20.14-.06-20.72-.55,0-1.12,0-1.69,0a5.08,5.08,0,0,0-1.74.12V134c-4.62-4.1-9-8.17-13.65-12.23,0,.31,0,.46,0,.61q0,10,0,19.94s0,0,0,.06l0,0h3.35c0-4,0-8,0-12.16Zm-90.78,0L78.38,121.78c-.9,1.42-10.17,20.13-10.26,20.69h3.8l1.77-3.4H83l.36.69c.35.69.74,1.37,1,2.08a1,1,0,0,0,1.13.68c.72,0,1.45,0,2.17,0Zm30.35,25.65h9.39c.13.24.25.46.37.69.37.74.76,1.47,1.1,2.22a.73.73,0,0,0,.78.47c.93,0,1.86,0,2.79,0a5.4,5.4,0,0,0,.59-.08l-10.35-20.69-.18.32-10.1,20.27s0,0,0,.07l0,.08h3.78Zm57.71-2c-3.74,3.25-7.9,2.22-10.08,0a7,7,0,0,1,3.64-11.8,7.07,7.07,0,0,1,6.44,2L178,155l1.21-1.25a10.57,10.57,0,1,0-.06,14.89ZM86.47,121.77c.26.37.4.59.56.79,2.55,3.25,5.09,6.51,7.66,9.75a2,2,0,0,1,.45,1.34c0,2.66,0,5.33,0,8,0,.27,0,.54,0,.8h3.46v-.89c0-2.67,0-5.33,0-8a2.3,2.3,0,0,1,.54-1.55q3.76-4.74,7.47-9.51c.15-.19.27-.41.47-.72-1.48,0-2.85,0-4.21,0-.2,0-.44.24-.59.43-1.27,1.6-2.52,3.21-3.78,4.81l-1.69,2.15c-.19-.21-.33-.36-.45-.52-1.48-1.89-3-3.74-4.41-5.7a2.51,2.51,0,0,0-2.56-1.22C88.48,121.85,87.55,121.77,86.47,121.77ZM97,171.49h13.78a12.13,12.13,0,0,0-.06-3.45H100.57V150.86H97Z"/><path class="cls-1" d="M51.62,132a4.39,4.39,0,0,0,.48.05c2.12,0,4.24,0,6.36,0a3.34,3.34,0,1,0-.1-6.69h-6c-.25,0-.5,0-.77,0Z"/><path class="cls-1" d="M78.34,129.69l-2.88,5.76h5.75Z"/><path class="cls-1" d="M77.57,163c.23,0,.4,0,.58,0h7.06a2.41,2.41,0,0,1,2.24,1.39,2.36,2.36,0,0,1-.23,2.63,2.43,2.43,0,0,1-2,1c-2.48,0-5,0-7.45,0a.81.81,0,0,1-.2-.08Z"/><path class="cls-1" d="M77.55,159.5v-5c.24,0,.46-.06.68-.06h6.91a2.5,2.5,0,0,1,.32,5,10.52,10.52,0,0,1-1.31.1h-6.6Z"/><path class="cls-1" d="M51.62,132v-6.59c.27,0,.52,0,.77,0h6a3.34,3.34,0,1,1,.1,6.69c-2.12,0-4.24,0-6.36,0A4.39,4.39,0,0,1,51.62,132Z"/><path class="cls-1" d="M190.06,138.85V125.44c.22,0,.41-.06.61-.06.93,0,1.86,0,2.79,0a6.79,6.79,0,0,1,1.32,13.44,1.44,1.44,0,0,1-.31,0Z"/><path class="cls-1" d="M140,132.13a6.79,6.79,0,1,1,6.71,6.79A6.88,6.88,0,0,1,140,132.13Z"/><path class="cls-1" d="M78.34,129.69l2.88,5.76H75.47Z"/><path class="cls-1" d="M123.8,158.81l2.83,5.67a33.24,33.24,0,0,1-5.63.08A37.38,37.38,0,0,1,123.8,158.81Z"/></g></svg>