<svg xmlns="http://www.w3.org/2000/svg" viewBox="0 0 250 250"><defs><style>.cls-1{fill:#fff;}</style></defs><title>client_11</title><g id="UNILEVER"><path class="cls-1" d="M60.37,198A31.31,31.31,0,0,1,59,193.58c-.5-3.34,1.24-5.54,2.85-6,1.8-.5,2.5.4,3.2,2.5.9,3.2,1,7.39.7,13.38-.39,8.19-4.49,18.08-14.68,17.88-8.79-.19-12.68-5.89-13.09-14.58a39.87,39.87,0,0,1,1.8-14c.9-3.1,1.7-4.2,4.5-4.8,2.2-.4,2,1.89,1.5,4.6-1.09,6-1.6,8.88-1.2,15.68.39,7.19,3.7,10,7.29,10,5.39.1,7.79-4.39,8.79-10.89C61.47,202.13,60.88,199.63,60.37,198Zm115,7.09c2.1,0,2.7,2.48,2.2,4a6.41,6.41,0,0,1-5.09,3.7C171.9,211.32,171.6,205.13,175.39,205.13Zm-39.05,3.39c0-1.69-.9-3.09-2-3.09-.91,0-3,1-3,4.19a6.2,6.2,0,0,0,1.3,4.2A5.18,5.18,0,0,0,136.34,208.52Zm-31.07-20.37a2.93,2.93,0,0,0-3.1-2.69c-1.9,0-3.68,2-3.49,4.49a2.93,2.93,0,0,0,3,3C103.87,192.94,105.47,190.44,105.27,188.14ZM121.52,194c-.17-2.79-.85-4.05-2.35-4-2,.12-2.91,6.38-2.5,13,.26,4.29.9,5,1.49,4.91C119.26,207.86,121.9,200.19,121.52,194Zm66.26,10.52c-1.24,5.14-5,12.69-10.59,12.69-1.3,0-3.59-.5-3.59-1.8s8.8-1.59,8.8-8.29c0-2.49-2.3-6-5.7-6-4.5,0-8.88,4.9-8.88,11.69,0,6.09,3.78,8.09,7.58,8.09,6.6,0,10.59-5.4,12.69-9.89,1,3,1.59,9.89,4.1,9.89,1,0,1.7-.5,2.9-3.19,3-6.7,5.89-14.39,9.89-14.39,1.49,0,.6,2.7,4.19,2.7a2.92,2.92,0,0,0,2.89-3c0-2.3-2.09-4.09-5.29-4.09-9.39,0-11.38,14.09-12.88,14.09-2.5,0-1.7-11.29-3.5-11.29C188.78,201.73,188,203.63,187.78,204.52Zm-79.91,12c1.5,0,4.07-.49,6.1-3.73a37.28,37.28,0,0,1-2.1-9.67c-.6-9.68,3.13-18.79,7.22-19,3-.18,5.39,2.65,5.66,7.24.74,12.07-3.28,17.1-5.3,21.45.34,1.68,3.2,4.55,5.89,4.55a3.87,3.87,0,0,0,2.5-.9,9.9,9.9,0,0,1-.4-2.9c0-7,4.5-12.89,8.39-12.89,3.1,0,4.9,4.1,4.9,6.8,0,3.19-2.7,5.79-6.69,8.29a4.79,4.79,0,0,0,3.1,1.2c5.7,0,8.68-6.89,10.89-13.19.4-1.2,1.1-2.9,2.5-2.9,2.4,0,3.4,15.78,7.38,15.78,1.7,0,3.1-3.5,3.1-6.19,0-2-.7-2.2-.7-5.1,0-3.19,1.7-5.89,4-5.89,1.4,0,1.9,1.39,1.9,3.09,0,6.4-4.6,18.28-11.39,18.28-5.1,0-4.71-8.79-6.5-8.79-2,0-4.8,8.89-14.68,8.89a6.34,6.34,0,0,1-4.7-2.4,11.49,11.49,0,0,1-6.7,2.3c-3.69,0-5.29-3.8-6.79-3.8-1.8,0-3.79,3.9-9.79,3.9-4.79,0-5.59-6.39-7.29-6.39-1.5,0-3.8,6.39-6.29,6.39-4.2,0-5.09-11.08-8.79-11.08-2.9,0-12,11.26-14.53,11-1-.1-1.42-.85-1.31-1.85a70.57,70.57,0,0,1,1.81-6.83c.81-3,1.55-6.37,2-7.43A2.65,2.65,0,0,1,73.63,203c.45,0,.58.88.72,1.57.5,2.47,1.21,5,2,5,1.4,0,6-8.89,8.73-8.89,3.3,0,3.7,14,8.19,14,1.5,0,2.6-1.8,3.6-4,.1-3.7,1.1-9,4.1-9,2.1,0,3.1,4.69,1.6,8.79,0,4.89,3.19,6.09,5.3,6.09"/><path class="cls-1" d="M177.45,59.86a2.3,2.3,0,0,1-2.39-1.16c-.48-1-.32-2.49-1.22-3.18a9.26,9.26,0,0,0,2.6.26c2.39,0,4.67-1.64,6.42-1.64a1.37,1.37,0,0,1,1.53,1.48C184.39,58,179.68,59.86,177.45,59.86Zm1.17,6c5.51,0,10.55-4.4,10.55-8.27a3.23,3.23,0,0,0-3-3.55,2.33,2.33,0,0,1,.53,1.7c0,2.92-4.44,6.15-9.27,6.15a2,2,0,0,0-2.28,1.85C175.11,65.22,176.55,65.85,178.61,65.85Zm-.42,2.23c.69,5,8.32,11.82,10.39,11.66,1.38-.12,1.91-6.57,1.91-11.66,0-2.91.16-5.2-1.38-5.73-2.44,4.93-8.85,5.94-10.92,5.73"/><path class="cls-1" d="M58.88,101.42c1.8,0,1.43-11,4.34-11,.69,0,.9.69.9,1.54,0,2.49-1.22,6.15-1.22,8.16,0,1,.27,1.33.74,1.33,1.27,0,3.5-12.14,5.67-12.14.69,0,1,.69,1,1.38,0,2.54-3.23,9.86-3.23,11.92,0,.32.1.58.37.58,1.33,0,4-5.72,4.82-8.58.48-1.49,1.11-2.28,1.7-2.28s1,.58,1,1.81c0,2.86-2.65,9.59-5,14.1-1.8,3.5-4.61,8.53-4.61,11.34a5.62,5.62,0,0,0,2.33,4.72c-3.39-.21-4.77-.53-6-3.18-5.67,11.29,10.44,10.18,4.93,20.19-1-1.8-9-3.65-9-14.15,0-9.06,7.95-14.36,7.95-18.13a2.42,2.42,0,0,0-1-2c-1.75-1.49-1.81-2.7-3.18-2.7-1,0-2.23,2.33-1,4.4.43.69.8,1.11.8,1.75,0,1.48-2.33,5.46-4,5.46s-2.91-4.08-2.91-10.65c0-5.83,1.32-11.71,3-11.71.48,0,.63.32.63.74,0,.69-.21,2.07-.21,4.4,0,2.49.58,2.71,1.06,2.71"/><path class="cls-1" d="M72.39,116.95c2.23,0,4.08-1.65,4.08-5.3v-5.41c0-2.07.16-4.4,1.54-6a9.52,9.52,0,0,0-.16,2.12c0,4.56,2.54,7.69,2.54,12.09,0,1.64-.48,2.54-1.75,2.54s-1.11-1.11-1.38-1.11-.53.69-.53,1.43a2.87,2.87,0,0,0,3,2.86,3.64,3.64,0,0,0,3.44-3.71c0-4.77-3.71-10.07-3.71-15.16a11.92,11.92,0,0,1,1.06-4.88c0,10.55,9,18.23,9,22.63a1.77,1.77,0,0,1-1.85,1.81,1.73,1.73,0,0,1-1.8-1.7c0-.37-.05-.48-.21-.48a2.71,2.71,0,0,0-1.27,2.44A4,4,0,0,0,88.46,125a4.7,4.7,0,0,0,4.66-4.83c0-5.56-10.87-14-10.87-23a12.46,12.46,0,0,1,1.38-5.94c-7,4.5-9.17,10.5-9.17,15.74,0,4.56-.16,6.84-2.49,6.84-1.22,0-1.54-1.11-2-1.11s-.48,1-.48,1.22a2.9,2.9,0,0,0,2.86,3.08"/><path class="cls-1" d="M152.7,57.26c.67-.45,3.66.26,7.53-1.65a2.88,2.88,0,0,1,1.38-.37c1.86,0,1.38,2.12,3.08,2.12,1.32,0,3-1.11,4-1.11,1.58,0,3.86,5,3.86,7.32,0,2.7-4.07,4.35-8.9,4.35-7,0-11.29-6.15-11.29-10.13A.56.56,0,0,1,152.7,57.26ZM164.25,64c2.33,0,4.08-1.06,4.08-1.7,0-.21-.32-.37-1-.37a29,29,0,0,1-4.67-.48c-2.23-.37-3.93-1.22-4.56-1.22-.21,0-.32.11-.32.26,0,1.38,2.55,3.5,6.47,3.5"/><path class="cls-1" d="M73.51,136.93c-1.75.43-4.56,3.18-4.56,7.53,0,5.19,5.57,13.2,14.74,13.2,7.74,0,9.65-5.35,9.65-9,0-8-4.93-13.62-11.34-13.62a6.39,6.39,0,0,0-6.63,6.31,8.77,8.77,0,0,0,9,8.75A4.47,4.47,0,0,0,89,145.57c0-2.39-2.17-5.67-5.35-5.67A1.55,1.55,0,0,0,82,141.54c0,1.27,1.75,2.54,3.92,2.54a2.85,2.85,0,0,0,1.17-.21,1.29,1.29,0,0,1,.16.64c0,1.22-1.17,2-3,2a5.19,5.19,0,0,1-5.3-5.2c0-1.9,1.64-3.28,4-3.28,4.72,0,7.53,4.19,7.53,8.38,0,3.76-2.06,5.94-6.31,5.94-8.48,0-12.61-7.63-10.76-15.37"/><path class="cls-1" d="M134,168a25,25,0,0,0,3.21-.21c.79,0,.85.48.85.8,0,1.17-2.6,2.6-7.21,2.6-2.7,0-4.35-1.43-4.82-3a20.89,20.89,0,0,1-10.65,3.23c-10.86,0-13.62-4.72-17-6.25-2.6-1.17-6.57,1.11-12.14-5.09a13.35,13.35,0,0,0,2.55.21c4.87,0,7.47-2.38,7.47-6.2a13.64,13.64,0,0,0-.11-1.48,10.52,10.52,0,0,1,5.68,7.63c.1.53,2.28,1,3.65,1,1.91,0,4.35-.8,4.72-3.92,6.36-.53,10.66-4.29,11.56-9.07a12.58,12.58,0,0,1,5.51,3.87,9.56,9.56,0,0,1,3.18-.48,20.4,20.4,0,0,1,5.88,1c.11-.69.21-1.54,1.27-1.54,1.59,0,1.17,1.75,1.7,2.75.27.53,1.59.85,1.59,1.91a1.36,1.36,0,0,1-1.38,1.38,2.32,2.32,0,0,1-.64-.11c-1.06.37-1.11,8-5.57,8-3.28,0-6.31-2.7-7.63-6.09a2.27,2.27,0,0,0-1.91-1.64c-.85,0-1.32.16-2.33,1.27a18.43,18.43,0,0,1-13.52,5.83c-1.8,0-3.23-.16-3.61-.16-.21,0-.21.05-.21.11,0,.37,1.8,1.8,5.72,1.8,9.33,0,11.61-5.25,13.09-5.25a1.23,1.23,0,0,1,1.22.85A10.41,10.41,0,0,0,134,168Zm-4.11-10.59a2.12,2.12,0,1,0,2.12-2.12,2.13,2.13,0,0,0-2.12,2.12"/><path class="cls-1" d="M171.88,130.94c-.74,0-1.54.58-1.54,2a3.35,3.35,0,0,0,1.91,2.91,3.26,3.26,0,0,0,1.53.43c1.54,0,2.76-.43,2.76-1.7C176.55,133,174.16,130.94,171.88,130.94Zm-5.72,3.28c-1.11,0-7.27,8.22-11.24,8.22-1,0-1.75-1.8-1.75-3.17,0-.74.48-1.27,2.18-1.65,9.11-2.07,7.1-8.91,14.88-8.91,4.29,0,9.07,2.92,9.07,9.49,0,7-10,15.69-11.45,15.69-1.22,0-2.55-1.75-2.55-2.91,0-.37.16-.85,1.22-1.27,5.08-2,8-6.68,8-9.07a.94.94,0,0,0-1-1.06c-.9,0-4.76,8.79-9.06,8.79-3,0-6-2.7-6-4,0-2.12,8.6-6,8.6-9,0-1.12-.53-1.17-1-1.17"/><path class="cls-1" d="M61.26,64.74a6.36,6.36,0,0,1-3.44,1.16,4,4,0,0,1-4.08-4.08,4.47,4.47,0,0,1,2.81-4.19,5.23,5.23,0,0,0-.05.9A6.17,6.17,0,0,0,61.26,64.74ZM72.61,74.92A10.07,10.07,0,0,0,70.22,81c0,2.86,1.75,5.25,4.45,5.25s3.82-2.23,3.82-4.5C78.49,78.2,75.26,75.71,72.61,74.92ZM55,77a1.14,1.14,0,0,0-.16.58,1.13,1.13,0,0,0,1,1c.42,0,.69-.11.9-.11,1.27,0,2.7.9,4.77.9A10.12,10.12,0,0,0,66,78.15c3.82-1.91,5.3-6.63,5.3-7.42,0-1-.81-.88-1.49-1.8s-.42-1.74-.85-2.17c-.25-.25-1-.26-2-.37-.32,0-.74-.05-1.17-.05A10.75,10.75,0,0,0,59.67,68C55.08,71,55.75,75.82,55,77Zm12.45-6.57c.37.5,1.38,1.12,1.38,1.49,0,.74-.43,1.7-1.27,1.7-1.86,0-3.34-2.81-3.34-4.4,0-1,.58-1.11,1.38-1.11a1.28,1.28,0,0,1,.8.21C66.88,68.61,66.88,69.67,67.47,70.46Zm-4.88,6.47c-1.75,0-3.66-2.17-3.66-4.13,0-1.06.8-2.39,1.38-2.39.21,0,.32.16.37.53a6,6,0,0,0,3.61,4.82c.16.11.27.16.27.26C64.55,76.4,63.54,76.93,62.59,76.93ZM67.1,63.57a10.43,10.43,0,0,0,.48-3.08c0-2.54-1.17-6.41-4.77-6.41a3.53,3.53,0,0,0-3.55,3.6C59.25,61.88,63.44,63.57,67.1,63.57ZM53.37,84.77c0,4,1.22,5.94,3.39,5.94,1.7,0,4-1.22,6.68-3.55a23.51,23.51,0,0,1-5.09.8C56.44,88,55,87.21,53.37,84.77Zm1.86-4.72a4.08,4.08,0,0,0-.05.8c0,2.49,1.32,3.87,3.07,3.87,1.32,0,2.86-.8,4.24-2.55a11.18,11.18,0,0,1-1.91.16A6.35,6.35,0,0,1,55.23,80.05Zm13-.74c-1.22.32-3.76,1.8-3.76,4.45a3.12,3.12,0,0,0,3.34,3.13,3.46,3.46,0,0,0,2.07-.53,6.17,6.17,0,0,1-2-4.61A7.1,7.1,0,0,1,68.21,79.31Zm1.91-14.52a2.12,2.12,0,1,0,2.12-2.12A2.13,2.13,0,0,0,70.12,64.79Zm2.75,4.77A2.12,2.12,0,1,0,75,67.44a2.13,2.13,0,0,0-2.12,2.12"/><path class="cls-1" d="M155.57,95.58a2,2,0,0,1,4.07,0,2,2,0,1,1-4.07,0ZM137,79.26a2.12,2.12,0,1,0,2.12-2.12A2.13,2.13,0,0,0,137,79.26Zm-1.8,7.47a3,3,0,1,0,3-3A3,3,0,0,0,135.16,86.73Zm6.68-3.39a3.23,3.23,0,1,0,3.22-3.23A3.21,3.21,0,0,0,141.84,83.34Zm.27-6.89a2,2,0,1,0,2-2A2,2,0,0,0,142.1,76.45Zm9.59-5.08a2,2,0,1,0,2-2A2,2,0,0,0,151.69,71.37Zm-4,6.52a3.4,3.4,0,1,0,3.39-3.39A3.41,3.41,0,0,0,147.71,77.88Zm-5.45,12.4a2.12,2.12,0,1,0,2.11-2.12A2.12,2.12,0,0,0,142.26,90.29ZM149.2,86a2.12,2.12,0,1,0,2.12-2.12A2.13,2.13,0,0,0,149.2,86Zm-2,7.47a3.66,3.66,0,1,0,3.66-3.66A3.67,3.67,0,0,0,147.24,93.52ZM154.87,89a2.49,2.49,0,1,0,2.48-2.49A2.49,2.49,0,0,0,154.87,89Zm-.16-6.68a2.22,2.22,0,1,0,2.22-2.22,2.24,2.24,0,0,0-2.22,2.22"/><path class="cls-1" d="M160.12,151.88a15.61,15.61,0,0,1-10,3.44,13.11,13.11,0,0,1-4.56-.9c-.53,0-1.11.53-1.7,1.22A12,12,0,0,0,141,162.9c0,2.12,1.65,4.24,4.71,4.24,9.92,0,17.34-6.2,17.34-11.23C163,153,161.34,151.88,160.12,151.88Zm-2.76-.58a1.94,1.94,0,0,0,.53-1.54v-1.22c0-1.54-2.32-2.44-5.51-2.44-3.87,0-5.94,1.75-5.94,2.49V151c0,1,2.34,2,5.2,2A8.85,8.85,0,0,0,157.36,151.3Zm-.43,5.25c.27,0,.58.16.58,1.11a4.65,4.65,0,0,1-2.43,3.92,10.19,10.19,0,0,1-5.78,1.69,12.47,12.47,0,0,0,.74-3.86,10.17,10.17,0,0,0-.11-1.22h.69a12,12,0,0,0,6.3-1.64"/><path class="cls-1" d="M136.69,91.77c.58,4.5,6.63,2.22,6.63,7.68,0,.8-.21,2-.21,3,0,1.17.1,2.17,1,2.17s1.11-.63,1.11-1.48-.21-1.91-.21-2.49a2.05,2.05,0,0,1,2.12-2.28c2,0,3.55,2.07,6.58,2.07-.69,3.39-7.69,2.49-7.69,6.2,0,1.86,1.86,2.28,3.08,2.28s1.49-.16,1.49-1.11c0-.53-.11-1.12-.11-1.49a.42.42,0,0,1,.43-.43c1.17,0,6.88,4.35,6.88,5.67s-6,2.44-7.78,2.44a.56.56,0,0,1-.64-.58c0-.37.9-1.48.9-2.12,0-.48-.8-.8-2.92-.8-1,0-1.75.11-1.75.9,0,1.43,2.33,3.18,2.33,4.5,0,1.06-.64,1.7-2.33,1.7-1.43,0-3.6-1.12-3.6-3,0-1.48,1.53-3,1.53-3.87a.74.74,0,0,0-.84-.69c-2,0-2.49,5.19-9.44,5.78a5.33,5.33,0,0,0,2.07-4.4c0-1.11-.26-2-.26-3.23,0-1.59.74-2.39,1.8-2.39,2,0,2.91,2.76,4.19,2.76a1.53,1.53,0,0,0,1.43-1.59c0-4-7.74-3.45-7.74-9.12A13.12,13.12,0,0,1,136.69,91.77ZM162,107.3c0,1.32.43,2.86,1.75,2.86,1.11,0,2.07-1.69,2.07-3.55,0-2.12-.37-3.77-.37-4.61,0-.37.16-.53.37-.53.8.05,1.54,2.23,2.39,2.23s2.38-1.75,3-1.75c.16,0,.21.21.21.27,0,.8-1.22,2.55-1.22,3.24s3.08.69,3.08,1.22c0,.8-3.23.8-4.76,1.49s-2.39,1.43-2.39,2.49,1.06,1.27,2.55,1.27c3.54,0,6-1.91,6.83-1.91a.25.25,0,0,1,.26.26c0,.53-1.8,2.28-1.8,3.08s3.29,2,3.24,2.49c-.05.16-.27.21-.64.21-.59,0-1.49-.16-2.18-.16a1.22,1.22,0,0,0-1,.26c-.37.43.11,3.24-.63,3.24s-2.49-6.25-6.57-6.25c-.58,0-1,.48-1,1.27,0,2.12,2.07,4.56,4,5.72.89.58,2.38,1.17,2.38,1.49,0,.63-3.38.05-3.38,1.11s.42,2.39.42,3.23c0,.27-.05.58-.37.58-.64,0-2.18-2.91-2.92-2.91s-2,1.75-2.6,1.75a.3.3,0,0,1-.26-.32c0-1.22,2-4,2-6.68,0-1.27-.16-4-1.7-4-1.27,0-2.71,2-3.34,4-.37,1.17-.11,5.67-1,5.67s-.58-3-1.65-3c-.78,0-2.48,1.43-3.06,1.43-.11,0-.21-.05-.21-.16,0-.63,1.54-2.7,1.54-3.13,0-.79-3.5-.9-3.5-1.54,0-.37,1.38-.64,2.65-.85,2.7-.48,6.67-2.44,6.67-5.19,0-3.07-3-4.4-4.92-5.67-1-.64-2.12-1.16-2.12-1.59s1.27-.43,1.8-.43c.8,0,1.58-.05,1.58-.69,0-.48-.11-1.43-.11-2.17,0-.53.05-1,.27-1,.8,0,1.91,2.6,2.44,2.6.85,0,2-2.12,2.81-2.12.26,0,.37.16.37.64,0,2-1,4.19-1,6.1"/><path class="cls-1" d="M138.23,122c2.44.32,3,1.17,3,1.86,0,1.17-1.06,1.54-2.07,1.54-.74,0-1.59-.16-2.49-.16a4,4,0,0,0-3.29,1.38,1.81,1.81,0,0,1,1.7,1.65c0,3.07-8.53.53-8.53,8.43,0,4.19,4.35,8.75,10.92,8.75,3.4,0,5.57-1.11,5.57-2.39,0-1-1.8-.32-1.8-1.17,0-.37.64-1.06.64-1.65,0-.26-.21-.74-.64-.74-1,0-2.76,1.53-6.42,1.53-2.86,0-5.67-1.64-5.67-3.87,0-.48.21-.74.53-.74s.74.21,1.11.21.37-.21.37-.8,0-2.23,1-2.23,2.92,3.71,10.24,3.71c2.43,0,7.15-.47,8.9-2.07a13.78,13.78,0,0,1-14.15,13.52c-9.91,0-15.21-8-15.21-15.27A15.6,15.6,0,0,1,137.64,118c2.33,0,4.3.79,4.3,1.8C141.94,121.19,138.49,120.34,138.23,122Zm16.28,2.81a3.15,3.15,0,0,1,.53,1.69c0,1.49-1,2.86-1,4.4a3.16,3.16,0,0,0,3.33,3.18,3.67,3.67,0,0,0,3.66-3.82C161,127.44,158.47,125.06,154.5,124.79ZM137,128.18a2.14,2.14,0,0,1,.69,1.59c0,.8-.37,1.64-.37,2.55a2.33,2.33,0,0,0,2.33,2.38,2.47,2.47,0,0,0,2.5-2.54C142.1,130.14,140,128.18,137,128.18Zm7-9c5.57,1.06,8.59,5.25,8.59,9.17,0,2.7-1.7,5.19-4.67,5.19a4.49,4.49,0,0,1-4.66-4.82c0-2.23,1.74-4.56,1.74-6.84A4.11,4.11,0,0,0,144,119.17Zm2.76,7.05a1.27,1.27,0,0,0,1.27,1.33,1.46,1.46,0,0,0,1.38-1.59c0-1.11-1-2.65-2-2.65-.43,0-.27.64-.37,1.33-.05.53-.32,1.16-.32,1.59"/><path class="cls-1" d="M88.25,71.68c1.8,0,3.87-9.75,3.87-11.4,0-.42-.16-.74-.53-.74-1.64,0-3.92,9.28-3.92,11.35C87.66,71.26,87.77,71.68,88.25,71.68Zm13,2.91c1.32,0,2.81-5.09,2.81-8.27,0-.69-.11-1.43-.43-1.43-1.11,0-3,5.25-3,8.11C100.65,74.12,100.91,74.6,101.23,74.6Zm-8.64-4.72c.58,0,1.33-.64,2.71-2.17a13.75,13.75,0,0,0,.1-2.12c0-1.06-.42-2.23-1.06-2.23-1.59,0-2.39,4.24-2.39,5.36C92,69.35,92.27,69.88,92.59,69.88Zm7.26-2.17c0-.9-.21-1.12-.42-1.12-.53,0-1.11.64-2,2.07.11,1.91.42,2.76,1,2.76S99.85,69.56,99.85,67.71Zm4.08-6.26c3.5,0,5.09,3,5.09,6.41,0,1.48-.42,3.66-1.11,3.66s-.58-1.22-.69-2.33c-.11-1.43-.37-1.75-.85-1.75-.9,0-1.48,2.12-1.48,4.08,0,1.22.21,2.6,1.16,2.6a1.94,1.94,0,0,0,1.33-.58,4.74,4.74,0,0,1-4.56,4.56c-4.66,0-6.41-5.46-6.94-8.64-2.81,3-5.41,5.14-10.07,5.14a6,6,0,0,1-6.31-6.2c0-.9.32-3.23,1.43-3.23,1.32,0,.16,4.34,2.76,4.34.64,0,1.8-.53,2.44-2.28a9.86,9.86,0,0,0,.58-3.13c0-1.43-.32-2.33-1.38-2.33a4.15,4.15,0,0,0-2.39,1.06,8,8,0,0,1,7.74-5.78c4.19,0,6.42,3.71,6.42,7.85a10.38,10.38,0,0,1-.16,1.8c1.8-3,4.3-5.25,7-5.25"/><path class="cls-1" d="M94,75.71c-2.28,0-2.38,2.76-2.38,8.32-1.7-3.66-4.5-7.58-7.79-7.58-2.23,0-3.07,1.49-3.07,4.08a9.89,9.89,0,0,0,.16,1.8,2,2,0,0,1,2.17-1.27c2.28,0,5,1.75,6.84,4.14a35.26,35.26,0,0,0-5.78-.74,6.66,6.66,0,0,0-2.81.48,7,7,0,0,0-3.6,6.41,10.71,10.71,0,0,0,.16,1.75c1.85-4.14,6.78-6,10-6a10,10,0,0,1,1.48.11c-1.64,1.48-2,4.08-2.12,5.83-.05.85-.37.9-1,.9,0,1.75,1.38,4.35,1.38,5.67a1.12,1.12,0,0,1-.53,1c0,2.33,2.33,4,2.33,5.51a1.24,1.24,0,0,1-.27.85c.16,1,2.72,2.56,3.06,3.36.41,1,.87,1.14,1.13,1.14.9,0,2.33-1.06,2.33-2a1.26,1.26,0,0,0-.47-.85c-1-.74-1.54-2.33-2-3.39a1,1,0,0,1-1-.78c-.29-1.1-.3-3.14-.73-4.36-.69-.16-1-.42-1-1.85,0-.69.43-3.39.43-4.35a.75.75,0,0,1-.74-.85c0-1.69,1.7-3,2.17-5.19,3,2.22,3.76,4.5,3.76,6.52a13.93,13.93,0,0,1-.37,3c2.23-1.12,5.57-2.76,5.57-6.1,0-2-.9-4.13-6.89-5a18.73,18.73,0,0,1,6.15-1.06c3.39,0,5.35,1.06,5.78,3.44a6.61,6.61,0,0,0,1.22-3.39c0-2.6-2.17-4.29-4.93-4.29-3.23,0-6.09,1.69-9.17,3.76,1.38-2.86,2.33-4.56,4-4.56a4.11,4.11,0,0,1,.8.11c-.64-2.33-3-4.61-4.29-4.61"/><path class="cls-1" d="M183.33,113.92c2.65,0,4.78,3.44,4.78,7.47a16.66,16.66,0,0,1-5.61,12.14c-.05-7.15-8.81-4.87-8.81-10.07a3.52,3.52,0,0,1,3.5-3.71,5.37,5.37,0,0,1,4,1.43,4.7,4.7,0,0,1-1.43-3.39,3.6,3.6,0,0,1,3.6-3.87"/><path class="cls-1" d="M136,63.57a5.63,5.63,0,0,0,4.08,1.91c.59,0,1.28-.16,1.65-.16s.79.21.79.58A3.34,3.34,0,0,1,141.36,68a5.33,5.33,0,0,0,2.07.37,6.24,6.24,0,0,0,6.46-6.68,7.08,7.08,0,0,1,1,3.39c0,5.78-4.25,8-8.16,8a11.42,11.42,0,0,1-4.14-.85c-1,0-1,2-1.64,2-1.22-.21-2.33-2.92-2.33-5.78A8.44,8.44,0,0,1,136,63.57Zm8-3.87c-.42-.69-2-1.06-2.75-1.06A4.29,4.29,0,0,0,137,61.77a5,5,0,0,1-.37-1.8,5.12,5.12,0,0,1,5.47-5.19c3.38,0,4.71,1.8,5.19,1.8s1.06-.53,1.49-.53c.58,0,.58.9.58,1.54,0,2.12-1,5.78-3.34,7.1a5.41,5.41,0,0,0-2.64-2.54.84.84,0,0,1-.53-.8A2.14,2.14,0,0,1,144,59.7"/><path class="cls-1" d="M99.16,48.15c0,1.85,6.62,10.92,7.9,10.92,1.06,0,1.86-1.85,1.86-3.45a2.17,2.17,0,0,0-.32-1.16c-1-1.33-7.69-6.63-9.17-6.63A.3.3,0,0,0,99.16,48.15Zm-39-5.46c0,1.06-4,4.61-5.46,4.61-.53,0-.69-.63-.69-1.22a4.71,4.71,0,0,1,1.06-3,5.92,5.92,0,0,1,3.5-.95C59.36,42.11,60.2,42.26,60.2,42.69Zm48.4,3.08c0-3.18-8.6-9-8.69-11.45a.94.94,0,0,1,.31-.66c1.47-1.55,7.59-2.69,7.59-4,0-.69-1.27-.69-1.91-.69-4.93,0-12.14,1.8-12.14,3.55s6.47,6.2,6.47,8.38c0,.58-.37.79-1,.79-1.8,0-5.72-2.18-7.58-2.18-.85,0-1.17.58-1.17,1.43,0,2.54,3,7.37,3,8.79,0,.16-.05.37-.27.37-1,0-5.46-5.3-7-5.3-.58,0-.64.79-.64,2v1.8c0,1.22-.05,2-.63,2-1.38,0-2-3.87-3.34-3.87s-1.64,6.89-3,6.89c-1.54,0-.21-7.58-1.7-7.58-1.64,0-3.5,5-4.67,5-.42,0-.53-.43-.53-.8,0-1.54.9-4,.9-5.51,0-.74-.21-1.17-.85-1.17-1.65,0-5.25,2.65-6.63,2.65-.21,0-.48-.11-.48-.32,0-1.27,5.78-5.3,5.78-7.1s-8-.58-8-2.6c0-1.69,5.68-3.44,5.68-5.19,0-1.54-6.73-2.22-9.33-2.22-3.13,0-4.82.37-4.82,1.27,0,1.38,7.1,1.81,7.1,3s-7.37,4.29-7.37,6.1c0,1.59,10.39.11,10.39,1.75,0,1.8-9.06,9.59-9.06,12.19,0,.58.42.85,1,.85,2.76,0,9.91-5.25,11.87-5.25.69,0,.74.85.74,1.59,0,1.38-.48,3.5-.48,5,0,1.22.32,2.07,1.38,2.07,2,0,3.76-3.34,5.09-3.34,1.69,0,.69,9.8,3.23,9.8,2.17,0,3.07-10.6,4.45-10.6s2.49,3.07,3.77,3.07c1.59,0,.85-5.35,2.54-5.35,1.85,0,7.15,6.36,9.54,6.36.74,0,1-.58,1-1.33,0-2.81-3.92-9.17-3.92-11.18,0-.53.16-.69.74-.69,2.07,0,8.11,2.86,11,2.86C108,47,108.6,46.45,108.6,45.76Zm-5.51-10.49c0,1,3.34,3,4.88,3,.9,0,1.16-1.22,1.16-2.49,0-1.59-.69-1.64-2.07-1.64C105.31,34.15,103.08,34.63,103.08,35.27ZM90.63,29.86c0-.32-1.59-.64-3.76-.64-3.45,0-3,2.87-5.62,2.87s-2.07-3-5.57-3c-2.12,0-4.08.37-4.08.85,0,.64,2.49.37,2.49,2.12s-5.35,2.38-5.35,3.5c0,.37.42.53,1,.53,1.17,0,3-.53,4.35-.53.74,0,1.43.16,1.43.85,0,1.33-2.86,3.71-2.86,4.77,0,.32.26.43.53.43,1.06,0,2.86-2.7,4.56-2.7,2.81,0,1,6,2.49,6S81.09,39,83.37,39c1.86,0,3.23,4.08,4.51,4.08a.6.6,0,0,0,.58-.64c0-1.11-1.59-3.39-1.59-4.88,0-.9.64-1.33,1.48-1.33,1.22,0,2.86.74,3.76.74.32,0,.64-.11.64-.48,0-1.27-4.71-2.65-4.71-4.29s2.6-1.64,2.6-2.39"/><path class="cls-1" d="M184.6,38.45c0,4.71-3.44,8.32-9.64,9.33.69.05,1.33.05,2,.05,7.26,0,9.91-3.28,9.91-6A3.37,3.37,0,0,0,184.6,38.45Zm-9,5.35c0-3.76-9-4.72-9-5.56,0-.69,5-1.86,7.62-1.91-4-5.09-9.64-4.56-9.64-5.46,0-.53,4.24-1.59,8.16-1.59,3.29,0,6.36.74,6.36,3.23,0,1.38-1.11,2.81-1.11,4.93a2,2,0,0,0,2.12,2.17c1.65,0,2-1.75,2-3.61,0-1.53-.26-2.7-.26-3.44a3.52,3.52,0,0,1,3.7-3.71c1.8,0,2.23.79,4.88.79a4,4,0,0,0-2,3.13c0,2.23,1.44,3.77,1.44,8.32,0,8.37-7.84,11.34-17.44,11.34a55.05,55.05,0,0,1-8.21-.63c-.42-.05-.53-.16-.53-.42,0-.69,3.77-1.06,3.77-4.45a26.4,26.4,0,0,0-.43-3.07.42.42,0,0,1,.43-.43c.8,0,2.39,3.07,5.35,3.07A2.52,2.52,0,0,0,175.64,43.8Zm8.64-11.71a1.33,1.33,0,1,0,1.33-1.33,1.31,1.31,0,0,0-1.33,1.33"/><path class="cls-1" d="M179.57,81.06c0-1.11-2.81-1.22-3.08-4.35-.06-.48-.21-1.32-.8-1.32-1,0-.21,2.92-1.27,2.92-2.44,0-3.23-4.77-4.13-4.77-.21,0-.47.16-.47.8s.11,1,.11,1.64-.16,1.17-.8,1.17c-1.43,0-2.71-3.34-3.93-3.34a.48.48,0,0,0-.53.43c0,.64,1.06,1.8,1.06,2.38,0,1.27-3.45.58-3.45,1.64,0,.48.48.63,1.11.63,1.12,0,2.87-.47,3.77-.47.53,0,1.33.11,1.33.79s-1.91,1.7-1.91,2.39a.53.53,0,0,0,.58.48c1.43,0,4-2.49,5.77-2.49.32,0,1.11.16,1.11.64,0,.69-1.8,1.9-1.8,2.91a.54.54,0,0,0,.48.58c.95,0,2.22-2.49,4-2.49.69,0,1.7.27,2.23.27S179.57,81.22,179.57,81.06ZM181,106.77a32.23,32.23,0,0,1,3.65-7.37c-1.74-.9-6.35-2.81-6.35-5.94,0-3.66,4.56-6.52,5.51-6.52.43,0,.53.37.53,1.06,0,1.91-.9,5-.9,6.63,0,1.48,1,2.92,1.8,2.92s3.39-3.18,3.39-6.31a7.14,7.14,0,0,0-6.46-7.31c-1.43,0-4,2.33-10.13,2.33C160.59,86.26,158,75,158,70c0-.21.05-.27.1-.27a8.09,8.09,0,0,0,5,1.38c1.86,0,3.55-.48,6.26-.48,6.35,0,9.16,4.4,13.09,10,2.37,1.48,8.05,3.87,8.05,10.6,0,5.94-6.31,9.22-7.84,15.58,2.43-.26,3.86-4.61,6.35-4.61,1.27,0,1.86,1,1.86,2.6a11.54,11.54,0,0,1-3.87,8,3.58,3.58,0,0,0,.05-.8c0-1.48-.58-3.6-2.28-3.6-2.64,0-3.49,2.86-5,5.24-1.54-5.4-3.61-10.28-7.32-13.25s-10.23-1.38-10.23-6.89c0-1.49,1-3.6,1-5.3a2.49,2.49,0,0,0-.43-1.54c5.09,1.91,3.29,5.3,6.42,8.8,2,2.23,7.36,4.35,10.49,13.52a10,10,0,0,0,.11-1.43c0-7.85-10.38-15.53-11.29-18.71,6,.69,7.09,2.18,10,10.13.58,1.64,2.49,5.73,2.49,7.74"/><path class="cls-1" d="M152,50.69c-3.71,0-6.15-1.85-6.15-2.81a.74.74,0,0,1,.74-.79c1.17,0,3.71,1.8,4.56,1.8.21,0,.37-.1.37-.42,0-1-.9-2.54-.9-3.34,0-.21.16-.37.48-.37,1.43,0,3.55.58,4.67.58.37,0,.48-.21.48-.43,0-1.17-3.45-3.44-3.45-4.13s4.29-1.59,4.29-2.6-5.83-.32-5.83-1.33c0-.74,1.12-2,1.12-2.6,0-.27-.21-.37-.58-.37s-3,1-4.09,1c-.53,0-1.17-.11-1.17-.85,0-1.22,2.07-2.54,5.31-2.54,5.24,0,8.37,3.6,8.37,9.65C160.17,48.78,154.82,50.69,152,50.69ZM141.62,40.62c0-.58-2.07-1.7-2.07-2.33,0-.11.1-.16.26-.16.59,0,1.59.21,2.39.21s.8-3,1.32-3c.37,0,1,2.81,1.59,2.81s2-.8,2.49-.8c.11,0,.21.05.21.16,0,.37-1.33,1.8-1.33,2.22s3,1.06,3,1.49-3,.48-3,1,1.12,1.85,1.12,2.33a.14.14,0,0,1-.16.16c-.43,0-2.07-.74-2.55-.74s-1.53,2.17-2,2.17c-.16,0-.26-.21-.26-.48l-.11-2.12a.38.38,0,0,0-.37-.43c-.64,0-1.86-.05-2.23-.05s-.37-.05-.37-.16C139.5,42.48,141.62,41,141.62,40.62Zm-1.54,8.69c.85,0,1,2.07,1.17,3.29.11.64.21.69.48.69.64,0,1.64-2.44,2.32-2.44,1,0,3.71,2.81,8.22,2.81,6.41,0,12.46-4.51,12.46-12.45,0-7.69-5.41-12.19-12.88-12.19-3.55,0-6.15,1.75-7.53,1.75-.84.05-2.11-2.07-2.75-2.07-.26,0-.53.53-.53,1.43,0,.58,0,2.44-.64,2.44-1.28,0-6.2-3.66-6.2-2.33s3.28,4.93,3.28,5.88-3.23,1.86-3.23,2.49c0,1.17,3.44,1.38,3.44,2.86s-3.61,2.65-3.61,3.76c0,.9,3.61.27,3.61,1.38S135,51.43,135,52.49c0,.27.05.27.26.27,1,0,4-3.45,4.77-3.45"/><path class="cls-1" d="M116.07,142.39a2.43,2.43,0,0,1-.58,1.54,3.9,3.9,0,0,0-3-1.59c-5.46,0-3.39,7.9-9.22,7.9a27.59,27.59,0,0,1-3.55-.32c-.37,0-.58.16-.58.48,0,1.38,2,4.77,7.42,4.77s10.71-3.34,10.71-7.48a5.52,5.52,0,0,0-.48-2.17A1.55,1.55,0,0,1,118,145c.85,0,1.32,1,2.12,1a1.45,1.45,0,0,0,1.49-1.49,1.6,1.6,0,0,0-1-1.49,1.83,1.83,0,0,0,.74-1.43,1.68,1.68,0,0,0-1.7-1.75,1.51,1.51,0,0,0-1.16.52c-.1-.95-.64-1.85-1.64-1.85a1.37,1.37,0,0,0-1.38,1.49c0,.84.58,1.53.58,2.43"/><path class="cls-1" d="M87,132.53c4.24,1.05,6.36,3.33,6.78,6s1,4.72,2,5.78a9.16,9.16,0,0,0,6.2,2.81c1.91,0,3.44-.63,3.44-2.38,0-1.91-2.6-6.2-6.41-6.2-.37,0-.85.06-1.38.06a2.54,2.54,0,0,1-1.59-.48c-.85-.74-1.11-4.72-2.7-7.1a6.67,6.67,0,0,0-6.25-3.39c-1.85,0-3.92,1-3.92,2.49C83.16,131,83.63,131.68,87,132.53Zm14.79,11.87c-1.59,0-4-1.7-4-2.65a1.28,1.28,0,0,1,1.32-1.22c1.33,0,3.71,1.65,3.71,3,0,.37-.27.85-1.06.85"/><path class="cls-1" d="M96.94,103.11c0-3.39,8.06-5.19,8.06-9.38a6.93,6.93,0,0,0-.74-2.81c2.81,1.54,4.87,4.13,4.87,6.25,0,3.66-3.82,5.35-3.82,7.63,0,2.65,4.08,3.07,4.08,6.36,0,2.7-3.87,5.83-3.87,9.33a5.29,5.29,0,0,0,4.82,5.3,12.25,12.25,0,0,1-2.7.37c-5.36,0-10.87-4.4-10.87-9.65A9,9,0,0,1,99.59,110c1.49,1.27,3,2.12,3.92,2.12s1.22-.42,1.22-1.06C104.73,109.1,96.94,107.3,96.94,103.11Zm16.91,26.77c-1.82.83-2.54.69-2.54,2.55,0,.69-.16,1.59-.16,2.06,0,.64.11,1,.85,1,1.91,0,4.93-3.23,4.93-6,0-.74-.43-1.06-.9-1.06S115.12,129.3,113.85,129.88Zm-.21-3.82c0-2.38-4.93-2.44-4.93-6a8.27,8.27,0,0,1,1.75-4.08c.48,2.76,1.59,4.19,4,5.09,4.71,1.75,5.35,4.4,5.35,7.21,0,4.77-3.34,10.71-11.93,10.71C101,138.94,96,132.79,96,127.6c0-1.43.37-3,1.27-3s1.06.63,1.7,1.27c2.39,2.39,5,3,8.75,3,3.39,0,5.88-1.38,5.88-2.81"/><path class="cls-1" d="M76.1,127.21a2,2,0,1,1-2.24-1.77A2,2,0,0,1,76.1,127.21Zm-9.91,2.08a3.46,3.46,0,0,0,3.82,3,4.35,4.35,0,0,0,1.75-.53,3.26,3.26,0,0,0,3.77,2.53,3.36,3.36,0,0,0,3.07-3.75,3.81,3.81,0,0,0-.32-1.22l.45-.06a3.53,3.53,0,0,0,3-3.75,3.44,3.44,0,0,0-3.7-3.1,3.34,3.34,0,0,0-1.75.72,3.57,3.57,0,0,0-4-2.63,3.43,3.43,0,0,0-2.88,3.85,3.48,3.48,0,0,0,.27,1.06l-.53.08a3.57,3.57,0,0,0-3,3.85"/></g></svg>