<svg xmlns="http://www.w3.org/2000/svg" viewBox="0 0 250 250"><defs><style>.cls-1{fill:#333d47;}</style></defs><title>clients</title><g id="TKMAXX"><path class="cls-1" d="M68.82,122.45h0M57.38,98.27c0,7.92-1.27,12.21-4.07,15.22a14.31,14.31,0,0,1-10.58,4.08c-4.15,0-7.83-1.38-10-3.7s-3.36-5.78-3.36-10.74v-31c0-1.36-.5-2-2-2H6.24c-1.48,0-2,.58-2,2v28.05c0,11.2,2.89,17.59,7.93,22.63,6.55,6.55,17.74,9.48,28.38,9.48s21.69-3.77,28.23-9.81c6.44,5.85,18.1,9.8,31,9.8,17,0,29.53-7,36.83-19,3.25,5,5.65,8.76,7.95,12.16,3.39,5,6.47,6.85,13.37,6.85,6.54,0,10.47-1.57,14-7,9.28-14.18,17.18-30.95,22.88-46.38A15.86,15.86,0,0,0,196,74.69c0-.9-.59-1.61-2-2.06s-5-1.55-6.85-2.11a21.65,21.65,0,0,0-4.82-1.2c-1.23,0-1.9.69-2.33,2.11-4.27,14.22-10.77,30.2-16.57,40.12-1.9-3.62-5.41-9.93-8.67-15.62-5-8.79-10-17.67-12.52-21.75a23.57,23.57,0,0,0-1.88-2.66A6.5,6.5,0,0,0,134.74,69c-6.86,0-17,6.15-17,11.88,0,2,.54,3.41,2.56,6.85l0,.06c2.27,3.89,3.42,7.06,3.42,10.95,0,9.75-7.29,18.58-21.35,18.58-6.67,0-11.83-1.89-15.18-5.34-3.21-3.28-4.76-7.7-4.76-15.09V84.48A22.1,22.1,0,0,0,91.16,86h11.13c1.5,0,2-.6,2-2V72.11c0-1.36-.53-2-2-2H82.46V50.63a6.43,6.43,0,0,0-1.92-5.13c-1.94-1.76-5.92-2.62-10.62-2.62s-8.68.86-10.62,2.62a6.45,6.45,0,0,0-1.92,5.14Z"/><path class="cls-1" d="M16.8,61.5c7.86,0,12.71-5.58,12.71-12.6S24.66,36.3,16.8,36.3,4.1,41.87,4.1,48.9,9,61.5,16.8,61.5Z"/><path class="cls-1" d="M9.67,173.45c0,.75-.63,1.13-2.73,1.13s-2.74-.38-2.74-1.17V148.56H14.62c2.92,0,5.32.42,7.09,1.8,1.57,1.24,2.51,3.23,2.51,6.19a8.06,8.06,0,0,1-2.59,6.33,8.44,8.44,0,0,1-3,1.58L24.18,173c.3.49.37.68.37.86,0,.42-.78.72-2.66.72-2.21,0-3-.3-3.41-.94l-5.21-8.7H9.67Zm8.1-14a4.13,4.13,0,0,0,.86-2.92,3.65,3.65,0,0,0-.86-2.63c-.75-.75-1.84-.93-3.56-.93H9.67v7.53h4.76A4.3,4.3,0,0,0,17.77,159.47Z"/><path class="cls-1" d="M29.34,172.29c-1.76-1.72-2.55-4.39-2.55-7.8,0-6.56,3.26-10.19,9.44-10.19,5.66,0,8.81,3,8.81,8.92a19.91,19.91,0,0,1-.26,3H32.15a5.22,5.22,0,0,0,.71,2.77c.75,1,2.17,1.61,4.61,1.61a34.26,34.26,0,0,0,4.76-.37,3.55,3.55,0,0,1,.6-.08c.56,0,.64.3.71,1.13,0,.37.08,1.12.08,1.61a1.19,1.19,0,0,1-1,1.35,26.47,26.47,0,0,1-5.36.52C33.54,174.76,31,174,29.34,172.29Zm10.31-9.82a5.87,5.87,0,0,0-.68-3.15,3.13,3.13,0,0,0-2.77-1.16,3.62,3.62,0,0,0-2.85,1,5.33,5.33,0,0,0-1.09,3.3Z"/><path class="cls-1" d="M61.18,159.06a23.29,23.29,0,0,0-5-.68c-2.66,0-3.71.57-3.71,1.73s.79,1.38,2.93,1.87l1.91.45a7.77,7.77,0,0,1,4,2,5,5,0,0,1,1.27,3.63c0,4-2.4,6.67-8.43,6.67a20.15,20.15,0,0,1-5.7-.86c-.75-.3-.9-.49-.9-1.12,0-.3,0-1,.11-1.62.12-.93.3-1.42.83-1.42a4.67,4.67,0,0,1,1.08.26,18.3,18.3,0,0,0,4.58.68c2.51,0,3.63-.68,3.63-2s-1-1.73-3-2.21l-1.5-.38c-2.21-.56-3.56-1.2-4.42-2.13a5.09,5.09,0,0,1-1.27-3.57c0-4,2.88-6.14,8.13-6.14a26.57,26.57,0,0,1,5.77.75Z"/><path class="cls-1" d="M71,181.62c0,1-1,1.39-2.66,1.39s-2.67-.41-2.67-1.39V155a70.91,70.91,0,0,1,9.07-.67c6.23,0,9.75,3.37,9.75,9.86v.15c0,7.3-3.94,10.45-9.41,10.45a11.74,11.74,0,0,1-4.08-.63Zm8.09-17.2c0-3.71-1.16-6-4.68-6a23.16,23.16,0,0,0-3.41.23v11.47a11.64,11.64,0,0,0,3.82.6C77.83,170.68,79.06,168.58,79.06,164.42Z"/><path class="cls-1" d="M87.15,164.57v-.15c0-6.75,3.56-10.12,9.78-10.12s9.79,3.37,9.79,10.12v.15c0,6.74-3.56,10.19-9.79,10.19S87.15,171.31,87.15,164.57Zm5.44,0c0,4.2,1.23,6.15,4.34,6.15s4.35-1.95,4.35-6.15c0-4.39-1.23-6.22-4.35-6.22S92.59,160.18,92.59,164.57Z"/><path class="cls-1" d="M128.15,173.19c0,1-1.09,1.39-2.74,1.39s-2.58-.42-2.58-1.39V162.28a4.89,4.89,0,0,0-.64-2.88,2.8,2.8,0,0,0-2.36-.87,9.23,9.23,0,0,0-4.46,1.35v13.31c0,1-1.09,1.39-2.74,1.39s-2.58-.42-2.58-1.39V154.67h4.83l.19,1.73a12.18,12.18,0,0,1,6.45-2.1,6.55,6.55,0,0,1,4.87,1.87c1.27,1.39,1.76,3.15,1.76,5.7Z"/><path class="cls-1" d="M145.05,159.06a23.28,23.28,0,0,0-5-.68c-2.66,0-3.71.57-3.71,1.73s.79,1.38,2.92,1.87l1.91.45a7.69,7.69,0,0,1,4.05,2,5,5,0,0,1,1.28,3.63c0,4-2.4,6.67-8.44,6.67a20.07,20.07,0,0,1-5.69-.86c-.75-.3-.9-.49-.9-1.12a15.1,15.1,0,0,1,.11-1.62c.11-.93.3-1.42.82-1.42a4.73,4.73,0,0,1,1.09.26,18.22,18.22,0,0,0,4.57.68c2.51,0,3.64-.68,3.64-2s-1-1.73-3-2.21l-1.5-.38c-2.21-.56-3.56-1.2-4.42-2.13a5.05,5.05,0,0,1-1.28-3.57c0-4,2.89-6.14,8.14-6.14a26.57,26.57,0,0,1,5.77.75Z"/><path class="cls-1" d="M155.09,148.6v.23c0,1.72-.86,2.81-3,2.81s-3-1.09-3-2.81v-.23c0-1.84.79-2.81,3-2.81S155.09,146.76,155.09,148.6Zm-.26,24.59c0,1-1.09,1.39-2.74,1.39s-2.58-.42-2.58-1.39V154.67h5.32Z"/><path class="cls-1" d="M159.82,174.13c-.67-.15-.9-.45-.9-1v-26.2h5.33v8.62a10.64,10.64,0,0,1,5.06-1.2c5.06,0,8.36,3.22,8.36,10v.19c0,6.44-3.64,10.3-10.13,10.3A42.55,42.55,0,0,1,159.82,174.13Zm4.43-14.85v11.14a30,30,0,0,0,3.22.26c3.26,0,4.87-2.18,4.87-6.19,0-4.31-1.5-6.11-4-6.11A8.71,8.71,0,0,0,164.25,159.28Z"/><path class="cls-1" d="M186.56,148.6v.23c0,1.72-.86,2.81-3,2.81s-3-1.09-3-2.81v-.23c0-1.84.78-2.81,3-2.81S186.56,146.76,186.56,148.6Zm-.26,24.59c0,1-1.09,1.39-2.74,1.39s-2.58-.42-2.58-1.39V154.67h5.32Z"/><path class="cls-1" d="M195.64,146.88v21.7a3.14,3.14,0,0,0,.22,1.35c.23.37.64.52,1.32.52a7.28,7.28,0,0,0,.93-.07,3.73,3.73,0,0,1,.56-.08c.34,0,.53.34.6,1a14.68,14.68,0,0,1,.12,1.8c0,.72-.15,1-.72,1.2a12.56,12.56,0,0,1-2.84.3c-4.2,0-5.51-1.72-5.51-5.69v-22Z"/><path class="cls-1" d="M207.27,148.6v.23c0,1.72-.87,2.81-3,2.81s-3-1.09-3-2.81v-.23c0-1.84.79-2.81,3-2.81S207.27,146.76,207.27,148.6ZM207,173.19c0,1-1.08,1.39-2.73,1.39s-2.59-.42-2.59-1.39V154.67H207Z"/><path class="cls-1" d="M216.58,149.65h1.65v5h5.85l-.23,4.05h-5.62v9.33a2.65,2.65,0,0,0,.52,1.95,2.44,2.44,0,0,0,1.84.53c.56,0,1.28-.08,1.61-.11s.64-.08.83-.08c.37,0,.63.3.67,1.12,0,.6.08,1.28.08,1.58,0,.79-.19,1.16-1,1.35a17.89,17.89,0,0,1-3.42.3c-2.28,0-4-.49-5-1.61s-1.42-2.78-1.42-5v-9.41H210c-.52,0-.67-.3-.67-1.39,0-.9.11-1.31.63-1.72C211.93,154,214.14,152,216.58,149.65Z"/><path class="cls-1" d="M245.9,154.67c-2.62,8.55-6,18.56-9,27.36-.27.75-1,1-2.81,1-2.4,0-2.63-.49-2.4-1.13.71-1.91,2-5.21,2.77-7.49-1.16,0-1.76-.08-2.14-1.13-2-5.47-4.49-12.55-6.41-18.59h5.55c1.16,4.09,3.3,11,4.46,14.58h.26c1.43-4.57,2.89-9.78,4.2-14.58Z"/><path class="cls-1" d="M4.62,202.12c0-2.45.62-4.32,1.86-5.5A6.72,6.72,0,0,1,11.33,195a13.73,13.73,0,0,1,3.13.36l-.14,1.31a14,14,0,0,0-2.89-.32c-1.85,0-3.06.38-3.84,1.2a6.6,6.6,0,0,0-1.33,4.57c0,4.15,1.71,5.76,5.07,5.76a14.57,14.57,0,0,0,2.33-.26c.52-.1.8-.18.88-.18s.22.06.28.5a5.22,5.22,0,0,1,.06.63c0,.16-.1.2-.34.26a14,14,0,0,1-3.39.42C6.77,209.28,4.62,207,4.62,202.12Z"/><path class="cls-1" d="M18,208.58c0,.22-.06.56-.8.56s-.77-.34-.77-.56V198.51h1.37l.14,2.41a7,7,0,0,1,4.16-2.61V200a7.3,7.3,0,0,0-4.1,2.34Z"/><path class="cls-1" d="M28.29,209.28A5.41,5.41,0,0,1,24.23,208,5.79,5.79,0,0,1,23,203.83v-.06c0-3.53,1.55-5.46,4.75-5.46,2.91,0,4.36,1.56,4.36,4.7,0,.3,0,.88-.08,1.27H24.59a4,4,0,0,0,.78,2.83c.59.58,1.41.84,3.08.84a13.22,13.22,0,0,0,2.17-.22,2.84,2.84,0,0,1,.42-.06c.18,0,.22.06.24.32a5.22,5.22,0,0,1,.06.63c0,.24,0,.28-.32.36A12.63,12.63,0,0,1,28.29,209.28ZM30.48,203a2.12,2.12,0,0,0,0-.3c0-2.05-.83-3.16-2.77-3.16-2.2,0-3.06,1.31-3.14,3.46Z"/><path class="cls-1" d="M34.3,198.85a11.47,11.47,0,0,1,3.37-.54c1.71,0,2.74.32,3.36,1a3.66,3.66,0,0,1,.84,2.71v3.6c0,1.65.16,2.92.16,3.12s-.1.44-.64.44-.68-.14-.76-.46l-.2-.83a5.31,5.31,0,0,1-3.66,1.43c-2.07,0-3.44-1.25-3.44-3,0-2,1.47-3.29,4.36-3.29a12.38,12.38,0,0,1,2.62.28v-1.08a2.57,2.57,0,0,0-.51-1.89,3.22,3.22,0,0,0-2.33-.65,10.5,10.5,0,0,0-3.09.55Zm.6,7.33c0,1.13.74,1.91,2.23,1.91a4.55,4.55,0,0,0,3.18-1.4v-2.33a11.59,11.59,0,0,0-2.3-.25C36,204.11,34.9,204.76,34.9,206.18Z"/><path class="cls-1" d="M46.21,195.81h.71v2.7h3.33l-.06,1.22H46.92v6.13c0,.89,0,1.39.36,1.71a2,2,0,0,0,1.38.36c.47,0,1.15-.12,1.29-.12s.24,0,.26.28,0,.49,0,.59c0,.26-.1.28-.28.34a6.62,6.62,0,0,1-1.63.22c-2.33,0-3-.89-3-3.18v-6.33H43.44c-.24,0-.28-.12-.28-.36a.43.43,0,0,1,.24-.44A7.33,7.33,0,0,0,46.21,195.81Z"/><path class="cls-1" d="M53.71,195.35v.1a1,1,0,1,1-2.09,0v-.1c0-.68.3-1.08,1-1.08S53.71,194.67,53.71,195.35Zm-1.83,3.16h1.57v10.07c0,.22-.06.56-.81.56s-.76-.34-.76-.56Z"/><path class="cls-1" d="M63.09,202.41a3.29,3.29,0,0,0-.46-2.11,2.24,2.24,0,0,0-1.91-.69,6.59,6.59,0,0,0-3.47,1.25v7.72c0,.22-.07.56-.81.56s-.76-.34-.76-.56V198.51h1.4l.08,1.18a6.83,6.83,0,0,1,3.92-1.38,3.7,3.7,0,0,1,2.62.88,3.8,3.8,0,0,1,1,2.91v6.48c0,.22,0,.56-.78.56s-.79-.34-.79-.56Z"/><path class="cls-1" d="M74.06,208.19a5.11,5.11,0,0,1-3.15,1c-2.81,0-4.56-1.91-4.56-5.33v-.1c0-3.82,2.31-5.42,5.54-5.42a13,13,0,0,1,3.74.62v9.91a5.17,5.17,0,0,1-1.16,3.71A4.58,4.58,0,0,1,71,213.7a10.9,10.9,0,0,1-2.75-.3c-.2-.06-.3-.14-.3-.42a3,3,0,0,1,0-.51c.06-.28.16-.38.28-.38s.28,0,.54.08a12.79,12.79,0,0,0,2,.18,3.24,3.24,0,0,0,2.51-.68,3.77,3.77,0,0,0,.78-2.75Zm0-8.3a7.71,7.71,0,0,0-2.23-.34c-2.67,0-3.87,1.37-3.87,4.18,0,3,1,4.18,3.35,4.18a5.21,5.21,0,0,0,2.75-.84Z"/><path class="cls-1" d="M81.22,203.81c0-3.71,2-5.5,5.3-5.5a8.12,8.12,0,0,1,2.48.36L88.87,200a8.16,8.16,0,0,0-2.21-.34c-2.65,0-3.83,1.11-3.83,4.2,0,2.9,1.06,4.14,3.71,4.14a18,18,0,0,0,2.25-.22c.19,0,.31,0,.35.3a5.32,5.32,0,0,1,0,.63c0,.24-.08.3-.37.36a12.12,12.12,0,0,1-2.45.26C83,209.28,81.22,207.33,81.22,203.81Z"/><path class="cls-1" d="M98.08,202.41a3.29,3.29,0,0,0-.46-2.11,2.27,2.27,0,0,0-1.91-.69,6.62,6.62,0,0,0-3.48,1.25v7.72c0,.22-.06.56-.8.56s-.77-.34-.77-.56V194.33h1.57v5.32a6.66,6.66,0,0,1,3.84-1.34,3.68,3.68,0,0,1,2.61.88,3.81,3.81,0,0,1,1,2.91v6.48c0,.22,0,.56-.79.56s-.78-.34-.78-.56Z"/><path class="cls-1" d="M102.18,198.85a11.47,11.47,0,0,1,3.37-.54c1.71,0,2.74.32,3.36,1a3.66,3.66,0,0,1,.84,2.71v3.6c0,1.65.16,2.92.16,3.12s-.1.44-.64.44-.68-.14-.76-.46l-.2-.83a5.3,5.3,0,0,1-3.66,1.43c-2.07,0-3.44-1.25-3.44-3,0-2,1.47-3.29,4.36-3.29a12.38,12.38,0,0,1,2.62.28v-1.08a2.57,2.57,0,0,0-.51-1.89,3.22,3.22,0,0,0-2.33-.65,10.5,10.5,0,0,0-3.09.55Zm.6,7.33c0,1.13.74,1.91,2.23,1.91a4.55,4.55,0,0,0,3.18-1.4v-2.33a11.59,11.59,0,0,0-2.3-.25C103.87,204.11,102.78,204.76,102.78,206.18Z"/><path class="cls-1" d="M119.3,202.41a3.29,3.29,0,0,0-.46-2.11,2.27,2.27,0,0,0-1.91-.69,6.62,6.62,0,0,0-3.48,1.25v7.72c0,.22-.06.56-.8.56s-.77-.34-.77-.56V198.51h1.41l.08,1.18a6.81,6.81,0,0,1,3.92-1.38,3.68,3.68,0,0,1,2.61.88,3.81,3.81,0,0,1,1,2.91v6.48c0,.22,0,.56-.79.56s-.78-.34-.78-.56Z"/><path class="cls-1" d="M130.27,208.19a5.13,5.13,0,0,1-3.15,1c-2.82,0-4.57-1.91-4.57-5.33v-.1c0-3.82,2.31-5.42,5.55-5.42a13.08,13.08,0,0,1,3.74.62v9.91a5.12,5.12,0,0,1-1.17,3.71,4.55,4.55,0,0,1-3.49,1.15,11,11,0,0,1-2.76-.3c-.2-.06-.3-.14-.3-.42a3,3,0,0,1,0-.51c.06-.28.16-.38.28-.38s.28,0,.55.08a12.64,12.64,0,0,0,2,.18,3.26,3.26,0,0,0,2.52-.68,3.77,3.77,0,0,0,.78-2.75Zm0-8.3a7.76,7.76,0,0,0-2.23-.34c-2.67,0-3.88,1.37-3.88,4.18,0,3,1,4.18,3.36,4.18a5.24,5.24,0,0,0,2.75-.84Z"/><path class="cls-1" d="M138.83,209.28a5.42,5.42,0,0,1-4.06-1.29,5.84,5.84,0,0,1-1.24-4.16v-.06c0-3.53,1.54-5.46,4.74-5.46,2.91,0,4.36,1.56,4.36,4.7,0,.3,0,.88-.08,1.27h-7.42a4,4,0,0,0,.79,2.83c.58.58,1.4.84,3.07.84a13.1,13.1,0,0,0,2.17-.22,2.84,2.84,0,0,1,.42-.06c.18,0,.23.06.25.32a5.22,5.22,0,0,1,.06.63c0,.24,0,.28-.33.36A12.55,12.55,0,0,1,138.83,209.28ZM141,203a2.12,2.12,0,0,0,0-.3c0-2.05-.82-3.16-2.77-3.16-2.19,0-3.06,1.31-3.14,3.46Z"/><path class="cls-1" d="M149.46,199.73h-1.75c-.3,0-.4-.1-.4-.54s.1-.54.4-.56l1.75-.12v-.87a3.79,3.79,0,0,1,.76-2.63,3.52,3.52,0,0,1,2.66-.88,7.31,7.31,0,0,1,1.79.2l-.06,1.2a6.33,6.33,0,0,0-1.37-.16,1.78,1.78,0,0,0-2.21,2.19v.95h3.21l-.06,1.22H151v8.85c0,.22,0,.56-.79.56s-.78-.34-.78-.56Z"/><path class="cls-1" d="M154.91,203.73c0-3.61,1.83-5.42,4.94-5.42,3.28,0,4.94,1.81,4.94,5.4v.1c0,3.62-1.66,5.47-4.94,5.47-3.11,0-4.94-1.85-4.94-5.47Zm4.94,4.3q3.35,0,3.34-4.26c0-2.91-1.09-4.22-3.34-4.22s-3.34,1.23-3.34,4.22C156.51,206.61,157.54,208,159.85,208Z"/><path class="cls-1" d="M168.11,208.58c0,.22-.06.56-.8.56s-.77-.34-.77-.56V198.51h1.37l.14,2.41a7,7,0,0,1,4.16-2.61V200a7.3,7.3,0,0,0-4.1,2.34Z"/><path class="cls-1" d="M184.69,208.19a5.15,5.15,0,0,1-3.16,1c-2.81,0-4.56-1.91-4.56-5.33v-.1c0-3.82,2.31-5.42,5.55-5.42a13.14,13.14,0,0,1,3.74.62v9.91a5.17,5.17,0,0,1-1.17,3.71,4.56,4.56,0,0,1-3.5,1.15,10.9,10.9,0,0,1-2.75-.3c-.2-.06-.3-.14-.3-.42a3,3,0,0,1,0-.51c.06-.28.16-.38.28-.38s.28,0,.54.08a12.79,12.79,0,0,0,2,.18,3.22,3.22,0,0,0,2.51-.68,3.73,3.73,0,0,0,.79-2.75Zm0-8.3a7.81,7.81,0,0,0-2.23-.34c-2.68,0-3.88,1.37-3.88,4.18,0,3,1,4.18,3.35,4.18a5.27,5.27,0,0,0,2.76-.84Z"/><path class="cls-1" d="M187.94,203.73c0-3.61,1.83-5.42,4.95-5.42,3.27,0,4.94,1.81,4.94,5.4v.1c0,3.62-1.67,5.47-4.94,5.47-3.12,0-4.95-1.85-4.95-5.47Zm4.95,4.3c2.23,0,3.33-1.42,3.33-4.26s-1.08-4.22-3.33-4.22-3.34,1.23-3.34,4.22C189.55,206.61,190.58,208,192.89,208Z"/><path class="cls-1" d="M199.24,203.73c0-3.61,1.83-5.42,4.94-5.42,3.28,0,4.94,1.81,4.94,5.4v.1c0,3.62-1.66,5.47-4.94,5.47-3.11,0-4.94-1.85-4.94-5.47Zm4.94,4.3q3.34,0,3.34-4.26c0-2.91-1.09-4.22-3.34-4.22s-3.34,1.23-3.34,4.22C200.84,206.61,201.87,208,204.18,208Z"/><path class="cls-1" d="M218.31,194.33h1.56v13.88c0,.27,0,.31-.46.47a13.28,13.28,0,0,1-3.76.6c-3.25,0-5.12-1.73-5.12-5.49v-.1c0-2.83,1.53-5.38,4.86-5.38a7.1,7.1,0,0,1,2.92.66Zm0,5.85a6,6,0,0,0-2.72-.63c-2,0-3.45,1.13-3.45,4.2,0,2.76.78,4.28,3.57,4.28a11.86,11.86,0,0,0,2.6-.32Z"/></g></svg>