<svg xmlns="http://www.w3.org/2000/svg" viewBox="0 0 250 250"><defs><style>.cls-1{fill:#333d47;}</style></defs><title>clients</title><g id="Arcadia"><path class="cls-1" d="M31.45,101.41Q45.24,125.23,59,149.08c-1.68,0-3.36,0-5,0-5.17-4.92-10.88-9.54-17.58-12.2-6.22-2.5-13.74-2.13-19.39,1.61-3.89,2.57-6.29,6.69-8.63,10.61-1.45,0-2.91,0-4.36,0q13.74-23.84,27.5-47.67m0,8.06c-4.79,8.24-9.53,16.51-14.32,24.74a20.25,20.25,0,0,1,11.34-2.61c8.11.11,15.62,4.3,21.45,9.7-6.2-10.59-12.29-21.23-18.47-31.83Zm0,0"/><path class="cls-1" d="M189.66,101.73h3.76V149.1h-3.9q0-3.45,0-6.92a19.52,19.52,0,0,1-9.77,6.57,16.74,16.74,0,0,1-15.48-3.49c-8.07-7-8.75-20.93-1.27-28.63,6.28-6.57,18-7,24.53-.57.76.73,1.43,1.55,2.13,2.34,0-5.55,0-11.11,0-16.67M173,115.24a13.49,13.49,0,0,0-7.55,4.24c-5.89,6.6-4.93,18.09,2.08,23.53,6.05,4.71,15.86,2.81,19.88-3.68,3.6-5.83,3.46-14.09-1-19.43A14.21,14.21,0,0,0,173,115.24Zm0,0"/><path class="cls-1" d="M202.08,101.92a2.8,2.8,0,1,1,1.42,5.2c-2.61.12-3.56-3.91-1.42-5.2Zm0,0"/><path class="cls-1" d="M67.66,116.41c3-4.52,9.63-6.49,14.36-3.57-.68,1.12-1.33,2.26-2,3.4a10.58,10.58,0,0,0-5.45-.88,8.54,8.54,0,0,0-7,8.36q0,12.69,0,25.38H63.78q0-18.43,0-36.89l3.88,0c0,1.41,0,2.82,0,4.22Zm0,0"/><path class="cls-1" d="M88.57,115.66c6.53-5.66,17.06-5.59,23.62,0-.59,1-1.18,2.1-1.75,3.16a15,15,0,0,0-20.41.47c-6.2,6-6.17,17.31.6,22.85a15.61,15.61,0,0,0,13.24,3.21,20.35,20.35,0,0,0,6.58-3.49c.61,1.07,1.23,2.13,1.83,3.21-7.51,6.72-20.31,5.43-26.5-2.44-6.5-7.81-5.13-20.63,2.79-27Zm0,0"/><path class="cls-1" d="M120.82,116.81c5.3-5.77,14.59-6.88,21.36-3.19a19.28,19.28,0,0,1,5.35,4.71c0-2,0-4.09,0-6.13h3.75q0,18.47,0,36.91h-3.76c0-2.34,0-4.68,0-7a19,19,0,0,1-11.78,7.09,16.8,16.8,0,0,1-13.77-4.1c-7.79-7-8.49-20.65-1.16-28.26m8.83-1.28a13.43,13.43,0,0,0-6.45,4.18c-5.67,6.58-4.67,17.79,2.12,23.21,6.1,4.83,16.08,2.93,20.08-3.69,3.82-6.31,3.29-15.46-2.27-20.6a14.45,14.45,0,0,0-13.48-3.1Zm0,0"/><path class="cls-1" d="M215.35,117.91c5.11-6.66,15.2-8.27,22.42-4.26a18.74,18.74,0,0,1,5.31,4.73c0-2.06,0-4.12,0-6.18h3.76v36.9h-3.76c0-2.36,0-4.71,0-7.08a19.32,19.32,0,0,1-10.57,6.91,16.76,16.76,0,0,1-15.27-4.09c-7.19-6.8-8.08-19.19-1.91-26.93m9.88-2.39a13.38,13.38,0,0,0-6.23,3.89c-6.07,6.61-5,18.37,2.17,23.74,6,4.5,15.53,2.64,19.58-3.65s3.52-16-2.4-21.13a14.41,14.41,0,0,0-13.12-2.85Zm0,0"/><path class="cls-1" d="M201.6,149V112.2c1.3,0,2.59,0,3.89,0V149Zm0,0"/></g></svg>