<svg xmlns="http://www.w3.org/2000/svg" viewBox="0 0 250 250"><defs><style>.cls-1{fill:#333d47;}</style></defs><title>clients</title><g id="UNILEVER"><path class="cls-1" d="M68,189.41a27.83,27.83,0,0,1-1.18-3.93c-.44-2.94,1.1-4.88,2.51-5.33,1.59-.44,2.21.36,2.82,2.21.79,2.82.88,6.51.61,11.8-.34,7.22-4,16-12.94,15.77-7.76-.17-11.19-5.19-11.55-12.86a35.33,35.33,0,0,1,1.59-12.33c.79-2.73,1.5-3.71,4-4.23,1.94-.36,1.77,1.67,1.33,4.05-1,5.29-1.42,7.84-1.06,13.83.35,6.35,3.26,8.81,6.43,8.81,4.76.09,6.87-3.87,7.76-9.6C69,193,68.45,190.82,68,189.41Zm101.44,6.26c1.85,0,2.39,2.19,1.94,3.51a5.64,5.64,0,0,1-4.49,3.27C166.36,201.12,166.09,195.67,169.44,195.67Zm-34.44,3c0-1.49-.79-2.72-1.76-2.72-.8,0-2.64.87-2.64,3.69a5.48,5.48,0,0,0,1.14,3.71A4.56,4.56,0,0,0,135,198.65Zm-27.4-18a2.58,2.58,0,0,0-2.73-2.37c-1.67,0-3.25,1.75-3.08,4a2.59,2.59,0,0,0,2.65,2.65C106.37,184.92,107.78,182.71,107.6,180.68Zm14.33,5.18c-.16-2.46-.75-3.58-2.08-3.49-1.75.11-2.56,5.63-2.2,11.43.23,3.79.79,4.37,1.32,4.33C119.94,198.08,122.26,191.31,121.93,185.86Zm58.44,9.27c-1.1,4.53-4.41,11.19-9.34,11.19-1.15,0-3.17-.44-3.17-1.58s7.75-1.41,7.75-7.32c0-2.2-2-5.28-5-5.28-4,0-7.83,4.32-7.83,10.31,0,5.37,3.33,7.13,6.68,7.13,5.82,0,9.34-4.76,11.19-8.72.89,2.64,1.41,8.72,3.62,8.72.88,0,1.5-.44,2.55-2.82,2.64-5.9,5.2-12.69,8.72-12.69,1.32,0,.53,2.39,3.7,2.39a2.58,2.58,0,0,0,2.55-2.65c0-2-1.85-3.61-4.66-3.61-8.29,0-10,12.42-11.36,12.42-2.21,0-1.5-10-3.09-10C181.25,192.67,180.55,194.35,180.37,195.13ZM109.89,205.7a6.19,6.19,0,0,0,5.38-3.29,32.83,32.83,0,0,1-1.85-8.52c-.53-8.54,2.76-16.58,6.36-16.8,2.64-.16,4.76,2.34,5,6.39.65,10.64-2.9,15.08-4.67,18.92a6.31,6.31,0,0,0,5.2,4,3.36,3.36,0,0,0,2.2-.8,9,9,0,0,1-.35-2.55c0-6.17,4-11.37,7.4-11.37,2.73,0,4.32,3.62,4.32,6,0,2.81-2.38,5.11-5.91,7.31a4.24,4.24,0,0,0,2.74,1.06c5,0,7.65-6.08,9.6-11.63.35-1.06,1-2.56,2.2-2.56,2.12,0,3,13.92,6.51,13.92,1.51,0,2.74-3.08,2.74-5.46,0-1.76-.62-1.94-.62-4.49,0-2.82,1.5-5.2,3.53-5.2,1.23,0,1.68,1.23,1.68,2.73,0,5.64-4.06,16.12-10,16.12-4.5,0-4.15-7.75-5.74-7.75-1.77,0-4.23,7.84-12.95,7.84a5.58,5.58,0,0,1-4.14-2.12,10.09,10.09,0,0,1-5.9,2c-3.26,0-4.67-3.35-6-3.35-1.59,0-3.35,3.44-8.64,3.44-4.22,0-4.93-5.63-6.42-5.63-1.33,0-3.35,5.63-5.55,5.63-3.71,0-4.5-9.78-7.76-9.78-2.55,0-10.63,9.93-12.82,9.71-.88-.1-1.25-.75-1.16-1.64.13-1.21,1.18-4.48,1.6-6,.71-2.68,1.37-5.61,1.73-6.55a2.35,2.35,0,0,1,2.13-1.55c.4,0,.51.78.64,1.39.44,2.18,1.06,4.4,1.76,4.4,1.24,0,5.33-7.85,7.71-7.85,2.91,0,3.26,12.34,7.22,12.34,1.32,0,2.29-1.58,3.17-3.53.09-3.26,1-7.92,3.61-7.92,1.86,0,2.74,4.14,1.41,7.75,0,4.31,2.82,5.37,4.67,5.37"/><path class="cls-1" d="M171.25,67.55a2,2,0,0,1-2.1-1c-.42-.85-.28-2.2-1.08-2.81a8.27,8.27,0,0,0,2.29.23c2.11,0,4.12-1.45,5.67-1.45a1.21,1.21,0,0,1,1.34,1.31C177.37,65.87,173.22,67.55,171.25,67.55Zm1,5.29c4.86,0,9.31-3.88,9.31-7.3a2.86,2.86,0,0,0-2.67-3.13,2,2,0,0,1,.46,1.5c0,2.57-3.91,5.42-8.17,5.42a1.78,1.78,0,0,0-2,1.64C169.2,72.28,170.46,72.84,172.28,72.84Zm-.37,2c.61,4.44,7.34,10.42,9.16,10.28,1.22-.1,1.68-5.79,1.68-10.28,0-2.57.14-4.58-1.21-5-2.16,4.35-7.8,5.24-9.63,5"/><path class="cls-1" d="M66.69,104.2c1.59,0,1.26-9.72,3.83-9.72.61,0,.8.61.8,1.35,0,2.2-1.08,5.43-1.08,7.2,0,.89.23,1.17.66,1.17,1.12,0,3.08-10.7,5-10.7.6,0,.88.6.88,1.21,0,2.25-2.84,8.7-2.84,10.52,0,.28.09.51.32.51,1.17,0,3.51-5,4.25-7.57.43-1.31,1-2,1.5-2s.89.52.89,1.59c0,2.52-2.34,8.46-4.4,12.44-1.58,3.08-4.06,7.52-4.06,10a5,5,0,0,0,2,4.16c-3-.19-4.2-.47-5.32-2.81-5,10,9.21,9,4.34,17.81-.89-1.59-7.9-3.22-7.9-12.48,0-8,7-12.67,7-16a2.12,2.12,0,0,0-.84-1.73c-1.54-1.31-1.59-2.39-2.8-2.39-.89,0-2,2.06-.84,3.88.37.61.7,1,.7,1.55,0,1.3-2.06,4.81-3.51,4.81s-2.57-3.6-2.57-9.4c0-5.14,1.17-10.33,2.62-10.33.42,0,.56.28.56.66,0,.61-.19,1.82-.19,3.88s.52,2.38.94,2.38"/><path class="cls-1" d="M78.61,117.9c2,0,3.6-1.45,3.6-4.67v-4.77c0-1.83.14-3.88,1.35-5.34a8.51,8.51,0,0,0-.14,1.88c0,4,2.25,6.78,2.25,10.65,0,1.45-.42,2.25-1.54,2.25s-1-1-1.22-1-.47.6-.47,1.26a2.53,2.53,0,0,0,2.67,2.52,3.2,3.2,0,0,0,3-3.27c0-4.2-3.27-8.88-3.27-13.37a10.52,10.52,0,0,1,.94-4.3c0,9.3,7.9,16.08,7.9,20a1.56,1.56,0,0,1-1.64,1.59,1.53,1.53,0,0,1-1.59-1.5c0-.33,0-.42-.19-.42a2.42,2.42,0,0,0-1.12,2.15,3.5,3.5,0,0,0,3.6,3.42,4.15,4.15,0,0,0,4.12-4.26c0-4.9-9.59-12.34-9.59-20.28a10.93,10.93,0,0,1,1.22-5.24c-6.17,4-8.09,9.26-8.09,13.88,0,4-.14,6-2.19,6-1.08,0-1.36-1-1.74-1s-.42.84-.42,1.08a2.56,2.56,0,0,0,2.53,2.71"/><path class="cls-1" d="M149.43,65.26c.59-.39,3.23.24,6.63-1.45a2.53,2.53,0,0,1,1.22-.32c1.64,0,1.22,1.87,2.71,1.87,1.17,0,2.67-1,3.56-1,1.39,0,3.4,4.4,3.4,6.46,0,2.38-3.59,3.83-7.85,3.83-6.21,0-9.95-5.42-9.95-8.93A.5.5,0,0,1,149.43,65.26Zm10.19,5.94c2.06,0,3.6-.93,3.6-1.5,0-.18-.28-.32-.89-.32a26.11,26.11,0,0,1-4.11-.42c-2-.33-3.47-1.08-4-1.08-.19,0-.28.09-.28.23,0,1.22,2.25,3.09,5.71,3.09"/><path class="cls-1" d="M79.59,135.52c-1.54.38-4,2.8-4,6.64,0,4.58,4.91,11.64,13,11.64,6.83,0,8.51-4.72,8.51-7.9,0-7.06-4.34-12-10-12a5.64,5.64,0,0,0-5.84,5.56,7.74,7.74,0,0,0,7.9,7.72,3.94,3.94,0,0,0,4.16-4c0-2.1-1.92-5-4.73-5a1.37,1.37,0,0,0-1.44,1.45c0,1.12,1.54,2.24,3.46,2.24a2.43,2.43,0,0,0,1-.19,1.2,1.2,0,0,1,.13.57c0,1.07-1,1.73-2.61,1.73a4.58,4.58,0,0,1-4.68-4.59c0-1.68,1.45-2.89,3.55-2.89,4.16,0,6.64,3.69,6.64,7.38,0,3.32-1.82,5.24-5.56,5.24-7.48,0-11.12-6.73-9.49-13.56"/><path class="cls-1" d="M133,162.91a21.73,21.73,0,0,0,2.83-.19c.7,0,.75.42.75.7,0,1-2.3,2.3-6.36,2.3-2.39,0-3.84-1.27-4.26-2.67a18.37,18.37,0,0,1-9.39,2.85c-9.58,0-12-4.16-15-5.51-2.29-1-5.79,1-10.7-4.49a11.75,11.75,0,0,0,2.24.19c4.3,0,6.59-2.1,6.59-5.47a11.53,11.53,0,0,0-.09-1.31,9.29,9.29,0,0,1,5,6.73c.1.47,2,.89,3.23.89,1.68,0,3.83-.7,4.16-3.46,5.61-.47,9.4-3.78,10.19-8a11,11,0,0,1,4.86,3.41,8.42,8.42,0,0,1,2.8-.42,17.91,17.91,0,0,1,5.19.89c.1-.61.19-1.36,1.12-1.36,1.41,0,1,1.55,1.5,2.43.23.47,1.41.75,1.41,1.68a1.21,1.21,0,0,1-1.22,1.22,2.43,2.43,0,0,1-.57-.09c-.93.33-1,7-4.9,7-2.9,0-5.57-2.38-6.73-5.37a2,2,0,0,0-1.69-1.45c-.74,0-1.17.14-2.05,1.12a16.22,16.22,0,0,1-11.92,5.14c-1.59,0-2.85-.14-3.18-.14s-.19,0-.19.09c0,.33,1.59,1.6,5,1.6,8.23,0,10.24-4.63,11.55-4.63a1.08,1.08,0,0,1,1.07.75A9.18,9.18,0,0,0,133,162.91Zm-3.62-9.34a1.87,1.87,0,1,0,1.87-1.88,1.88,1.88,0,0,0-1.87,1.88"/><path class="cls-1" d="M166.35,130.24c-.66,0-1.36.51-1.36,1.78a3,3,0,0,0,1.68,2.56A2.9,2.9,0,0,0,168,135c1.35,0,2.43-.38,2.43-1.5C170.46,132,168.35,130.24,166.35,130.24Zm-5,2.89c-1,0-6.41,7.25-9.91,7.25-.84,0-1.54-1.59-1.54-2.8,0-.65.42-1.12,1.92-1.45,8-1.83,6.26-7.86,13.12-7.86,3.79,0,8,2.58,8,8.37,0,6.17-8.78,13.84-10.09,13.84-1.08,0-2.25-1.54-2.25-2.57,0-.33.14-.75,1.08-1.12,4.48-1.78,7.05-5.89,7.05-8a.83.83,0,0,0-.84-.93c-.79,0-4.2,7.76-8,7.76-2.62,0-5.29-2.38-5.29-3.51,0-1.87,7.58-5.33,7.58-8,0-1-.46-1-.84-1"/><path class="cls-1" d="M68.79,71.86a5.61,5.61,0,0,1-3,1,3.51,3.51,0,0,1-3.59-3.6,3.93,3.93,0,0,1,2.47-3.69,5.29,5.29,0,0,0,0,.8A5.44,5.44,0,0,0,68.79,71.86Zm10,9a8.91,8.91,0,0,0-2.1,5.38c0,2.52,1.55,4.62,3.93,4.62s3.37-2,3.37-4C84,83.73,81.13,81.53,78.79,80.83ZM63.28,82.7a1,1,0,0,0-.14.51,1,1,0,0,0,.88.89c.38,0,.61-.09.8-.09,1.12,0,2.38.79,4.21.79A9,9,0,0,0,73,83.68a9.74,9.74,0,0,0,4.68-6.54c0-.89-.72-.78-1.31-1.59S76,74,75.57,73.63c-.22-.22-.89-.23-1.73-.33-.28,0-.66,0-1,0a9.44,9.44,0,0,0-5.42,1.49C63.33,77.34,63.93,81.62,63.28,82.7Zm11-5.8c.33.44,1.22,1,1.22,1.31,0,.66-.38,1.5-1.12,1.5-1.64,0-3-2.48-3-3.88,0-.89.52-1,1.21-1a1.11,1.11,0,0,1,.7.18C73.75,75.27,73.75,76.2,74.26,76.9ZM70,82.61c-1.54,0-3.22-1.92-3.22-3.65,0-.93.7-2.1,1.21-2.1.19,0,.28.14.33.46a5.33,5.33,0,0,0,3.18,4.26c.14.09.23.14.23.23C71.69,82.14,70.8,82.61,70,82.61Zm4-11.78a9.36,9.36,0,0,0,.42-2.72c0-2.24-1-5.65-4.21-5.65A3.12,3.12,0,0,0,67,65.64C67,69.33,70.71,70.83,73.94,70.83ZM61.83,89.52c0,3.55,1.07,5.24,3,5.24,1.49,0,3.5-1.08,5.89-3.13a20.78,20.78,0,0,1-4.49.7C64.54,92.33,63.23,91.67,61.83,89.52Zm1.64-4.16a3.35,3.35,0,0,0,0,.7c0,2.2,1.17,3.42,2.71,3.42a5,5,0,0,0,3.74-2.25,10.32,10.32,0,0,1-1.69.14A5.57,5.57,0,0,1,63.47,85.36Zm11.45-.65c-1.08.28-3.32,1.59-3.32,3.92a2.74,2.74,0,0,0,2.94,2.76,3.1,3.1,0,0,0,1.83-.46,5.46,5.46,0,0,1-1.78-4.07A6.21,6.21,0,0,1,74.92,84.71ZM76.6,71.9A1.87,1.87,0,1,0,78.47,70,1.87,1.87,0,0,0,76.6,71.9ZM79,76.11a1.87,1.87,0,1,0,1.87-1.87A1.87,1.87,0,0,0,79,76.11"/><path class="cls-1" d="M152,99.06a1.8,1.8,0,1,1,1.76,1.82A1.79,1.79,0,0,1,152,99.06Zm-16.42-14.4a1.88,1.88,0,1,0,1.87-1.87A1.88,1.88,0,0,0,135.54,84.66ZM134,91.25a2.67,2.67,0,1,0,2.66-2.66A2.69,2.69,0,0,0,134,91.25Zm5.89-3a2.85,2.85,0,1,0,2.84-2.85A2.83,2.83,0,0,0,139.85,88.26Zm.23-6.08a1.78,1.78,0,1,0,1.77-1.77A1.78,1.78,0,0,0,140.08,82.18Zm8.46-4.48a1.78,1.78,0,1,0,1.78-1.78A1.77,1.77,0,0,0,148.54,77.7ZM145,83.45a3,3,0,1,0,3-3A3,3,0,0,0,145,83.45Zm-4.81,10.94a1.87,1.87,0,1,0,1.86-1.87A1.87,1.87,0,0,0,140.22,94.39Zm6.12-3.75a1.87,1.87,0,1,0,1.87-1.86A1.88,1.88,0,0,0,146.34,90.64Zm-1.73,6.6A3.23,3.23,0,1,0,147.84,94,3.23,3.23,0,0,0,144.61,97.24Zm6.74-4a2.2,2.2,0,1,0,2.19-2.19A2.19,2.19,0,0,0,151.35,93.26Zm-.14-5.89a2,2,0,1,0,1.95-2,2,2,0,0,0-1.95,2"/><path class="cls-1" d="M156,148.7a13.76,13.76,0,0,1-8.79,3,11.59,11.59,0,0,1-4-.79c-.47,0-1,.46-1.5,1.07a10.55,10.55,0,0,0-2.56,6.41,3.83,3.83,0,0,0,4.15,3.73c8.75,0,15.29-5.47,15.29-9.9C158.54,149.73,157.05,148.7,156,148.7Zm-2.43-.51a1.73,1.73,0,0,0,.46-1.36v-1.07c0-1.36-2-2.15-4.85-2.15-3.42,0-5.24,1.54-5.24,2.19V148c0,.89,2.06,1.78,4.58,1.78A7.8,7.8,0,0,0,153.54,148.19Zm-.38,4.63c.24,0,.51.14.51,1a4.07,4.07,0,0,1-2.14,3.45,9,9,0,0,1-5.1,1.5,10.85,10.85,0,0,0,.66-3.41c0-.37-.05-.65-.09-1.07h.6a10.56,10.56,0,0,0,5.56-1.45"/><path class="cls-1" d="M135.31,95.7c.51,4,5.85,2,5.85,6.77,0,.7-.19,1.73-.19,2.62s.09,1.92.88,1.92,1-.56,1-1.31-.19-1.69-.19-2.2a1.81,1.81,0,0,1,1.88-2c1.77,0,3.13,1.82,5.8,1.82-.61,3-6.79,2.2-6.79,5.47,0,1.64,1.64,2,2.72,2s1.31-.14,1.31-1c0-.47-.1-1-.1-1.31a.37.37,0,0,1,.38-.37c1,0,6.07,3.83,6.07,5s-5.32,2.15-6.87,2.15a.5.5,0,0,1-.56-.51c0-.33.8-1.31.8-1.87s-.7-.7-2.58-.7c-.89,0-1.54.09-1.54.79,0,1.26,2.06,2.81,2.06,4,0,.94-.56,1.5-2.06,1.5-1.26,0-3.17-1-3.17-2.62,0-1.31,1.35-2.61,1.35-3.41a.65.65,0,0,0-.74-.61c-1.74,0-2.2,4.58-8.33,5.1a4.7,4.7,0,0,0,1.82-3.88c0-1-.23-1.78-.23-2.85,0-1.41.65-2.11,1.59-2.11,1.73,0,2.57,2.43,3.7,2.43a1.36,1.36,0,0,0,1.26-1.4c0-3.55-6.83-3-6.83-8A11.59,11.59,0,0,1,135.31,95.7Zm22.3,13.69c0,1.17.37,2.52,1.54,2.52,1,0,1.83-1.49,1.83-3.13,0-1.87-.33-3.32-.33-4.07,0-.32.14-.46.33-.46.7,0,1.35,2,2.1,2s2.1-1.54,2.61-1.54c.14,0,.19.19.19.23,0,.7-1.08,2.25-1.08,2.85s2.72.61,2.72,1.08c0,.7-2.85.7-4.2,1.31s-2.11,1.26-2.11,2.2.93,1.12,2.24,1.12c3.13,0,5.33-1.68,6-1.68a.22.22,0,0,1,.23.23c0,.47-1.59,2-1.59,2.71s2.9,1.73,2.85,2.2c0,.14-.23.18-.56.18-.51,0-1.31-.14-1.92-.14a1.1,1.1,0,0,0-.84.23c-.32.38.1,2.86-.56,2.86s-2.2-5.52-5.79-5.52c-.51,0-.89.42-.89,1.12,0,1.87,1.83,4,3.56,5,.78.52,2.1,1,2.1,1.31,0,.56-3,0-3,1s.37,2.11.37,2.85c0,.24,0,.52-.32.52-.56,0-1.92-2.57-2.58-2.57s-1.77,1.54-2.29,1.54a.26.26,0,0,1-.23-.28c0-1.08,1.73-3.51,1.73-5.89,0-1.12-.14-3.55-1.5-3.55-1.12,0-2.39,1.77-2.95,3.55-.32,1-.09,5-.84,5S154,121.5,153,121.5c-.69,0-2.19,1.26-2.7,1.26-.1,0-.19-.05-.19-.14,0-.56,1.36-2.39,1.36-2.76,0-.7-3.09-.79-3.09-1.35,0-.33,1.22-.57,2.34-.75,2.38-.43,5.88-2.15,5.88-4.58,0-2.71-2.62-3.88-4.34-5-.89-.56-1.87-1-1.87-1.4s1.12-.37,1.59-.37c.7,0,1.4-.05,1.4-.61s-.1-1.26-.1-1.92c0-.46,0-.84.24-.84.7,0,1.68,2.29,2.15,2.29.75,0,1.78-1.87,2.48-1.87.23,0,.33.14.33.56,0,1.73-.89,3.7-.89,5.38"/><path class="cls-1" d="M136.67,122.34c2.15.28,2.66,1,2.66,1.63,0,1-.93,1.36-1.82,1.36-.66,0-1.41-.14-2.2-.14a3.54,3.54,0,0,0-2.9,1.21c.61.1,1.5.52,1.5,1.45,0,2.72-7.53.47-7.53,7.44,0,3.69,3.83,7.71,9.63,7.71,3,0,4.91-1,4.91-2.1,0-.89-1.59-.29-1.59-1,0-.33.56-.94.56-1.46,0-.22-.18-.65-.56-.65-.84,0-2.43,1.36-5.66,1.36-2.52,0-5-1.45-5-3.41,0-.42.19-.66.47-.66s.65.19,1,.19.33-.19.33-.7,0-2,.88-2,2.58,3.28,9,3.28c2.15,0,6.31-.42,7.85-1.83a12.14,12.14,0,0,1-12.48,11.92c-8.74,0-13.42-7-13.42-13.46a13.76,13.76,0,0,1,13.84-13.65c2.06,0,3.79.7,3.79,1.59C139.94,121.64,136.9,120.89,136.67,122.34ZM151,124.82a2.73,2.73,0,0,1,.47,1.49c0,1.31-.89,2.52-.89,3.88a2.79,2.79,0,0,0,2.94,2.8,3.23,3.23,0,0,0,3.22-3.36C156.76,127.15,154.52,125.05,151,124.82Zm-15.48,3a1.86,1.86,0,0,1,.61,1.4c0,.7-.33,1.45-.33,2.25a2.07,2.07,0,0,0,2.06,2.1,2.18,2.18,0,0,0,2.2-2.25C140.08,129.54,138.25,127.81,135.54,127.81Zm6.22-8c4.91.94,7.57,4.63,7.57,8.09,0,2.38-1.49,4.58-4.11,4.58a4,4,0,0,1-4.11-4.26c0-2,1.53-4,1.53-6A3.64,3.64,0,0,0,141.76,119.86Zm2.43,6.22a1.12,1.12,0,0,0,1.12,1.17,1.29,1.29,0,0,0,1.22-1.41c0-1-.89-2.33-1.73-2.33-.38,0-.24.56-.33,1.17-.05.46-.28,1-.28,1.4"/><path class="cls-1" d="M92.59,78c1.59,0,3.41-8.6,3.41-10,0-.38-.14-.66-.47-.66-1.45,0-3.46,8.18-3.46,10C92.07,77.6,92.16,78,92.59,78ZM104,80.55c1.17,0,2.47-4.49,2.47-7.29,0-.61-.09-1.26-.37-1.26-1,0-2.62,4.62-2.62,7.15C103.52,80.13,103.76,80.55,104,80.55Zm-7.62-4.16c.51,0,1.17-.56,2.38-1.92a11.12,11.12,0,0,0,.1-1.87c0-.93-.38-2-.94-2-1.4,0-2.1,3.74-2.1,4.72C95.86,75.92,96.14,76.39,96.42,76.39Zm6.4-1.92c0-.79-.19-1-.37-1-.47,0-1,.56-1.73,1.82.09,1.69.37,2.43.84,2.43S102.82,76.11,102.82,74.47Zm3.6-5.51c3.09,0,4.49,2.66,4.49,5.65,0,1.31-.37,3.23-1,3.23s-.52-1.08-.61-2.06c-.09-1.26-.33-1.54-.75-1.54-.79,0-1.31,1.87-1.31,3.6,0,1.07.19,2.29,1,2.29a1.7,1.7,0,0,0,1.17-.52,4.19,4.19,0,0,1-4,4c-4.11,0-5.66-4.82-6.12-7.63-2.48,2.62-4.77,4.54-8.89,4.54a5.26,5.26,0,0,1-5.56-5.47c0-.8.28-2.85,1.27-2.85,1.16,0,.13,3.83,2.42,3.83.57,0,1.59-.47,2.16-2a8.79,8.79,0,0,0,.51-2.76c0-1.26-.28-2.05-1.21-2.05a3.67,3.67,0,0,0-2.11.93,7,7,0,0,1,6.82-5.09c3.7,0,5.66,3.27,5.66,6.92a9.37,9.37,0,0,1-.14,1.58C101.84,71,104,69,106.42,69"/><path class="cls-1" d="M97.68,81.53c-2,0-2.1,2.43-2.1,7.34-1.5-3.23-4-6.69-6.87-6.69-2,0-2.71,1.31-2.71,3.6a8.18,8.18,0,0,0,.14,1.59,1.77,1.77,0,0,1,1.91-1.12c2,0,4.44,1.54,6,3.65A30.79,30.79,0,0,0,89,89.24a6,6,0,0,0-2.48.42,6.22,6.22,0,0,0-3.18,5.66,9.78,9.78,0,0,0,.14,1.54c1.64-3.65,6-5.28,8.79-5.28a10.16,10.16,0,0,1,1.31.09c-1.45,1.31-1.78,3.6-1.87,5.14,0,.75-.33.8-.84.8,0,1.54,1.21,3.83,1.21,5a1,1,0,0,1-.46.89c0,2.06,2,3.55,2,4.86a1.1,1.1,0,0,1-.23.75c.14.84,2.4,2.26,2.69,3,.36.86.77,1,1,1,.79,0,2-.93,2-1.77a1.12,1.12,0,0,0-.41-.75,7,7,0,0,1-1.74-3,.87.87,0,0,1-.89-.69c-.26-1-.27-2.77-.65-3.85-.6-.14-.89-.37-.89-1.63,0-.61.38-3,.38-3.84a.66.66,0,0,1-.65-.75c0-1.49,1.49-2.66,1.91-4.57,2.67,2,3.32,4,3.32,5.75a12,12,0,0,1-.33,2.66c2-1,4.91-2.43,4.91-5.38,0-1.73-.79-3.64-6.08-4.39a16.54,16.54,0,0,1,5.43-.94c3,0,4.72.94,5.09,3a5.81,5.81,0,0,0,1.08-3c0-2.29-1.92-3.78-4.35-3.78-2.85,0-5.38,1.49-8.09,3.31,1.22-2.52,2.06-4,3.56-4a3.47,3.47,0,0,1,.7.1c-.56-2.06-2.67-4.07-3.79-4.07"/><path class="cls-1" d="M176.44,115.23c2.34,0,4.21,3,4.21,6.59a14.72,14.72,0,0,1-5,10.71c0-6.31-7.77-4.3-7.77-8.88a3.11,3.11,0,0,1,3.09-3.28,4.75,4.75,0,0,1,3.51,1.27,4.16,4.16,0,0,1-1.26-3,3.18,3.18,0,0,1,3.17-3.42"/><path class="cls-1" d="M134.7,70.83a5,5,0,0,0,3.6,1.68c.52,0,1.13-.14,1.45-.14s.7.18.7.51a2.93,2.93,0,0,1-1,1.83,4.75,4.75,0,0,0,1.82.32,5.5,5.5,0,0,0,5.7-5.89,6.3,6.3,0,0,1,.89,3c0,5.09-3.75,7-7.2,7a10.08,10.08,0,0,1-3.65-.75c-.89,0-.84,1.78-1.45,1.74-1.07-.19-2-2.58-2-5.1A7.41,7.41,0,0,1,134.7,70.83Zm7.06-3.42a3.49,3.49,0,0,0-2.43-.93,3.78,3.78,0,0,0-3.74,2.76,4.34,4.34,0,0,1-.33-1.59,4.52,4.52,0,0,1,4.82-4.58c3,0,4.16,1.59,4.58,1.59s.93-.47,1.31-.47.51.79.51,1.35c0,1.87-.84,5.1-2.95,6.27a4.72,4.72,0,0,0-2.33-2.25.74.74,0,0,1-.46-.7,1.88,1.88,0,0,1,1-1.45"/><path class="cls-1" d="M102.21,57.22c0,1.64,5.85,9.63,7,9.63.94,0,1.64-1.63,1.64-3a1.92,1.92,0,0,0-.28-1c-.85-1.17-6.78-5.85-8.09-5.85A.27.27,0,0,0,102.21,57.22ZM67.86,52.41c0,.93-3.56,4.06-4.82,4.06-.46,0-.6-.55-.6-1.07a4.22,4.22,0,0,1,.93-2.67,5.25,5.25,0,0,1,3.09-.83C67.11,51.9,67.86,52,67.86,52.41Zm42.68,2.71c0-2.81-7.59-7.9-7.67-10.1a.82.82,0,0,1,.27-.58c1.3-1.37,6.69-2.36,6.69-3.53,0-.61-1.12-.61-1.68-.61-4.35,0-10.7,1.59-10.7,3.13s5.7,5.47,5.7,7.39c0,.51-.33.7-.84.7-1.59,0-5-1.92-6.69-1.92-.74,0-1,.52-1,1.27,0,2.24,2.67,6.49,2.67,7.75,0,.14-.05.33-.24.33-.84,0-4.81-4.67-6.21-4.67-.52,0-.56.7-.56,1.73V57.6c0,1.07,0,1.73-.56,1.73-1.22,0-1.78-3.41-3-3.41S85.29,62,84.13,62c-1.36,0-.19-6.68-1.5-6.68s-3.09,4.44-4.12,4.44c-.37,0-.46-.38-.46-.7,0-1.36.79-3.56.79-4.86,0-.66-.19-1-.75-1-1.45,0-4.62,2.33-5.84,2.33-.19,0-.42-.09-.42-.28,0-1.12,5.1-4.67,5.1-6.26s-7-.51-7-2.29c0-1.5,5-3,5-4.58,0-1.36-5.94-2-8.23-2-2.76,0-4.25.32-4.25,1.12,0,1.21,6.26,1.59,6.26,2.66s-6.5,3.79-6.5,5.38c0,1.4,9.16.09,9.16,1.54s-8,8.46-8,10.75c0,.51.38.75.89.75,2.43,0,8.74-4.63,10.47-4.63.61,0,.65.75.65,1.4,0,1.22-.42,3.09-.42,4.44,0,1.08.28,1.83,1.22,1.83,1.73,0,3.32-3,4.49-3,1.49,0,.6,8.65,2.85,8.65,1.91,0,2.71-9.35,3.92-9.35s2.2,2.71,3.32,2.71c1.4,0,.75-4.72,2.25-4.72s6.31,5.61,8.41,5.61c.65,0,.89-.51.89-1.17,0-2.48-3.46-8.08-3.46-9.86,0-.47.14-.61.65-.61,1.83,0,7.16,2.52,9.68,2.52C110,56.19,110.54,55.73,110.54,55.12Zm-4.87-9.26c0,.85,3,2.67,4.3,2.67.8,0,1-1.08,1-2.2,0-1.4-.6-1.45-1.82-1.45C107.64,44.88,105.67,45.3,105.67,45.86Zm-11-4.76c0-.29-1.4-.57-3.32-.57-3,0-2.62,2.53-5,2.53s-1.83-2.62-4.91-2.62c-1.87,0-3.6.33-3.6.75s2.2.33,2.2,1.87-4.73,2.1-4.73,3.09c0,.32.38.46.84.46,1,0,2.67-.46,3.84-.46.65,0,1.26.13,1.26.74,0,1.17-2.53,3.28-2.53,4.21,0,.28.24.38.47.38.94,0,2.53-2.39,4-2.39,2.48,0,.85,5.28,2.2,5.28s.79-5.19,2.8-5.19c1.64,0,2.86,3.6,4,3.6a.53.53,0,0,0,.51-.56c0-1-1.4-3-1.4-4.3,0-.79.56-1.17,1.31-1.17,1.07,0,2.52.66,3.32.66.28,0,.56-.1.56-.42,0-1.13-4.16-2.34-4.16-3.79s2.29-1.45,2.29-2.1"/><path class="cls-1" d="M177.56,48.67c0,4.16-3,7.34-8.51,8.23.61,0,1.18,0,1.74,0,6.4,0,8.74-2.89,8.74-5.32A3,3,0,0,0,177.56,48.67Zm-7.9,4.72c0-3.32-7.94-4.16-7.94-4.91,0-.6,4.44-1.63,6.73-1.68-3.51-4.49-8.5-4-8.5-4.82,0-.46,3.74-1.4,7.19-1.4,2.9,0,5.61.66,5.61,2.85,0,1.22-1,2.48-1,4.35a1.73,1.73,0,0,0,1.87,1.92c1.45,0,1.78-1.54,1.78-3.18,0-1.36-.24-2.38-.24-3a3.11,3.11,0,0,1,3.27-3.27c1.59,0,2,.7,4.3.7A3.57,3.57,0,0,0,181,43.67c0,2,1.27,3.32,1.27,7.34,0,7.38-6.92,10-15.38,10a49,49,0,0,1-7.25-.56c-.37-.05-.46-.14-.46-.38,0-.6,3.32-.93,3.32-3.92a23,23,0,0,0-.38-2.71.37.37,0,0,1,.38-.38c.7,0,2.11,2.71,4.72,2.71A2.22,2.22,0,0,0,169.66,53.39Zm7.62-10.33a1.17,1.17,0,1,0,1.17-1.17,1.16,1.16,0,0,0-1.17,1.17"/><path class="cls-1" d="M173.13,86.25c0-1-2.48-1.07-2.72-3.83,0-.42-.18-1.17-.7-1.17-.84,0-.19,2.57-1.12,2.57-2.15,0-2.85-4.21-3.65-4.21-.19,0-.41.14-.41.71s.1.84.1,1.44-.15,1-.71,1c-1.26,0-2.38-2.94-3.46-2.94-.23,0-.47.14-.47.37,0,.56.94,1.59.94,2.11,0,1.12-3,.51-3,1.45,0,.42.42.56,1,.56,1,0,2.53-.42,3.32-.42.47,0,1.17.09,1.17.69s-1.68,1.5-1.68,2.11a.47.47,0,0,0,.51.42c1.26,0,3.5-2.2,5.09-2.2.28,0,1,.14,1,.56,0,.61-1.59,1.68-1.59,2.57a.47.47,0,0,0,.42.52c.84,0,2-2.2,3.56-2.2.6,0,1.49.24,2,.24S173.13,86.39,173.13,86.25Zm1.21,22.67a28.78,28.78,0,0,1,3.22-6.5c-1.53-.79-5.6-2.47-5.6-5.23,0-3.23,4-5.75,4.85-5.75.38,0,.47.33.47.94,0,1.68-.79,4.39-.79,5.84s.84,2.57,1.59,2.57,3-2.8,3-5.56a6.3,6.3,0,0,0-5.7-6.45c-1.26,0-3.55,2-8.93,2-10.05,0-12.34-10-12.34-14.3,0-.19,0-.24.09-.24a7.12,7.12,0,0,0,4.4,1.22c1.64,0,3.13-.42,5.52-.42,5.6,0,8.08,3.88,11.54,8.83,2.1,1.31,7.1,3.42,7.1,9.35,0,5.24-5.56,8.14-6.91,13.75,2.14-.24,3.41-4.07,5.6-4.07,1.13,0,1.64.89,1.64,2.29a10.19,10.19,0,0,1-3.41,7.06,3.61,3.61,0,0,0,0-.7c0-1.31-.51-3.18-2-3.18-2.33,0-3.08,2.52-4.39,4.63-1.35-4.77-3.18-9.07-6.45-11.69s-9-1.22-9-6.08c0-1.31.84-3.18.84-4.67a2.21,2.21,0,0,0-.37-1.36c4.49,1.69,2.9,4.68,5.66,7.76,1.72,2,6.49,3.84,9.25,11.92a8.3,8.3,0,0,0,.09-1.26c0-6.92-9.15-13.7-9.95-16.5,5.32.61,6.26,1.92,8.78,8.93.52,1.45,2.2,5.05,2.2,6.82"/><path class="cls-1" d="M148.77,59.47c-3.27,0-5.42-1.64-5.42-2.48a.65.65,0,0,1,.65-.7c1,0,3.28,1.59,4,1.59.19,0,.33-.09.33-.38,0-.84-.79-2.24-.79-2.94,0-.19.14-.33.42-.33,1.26,0,3.13.52,4.12.52.32,0,.42-.19.42-.38,0-1-3.05-3-3.05-3.64s3.79-1.41,3.79-2.29-5.14-.28-5.14-1.17c0-.66,1-1.78,1-2.29,0-.24-.19-.33-.51-.33a36.66,36.66,0,0,1-3.61.89c-.46,0-1-.09-1-.75,0-1.08,1.83-2.24,4.68-2.24,4.63,0,7.39,3.17,7.39,8.5C156,57.79,151.3,59.47,148.77,59.47Zm-9.11-8.88c0-.52-1.83-1.5-1.83-2.06,0-.09.1-.14.24-.14.51,0,1.4.19,2.11.19s.7-2.62,1.16-2.62.88,2.48,1.4,2.48,1.73-.71,2.2-.71a.16.16,0,0,1,.18.15c0,.32-1.17,1.58-1.17,2s2.63.93,2.63,1.31-2.67.42-2.67.84,1,1.63,1,2.06a.13.13,0,0,1-.14.14c-.37,0-1.82-.66-2.24-.66s-1.35,1.92-1.77,1.92c-.14,0-.24-.19-.24-.42l-.09-1.87c0-.19-.09-.38-.33-.38-.56,0-1.64-.05-2-.05s-.32,0-.32-.14C137.79,52.22,139.66,50.91,139.66,50.59Zm-1.36,7.66c.75,0,.89,1.82,1,2.9.1.56.19.61.42.61.57,0,1.45-2.15,2.05-2.15.89,0,3.28,2.47,7.25,2.47,5.66,0,11-4,11-11,0-6.78-4.77-10.75-11.36-10.75-3.13,0-5.43,1.54-6.64,1.54-.74,0-1.86-1.82-2.43-1.82-.23,0-.46.46-.46,1.26,0,.52,0,2.15-.57,2.15-1.12,0-5.47-3.22-5.47-2.06s2.9,4.35,2.9,5.19-2.85,1.64-2.85,2.2c0,1,3,1.21,3,2.52S133,53.67,133,54.65c0,.8,3.18.24,3.18,1.22s-2.34,4.25-2.34,5.18c0,.24,0,.24.23.24.89,0,3.56-3,4.21-3"/><path class="cls-1" d="M117.13,140.33a2.12,2.12,0,0,1-.52,1.36,3.45,3.45,0,0,0-2.62-1.4c-4.81,0-3,7-8.13,7a24.35,24.35,0,0,1-3.13-.28c-.33,0-.52.14-.52.42,0,1.22,1.73,4.21,6.55,4.21s9.44-2.94,9.44-6.59a4.94,4.94,0,0,0-.42-1.92,1.38,1.38,0,0,1,1.08-.46c.74,0,1.16.84,1.86.84a1.29,1.29,0,0,0,1.32-1.31,1.41,1.41,0,0,0-.89-1.31,1.62,1.62,0,0,0,.65-1.26,1.48,1.48,0,0,0-1.5-1.54,1.32,1.32,0,0,0-1,.46c-.09-.84-.56-1.63-1.45-1.63a1.21,1.21,0,0,0-1.22,1.31c0,.74.52,1.35.52,2.14"/><path class="cls-1" d="M91.51,131.64c3.74.93,5.61,2.94,6,5.33s.84,4.16,1.73,5.09a8,8,0,0,0,5.47,2.48c1.69,0,3-.56,3-2.1s-2.29-5.47-5.66-5.47c-.32,0-.74.05-1.21.05a2.22,2.22,0,0,1-1.4-.42c-.75-.66-1-4.16-2.39-6.27a5.88,5.88,0,0,0-5.51-3c-1.64,0-3.46.89-3.46,2.2C88.1,130.33,88.52,130.89,91.51,131.64Zm13,10.47c-1.4,0-3.5-1.5-3.5-2.34a1.12,1.12,0,0,1,1.16-1.07c1.17,0,3.27,1.45,3.27,2.66,0,.33-.23.75-.93.75"/><path class="cls-1" d="M100.25,105.7c0-3,7.11-4.58,7.11-8.28A6.09,6.09,0,0,0,106.7,95c2.48,1.35,4.3,3.64,4.3,5.51,0,3.23-3.36,4.72-3.36,6.73,0,2.34,3.6,2.71,3.6,5.61,0,2.39-3.42,5.14-3.42,8.23a4.67,4.67,0,0,0,4.26,4.67,10.65,10.65,0,0,1-2.39.33c-4.72,0-9.58-3.88-9.58-8.51a7.94,7.94,0,0,1,2.48-5.74,6.67,6.67,0,0,0,3.46,1.86c.74,0,1.07-.37,1.07-.93C107.12,111,100.25,109.39,100.25,105.7Zm14.91,23.6c-1.6.74-2.24.61-2.24,2.25,0,.61-.14,1.4-.14,1.82s.09.89.75.89c1.68,0,4.35-2.85,4.35-5.28,0-.66-.38-.94-.8-.94S116.29,128.79,115.16,129.3Zm-.18-3.36c0-2.11-4.35-2.15-4.35-5.33a7.26,7.26,0,0,1,1.54-3.6c.42,2.43,1.4,3.69,3.51,4.49,4.16,1.54,4.72,3.87,4.72,6.35,0,4.21-3,9.45-10.52,9.45a10.64,10.64,0,0,1-10.42-10c0-1.26.32-2.66,1.12-2.66s.93.56,1.49,1.12c2.11,2.1,4.4,2.66,7.72,2.66,3,0,5.19-1.21,5.19-2.47"/><path class="cls-1" d="M81.87,127a1.78,1.78,0,1,1-2-1.56A1.76,1.76,0,0,1,81.87,127Zm-8.73,1.84a3.05,3.05,0,0,0,3.36,2.62,3.83,3.83,0,0,0,1.55-.47,2.88,2.88,0,0,0,3.32,2.24,3,3,0,0,0,2.71-3.32,3.33,3.33,0,0,0-.28-1.07,3.41,3.41,0,0,0,.4-.06,3.11,3.11,0,0,0,2.68-3.31,3,3,0,0,0-3.26-2.74,3,3,0,0,0-1.55.64A3.15,3.15,0,0,0,78.53,121,3,3,0,0,0,76,124.4a3.23,3.23,0,0,0,.23.93l-.46.07a3.14,3.14,0,0,0-2.62,3.39"/></g></svg>