<svg xmlns="http://www.w3.org/2000/svg" viewBox="0 0 250 250"><defs><style>.cls-1{fill:#333d47;}</style></defs><title>clients</title><g id="TKMAXX"><path class="cls-1" d="M107.47,127.1a20.08,20.08,0,1,1-20.08-20A19.77,19.77,0,0,1,107.47,127.1Zm-8.79,0c0-7.2-5.23-12.13-11.29-12.13S76.1,119.9,76.1,127.1s5.22,12.13,11.29,12.13S98.68,134.22,98.68,127.1Z"/><path class="cls-1" d="M150.78,127.1a20.08,20.08,0,1,1-20.08-20A19.77,19.77,0,0,1,150.78,127.1Zm-8.79,0c0-7.2-5.22-12.13-11.29-12.13s-11.29,4.93-11.29,12.13,5.23,12.13,11.29,12.13S142,134.22,142,127.1Z"/><path class="cls-1" d="M192.29,108.3v35.93c0,14.78-8.71,20.82-19,20.82a19.06,19.06,0,0,1-17.74-11.79l7.65-3.19c1.36,3.26,4.7,7.1,10.08,7.1,6.6,0,10.69-4.07,10.69-11.73v-2.88h-.31a13.63,13.63,0,0,1-10.54,4.55c-10,0-19.18-8.72-19.18-19.94s9.17-20.08,19.18-20.08a13.9,13.9,0,0,1,10.54,4.47H184V108.3Zm-7.72,18.87c0-7-4.7-12.2-10.68-12.2s-11.15,5.16-11.15,12.2,5.08,12.06,11.15,12.06S184.57,134.15,184.57,127.17Z"/><path class="cls-1" d="M206.06,87.23v58.66h-8.58V87.23Z"/><path class="cls-1" d="M239.47,133.69l6.82,4.55a19.92,19.92,0,0,1-16.68,8.87,19.58,19.58,0,0,1-19.86-20c0-11.9,8.56-20,18.88-20s15.46,8.26,17.13,12.73l.91,2.28-26.76,11.08a10.19,10.19,0,0,0,9.7,6.06c4.48,0,7.58-2.2,9.86-5.54Zm-21-7.2,17.88-7.43c-1-2.5-3.94-4.24-7.43-4.24A11,11,0,0,0,218.47,126.49Z"/><path class="cls-1" d="M34.86,121.9v-8.5H63.47a28.09,28.09,0,0,1,.43,5.13c0,6.37-1.75,14.25-7.36,19.86s-12.43,8.72-21.68,8.72c-17.12,0-31.53-14-31.53-31.08S17.74,85,34.86,85a29.63,29.63,0,0,1,21.3,8.56l-6,6a21.61,21.61,0,0,0-15.31-6.07,22.59,22.59,0,0,0,0,45.18c8.11,0,12.73-3.26,15.69-6.22,2.4-2.4,4-5.83,4.6-10.51Z"/></g></svg>