<svg xmlns="http://www.w3.org/2000/svg" viewBox="0 0 250 250"><defs><style>.cls-1{fill:#333d47;}</style></defs><title>clients</title><g id="RB"><path class="cls-1" d="M110.3,86.32c1.82,2,3.65,2.2,6,1.82a64.65,64.65,0,0,1,15.2-2.86c4.24-.08,9.58.43,12.76,1.72,1.35.66,2,1.62,1.52,2.77-.9,1.42-1.74,1.64-1.52,4.7,0,.24-.61.42-.65-.21a2.35,2.35,0,0,0-.45-2.1c-1.24-1.25-4.35-1.59-6.75-2.1-8-1.58-17-.58-24.89.63A3.93,3.93,0,0,1,108,89c-.64-1.68,1-1.26.36-3.39a1.62,1.62,0,0,1,0-.52c0-.22.34-.67.64-.71.71.26.26.89,1.31,2"/><path class="cls-1" d="M109,92.31c.34.3.7.22.72.4.22.45-.64,1.44-1.28,2.06a13.93,13.93,0,0,0-4.16,2.38c-3.39,2.14-8.32.13-12.44,0-1.84.17-2.64.77-4,2.57-.64.65-.9.81-1.56.62-.45-.2-.13-.5,0-.67.38-.42,1.13-.59,1-1.34s-.79-1.41,0-2.6c3.6-4.45,11.92-1.21,17.71-1.72,1.65-.37,1.69-1,1.22-.92-5.08.46-7.39-4.74-12.8-3.2-4.2.89-10,6.24-13.31,1.43-1.42-2.63,2.16-1.3,1.52-3.79-.07-.7,1.2-1.23,1.24-.4a3.59,3.59,0,0,0,2.49,2.69c6.28.58,11.24-5.46,17.58-1.93,2.08,1.4,3.78,3.1,6,4.38"/><path class="cls-1" d="M102.62,136.17c.07.29.33.54.5,0"/><path class="cls-1" d="M134.47,79.87a4.41,4.41,0,0,0-.88-.71c-.52-.3-1.12-.62-1.59-.92-1.8-1.14-3.69-2.26-4.37-4.16-.07-.77.81-.82,1.26-.29a6.66,6.66,0,0,0,3.34,2.39c1.74.17,3.5.55,4.15,1.8.34,1.23.74,3.18.17,4.09-1,.78-1.16-1.28-2.08-2.2"/><path class="cls-1" d="M115.4,75.13a5.47,5.47,0,0,1,3.46-.16c2.12.92,3.21,4.81,6.26,3.1a3.34,3.34,0,0,0,.4-.25,1.74,1.74,0,0,1,2.19,1c.73,2,2.12,4.6,2.1,4.87-.3.75-1.05.08-1.43-.17-1.55-1.62-3.22-1.84-5-2.85-1.33-.76-2.17-1.84-3.15-2.35-2.81-1.17-6.88-.63-7.87-3.44,0-.5.17-.71.52-.8s1.21,1.32,2.54,1.09"/><path class="cls-1" d="M141.52,79.91c1,.76,2.77,1.27,2.7,2.42-.15.89-.73,1.15-1.39,1.4s-1.18.17-1.52-.84a4.87,4.87,0,0,0-1.38-3.13c-.32-.5-.34-.73,0-1.16.86-.57.82.9,1.57,1.31"/><path class="cls-1" d="M163,95.77c.48,1.11,1.29,3.63.39,4.32-.84,0,.26-1.38-1.16-1.45-3.11.84-4.63,5.32-5.19,6.56-2.33,5.25-3.28,7.15-3.3,13.72,0,.4.32,1.26.07,1.34-1.66-.21-1.29-6.13-1-8.45,1.24-6.75,2.55-11,6.2-16.13a2.86,2.86,0,0,1,2-1,1.91,1.91,0,0,1,2,1"/><path class="cls-1" d="M131.27,96.44a.2.2,0,0,1,.15.23c0,.19-.15.15-.15.15a20.85,20.85,0,0,0-7.85,1.26c-3.09,1-3.52,1.92-4,2-1.28-.35.84-1.26-.23-2.36-.45-.69.3-.88.77-1a24.82,24.82,0,0,1,11.28-.29"/><path class="cls-1" d="M144.16,98.24c.28.53-.78.29-1.89.72-1.33.65-1.59,1-1.71,1.85-.07.42.94,0,2,.83.3.29.79.83.3,1.38-.73.38-1.89,1.3-2.36.51s.82-.46.17-1.26a.65.65,0,0,0-.66-.08c-1.31,2.85-.78,6.92-1.53,10.15-.45,1-1.67,1.67-2.8,2.26-.37-.1-1.53-1.14-2.47-.67a2.12,2.12,0,0,1-2.4.37c-.47-.28-1.18-.33-1.05-1,.53-.46,1.54.46,2.46,0a1.68,1.68,0,0,1,1.65-.42,5.84,5.84,0,0,0,3.43-.17c1.29-1.18.35-1.94,0-7.17-.06-.33-.72-4.71,2-6.42,1.35-.83,4.67-1.34,4.87-1"/><path class="cls-1" d="M131.08,100.55c1.07,1-2.64-.37-3.15.29-.09.67,1.41,1.26.21,1.85a3.1,3.1,0,0,1-2.61.67c-.71-.84,1.3-.71.6-1.55-1.14-.93-2.36.42-3.37.84-.75-.05,0-.5-.21-1.05s-.5-1.13.29-1.43c2.39-.54,7.17-.58,8.24.38"/><path class="cls-1" d="M106.93,101.83c.22.32.39.11,1,.48.3.23.3.72.52,1s.87.1.51,1.5a19.14,19.14,0,0,0,.13,7.36c.11.43.39,1,.17,1.2s-.41-.1-.68-.63c-.8-1.76-3.15-6.88-2.38-11.49.28-.25.55-.41.7.61"/><path class="cls-1" d="M145.08,103.9a29,29,0,0,1-.3,5.51,27.21,27.21,0,0,1-2.42,7.66c-2,3.36-3.86,7-6.05,10.15-.54.59-.13.3-.54.59a6.13,6.13,0,0,1-4.41.92,22.35,22.35,0,0,1-5.45-1.21s-7.18-3.44-9.5-5.54c0,0-.28-.25-.19-.33s.19,0,.19,0c4.78,2.63,10.3,5.57,16.68,4.86,3.56-1,4.36-4.28,6.2-6.63,2.9-4.53,5.4-10.38,5.38-15.94,0-.34.34-.36.41,0"/><path class="cls-1" d="M135.26,116.61c.41-.52.9-.39,1.12.08l.4,1.41c.05.15-.06.38-.28.15s-1.91-1-2.53.26c-.15,0-.15,0-.28-.09-.51-.29-1.3-1.58-2.5-.63-.8.42-1.89,1.38-3.26.92-.37-.18-.56-.39-.3-.55,1.93.09,3.06-1.3,4.5-2,1.16-.18,2.16,2,3.13.45"/><path class="cls-1" d="M135.77,119.36a.36.36,0,0,1,.18.11,2.82,2.82,0,0,1-2.11,2.59,4.53,4.53,0,0,1-3.81-2.13.78.78,0,0,1-.17-.31c0-.15.17-.12.17-.12,1.63.6,4.07,1.31,5.53,0,0,0,.15-.12.21-.11"/><path class="cls-1" d="M151.34,123.83s.49.18.36.46a.59.59,0,0,1-.4.31c-3,1.43-2.32,4.88-3.28,8-.67,2.94-3.91,4-4.31,7.17,0,.2-.22.54-.52.05-.88-1.31-.36-3.53.13-4.83,1-2.26,4.74-2.51,4.2-5.83-.17-2.47-.51-4.74.88-6.38.52-.37,1.29-.79,1.72,0,.06,1,.34.84,1.22,1.1"/><path class="cls-1" d="M155.37,126.47c.39.21-1.14,1.11-1.61,1.82-.7,1.07-.85,2-1.45,1.61-.15-.12,0-.6-.15-1-.18-.19-.93-.11-.33-.94.28-.3,2.26-1.8,3.54-1.51"/><path class="cls-1" d="M154.77,131.25c.06.13-.17.22-.17.22-1.8,1.18-2.59,3-3.35,4.85,0,0-.1.24-.25.26-.3,0-.37-.3-.37-.3.07-2-1.61-.53-1.3-1.88.49-1.14,2.8-3.4,5.29-3.23a.11.11,0,0,1,.15.08"/><path class="cls-1" d="M104.64,104.73c.09-.35-.19-.72-.47-.2l0,.08a8.22,8.22,0,0,1-3.88,3.61c-1.29.5.34,1.21-.9,2.34-.24.26-.24,1.44.51,1a11.86,11.86,0,0,0,4.7-6.65"/><path class="cls-1" d="M103.12,136.2a55.42,55.42,0,0,0,1.84-9.86c2.6-1.21,4.93-3.38,5.08-5.32.2-2.41-2.14-3.44-4-4.62a27.5,27.5,0,0,0-.87-6.42s0-.25-.22-.3-.28.12-.28.12c-1.22,1.35-1.43,3.34-2.08,5.22a6.93,6.93,0,0,0-4-.29c-.51.25-1,.75-.6,1.34.67,1.47,2.47,2.26,4.38,2.35-.17,2-.28,2.88-.41,4.8,0,0,0,1.45,0,2.74-2.23,1.1-4.54,2.15-5.17,4.49a3.22,3.22,0,0,0,1.66,3.1c1.09.92.27,2.13.45,2.44.36.29.55-.05,1.09-.55,1-1.76-.62-2.85-.3-4.78A3.93,3.93,0,0,1,102,128c.22,2.71.22,5.63.6,8.19m4.94-15.62a2.38,2.38,0,0,1-.67,2.65,3.78,3.78,0,0,1-1.54,1.15c.13-1.59.3-3.53.47-5.08a2.2,2.2,0,0,1,1.74,1.28"/><path class="cls-1" d="M102.6,136.35c.07.28.32.54.5,0"/><path class="cls-1" d="M212.75,149.12h-5.28l-10.61,26.71h5.9l1.86-5.12h11.13l1.91,5.12h5.9m-17.14-10.09,3.69-10.1,3.77,10.1Z"/><path class="cls-1" d="M101,150.42c-1.76-.83-4-1.3-7.66-1.3H83.67v26.72h9.69c3.71,0,5.9-.47,7.66-1.3,4.14-2,6.62-6.06,6.62-12.06s-2.48-10.1-6.62-12.06m-2.13,19.41a9.81,9.81,0,0,1-4.93,1H89.12V154.09H94a9.81,9.81,0,0,1,4.93,1c2.43,1.5,3.26,4.5,3.26,7.35s-.83,5.85-3.26,7.35"/><polyline class="cls-1" points="132.34 149.12 110.79 149.12 110.79 175.84 133.26 175.84 131.66 170.87 116.24 170.87 116.24 164.6 129.13 164.6 129.13 159.63 116.24 159.63 116.24 154.09 131.25 154.09"/><rect class="cls-1" x="188.37" y="149.12" width="5.45" height="26.71"/><polyline class="cls-1" points="244.95 170.87 232.06 170.87 232.06 149.12 226.62 149.12 226.62 175.83 246.56 175.83"/><polyline class="cls-1" points="160.92 149.12 155.48 149.12 155.48 166.26 142.12 149.12 136.18 149.12 136.18 175.84 141.61 175.84 141.61 156.99 155.99 175.84 160.92 175.84"/><path class="cls-1" d="M21.73,150c-1.57-.62-3.28-.88-7.31-.88h-11v26.72H8.88V167h5.54c4,0,5.74-.26,7.31-.88,3.41-1.34,5.17-4.19,5.17-8.07s-1.76-6.68-5.17-8m-2.34,11.5c-.73.31-1.57.51-4.39.51H8.88v-7.92H15c2.82,0,3.66.21,4.39.52a3.5,3.5,0,0,1,2,3.47,3.44,3.44,0,0,1-2,3.42"/><path class="cls-1" d="M47.39,164.86v-.1c3.26-.93,5.39-3.21,5.39-7.35a7.82,7.82,0,0,0-4.51-7.25,12.66,12.66,0,0,0-5.83-1H29.7v26.72h5.43v-9.48h3.26a8,8,0,0,1,3.21.52c2.38,1,4.1,3.62,5.94,9h6.33c-1.61-4.71-3.73-9-6.48-11m-2-3.94a6.54,6.54,0,0,1-3.09.48h-7.2v-7.31h7.2a6.71,6.71,0,0,1,3.09.47,3.64,3.64,0,0,1,0,6.36"/><polyline class="cls-1" points="186.65 149.12 163.05 149.12 163.05 154.09 171.69 154.09 171.69 175.84 177.11 175.84 177.11 154.09 185.04 154.09"/><path class="cls-1" d="M67.55,176.56c5.23,0,9.56-2.12,11.17-6.53a13.16,13.16,0,0,0,.62-4.7V149.12H73.92v16.15a7.73,7.73,0,0,1-.54,3.32c-1,2.28-3.31,3.26-5.83,3.26s-4.87-1-5.86-3.26a7.84,7.84,0,0,1-.51-3.32V149.12H55.73v16.21a13.16,13.16,0,0,0,.62,4.7c1.61,4.41,6,6.53,11.2,6.53"/></g></svg>