<svg xmlns="http://www.w3.org/2000/svg" viewBox="0 0 250 250"><defs><style>.cls-1{fill:#333d47;}</style></defs><title>clients</title><g id="RB"><path class="cls-1" d="M38,117.8c.29-17.09,8.8-38,26.17-55C81,46.3,101.41,38.24,124.94,37.91q35.91.48,61.64,25.52,25,25.79,25.47,61.72-.51,36.4-26.23,62.17Q159.44,212.49,123,212.09c-23.3-.78-43.33-9.28-59.82-25.74C47.12,170.35,37.81,148.41,38,117.8Zm171.68,7.34c-.35-23.33-8.4-43.45-24.85-59.91-16-16-35.57-24.15-58.21-24.82Q91.25,40.17,65.7,64.59,41,89.35,40.32,124.28q.15,35.25,24.72,60.53c16.47,16.07,36.18,24.59,59.21,24.77,23.27.18,43.29-8.11,60.07-24.23C200.9,168.67,209.24,148.55,209.63,125.14Z"/><path class="cls-1" d="M118.51,207.9c-16.31-.25-35.89-8.27-52.2-24.22-16.37-16.79-24.65-36.91-24.22-60.35.41-22.18,8.77-41.17,24.26-57Q90.83,42.5,125,42.07c23,.3,42.84,8.38,59,24.75,15.87,16.08,23.63,35.67,23.94,58.23-.33,22.79-8.31,42.45-24.36,58.63C168.15,199.24,147.23,208,118.51,207.9ZM134.08,75.32v.18c-.78.89-1.58,1.77-2.33,2.69Q129.82,80.59,128,83a3.19,3.19,0,0,1-2.22,1.32c-.69.08-1.39.14-2.08.26a.8.8,0,0,1-.89-.39c-.44-.72-.9-1.42-1.29-2.16-.73-1.36-1.37-2.77-2.12-4.12a9.75,9.75,0,0,0-5.26-4.52,14.1,14.1,0,0,0-7-.78,8.51,8.51,0,0,0-5.35,2.66c-2.43,2.75-3.31,5.91-2,9.48A5.1,5.1,0,0,0,101.34,87,17.68,17.68,0,0,1,101,85a9.35,9.35,0,0,1,2.69-6.86,5.46,5.46,0,0,1,3.53-1.86l-1,.75a6,6,0,0,0-2.33,4.31,8.38,8.38,0,0,0,.49,3.93c.14.39.27.79.41,1.19.28-1.14.5-2.24.85-3.3a6.56,6.56,0,0,1,2.74-3.77,3.9,3.9,0,0,1,2.3-.67l-.42.3a4.84,4.84,0,0,0-2,3,23.1,23.1,0,0,0-.21,2.64,3.32,3.32,0,0,0,.14,1.37c.14-.21.24-.33.32-.47a7.3,7.3,0,0,1,1.75-2.08,4.15,4.15,0,0,1,3-1.12,3,3,0,0,1,2.19,1.37c-2.27.23-3.69,1.16-4.36,2.83l.49,0c.77,0,1.54-.1,2.3-.05,1.18.08,1.6.72,1.19,1.8-.35.91-.8,1.79-1.21,2.68l-.37.83,1.58-.84a6.56,6.56,0,0,1-.07,1,2.74,2.74,0,0,0,1.3,3.13c.89.55,1.74,1.17,2.62,1.76l1.29.83c.23.78.52,1.72.79,2.66s.54,2.12.88,3.16a2,2,0,0,0,1.06,1.4v3.45c-.84.11-1.68.12-2.13,1.1.32,0,.55-.07.77-.08a1.61,1.61,0,0,1,1.13.31c.28.24.55.5.81.77.42.45.82.93,1.23,1.39.49-.68,0-1.25-.25-1.83l.14-.09,2.44,1.83a2.48,2.48,0,0,0-1-2L128,110l.05-.17a6.54,6.54,0,0,0-3.77-1.37,29.45,29.45,0,0,1,.85-7,12.54,12.54,0,0,1,.6,1.49c.14.37.26.76.74.81l.3,3.51c-.65.15-1.26.26-1.57.94a3.39,3.39,0,0,0,.52,0,2.5,2.5,0,0,1,1.83.55c.54.4,1.13.74,1.71,1.1a2.46,2.46,0,0,0,.4.19l.09-.1-.92-1.31.1-.11,2.06,1.29c.08-1-.64-1.4-1.18-1.93l2.24.54a4.74,4.74,0,0,0-4.19-1.42c0-1,.06-2,.09-3a4.69,4.69,0,0,1,.08-.84c.42-1.79.87-3.58,1.29-5.38a.75.75,0,0,1,.51-.6,3,3,0,0,0,1.49-1.12,7.65,7.65,0,0,1,2.09-1.84,10,10,0,0,0,2.41-2.13,10.68,10.68,0,0,0,2.1-6.41,34.16,34.16,0,0,0-.16-3.5,7,7,0,0,1,.69-3.56,11.71,11.71,0,0,0,.76,1.6,1.61,1.61,0,0,0,1.64.71,1.53,1.53,0,0,0,1.24-1.19,2.66,2.66,0,0,0-.19-2.3c-.17-.3-.39-.57-.57-.87a7.58,7.58,0,0,1-.56-1c-.13-.35,0-.59.32-.64a5.72,5.72,0,0,0,2.72-1.5,4.55,4.55,0,0,0,.41-.47,11.18,11.18,0,0,1-3-.26,12.94,12.94,0,0,1,.8-1.19,12.47,12.47,0,0,1,1-1,3.07,3.07,0,0,0-2.11.23,2.33,2.33,0,0,1-1.88.17c0-.11-.05-.23-.09-.34-.26-.95-.58-1.25-1.55-1.31a10.61,10.61,0,0,0-1.87.08,16.46,16.46,0,0,1-3.62.52c.34.61.9.76,1.48,1a4.11,4.11,0,0,1-3.77-.09,3.16,3.16,0,0,0,2.06,1.85c-1.28.44-2,.6-4.09-.14C129.14,75,131.35,75.76,134.08,75.32ZM78.94,148.37v18.68c.2,0,.36,0,.52,0h9.75a4.58,4.58,0,0,0,1-.09,5.49,5.49,0,0,0,3.1-8.82c-.12-.14-.21-.3-.31-.44a3.58,3.58,0,0,1,.21-.32,4.87,4.87,0,0,0,1.28-2.9,5.35,5.35,0,0,0-1.82-4.77,5.74,5.74,0,0,0-4-1.4H79.53ZM67.26,134.14c.18-.11.31-.2.45-.27a5.31,5.31,0,0,0,1.84-1.48A6.14,6.14,0,0,0,71,127.64a5.91,5.91,0,0,0-1.27-3.13,6.23,6.23,0,0,0-5.19-2.43c-2.83,0-5.66,0-8.5,0l-.54.06v18.63H58.6c0-2.07,0-4.1,0-6.12h5.18c1.13,1.94,2.25,3.83,3.33,5.74a.76.76,0,0,0,.77.45c.68,0,1.36,0,2,0h1.16Zm45-12.06v18.7h3l.08-.11a.17.17,0,0,0,0-.07c0-3.46,0-6.93,0-10.39a1.49,1.49,0,0,1,0-.21s0,0,0,0l.1-.05,6,6c.55-.54,1-1,1.53-1.53l1.49-1.48c.52-.52,1-1,1.54-1.54a11.38,11.38,0,0,1,1.59-1.47c0,1.9,0,3.7,0,5.5s0,3.58,0,5.42c.61,0,1.13,0,1.64,0a5.09,5.09,0,0,0,1.56-.09c.14-1.38.08-18-.08-18.6l-9.22,9.22Zm68.37,18.71c.18,0,.3,0,.41,0,1.89,0,3.79,0,5.68,0a10.55,10.55,0,0,0,3.1-.47,9.59,9.59,0,0,0,5-4,8.54,8.54,0,0,0,1.36-4.42,9.19,9.19,0,0,0-4.33-8.42,8,8,0,0,0-4.48-1.4c-2.12,0-4.25,0-6.38,0a2.8,2.8,0,0,0-.36,0ZM140,156.22l.14-.08c4.08,3.62,8.11,7.31,12.25,11,.16-.85.14-18.2,0-18.77h-1.52l-1.63,0v11c-2.14-1.92-4.15-3.75-6.18-5.56s-4-3.69-6.21-5.54v18.75H140V156.22Zm14.09-24.74a9.36,9.36,0,1,0-9.36,9.35A9.38,9.38,0,0,0,154.09,131.48Zm20.22,9.34c.17-1.17.12-18.21-.05-18.74-.49,0-1,0-1.52,0a4.47,4.47,0,0,0-1.57.11v10.91c-4.18-3.71-8.19-7.39-12.34-11.06,0,.28,0,.41,0,.55q0,9,0,18a.09.09,0,0,0,0,.05l0,0h3c0-3.64,0-7.23,0-11Zm-82.1,0-9.37-18.75c-.82,1.29-9.2,18.21-9.28,18.71H77l1.6-3.07H87l.33.62c.31.63.66,1.24.93,1.89a.89.89,0,0,0,1,.61c.65,0,1.31,0,2,0ZM119.66,164h8.5c.11.21.23.42.33.62.34.67.68,1.34,1,2a.64.64,0,0,0,.7.42c.84,0,1.69,0,2.53,0l.53-.07-9.36-18.72c-.1.17-.13.23-.16.29l-9.14,18.33a.33.33,0,0,0,0,.06s0,0,0,.08h3.42Zm52.19-1.82a6.46,6.46,0,0,1-9.12,0A6.36,6.36,0,0,1,166,151.52a6.4,6.4,0,0,1,5.83,1.81l1.09-1.18c.36-.38.73-.76,1.1-1.13a9.56,9.56,0,1,0-.06,13.46ZM90.16,122.08c.23.34.36.54.5.72,2.3,2.94,4.61,5.89,6.93,8.82a1.78,1.78,0,0,1,.41,1.21c0,2.41,0,4.82,0,7.23,0,.24,0,.49,0,.72h3.13V140c0-2.41,0-4.82,0-7.23a2.09,2.09,0,0,1,.48-1.4c2.27-2.86,4.51-5.73,6.76-8.6.14-.17.24-.37.43-.65-1.34,0-2.58,0-3.81,0-.18,0-.4.22-.53.39-1.15,1.44-2.29,2.9-3.42,4.35l-1.54,2c-.16-.2-.29-.33-.4-.47-1.34-1.72-2.74-3.39-4-5.16a2.26,2.26,0,0,0-2.32-1.1C92,122.15,91.13,122.08,90.16,122.08Zm9.55,45h12.46a10.89,10.89,0,0,0-.06-3.11H106l-3.12,0V148.39h-3.2Z"/><path class="cls-1" d="M58.64,131.34a3.8,3.8,0,0,0,.43,0c1.92,0,3.84,0,5.75,0a3,3,0,1,0-.08-6H59.33c-.22,0-.45,0-.69,0Z"/><path class="cls-1" d="M82.81,129.24l-2.6,5.21h5.2Z"/><path class="cls-1" d="M82.11,159.4l.52,0H89a2.17,2.17,0,0,1,2,1.26,2.14,2.14,0,0,1-.2,2.38,2.22,2.22,0,0,1-1.82.91c-2.25,0-4.49,0-6.73,0a.53.53,0,0,1-.18-.07Z"/><path class="cls-1" d="M82.09,156.2v-4.55c.21,0,.41-.05.62-.05H89a2.26,2.26,0,0,1,.29,4.51,9.53,9.53,0,0,1-1.19.09c-1.7,0-3.41,0-5.12,0Z"/><path class="cls-1" d="M58.64,131.34v-6c.24,0,.47,0,.69,0h5.41a3,3,0,1,1,.08,6c-1.91,0-3.83,0-5.75,0A3.8,3.8,0,0,1,58.64,131.34Z"/><path class="cls-1" d="M183.84,137.53V125.39a5.35,5.35,0,0,1,.55,0c.84,0,1.68,0,2.52,0a6.14,6.14,0,0,1,1.2,12.16,1.33,1.33,0,0,1-.28,0Z"/><path class="cls-1" d="M138.59,131.45a6.15,6.15,0,0,1,12.29,0,6.15,6.15,0,1,1-12.29,0Z"/><path class="cls-1" d="M82.81,129.24l2.6,5.21h-5.2Z"/><path class="cls-1" d="M123.92,155.58l2.56,5.13a31.26,31.26,0,0,1-5.09.07A32.47,32.47,0,0,1,123.92,155.58Z"/></g></svg>