<svg xmlns="http://www.w3.org/2000/svg" viewBox="0 0 250 250"><defs><style>.cls-1{fill:#333d47;}</style></defs><title>clients</title><g id="Boots"><path class="cls-1" d="M126.13,66.37c-51.49,0-93.24,25.37-93.24,56.67s41.75,56.67,93.24,56.67,93.25-25.37,93.25-56.67S177.63,66.37,126.13,66.37ZM186,122.44a23.3,23.3,0,0,1-2.43,1.53,2.29,2.29,0,0,0-.27.15c-1.63,3.49-2.67,7.63-6.44,9.81a29.28,29.28,0,0,1-6.92,2.8l-59.18,18.4a5.56,5.56,0,0,0-2,1.75c-1.79-2-1.6-5.41-.64-7.75,1.34-3.22,4.74-5.43,7.86-6.32l21.78-5.26,33.46-8a18,18,0,0,0,5.76-2.48,5.86,5.86,0,0,0,1.94-2.19v-.08a8.67,8.67,0,0,1-7.31-3.69c-3.66,3.71-7.39,8.33-12.89,7.85a4.62,4.62,0,0,1-3.16-2.05c-1.16-1.87-.29-4.14.41-6l7-15.7c-3.18-2-8.23-1.83-11.44.2a19.13,19.13,0,0,0-1.8,1.23c2.75,2.93,2.83,7.25,2.16,10.93-1.52,6.82-6.13,14.69-12.81,16.95a5.24,5.24,0,0,1-5.45-1.14c-3.42-3.55-2.09-9.35-.39-13.26a39.44,39.44,0,0,1,10.56-13.87c-4.28-.19-7.85,1.81-11.11,4.32-.06,6.06-2.68,11.28-5.34,16.38-3.16,5.32-7.93,11.86-14.52,12.56a4.86,4.86,0,0,1-4.67-2.35c-2.44-4.67-.91-10.23.83-14.72a41.09,41.09,0,0,1,8.64-12.7c-1.62-1-3.89-.57-5.5.13-2.72,1.86-5.1,4.21-8,5.5a45.37,45.37,0,0,1-4.55,2.07,46.72,46.72,0,0,1,2,4.36c3.45,7.79,2.19,18.06-3.44,24.54a20.42,20.42,0,0,1-21.05,7.11,22.66,22.66,0,0,1-5.93-2.56c-3.62,2.33-8.83,5.09-13.93,3.34-1.77-.65-3.82-2.16-4-4.21A4.42,4.42,0,0,1,55,145.64a4.7,4.7,0,0,1,4-.63,3.94,3.94,0,0,1,2.73,2.71,3.16,3.16,0,0,1-.92,2.83,4.28,4.28,0,0,1-2.66,1.33c1.29,1,3.23.48,4.63.16a11.2,11.2,0,0,0,5.49-3.89,10.46,10.46,0,0,1-2-10.44c.9-2.9,3.84-5.63,6.92-5.89a8.21,8.21,0,0,1,4.37.77c.62-1.14,1.27-2.65,2-4.06l4.53-9.9.46-1.1c-1.55-.8-3.25-2.29-3.21-4.16A3.57,3.57,0,0,1,83,110.62a9.4,9.4,0,0,1,5.58-.74c3.55-5.5,7.17-11.49,12.71-15.55l4-2.52c-1.68-1.6-4.21-1.69-6.65-1.71a26.18,26.18,0,0,0-18.41,8.7c-2,2.64-3.77,5.52-3.29,9,.35,1.59,2.09,2.35,3.49,2.59a5.89,5.89,0,0,1-3.77,3.46,6.37,6.37,0,0,1-6.39-2.79c-2.16-3.68-.07-7.94,2.2-10.95C78,93.28,85.49,89.57,93.56,88a29.91,29.91,0,0,1,15.65,1.48,20.67,20.67,0,0,1,5.39-2.27c.22,0,.37-.09.51.24a.47.47,0,0,1-.22.59c-1.18,1-2.57,1.55-3.58,2.75a11.1,11.1,0,0,1,4.39,10.75,16.78,16.78,0,0,1-2.32,5.39,7,7,0,0,1,4.76-.2,9.36,9.36,0,0,1,1.76,1c1.88-1.43,5.52-4.24,9.14-3.35a4.7,4.7,0,0,1,3.14,3.29c4.39-2.88,10.17-5.17,15.6-3,4-2.7,10.16-4.47,15.11-2.12l1,.4c1.18-2.14,2.23-4.41,3.34-6.61l-26.3,2.83-23.51,2.6c.7-3.49.08-7.68-2.68-10.29l-1.45-1.34h56.88l1.38-2.94,4.27-.24-1.48,3.34h15.52l-1.93,3.42-15.6,1.92-10.4,25.36c-.37,1-1,2.17-.59,3.3a1.26,1.26,0,0,0,1.42.54c1.68-.42,3.49-2.33,5.06-3.68l2.31-2.36c-1.05-2.77-.77-6.43,1.42-8.59a7.43,7.43,0,0,1,7-2.12l7.2-8.92c.47-.92.86-2.21,2.09-2.62a1.25,1.25,0,0,1,1.16.31,2.23,2.23,0,0,1-.54,2.47,8.66,8.66,0,0,1-1.47,1.22c.05,4.75,3.59,8.24,3.67,13.24A11.27,11.27,0,0,1,186,122.44Z"/><path class="cls-1" d="M191.35,114.05c1.32-4.44,0-9.17-.86-13.37l-4.82,6.7a11.59,11.59,0,0,1,4.76,9.26,17.77,17.77,0,0,0,.92-2.59"/><path class="cls-1" d="M187.6,117.73a7.82,7.82,0,0,0-3.57-8c-2.26,3.11-4.7,6.13-6.91,9.24a6.8,6.8,0,0,0,3.8,2.68,6.41,6.41,0,0,0,5.72-1.28,13.42,13.42,0,0,0,1-2.64"/><path class="cls-1" d="M181.29,109.12a4.37,4.37,0,0,0-3.91,1,5.34,5.34,0,0,0-1.28,5.66c1.7-2.21,3.45-4.53,5.19-6.69"/><path class="cls-1" d="M128.66,109.82c0-1.07.33-2.54-.76-3.16s-1.87.41-2.66,1a66.23,66.23,0,0,0-13.59,19.78c-.94,2.12-2.59,5.52-1.44,8.12a1.89,1.89,0,0,0,1.4.95c1.76.26,3.61-1.78,5-3.2a60.77,60.77,0,0,0,9.53-15.61,43.12,43.12,0,0,0,2.51-7.91"/><path class="cls-1" d="M107.26,98.82c.12-2.66,0-5.39-1.54-7.34l-1.81,1.62c-5.16,5.65-8.62,12-12.18,18.29A11.74,11.74,0,0,1,94.88,114L98.4,112a18.75,18.75,0,0,0,8.86-13.19"/><path class="cls-1" d="M94.77,132.06c.88-4.45,1-10.24-1.24-14.11a24.92,24.92,0,0,1-5,.64c-3.23,7.12-6.39,14.27-10.53,21a80.27,80.27,0,0,1-8,10.67,17.62,17.62,0,0,0,14.86-2.5,25.59,25.59,0,0,0,9.89-15.72"/><polyline class="cls-1" points="89.75 115.12 91.82 114.86 90.37 114"/><path class="cls-1" d="M83.44,111.37A3.12,3.12,0,0,0,82.2,111a2.2,2.2,0,0,0-2.28.69,1.42,1.42,0,0,0-.07,1.43,2.54,2.54,0,0,0,2,1.28"/><path class="cls-1" d="M68.8,142.48a6.88,6.88,0,0,1-2.59-5.67,7.7,7.7,0,0,0-2.56,4.6,7.35,7.35,0,0,0,1.81,6.16l.26-.27a35.27,35.27,0,0,0,3.08-4.82"/><path class="cls-1" d="M149.4,116.19c1-4.12.92-7.69-.67-9.15-.34-.31-3.63,3.76-3.63,3.76-3.8,5.1-7.22,10.38-8.53,16.5-.14,1.55-.52,3.33.36,4.66a2.49,2.49,0,0,0,2.63.21c1.95-.8,3.9-3.42,5.23-5.51a43.8,43.8,0,0,0,4.61-10.47"/></g></svg>