<svg xmlns="http://www.w3.org/2000/svg" viewBox="0 0 250 250"><defs><style>.cls-1{fill:#333d47;}</style></defs><title>clients</title><g id="TKMAXX"><path id="path17" class="cls-1" d="M224.48,194.58A3.47,3.47,0,0,1,221,198.2h0a3.61,3.61,0,1,1,3.48-3.61Zm1.4,0a4.89,4.89,0,1,0-4.88,4.7,4.62,4.62,0,0,0,4.88-4.7m-5.69.4h.53l1.21,2.12h1.33l-1.34-2.21a1.2,1.2,0,0,0,1.26-1.31c0-1.16-.8-1.53-2.15-1.53h-2v5h1.12V195m0-.86V192.9H221c.42,0,1,0,1,.56s-.3.66-.8.66h-1"/><path id="path19" class="cls-1" d="M193,168.7l6.09,16.65H186.75Zm-6.51-6.48-14,35.52h9.9l2.21-6.27h16.6l2.1,6.27H214l-14.12-35.52Zm-28.15,35.54h10V162.21h-10ZM88.62,162.21l-8.38,28.17-8-28.17H61.38l11.46,35.55H87.31l11.56-35.55ZM129.23,170h4.31c6.27,0,10.32,2.81,10.32,10.11s-4.05,10.11-10.32,10.11h-4.31Zm-10-7.74v35.55h16.28c8.68,0,11.51-1.44,14.57-4.68,2.17-2.27,3.57-7.26,3.57-12.71,0-5-1.19-9.45-3.25-12.23-3.72-5-9.08-5.93-17.08-5.93Zm-95.15-.05v35.6H34.25v-27h7.84c2.6,0,4.46.65,5.71,2,1.59,1.69,2.23,4.42,2.23,9.42v15.63h9.82V178.09c0-14-9-15.93-17.7-15.93Zm79,.05v35.55h10V162.21Z"/><path id="path21" class="cls-1" d="M51.11,91.42a54,54,0,0,1,38.72-21V63.47C61.25,65.77,36.51,90,36.51,90s14,40.51,53.32,44.22v-7.35C61,123.21,51.11,91.42,51.11,91.42Zm38.72,20.8V119C68,115.06,62,92.4,62,92.4A47.12,47.12,0,0,1,89.83,78.93v7.39h0c-9.12-1.09-16.25,7.43-16.25,7.43s4,14.35,16.29,18.48m0-61.5V63.47c.83-.06,1.67-.12,2.52-.14C124.83,62.23,146,90,146,90s-24.3,29.55-49.63,29.55a37.44,37.44,0,0,1-6.53-.57v7.89a43.25,43.25,0,0,0,5.44.35c23.57,0,40.61-12,57.11-26.28,2.74,2.19,13.94,7.52,16.24,9.85-15.69,13.14-52.26,23.73-73,23.73-2,0-3.92-.12-5.8-.3v11.08H179.4V50.72Zm0,28.21V70.39c.83-.06,1.66-.1,2.52-.13C115.71,69.53,131,90.33,131,90.33s-16.55,23-34.3,23a21.56,21.56,0,0,1-6.9-1.1V86.32c9.09,1.1,10.92,5.11,16.39,14.23l12.16-10.26S109.5,78.65,94.54,78.65a44.66,44.66,0,0,0-4.71.28"/></g></svg>