<svg xmlns="http://www.w3.org/2000/svg" viewBox="0 0 250 250"><defs><style>.cls-1{fill:#333d47;fill-rule:evenodd;}</style></defs><title>clients</title><g id="CH4"><polygon class="cls-1" points="154.85 61.91 154.85 184.41 138.13 184.41 138.13 81.84 154.85 61.91 154.85 61.91"/><polygon class="cls-1" points="98.11 203.93 98.11 187.21 115.17 187.21 115.17 203.93 98.11 203.93 98.11 203.93"/><polygon class="cls-1" points="157.59 154.38 157.59 137.67 184.57 137.67 184.57 154.38 157.59 154.38 157.59 154.38"/><polygon class="cls-1" points="137.78 203.93 137.78 187.21 173.85 187.21 173.85 203.93 137.78 203.93 137.78 203.93"/><polygon class="cls-1" points="117.91 203.85 117.91 156.96 134.62 156.96 134.62 203.85 117.91 203.85 117.91 203.85"/><polygon class="cls-1" points="117.92 134.37 117.92 74.07 134.62 54.06 134.62 134.37 117.92 134.37 117.92 134.37"/><polygon class="cls-1" points="67.63 134.37 114.98 77.59 114.98 103.81 89.56 134.37 67.63 134.37 67.63 134.37"/><polygon class="cls-1" points="137.88 50.13 141.26 46.07 154.43 56.36 137.88 76.27 137.88 50.13 137.88 50.13"/><polygon class="cls-1" points="65.43 154.38 65.43 137.67 134.71 137.67 134.71 154.38 65.43 154.38 65.43 154.38"/></g></svg>