<svg xmlns="http://www.w3.org/2000/svg" viewBox="0 0 250 250"><defs><style>.cls-1{fill:#333d47;fill-rule:evenodd;}</style></defs><title>clients</title><g id="MTV"><path class="cls-1" d="M38.88,183.88V66.12h64.3l11.65,11.66L126,66.12h55.76l10.45,10.45v11.8l4.86-4.27c2.35-1.79,4.41-2.67,6.18-2.67A6.77,6.77,0,0,1,209,84.35c1.45,1.94,2.16,4.69,2.16,8.27a8.35,8.35,0,0,1-1.74,4.24,33.26,33.26,0,0,1-4.17,4.1,29.3,29.3,0,0,0-3.83,3.73q-1.87,2.43-4.78,5.79c-1.92,2.2-3.44,4-4.52,5.42v58.7l-9.83,9.28H126V143l-11.65,10.6-10.75-7.66v28.26l-10.28,9.72Zm54.46-45.17v40.6l6.62-6.47V143.42l-6.62-4.71Zm88.91-7.38v48.75l6.62-6.65V121.17l-6.62,10.16Zm0-60.5v30.91L189,92V77.63l-6.77-6.8Zm-32.51,42.25-1.2,2.21a7.89,7.89,0,0,0-1,4,12.26,12.26,0,0,0,1.13,5,65.3,65.3,0,0,0,3.85,7.07c1.84,3,3.21,5.35,4.14,7.14a19.6,19.6,0,0,1,1.92,5.37q1.8,14.28,7.65,14.28a7.86,7.86,0,0,0,1.62-.3,2.46,2.46,0,0,0,1.91-.78,5,5,0,0,0,1.08-2.06,17.22,17.22,0,0,0,.54-2.82c.1-1,.2-2.09.3-3.17a16.05,16.05,0,0,1,1.86-5.17,16.9,16.9,0,0,0,1.82-4.1c2.35-4.74,4.19-8.19,5.49-10.4s3.34-5.42,6.16-9.62a31.25,31.25,0,0,1,2.21-3.88c.64-.85,1.62-2.13,3-3.8s2.52-3.24,3.48-4.68a34.43,34.43,0,0,1,5.32-5.79,35.8,35.8,0,0,0,5.6-6.11,12.25,12.25,0,0,0,1.76-6.92A5,5,0,0,0,207,85.31a4.47,4.47,0,0,0-3.65-1.65c-2.29.47-5.08,2.55-8.37,6.28a112.34,112.34,0,0,0-9.05,11.78c-2.73,4.1-5.5,8.44-8.32,13a26.56,26.56,0,0,0-2.08,5.44,40.2,40.2,0,0,1-2.07,5.6,14.6,14.6,0,0,0-2.13,3.6,16.22,16.22,0,0,1-2.67,4.22,5.31,5.31,0,0,1-4,1.45,12.61,12.61,0,0,1-2.94-5.67c-.69-2.45-1.47-5.81-2.36-10.11s-1.59-6.45-2.08-6.57a6.23,6.23,0,0,0-3.95-1.47,4.33,4.33,0,0,0-3.51,1.89Zm-30.2,0a30.69,30.69,0,0,1-3,3,37.88,37.88,0,0,1-4.29,2.87c-1.94,1.17-3.07,1.86-3.43,2.11a6.78,6.78,0,0,0-2.06,5,3,3,0,0,0,1.61,2.94,4.15,4.15,0,0,0,1.77.27c1.87,0,4-1.2,6.48-3.65,1.84-1.94,3.58-3.75,5.25-5.42A28.5,28.5,0,0,1,127,116a15.52,15.52,0,0,1,6-2.28c0,.07.34,1.35,1,3.82a24.23,24.23,0,0,1,1,5.92c0,3.26.07,6.55.22,9.81s.22,5.27.22,6.06a90.54,90.54,0,0,1-1,11,30.56,30.56,0,0,0-.61,4.56,24.76,24.76,0,0,0,1.47,7.07,20.39,20.39,0,0,1,.49,3,10.82,10.82,0,0,0,.66,3.07,1.64,1.64,0,0,0,1.65,1,3.82,3.82,0,0,0,1.62.47c1.49,0,2.7-1.13,3.55-3.36a23.06,23.06,0,0,0,1.3-8.3,42.92,42.92,0,0,1-1.34-10.45V142c.41-6.16.61-10.13.61-11.95a18.13,18.13,0,0,0-.15-2.94,46.71,46.71,0,0,0-1.13-5.3,24.86,24.86,0,0,1-.93-5.57,10.5,10.5,0,0,1,1.74-5.62q4.45-9,21.37-12.78c2.13-1.08,3.21-2.4,3.21-4,0-2-1.88-2.94-5.71-2.94a12.22,12.22,0,0,0-5,1,38.62,38.62,0,0,0-5.35,3,50.07,50.07,0,0,1-5.37,3.09,12.75,12.75,0,0,1-4.79,1.25c-1.44.07-2.74.12-3.85.19a8,8,0,0,0-3,.69,7.72,7.72,0,0,0-2.65,2.28,24.22,24.22,0,0,0-2.89,4.76c-.12.54-1.57,1.4-4.27,2.55a16.55,16.55,0,0,0-5.57,3.49Z"/></g></svg>