<svg xmlns="http://www.w3.org/2000/svg" viewBox="0 0 250 250"><defs><style>.cls-1,.cls-2{fill:#333d47;}.cls-1{fill-rule:evenodd;}</style></defs><title>clients</title><g id="TKMAXX"><path class="cls-1" d="M157.56,108.59a9.38,9.38,0,1,1-9.31,9.38,9.35,9.35,0,0,1,9.31-9.38Zm-1.33-11.13h1.62a14.86,14.86,0,0,1,7.85,2.4l.53.36c.94.33-.17-1.64.75-1.64H192.3c.52,0,.81.41,1.3,1a37.38,37.38,0,0,1,2.89,4c-.3.41-.4.27-.86.49.05.62,2.09,3.08,2.52,3.65l4.25,5.75c1,1.32,5.86,8.15,6.81,9.25a13.51,13.51,0,0,1-1.5,2.32c-.6.88-4.45,6.13-4.92,6.44-.95-.63-3.09-4.55-4.07-4.81-.58.38-5.49,7.08-6.48,8.34-.8,1-1.63,2.52-2.41,2.52H166.61v-1.85c-.85,0-1.1.46-2.23,1.11a10.48,10.48,0,0,1-2.07.88,15.89,15.89,0,0,1-5.58.85,19.49,19.49,0,0,1-14.1-6.14,20.51,20.51,0,0,1-5.41-9.79,17.16,17.16,0,0,1-.38-2.08c-.07-.67-.08-1.57-.19-2.3a21.87,21.87,0,0,1,.44-4.52,21.49,21.49,0,0,1,11-14.27,20.16,20.16,0,0,1,8.1-2Zm22.36,35v-24.7c0-1.94-.22-6.67.12-8.15.69.36,1.16,1.35,1.63,2l6.13,8.19c.71.94,4.53,6,4.56,6.29s-1.14,1.75-1.42,2.12c-.53.71-1,1.36-1.54,2l-4.68,6.18c-.53.71-1,1.31-1.55,2-.32.42-2.7,3.89-3.25,4Z"/><path class="cls-1" d="M79.56,114.87v22.85H91.17V114.26a5.44,5.44,0,1,1,10.86.37v23.09h11.61c0-2.64-.13-23,0-24.17a5.1,5.1,0,0,1,1-2.37c2-2.71,6.28-2.92,8.17-.78a6.35,6.35,0,0,1,1.57,3.73v23.46h11.73c0-1.28-.12-2.07-.12-3.33V116.48a21.12,21.12,0,0,0-.62-6.55A17,17,0,0,0,110.24,100c-2.56,1.53-1.86,2.12-3.48.9a8.63,8.63,0,0,0-1.11-.75c-5.07-2.81-10.87-3.58-16.21-1a19.43,19.43,0,0,0-5,3.55,17.45,17.45,0,0,0-4.91,12.13Z"/><path class="cls-1" d="M39.68,98.08v38.4H51.41v-8.76c.38.28,13.13,17.42,13.9,18.45l4.62,6.24h7.66c.72,0,1,.1,1.54.13h4.42a10.65,10.65,0,0,0,1.44-.13c0-.68-3.52-5.11-4-5.82L70.25,132.34c-.29-.38-.45-.64-.73-1l-2.84-3.83c-.69-.91-4-5.14-4-6a5.07,5.07,0,0,1,.67-1.06c.28-.42.48-.67.77-1.09l10.16-14.28c.24-.34.25-.16.26-.73-1.32-.31-11.75-.12-14-.12-.36,0-2,2.41-2.36,2.82l-6.77,8.78v-9.13c0-3.15-.13-5.88-.13-9H40.05c-.29,0-.37.09-.37.37Z"/><path class="cls-1" d="M197.61,104.26l9.56,13c.49.65,3.15,4.09,3.15,4.62,0,.31-10.82,14.93-12,16.53-.56.75-1.57,1.92-1.59,2.61h14.82c.55,0,3.64-4.52,4.16-5.22l2.51-3.3a9.11,9.11,0,0,1,2,2.33l5.68,7.53c1.27,1.7,2.49,3.29,3.77,5l1.86,2.47c.65.88,1.29,1.68,1.88,2.56h13.47c1,0,.82.29,1.6-.12a12.8,12.8,0,0,0-1-1.47l-12.15-16.24c-1.48-2.05-2.89-4-4.39-6s-2.85-3.92-4.35-5.91c-.9-1.2-.52-1.33.84-3.19l3.23-4.55c.22-.32.31-.41.52-.72l6.45-9.11c.31-.45.35-.33.24-.86h-14.2c-.12.42-3.42,4.59-3.85,5.16-1.6,2.15-1.32,2.18-2.94,0l-1.38-1.83-1.32-1.77a12.91,12.91,0,0,1-1.38-1.83H205l-5.8-.13c-1.2,0-.89-.12-1.6.38Z"/><path class="cls-1" d="M1.52,109.07H7.33c1.84,0,3.23.13,5.06.13v27.41H24.24l.13-27.54H35.23V97.59H1.52v11.48Z"/><path class="cls-1" d="M71.9,127.84a7.29,7.29,0,0,0,4.4-1.78,6,6,0,0,0,2-4.76,6.34,6.34,0,0,0-.6-2.5,6.16,6.16,0,0,0-3.28-3.13,6.45,6.45,0,0,0-9,5.88A6.55,6.55,0,0,0,67.37,126a6.77,6.77,0,0,0,4.53,1.88Z"/><path class="cls-1" d="M25.72,121.54a6.34,6.34,0,1,0,11-4.23,6.34,6.34,0,0,0-11,4.23Z"/><path class="cls-1" d="M214.4,104.5c.78-.52,5-6.51,5-6.58s-.08-.33-.4-.33H205.26c-.91,0-2.52,2.38-3.07,3.1-.11.15-1.27,1.78-1.28,1.81-.18.62,1.63.4,2.62.4l9.24,0c.82.17,1,1.16,1.63,1.58Z"/><path class="cls-2" d="M242.29,101.05a3.05,3.05,0,0,1,1.47.39,2.7,2.7,0,0,1,1.12,1.1,3,3,0,0,1,.4,1.51,2.94,2.94,0,0,1-.4,1.48,2.73,2.73,0,0,1-1.1,1.11,3,3,0,0,1-3,0,2.73,2.73,0,0,1-1.1-1.11,2.94,2.94,0,0,1-.4-1.48,3,3,0,0,1,.4-1.51,2.7,2.7,0,0,1,1.12-1.1,3.06,3.06,0,0,1,1.48-.39Zm0,.5a2.48,2.48,0,0,0-1.23.32,2.31,2.31,0,0,0-.94.92,2.59,2.59,0,0,0-.34,1.26,2.54,2.54,0,0,0,.34,1.24,2.39,2.39,0,0,0,.92.92,2.51,2.51,0,0,0,2.49,0,2.39,2.39,0,0,0,.92-.92,2.53,2.53,0,0,0,.33-1.24,2.58,2.58,0,0,0-.33-1.26,2.31,2.31,0,0,0-.94-.92,2.5,2.5,0,0,0-1.22-.32ZM241,105.7v-3.22h1.11a2.67,2.67,0,0,1,.82.09.83.83,0,0,1,.56.78.87.87,0,0,1-.26.62,1,1,0,0,1-.67.29.83.83,0,0,1,.28.17,3.86,3.86,0,0,1,.48.64l.39.63H243l-.28-.51a2.62,2.62,0,0,0-.55-.75.67.67,0,0,0-.41-.11h-.31v1.37Zm.52-1.81h.63a1,1,0,0,0,.62-.14.44.44,0,0,0,.16-.36.38.38,0,0,0-.08-.25.44.44,0,0,0-.21-.17,1.65,1.65,0,0,0-.53,0h-.59v1Z"/></g></svg>