<svg xmlns="http://www.w3.org/2000/svg" viewBox="0 0 250 250"><defs><style>.cls-1{fill:#333d47;fill-rule:evenodd;}</style></defs><title>clients</title><g id="SCJ"><path class="cls-1" d="M49.37,135.33c0,.11-4.44,13.78-4.51,14h3.07c0-.11,1-3,1-3h4.66s.86,2.9.9,3h3.33c-.07-.23-4.54-13.89-4.59-14Zm.24,8.36,1.64-5.87.12.32,1.46,5.66H49.57l0-.11Z"/><path class="cls-1" d="M70.88,135.33v14h3v-5.71h4.65v-2.5H73.91v-3.29h4.86v-2.5Z"/><path class="cls-1" d="M85.44,137.6c0,.12-3.71,11.51-3.79,11.73h2.56c0-.11.79-2.54.79-2.54h3.94s.72,2.42.75,2.54h2.78c-.08-.22-3.82-11.61-3.85-11.73Zm.17,7,1.39-5,.12.31,1.23,4.77H85.58l0-.11Z"/><path class="cls-1" d="M105.53,137.6c0,.12-2.32,8.16-2.32,8.16l-.11-.31s-2.1-7.72-2.13-7.85h-4.1v11.73h2.47c0-.17-.06-9.28-.06-9.28h.13s2.49,9.15,2.52,9.28h2.35c0-.12,2.61-9.28,2.61-9.28h.16s0,9.11,0,9.28h2.46V137.6Z"/><path class="cls-1" d="M114.86,137.6v11.73h2.53V137.6Z"/><path class="cls-1" d="M122.88,137.6v11.73h6.7v-2.17h-4.17V137.6Z"/><path class="cls-1" d="M138.23,137.6l-2,4.92-2-4.92h-2.9l3.68,7.3s0,4.26,0,4.43h2.51v-4.39s3.19-6.4,3.67-7.34Z"/><path class="cls-1" d="M216.63,144.63H214.1l1.3-4.67h0l1.2,4.67Zm-2.79-7-3.79,11.73h2.56c0-.11.79-2.54.79-2.54h3.94s.72,2.42.75,2.54h2.77L217,137.6Z"/><path class="cls-1" d="M245.69,137.6l-2,4.92-2-4.92h-2.91c.13.24,3.68,7.3,3.68,7.3s0,4.26,0,4.43h2.52v-4.39s3.19-6.4,3.67-7.34Z"/><path class="cls-1" d="M152.67,142.37c0,5.3,3.68,7.18,6.84,7.18A11.51,11.51,0,0,0,163,149c0-.14-.13-2.55-.14-2.78a7.29,7.29,0,0,1-2.92.7c-2.47,0-4.12-1.83-4.12-4.56s1.59-4.69,3.86-4.69a5.68,5.68,0,0,1,3.07.94c0-.25.22-2.73.24-2.86a10.7,10.7,0,0,0-3.49-.7c-4.26,0-6.82,2.73-6.82,7.31Z"/><path class="cls-1" d="M169.58,143.46c0-2.06.65-3.81,2.3-3.81s2.29,1.75,2.29,3.81-.66,3.81-2.29,3.81-2.3-1.85-2.3-3.81Zm-2.7,0c0,3.86,1.82,6.08,5,6.08s5-2.22,5-6.08-1.78-6.07-5-6.07-5,2.15-5,6.07Z"/><path class="cls-1" d="M190.24,137.6c0,.12-2.32,8.16-2.32,8.16l-.11-.31s-2.1-7.72-2.13-7.85h-4.1v11.73h2.47c0-.17-.06-9.28-.06-9.28h.14s2.48,9.15,2.51,9.28H189c0-.12,2.65-9.28,2.65-9.28h.12s0,9.11,0,9.28h2.47V137.6Z"/><path class="cls-1" d="M200,137.6v11.73h2.52v-4.16h1.13c2.47,0,3.94-1.4,3.94-3.75,0-2.61-1.42-3.82-4.46-3.82Zm2.52,5.41v-3.34h.79a1.54,1.54,0,0,1,1.75,1.69,1.56,1.56,0,0,1-1.75,1.74h-.79V143Z"/><path class="cls-1" d="M232.16,137.6c0,.17,0,8.22,0,8.22h-.11s-3.44-8.11-3.49-8.21h-3.29v11.73h2.3c0-.17-.08-8.27-.08-8.27l.11,0s3.56,8.15,3.61,8.25h3.2V137.6Z"/><polygon class="cls-1" points="1.41 158.84 1.41 162.99 248.38 162.99 248.38 158.84 1.41 158.84 1.41 158.84"/><path class="cls-1" d="M118.06,98.44a14.75,14.75,0,0,0,5.77.72,4,4,0,0,0,3.93-3.93c0-2.16-1.4-3.7-3.93-3.68H122a.94.94,0,0,1-1-1c0-.54.6-1.07,1.51-1.07A7.82,7.82,0,0,1,127,90.57l.4-2.54A11.41,11.41,0,0,0,122,87a3.93,3.93,0,0,0-3.85,3.72,3.27,3.27,0,0,0,3.41,3.41c1.11,0,1.63,0,2.23,0A1.09,1.09,0,0,1,125,95.28a1.38,1.38,0,0,1-1.17,1.22,9.48,9.48,0,0,1-5.75-.94v2.88Z"/><path class="cls-1" d="M139.72,98.93a18.52,18.52,0,0,1-4.91.29,6.06,6.06,0,0,1,0-12.06,19,19,0,0,1,4.91.29v2.62a11.16,11.16,0,0,0-4-.43c-2.26.26-3.29,1.51-3.29,3.55s1,3.3,3.29,3.55a11.28,11.28,0,0,0,4-.42v2.61Z"/><path class="cls-1" d="M129.71,110.79a5.84,5.84,0,0,1,5.83-5.56h2.8v-.68l-9.35-6-9.36,6v.68h2.8a5.85,5.85,0,0,1,5.84,5.56Z"/><path class="cls-1" d="M129.71,112.11a5.84,5.84,0,0,0,5.83,5.55h2.8v.68l-9.35,6-9.36-6v-.68h2.8a5.85,5.85,0,0,0,5.84-5.55Z"/><path class="cls-1" d="M119.82,101.51a13.56,13.56,0,1,0,22.75,10V87.07h8.13v24c0,13.59-10.75,16.6-21.71,16.6-12,0-21.69-3.32-21.69-14.89,0-6.52,5.79-12.16,12.52-12.16v.91Z"/><path class="cls-1" d="M234.37,100.59v19H240V104.75a1.44,1.44,0,1,1,2.88,0v12a2.83,2.83,0,0,0,2.83,2.83h2.76v-14.8a4.2,4.2,0,0,0-4.21-4.2Z"/><path class="cls-1" d="M185.59,100.58v19h5.6l0-14.85a1.45,1.45,0,0,1,2.89,0l0,12a2.84,2.84,0,0,0,2.84,2.84h2.75v-14.8a4.2,4.2,0,0,0-4.2-4.2Z"/><path class="cls-1" d="M174.9,100.58V92.45h-5.57v27.12h5.57l0-14.8a1.45,1.45,0,0,1,2.89,0v12a2.83,2.83,0,0,0,2.83,2.84h2.75v-14.8a4.2,4.2,0,0,0-4.2-4.2Z"/><path class="cls-1" d="M226.79,100.34h-3.36c-3.31,0-5.34,2.3-5.34,4.89V115c0,2.6,2,4.9,5.34,4.9h3.36c3.32,0,5.35-2.3,5.35-4.9v-9.73c0-2.59-2-4.89-5.35-4.89Zm-.22,15.16a1.46,1.46,0,1,1-2.91,0V104.72a1.46,1.46,0,0,1,2.91,0V115.5Z"/><path class="cls-1" d="M161.77,100.34h-3.36c-3.31,0-5.35,2.3-5.35,4.89V115c0,2.6,2,4.9,5.35,4.9h3.36c3.32,0,5.35-2.3,5.35-4.9v-9.73c0-2.59-2-4.89-5.35-4.89Zm-.22,15.16a1.46,1.46,0,1,1-2.91,0V104.72a1.46,1.46,0,0,1,2.91,0V115.5Z"/><path class="cls-1" d="M215.89,114.89V113a4.33,4.33,0,0,0-4.21-4.2l-2.81-.28c-1.09-.15-1.44-.65-1.44-1.45l0-2.32a1.46,1.46,0,0,1,2.91,0l0,1.25a1.45,1.45,0,0,0,1.45,1.45h4.15v-2.18c0-2.59-2-4.89-5.35-4.89h-3.36c-3.31,0-5.34,2.3-5.34,4.89v1.88a4.31,4.31,0,0,0,4.19,4.2c1.84.19,1.76.21,2.85.29a1.47,1.47,0,0,1,1.44,1.44v2.46a1.46,1.46,0,1,1-2.91,0l.05-1.47a1.46,1.46,0,0,0-1.45-1.44h-4.17V115c0,2.6,2,4.9,5.34,4.9h3.36c3.32,0,5.35-2.3,5.35-4.9v-.07Z"/></g></svg>