<svg xmlns="http://www.w3.org/2000/svg" viewBox="0 0 250 250"><defs><style>.cls-1{fill:#333d47;}</style></defs><title>clients</title><g id="TKMAXX"><path class="cls-1" d="M98,157.94h0m-9.87-20.87c0,6.83-1.09,10.54-3.51,13.13a12.33,12.33,0,0,1-9.13,3.52,11.92,11.92,0,0,1-8.65-3.19c-2-2.09-2.9-5-2.9-9.27V114.49c0-1.17-.44-1.69-1.74-1.69H44c-1.28,0-1.7.5-1.7,1.7v24.2c0,9.66,2.49,15.18,6.84,19.53,5.65,5.65,15.31,8.17,24.49,8.17s18.72-3.24,24.37-8.46c5.55,5.05,15.61,8.46,26.73,8.46,14.69,0,25.48-6.07,31.78-16.39,2.8,4.33,4.87,7.55,6.86,10.49,2.92,4.32,5.59,5.91,11.54,5.91,5.64,0,9-1.36,12.08-6a204.42,204.42,0,0,0,19.74-40,13.42,13.42,0,0,0,1.06-3.64c0-.78-.51-1.39-1.72-1.78l-5.91-1.82a19,19,0,0,0-4.16-1c-1.06,0-1.64.6-2,1.83-3.69,12.27-9.3,26.05-14.31,34.62-1.63-3.13-4.66-8.57-7.48-13.48-4.35-7.59-8.64-15.25-10.8-18.77a19.43,19.43,0,0,0-1.62-2.3,5.61,5.61,0,0,0-4.89-2.2c-5.92,0-14.68,5.31-14.68,10.26,0,1.68.47,2.93,2.21,5.91l0,0c2,3.36,3,6.09,3,9.45,0,8.41-6.28,16-18.42,16-5.76,0-10.21-1.63-13.1-4.6s-4.1-6.65-4.1-13V125.17a19.19,19.19,0,0,0,7.51,1.3h9.61c1.29,0,1.74-.52,1.74-1.69V114.49c0-1.17-.45-1.69-1.74-1.69H109.8V96a5.52,5.52,0,0,0-1.66-4.43C106.48,90,103,89.27,99,89.27s-7.49.74-9.16,2.26A5.56,5.56,0,0,0,88.16,96Z"/><path class="cls-1" d="M53.15,105.34c6.77,0,11-4.81,11-10.88s-4.19-10.87-11-10.87-11,4.81-11,10.87S46.37,105.34,53.15,105.34Z"/></g></svg>