<svg xmlns="http://www.w3.org/2000/svg" viewBox="0 0 250 250"><defs><style>.cls-1{fill:#333d47;}</style></defs><title>clients</title><g id="TKMAXX"><g id="Layer_2" data-name="Layer 2"><g id="Layer_1-2" data-name="Layer 1-2"><g id="Destop-v2"><g id="_0.0-Home" data-name=" 0.0-Home"><g id="Header"><g id="kf-logo"><polygon id="Fill-1" class="cls-1" points="26.12 96.08 10.39 115.18 10.39 96.08 3.33 96.08 3.33 136.54 10.39 136.54 10.39 120.29 24.37 136.54 33.81 136.54 16.66 117.44 34.45 96.08 26.12 96.08"/><g id="Group-14"><path id="Fill-2" class="cls-1" d="M42.36,99a3.77,3.77,0,1,1-3.77-3.78A3.77,3.77,0,0,1,42.36,99"/><g id="Fill-4-Clipped"><polygon id="Fill-4" class="cls-1" points="35.56 135.14 41.65 135.14 41.65 106.19 35.56 106.19 35.56 135.14"/></g><g id="Fill-6-Clipped"><path id="Fill-6" class="cls-1" d="M72.15,118.23v16.91H66v-16.3c0-6.34-2.7-7.57-7.37-7.57a23.2,23.2,0,0,0-4.77.64v23.25H47.75V107.71a34.33,34.33,0,0,1,11.48-2.14c8.67,0,12.9,4.13,12.9,12.66"/></g><g id="Fill-7-Clipped"><path id="Fill-7" class="cls-1" d="M94.74,128.87a13.86,13.86,0,0,1-3.68.47c-6.15,0-9.27-3.1-9.27-9.19s3-9,9.34-9a15.36,15.36,0,0,1,3.64.44Zm-3.86-23.3c-9.61,0-15.33,5.41-15.33,14.48s5.72,14.47,15.33,14.47a18.35,18.35,0,0,0,3.84-.41v.49c0,4.55-2.88,7.15-7.92,7.15a25.62,25.62,0,0,1-6.56-1L79,145.88a24.06,24.06,0,0,0,7.84,1.35c8.39,0,14-5.16,14-12.85V107.51A24.34,24.34,0,0,0,91,105.59Z"/></g><g id="Fill-8-Clipped"><path id="Fill-8" class="cls-1" d="M139.77,94.93A3.61,3.61,0,0,1,142.38,96a3.8,3.8,0,0,1,.19,5.38l-.19.2a3.69,3.69,0,0,1-2.61,1.08,4,4,0,0,1-2.85-1.23,3.71,3.71,0,0,1,0-5.25l0,0a4,4,0,0,1,2.85-1.23"/></g><g id="Fill-9-Clipped"><path id="Fill-9" class="cls-1" d="M150.44,92.22c-16.39-.93-22.12,3.2-26.1,12h2.8a11,11,0,0,1,2,.24H130l.91.23h.2l.86.27h0a17.24,17.24,0,0,1,1.8.71,15.23,15.23,0,0,1,8.75,14.94c-.42,14.75-24.58,28.05-24.58,28.05s12.53-11.8,12.53-26.55a22.66,22.66,0,0,0-.24-3.49h0a16.39,16.39,0,0,0-.72-2.92h0a10.48,10.48,0,0,0-2.58-4l-.66-.57h0a12.34,12.34,0,0,0-3.12-1.72H123l-.56-.17c-.47,1.35-.94,2.75-1.4,4.27-1.21,3.91-11.6,43-13.4,49.43h-.27v-10A297.21,297.21,0,0,1,110,112.58c.27-1.58.59-3,1-4.45a63.74,63.74,0,0,0-7.77,1.35,62.57,62.57,0,0,1,8.28-3c3.74-12.91,11.73-19.37,23.62-19.37h.49c13.3.19,29.23,7.12,30,7.37a87.41,87.41,0,0,0-15-2.29"/></g><g id="Fill-10-Clipped"><path id="Fill-10" class="cls-1" d="M170.74,126.41c0,6.2-4.15,9.22-12.71,9.22a35.84,35.84,0,0,1-9.68-1.7l1.2-5.5a25.81,25.81,0,0,0,8.19,1.62c3.47,0,7-.42,7-3.59,0-1.62-1.22-2.46-4.91-3l-2.46-.42c-5.36-.91-9-2.6-9-8.09s4.92-9.21,13-9.21a26.06,26.06,0,0,1,7.57,1.42l-1.2,5.29a18.87,18.87,0,0,0-6.56-1.21c-6.79,0-6.79,2.68-6.79,3.59,0,1.87,1.21,2.46,4.92,3l2.46.41c3.9.64,9.12,2.17,9.12,8.09"/></g><g id="Fill-11-Clipped"><path id="Fill-11" class="cls-1" d="M198.61,118.23v16.91h-6v-16.3c0-6.29-2.7-7.57-6.78-7.57a16.38,16.38,0,0,0-5.36,1.06v22.83h-6.22V95.25h6.07v11.5a18,18,0,0,1,6.37-1.13c5.43,0,11.87,2.19,11.87,12.66"/></g><g id="Fill-12-Clipped"><path id="Fill-12" class="cls-1" d="M208.13,117.71a7,7,0,0,1,7.17-6.86c4.28,0,6.49,2.32,6.59,6.86Zm16.42-8.8a12.27,12.27,0,0,0-9.2-3.34c-8.08,0-13.52,6-13.52,15,0,9.84,5.58,15,16.57,15a24.25,24.25,0,0,0,7.37-1.15l.47-.18-1.35-5.33h-.15a18.28,18.28,0,0,1-6.22,1.06c-6.46,0-9.83-2.19-10.42-7.06h19.67v-2.11A16,16,0,0,0,224.55,108.91Z"/></g><g id="Fill-13-Clipped"><path id="Fill-13" class="cls-1" d="M246.67,106.28v5.63a35.24,35.24,0,0,0-4.35-.24A28.77,28.77,0,0,0,238,112v23.1h-6.05v-27.4A30,30,0,0,1,242.78,106a36.16,36.16,0,0,1,3.89.29"/></g></g></g></g></g></g></g></g></g></svg>