<svg id="ZIZZI" xmlns="http://www.w3.org/2000/svg" viewBox="0 0 250 250"><defs><style>.cls-1{fill:#333d47;}</style></defs><title>clients</title><path class="cls-1" d="M213.54,138.69a53.75,53.75,0,0,1-2.68,11.53c-1.23,3.58-2.46,7-3.81,10.4-.55,1.34-1.45,2.68-2.12,4.14a116.67,116.67,0,0,1-6.82,12.08,84.82,84.82,0,0,1-6.38,7.72l-3.36,3.69c-1.11,1.12-2.57,2-3.8,3.13-2.57,2.24-5,4.47-7.72,6.38-.67.44-1.34,1-2,1.45a21.46,21.46,0,0,1-2.13,1.34c-1.34.9-2.79,1.9-4.25,2.69-.44.22-1.11.33-1.56.56-1.34.67-2.8,1.34-4.25,2.12-.9.45-2,.78-2.91,1.34s-1.9,1-2.8,1.35a27.31,27.31,0,0,1-3.24.89,19.36,19.36,0,0,0-3.24.9c-2.13.55-4.26,1.34-6.49,1.9s-4.7.89-7.05,1.45a20,20,0,0,1-3.69.34c-1.23.11-2.46.44-3.69.44-2.57.12-5.26,0-7.94-.11s-5.26-.11-7.95-.45c-2.46-.33-5.14-1-7.83-1.56-.89-.22-1.67-.67-2.68-.9a62.42,62.42,0,0,1-7.83-2.35A110.19,110.19,0,0,1,81,203a39,39,0,0,1-4.36-2.35c-1.34-.89-2.57-1.9-4-2.68s-2.57-1.9-3.91-2.8A46.51,46.51,0,0,1,65,191.94c-2.46-2.13-4.48-4.48-6.83-6.71a30.93,30.93,0,0,1-3.24-3.47c-1.9-2.57-3.58-5.37-5.48-8a19.42,19.42,0,0,1-1.23-2.13c-1-2.12-2.57-4.25-3.81-6.37a63,63,0,0,1-4-9.62,103.11,103.11,0,0,1-3-10.52,70.84,70.84,0,0,1-1.68-12c-.11-2.24-.22-4.36-.22-6.37s.22-4.14.33-6.38c.23-4.59,0-8.17.9-12.3.78-3.47,2.12-7.27,2.9-10.63a41.3,41.3,0,0,1,1.57-5.15c1.34-3.13,3-5.92,4.48-9.06.67-1.45,1.78-2.68,2.57-4.25.45-.78.56-1.56,1-2.23,3.25-4.37,6.38-9,10.3-12.76a134.94,134.94,0,0,1,10.29-9.39c.56-.45,1.23-.9,1.9-1.46a21.69,21.69,0,0,1,1.68-1.45c1.11-.78,2.23-1.45,3.35-2.13S78.87,48,80,47.31A52.8,52.8,0,0,1,95.53,40.6c2.13-.56,4.14-1.23,6.49-1.91a14,14,0,0,1,2.13-.22c.78-.11,1.34-.67,2.12-.89a12.71,12.71,0,0,0,1.9-.23,52.74,52.74,0,0,1,12-1.9h.23c1.9-.11,4.47.11,6.71.11,4.47,0,8.72.9,12.75,1.35a29,29,0,0,1,5.59,1.45c1,.22,2,.33,3,.56s1.79.67,2.69.89c1.79.67,3.46,1.35,5.25,1.9a66.31,66.31,0,0,1,10,4.26,23.22,23.22,0,0,1,2.24,1.34,22,22,0,0,1,2.23,1.34c2.24,1.34,4.25,2.8,6.49,4.25a69.08,69.08,0,0,1,13.31,11.52,82.58,82.58,0,0,1,6.27,7.94c.56.67.89,1.46,1.45,2.13s1.23,1.23,1.68,1.9c1,1.34,1.79,3,2.68,4.47,1.68,3,3.25,6.16,5,9.18s2.68,6.93,3.8,10.51A62.45,62.45,0,0,1,214,112.3c.22,2.23,0,4.58.34,6.82C214.88,126.06,214.21,132.43,213.54,138.69Zm-4.81-16.21c-.22-2.8.11-5.26-.11-7.83-.22-3.58-1.45-6.72-2-10.07-.34-1.46-1-3-1.46-4.48s-.89-3.24-1.45-4.69c-.9-2.46-2.35-4.59-3.36-7.16a41.91,41.91,0,0,0-3.46-7.16c-.45-.67-1-1.23-1.46-1.9-1.45-2-2.79-4-4.36-5.93-2.13-2.57-3.92-5.15-6.15-7.38s-4.92-4.14-7.39-6.27c-3.13-2.57-6.82-4.81-10.06-7-.67-.45-1.46-.79-2.13-1.24A105,105,0,0,0,151,45.07a70.27,70.27,0,0,0-22.59-4c-2.46,0-5.93.34-8.84.34a50.57,50.57,0,0,0-12.75,1.34c-2.12.56-4.14.9-6.15,1.46a55.5,55.5,0,0,0-5.37,2.23c-.9.45-1.9.67-2.68,1-3.47,1.68-6.83,3.47-10.07,5.15-.79.44-1.46,1.11-2.24,1.56-1.68.9-3.47,1.46-4.92,2.69a56,56,0,0,0-5.48,4.69c-1.34,1.35-2.46,2.69-3.69,3.92-.45.45-1,.56-1.46,1-1.23,1.23-1.9,3.13-3.69,3.8-2.12,2.79-4.36,5.82-6.49,9a16.25,16.25,0,0,0-1.45,2.35C51.8,84,50,86.35,48.78,88.81c-.56,1.12-.9,2.35-1.46,3.58A33.85,33.85,0,0,0,45.87,96a36.7,36.7,0,0,1-1,4.36L43.52,104c-.78,2.57-.89,5.59-1.45,8.61-1,5.82-1.79,12-.68,18.57.56,3.24.68,6.49,1.24,9.73a56.79,56.79,0,0,0,2.12,8.62c.45,1.34.78,2.79,1.23,4.13,2.35,6.6,5.26,13.09,9.06,17.9a12.35,12.35,0,0,0,2.24,3.13c.78,1,1.45,2.13,2.24,3.13,1.67,2,3.13,4,4.92,5.93,1.56,1.79,3.91,3.14,5.93,4.81,1,.79,1.9,1.79,2.79,2.58a29.47,29.47,0,0,0,4.36,3.13c1.35.78,2.58,1.34,3.92,2.12,5.14,2.91,10.63,6,16.67,7.83,1,.34,2.12.56,3.24.9,3.13.78,6.38,2.12,9.62,2.46,2.35.22,4.7.78,7,1a109.76,109.76,0,0,0,12.08.44,25.33,25.33,0,0,0,4.14-.11,25.68,25.68,0,0,0,2.79-.67c1-.22,2.13-.22,3.13-.45.68-.11,1.12-.56,1.68-.67s1.12,0,1.68-.11.89-.34,1.34-.45c1.9-.56,3.69-1,5.48-1.68a28.43,28.43,0,0,1,2.8-.67,35.48,35.48,0,0,0,6.49-2.57,49.34,49.34,0,0,0,5.81-3.24c.9-.56,2-1,2.91-1.57s1.79-1.23,2.69-1.79c1.45-.78,2.68-1.9,4-2.68.45-.34,1.12-.45,1.46-.79.67-.44,1.34-1.23,2-1.79a34.91,34.91,0,0,0,6.15-5.37c.67-.67,1.12-1.45,1.79-2.12a38.83,38.83,0,0,0,6.16-7.38c.78-1.23,1.67-2.58,2.57-3.92a57.16,57.16,0,0,0,5.93-11c.78-2.13,1.9-3.92,2.68-5.82.9-2.46,1.68-4.92,2.46-7.49a66.6,66.6,0,0,0,1.68-8.39,13.19,13.19,0,0,0,.45-2c.11-1.35.11-2.91.22-4.37A88.56,88.56,0,0,0,208.73,122.48Zm-3.46,13.42c-.12,1.79-.45,3.58-.68,5.26A50.18,50.18,0,0,1,201,153.57a66.91,66.91,0,0,1-4.13,8.5c-1.23,1.9-2.58,3.81-3.7,5.82a60.46,60.46,0,0,1-8.05,10.74,61.77,61.77,0,0,1-4.59,4.81c-.78.78-1.45,1.56-2.34,2.46s-1.79,1.34-2.47,2.12a46.19,46.19,0,0,1-5.25,4.14c-1.79,1.34-3.92,2.13-5.82,3.58-3.47,2.57-8.5,3.92-13.09,5.82a64.67,64.67,0,0,1-7.38,2,58.81,58.81,0,0,1-16.44,2.24c-3,0-6-.11-9-.34-1.57-.11-3,0-4.47-.22-2.47-.45-5.15-.78-7.83-1.45a9.09,9.09,0,0,0-3.47-.68,51.66,51.66,0,0,1-10.63-3.57,78.38,78.38,0,0,1-17.11-10,98.78,98.78,0,0,1-9.4-8.72,70.7,70.7,0,0,1-7.83-10.18c-1.34-1.79-2.35-3.58-3.58-5.6-2.12-3.69-4.58-7.38-6-12-.67-2.23-1.45-4.47-2.12-6.82A41.68,41.68,0,0,1,45,138.58c-.33-2.68-.78-5.37-.89-8.05a103.55,103.55,0,0,1,1.68-24.72c.89-4.92,3.13-9.06,4.58-13.42.34-1,.9-2.13,1.35-3.14s1-2,1.45-3A61.42,61.42,0,0,1,61.42,74a9.86,9.86,0,0,1,1.12-1.12C64.77,70.8,66.79,68.23,69,66q2.36-2.35,4.7-4.36a78.58,78.58,0,0,1,10.85-7.16,26.06,26.06,0,0,1,3-1.57l3-1.34c.45-.23.9-.67,1.34-.9s1.12-.33,1.68-.56c1-.44,2-1,3-1.45a65.93,65.93,0,0,1,7-1.9,21.11,21.11,0,0,1,3.69-.78c2.46-.34,4.92-1.12,7.61-1.35,1.34-.11,2.79-.44,4.14-.44,3.91-.23,7.83.33,11.74.56A72.1,72.1,0,0,1,152.24,49c1.57.55,3,1.23,4.59,1.9s3,1.23,4.48,1.9c2.68,1.45,5.25,3.35,7.83,5s5.14,3.47,7.6,5.26,4.36,4.25,6.6,6.26,4,4.59,6,6.83a19.58,19.58,0,0,1,2.8,3.69c4.14,6.49,8,13.31,10.51,21.7.45,1.56.9,3.35,1.34,5.14a21.44,21.44,0,0,1,.56,2.69c.12.89.34,1.79.45,2.68.23,2.13.23,4.14.34,6.16s.44,4,.44,5.92c0,2.13-.11,4.14-.22,6.27C205.82,132,205.38,133.89,205.27,135.9Zm-2.47-20.14c-.11-.44-.33-1-.44-1.45s-.12-1.23-.23-1.79A95.24,95.24,0,0,0,199.67,100c-.78-2.57-1.9-4.36-2.79-6.6a82.13,82.13,0,0,0-4.25-8.27c-1.57-2.58-3-5.37-5-7.5-1-1.12-1.68-2.46-2.68-3.58s-2.35-1.9-3-3.35c-1.9-1.23-3.25-3.14-5-4.59s-3.46-2.8-5.48-4.14c-2.91-1.9-5.7-3.91-8.83-5.59-1-.56-2-1.34-3-1.9s-2.13-.9-3.25-1.46a21.48,21.48,0,0,0-3.35-1.45c-1.12-.45-2.35-.9-3.58-1.34s-2.58-.56-3.92-.9a57.72,57.72,0,0,0-7.83-1.79c-1.34-.22-2.79-.22-4.25-.33a47,47,0,0,0-7.83-.45,106,106,0,0,0-19.35,1.9c-2.91.67-5.7,1.45-8.39,2.35a29.14,29.14,0,0,0-8,3.69,26.38,26.38,0,0,1-3.14,2.13c-5.92,3.35-11.63,7-16.21,11.63a58.32,58.32,0,0,0-6.72,7.27,82.29,82.29,0,0,0-8.39,12.64,80,80,0,0,0-4.13,9.84c-1.79,5-4.14,10.29-4.25,16.45-.12,2.12-.56,4.13-.68,6.26-.11,2.46-.22,5-.22,7.38,0,3.25.78,6.49,1.12,9.62a25,25,0,0,0,.78,4.14c.34,1.57.67,3,1,4.47s.89,2.8,1.34,4.14c.9,2.69,2.24,5.26,3.25,7.72.55,1.34,1.34,2.35,1.9,3.58.22.45.33,1,.56,1.46A14.58,14.58,0,0,0,57.05,165c1,1.68,2,3.58,3,5,1.91,2.58,4.37,5,6.6,7.72a35.31,35.31,0,0,0,3.47,3.69A35.54,35.54,0,0,0,73.72,185a66.2,66.2,0,0,0,8.39,6,42.3,42.3,0,0,0,7,3.7c.89.33,1.56.89,2.46,1.23s1.68.44,2.46.78a21.14,21.14,0,0,0,2.24,1c3.35,1,6.71,2.23,10.06,3,1.79.33,3.58.78,5.48,1.11a68.34,68.34,0,0,0,17.23,1.35c1.9-.12,3.92-.23,5.71-.45.44,0,.89-.34,1.34-.34s1.23,0,1.79-.11c2.35-.45,4.47-1.45,6.82-2,1.57-.34,3.13-.56,4.59-1s2.79-1,4.25-1.34c2.91-1.79,6.37-2.69,9.06-4.25.45-.23,1-.56,1.34-.78s.67-.79,1.12-1.12,1.23-.56,1.79-1c5.93-4.59,12.41-8.61,16.89-14.54,1.23-1.68,2.57-3.24,3.69-4.81.45-.56,1.12-1,1.34-1.46a15.5,15.5,0,0,1,.9-1.9,18.83,18.83,0,0,0,1.12-1.9c.78-1.23,1.67-2.35,2.34-3.58,1.35-2.57,2.35-5.37,3.92-7.94,1.23-3.8,2.68-7.83,3.8-12.19a63.89,63.89,0,0,0,1-7.05,57,57,0,0,0,.89-7.27A46.12,46.12,0,0,0,202.8,115.76Zm-24.94-38-.34.23c-.11.11-.22.11-.33.22l-.11.11c-1,.67-1.57.9-2.13,1.34h0l-.33.23c-.23.11-.34.22-.56.33h-.23l-.11.12c-.11,0-.11,0-.11.11a.11.11,0,0,1-.11.11l-.23.11a1.22,1.22,0,0,0-.67.34,16,16,0,0,1-2,.89l-3.69,3.8-.11.12-.23.22c0,.11-.11.11-.22.22l-1.12,1.12-.11.11-.23.23c-.22.11-.33.22-.44.22a.42.42,0,0,1-.34.11c-.22,0-.33-.11-.56-.22l-.22-.11c-.11-.11-.11-.11-.22-.11l-.23-.34c-.45-.67-.33-1-.11-1.12l4-4.14.56-.56c.22-.11.22-.22.33-.22l1-1,.22-.67a.75.75,0,0,1,.23-.33.11.11,0,0,1,.11-.11l.67-1.57c.89-1.9,1.9-3.69,2.79-5.37l.12-.11.44-.23c.34,0,.56.12,1.12.68.34.22.79.78.56,1.23a.34.34,0,0,0-.11.22l-.22.45c-.12.11-.12.22-.23.33a2.3,2.3,0,0,1-.44.9L172.6,78l-.33.67.22-.11a5.22,5.22,0,0,1,.67-.45s.34-.23.79-.56l1.9-1.34c.11-.11.11-.11.22-.11l.22-.12s.12,0,.12-.11.11-.11.22-.22l.22-.11c.34-.12.67.11,1,.44a2.8,2.8,0,0,1,.56.45l.11.11c.22.23.34.34.34.56l-.12.34C178.53,77.29,178.2,77.51,177.86,77.73ZM168,69.57l-.34.44c-.45.68-1,1.35-1.45,2a3.64,3.64,0,0,1-.45.56,1.72,1.72,0,0,0-.34.44l-.22.34-4,5.59a10.91,10.91,0,0,1-.89,1.23l-.45.56.45.34a9.6,9.6,0,0,0,.78.56l.45.33c.45.34.67.45.78.56l.11.11c.23.12.34.45.12.9-.12.11-.12.22-.23.34l-.11.22c-.11.11-.11.22-.22.33l-.34.56-.67.12v.11h-.11c-.11,0-.11,0-.11-.11l-.23-.23.34-.45h0l-.34.34-.22-.11c-.11,0-.11-.11-.23-.11l-.11-.12q-.33-.16-.33-.33a7.09,7.09,0,0,1-1.12-.78l-.34-.34c-.22-.11-.44-.34-.78-.56-.11,0-.11-.11-.22-.11l-.23-.22c-.22-.12-.56-.45-.44-.79l.22-.45.33-.55.12-.12v-.11l.11-.11c.11-.22.22-.22.22-.22s.11-.23.23-.34l.11-.11c.11-.11.11-.22.33-.34l.45-.67c.22-.22,1-1.34,1.79-2.46l.45-.56a16.73,16.73,0,0,1,1.45-1.9l.34-.45c.11-.22.22-.22.22-.33l.11-.11.34-.34.45-.67.33-.34c0-.11.11-.11.11-.22l.12-.11.22-.34.22-.22.11-.23c.12-.11.23-.33.45-.55a6.77,6.77,0,0,1,.79-.9l.67-.78a1.59,1.59,0,0,0,.33-.45l.11-.11a1.3,1.3,0,0,1,.56-.45h.11a.83.83,0,0,1,.45.22l.56.45a.75.75,0,0,1,.45.67.93.93,0,0,1-.34.67A1.81,1.81,0,0,0,168,69.57Zm-8.5-5.48-.23.44a19.42,19.42,0,0,1-1.23,2.13,1.72,1.72,0,0,0-.33.67c-.12.11-.12.34-.23.45l-.11.33-3.24,6.16c-.12.33-.56,1.11-.67,1.34l-.34.56.45.22a2.83,2.83,0,0,0,.78.34l.56.33a6.65,6.65,0,0,1,.89.45l.12.11c.22.11.44.34.22.9,0,.11-.11.22-.11.33l-.11.23c-.12.11-.12.22-.23.33l-.33.56-.67.22h-.23l-.56-.33c-.11,0-.11,0-.22-.11l-.11-.12c-.23-.11-.34-.11-.45-.22L152,78.85c-.11-.11-.22-.11-.33-.22a6.6,6.6,0,0,1-.79-.45.34.34,0,0,0-.22-.11l-.34-.11c-.22-.12-.56-.34-.56-.67l.12-.45.22-.56a.11.11,0,0,1,.11-.11v-.23c.11-.22.11-.22.11-.33s.12-.23.23-.45l.11-.11c.11-.11.11-.23.22-.34l.34-.67c.11-.33.78-1.45,1.45-2.68l.23-.45c.56-.9.89-1.68,1.23-2.24l.22-.44a.82.82,0,0,1,.22-.34l.12-.22c.11-.12.22-.23.22-.34l.33-.67c.12-.11.12-.22.23-.34a.38.38,0,0,1,.11-.22l.11-.22.23-.34c.11-.11.11-.11.11-.22l.11-.23c.11-.11.11-.33.34-.67a12,12,0,0,1,.67-1l.56-.9c.11-.11.11-.22.22-.45l.11-.11c.11-.22.23-.45.56-.45h.11a4.65,4.65,0,0,0,.56.12L160,62c.23.11.56.34.56.67s-.11.45-.22.67C160,63.3,159.74,63.75,159.52,64.09Zm-7.16-4.25v.33a.82.82,0,0,0-.12.45l-.22,1a3.87,3.87,0,0,0-.11.67v.44l-.67,3h0v.12a.4.4,0,0,1-.11.33c-.12.34-.12.56-.23.78l-.22,1.24-.56,2.12c-.11.34-.11.67-.22.9l-.12.22a9.47,9.47,0,0,1-.22,1l-.22,1c0,.23-.12.45-.12.67l-.11.79c0,.11-.11.22-.11.33l-.11.34a.4.4,0,0,1-.11.33v.12c0,.11-.23.33-.56.33h-.34l-.22-.11c-.11,0-.22,0-.22-.11l-.23-.11c-.11,0-.11,0-.22-.12s-.56-.22-.67-.56v-.22a.43.43,0,0,1,.11-.34l.11-.55c.11-.45.22-1,.34-1.46V72.7a.34.34,0,0,1,.11-.22.88.88,0,0,0,.11-.45c.11-.45.22-.78.22-.78a.36.36,0,0,0,.12-.23l.11-.56a.11.11,0,0,1-.11-.11l-.45-.11c-.11,0-.23,0-.23-.11a6.2,6.2,0,0,0-.89-.34l-.11.22c-.23.34-.23.45-.34.45l-.11.11c0,.12-.11.12-.11.23l-.11.22a.42.42,0,0,1-.12.23c0,.11-.11.22-.22.33l-.11.22a.43.43,0,0,0-.11.34,1.62,1.62,0,0,0-.34.78c-.45.9-.56,1.12-.67,1.12a1.28,1.28,0,0,1-.89.11,2.37,2.37,0,0,1-.68-.22c-.56-.22-.67-.56-.67-.78l.23-.45a.34.34,0,0,1,.11-.22c0-.12.11-.23.22-.34l.56-1c.11-.22.11-.33.23-.44a1.85,1.85,0,0,1,.44-.79l.79-1.56a1.78,1.78,0,0,0,.33-.67c0-.12,0-.12.11-.23s.11-.22.11-.33V67l.45-.89a2,2,0,0,0,.23-.56l1.11-2.24a8.25,8.25,0,0,0,.68-1.45,5.07,5.07,0,0,1,.33-.78l.9-1.79c.11-.12.11-.23.22-.34s.11-.22.22-.33,0-.12.12-.23.11-.33.33-.45l.22-.33a7.16,7.16,0,0,1,.45-.67c.23-.34.56-.34,1.12-.11l.56.22a.86.86,0,0,0,.34.11l.11.11c.56.34.78.56.78.9v.56A3.4,3.4,0,0,0,152.36,59.84ZM149,62.74l-1,2.13a6.52,6.52,0,0,1-.44.89,2.11,2.11,0,0,0-.23.56l-.11.23a2,2,0,0,1-.22.56l-.11.22c-.12.11-.12.34-.23.45l.23.11h0a.85.85,0,0,1,.33.11l.67.23.23-.79v-.22l.22-.78c.11-.34.11-.68.22-1,0-.11.12-.23.12-.34s.11-.22.11-.33,0-.11.11-.34l.11-.33c0-.12,0-.12.11-.23l.11-.44a1,1,0,0,1,.12-.34,1.54,1.54,0,0,1,.11-.56v-.34h0A1.13,1.13,0,0,0,149,62.74Zm-5.82-4.92a2.25,2.25,0,0,0-.11.79l-.33,1.11c0,.12-.11.56-.23,1.12v.34l-.11.45a.4.4,0,0,1-.11.33l-1,4.25a.86.86,0,0,1-.11.45l-.22.89c0,.12-.11.23-.11.34l-.23.78a9.4,9.4,0,0,1-.89,2.35,6,6,0,0,1-.45.67l-.56.56c-.11.11-.22.23-.34.23h0a2.36,2.36,0,0,1-1.11.44h-.45a1.9,1.9,0,0,1-.78-.11,3.77,3.77,0,0,1-.9-.33,2.62,2.62,0,0,1-.67-.45,2.1,2.1,0,0,1-.56-1.12,6.56,6.56,0,0,1-.11-1.57,31.54,31.54,0,0,1,.56-4.69l1.9-9v-.34h0c0-.11,0-.22.11-.22V54.8c.11-.56.67-.56,1-.56l.45.11a.86.86,0,0,1,.44.23c.56.11.67.56.56.78a2,2,0,0,1-.11.56h0l-.56-.11h0l.56.11a9.59,9.59,0,0,0-.22,1.12l-.23,1.12c0,.22-.11.45-.11.67l-.22.89v.45l-.45,1.9v.23l-.22.89a11,11,0,0,1-.34,1.79v.22c-.11.56-.22,1-.34,1.46l-.11.67V68l-.11.34v.22a5,5,0,0,0,0,1.45l.22.23c.34.11.56.11,1-.34a1.33,1.33,0,0,0,.45-.67l.11-.22c.11-.34.22-.78.34-1.12l.56-2.24a5,5,0,0,1,.11-.56l1.23-5.37c.11-.56.22-1.11.33-1.56l.45-1.68c0-.22,0-.34.11-.45l.11-.22.23-.34c.11-.11.33-.11.67-.11l.67.23h.34a.59.59,0,0,1,.44.33l.12.22v.79Zm-5.59,21.7c1.12.34,2,.67,3,1,.45.11.78.33,1.23.45,3.58,1.12,7.16,3.24,11.3,6.48a29.56,29.56,0,0,1,4.36,4,2.94,2.94,0,0,0,.9.78,9.46,9.46,0,0,1,1,1v.11a19.49,19.49,0,0,1,2.8,4.14,3.38,3.38,0,0,1,.78,1l.11.11a1.2,1.2,0,0,0,.45.56c.45.67.56,1.12.45,1.45a.73.73,0,0,1-.67.34h-.23c-1,0-1.56-.67-2.57-1.9a2.59,2.59,0,0,0-.56-.67h0l-.11-.12V98.2a51.53,51.53,0,0,0-16-13.87c-1.23-.33-2.35-.89-3.58-1.34-1-.45-1.91-.78-2.91-1.12a1.46,1.46,0,0,0-.67-.11c-.23,0-.56-.11-.79-.11a26,26,0,0,0-5.37-1.23c-.33,0-.67-.11-1.11-.11a4.25,4.25,0,0,1-1.23-.12c-.23,0-.34-.11-.56-.11a10,10,0,0,0-1.91-.22h-2.34a41,41,0,0,0-11.86,1.79,21.5,21.5,0,0,0-2.35,1c-.45.23-.78.45-1.23.68C101.13,86.46,96.2,89.7,92.4,93.62a22.42,22.42,0,0,0-2.57,3.24c-.67.9-1.34,1.79-2,2.57l-.12.12h-.11a3.49,3.49,0,0,0-1.12,0,3.8,3.8,0,0,1-1.12,0L85,99.43l.22-.33A40.83,40.83,0,0,1,97.32,86.23a7.27,7.27,0,0,1,1.57-.89l1-.67c1.34-.78,2.68-1.57,4.13-2.35,1.12-.56,2.35-1.23,3.58-1.9h.23a1.49,1.49,0,0,0,.67-.23,1.21,1.21,0,0,1,.89-.22c2.91-1.45,6.83-2.35,12.2-2.8a28.33,28.33,0,0,1,5.25.23l.9.11a29,29,0,0,1,3.13.56c.67.11,1.45.33,2.13.45a22.12,22.12,0,0,1,4.25,1Zm-5.81-20.47v5.6l-.12,1.23a15.48,15.48,0,0,1-.56,3.69,4.58,4.58,0,0,1-1.11,1.9,3.65,3.65,0,0,1-1.57.33h-.56a1.44,1.44,0,0,1-.67-.11h-.56a.43.43,0,0,1-.34-.11c-.33-.11-.56-.11-.67-.22l-.11-.23a8.51,8.51,0,0,1,0-2.57c0-.78.11-1.79.11-2.91V63.53a19.64,19.64,0,0,1,.11-2.24l.12-1v-.89c0-.34.11-.67.11-1l.11-1v-1a1.23,1.23,0,0,1,.11-.56V53.68a.87.87,0,0,1,.11-.56c0-.22.34-.44.79-.44h1.12a.4.4,0,0,1,.33.11,5,5,0,0,1,.56.11h.22a4.32,4.32,0,0,0,.68.22l.22.12a.38.38,0,0,0,.22.11c.11,0,.23.11.34.22l.45.56.11.22a1.64,1.64,0,0,1,.22.68,4.59,4.59,0,0,1,.11.56,11.3,11.3,0,0,1,.12,2v1.45Zm-4.48,8.28Zm1.9-11.41a1.69,1.69,0,0,0-.78-.33v.33L128.31,57v2.12a3.92,3.92,0,0,1-.11,1v.56c-.12,2.35-.23,4-.23,5l-.11,1.57h-.11l.11.11v1.79H128a.32.32,0,0,0,.34-.22,1.67,1.67,0,0,0,.44-.45v-.11h0a.82.82,0,0,1,.12-.45v-.22c.11-.67.11-1.12.22-2V64.31l.11-1.57c.11-.89.11-1.67.23-2.46s.11-1.67.11-2.35A5.16,5.16,0,0,0,129.2,55.92ZM122.71,71.8a7.88,7.88,0,0,0-1.23.12,1.94,1.94,0,0,0-.89.11l-1.34.11h-.79l-.33-.22a2,2,0,0,1-.45-1.68,1.16,1.16,0,0,1,.56-.9,5.08,5.08,0,0,1,.9-.22V66.77l-.34-8V57.49l-.11-1.68c-.9.11-1.23,0-1.57-.45a2.42,2.42,0,0,1-.22-1.68l.67-.44a8.3,8.3,0,0,1,1.23-.12,2.45,2.45,0,0,0,.89-.11H120a1.23,1.23,0,0,0,.56-.11,6.45,6.45,0,0,0,.78-.11,3.49,3.49,0,0,1,1.12.11,1.66,1.66,0,0,1,.56.78,1.61,1.61,0,0,1-.11,1c-.23.34-.67.56-1.57.78l.11,2.91v3.8c0,.45,0,.68.12.79v1l.11,2.47V69c.78.11,1.34.33,1.45,1.23a3.21,3.21,0,0,1-.11,1.34Zm-8.83,0a1,1,0,0,1-.11.56h0v.23a1,1,0,0,1-.68.33h-.67l-.89.23h-.34a.81.81,0,0,1-.67-.34l-.11-.11c0-.11-.11-.34-.22-.78a3.08,3.08,0,0,1-.23-1l-.33-1a5.7,5.7,0,0,1-.23-.89,5.4,5.4,0,0,1-.33-1,14.28,14.28,0,0,1-.45-1.56,7.36,7.36,0,0,0-.33-.9l-1.12-3.91-.34-1V60.4a7,7,0,0,0-.33-1.12l-1-3.25c-.11-.56.33-.78.67-.89a3,3,0,0,1,.78-.23c.79-.11,1,.12,1.12.34s.45,1.23.78,2.46a1.08,1.08,0,0,1,.12.45.67.67,0,0,1,.11.45c0,.22.11.33.11.44a1.25,1.25,0,0,1,.11.56,5,5,0,0,1,.11.56l.23.56L111,65.32a3.46,3.46,0,0,1,.22.89c0,.11,0,.11.12.23,0-1.12-.12-3-.34-6-.22-3.47-.22-5.49-.22-5.82,0-.11,0-.56.78-.78h.22c.11,0,.23-.12.45-.12a1.16,1.16,0,0,1,.89.23v.44h.12v.34l.11,2.13a12.92,12.92,0,0,0,.11,1.67v1.79a3.84,3.84,0,0,0,.11,1.12V62l.23,7.5a8.13,8.13,0,0,1,0,1.67Zm-8.17-.44.23.67h0a.38.38,0,0,0,.22-.11,4.55,4.55,0,0,1,1.12-.23c.45.11.78.45.78.67a1.05,1.05,0,0,1,.11,1c-.22.45-.67.9-2.68,1.68l-.56.22a6.35,6.35,0,0,1-1.9.56.85.85,0,0,1-.56-.22,2,2,0,0,1-.78-1.46l.55-.67s.56-.22,1-.45l-.22-.67c0-.11-.11-.22-.11-.33l-.23-.56a4,4,0,0,0-.33-.78l-2.8-7.16c-.22-.45-.34-.9-.45-1.12l-.44-1.23a4.42,4.42,0,0,0-.56.22h-.45a1.86,1.86,0,0,1-1.12-1.34,1,1,0,0,1,.22-1A3.83,3.83,0,0,1,98,58.38l1.12-.56c1.46-.67,2.35-.89,3,0,.45.67.45,1.12.34,1.23l-.45.56-.56.45.9,2.35a2.6,2.6,0,0,1,.33,1,5,5,0,0,1,.34.78l.45,1a.43.43,0,0,1,.11.34,3,3,0,0,1,.33.78l.23.67c0,.12.11.23.11.34l.89,2.24a1.58,1.58,0,0,1,.23.67l.33.89ZM99,71.58l.67,1.68a6.51,6.51,0,0,1,.45,2.46,3.46,3.46,0,0,1-.22.89,3.11,3.11,0,0,1-1.23,1.23l-.45.12c-.11,0-.23.11-.34.22s-.33.22-.45.22a1.69,1.69,0,0,1-.55.23c-.12,0-.23.11-.34.11l-.22.11-.67-.22-1.24-2.46a.43.43,0,0,0-.11-.23c-.11-.11-.11-.11-.11-.22l-.11-.22L94,75.27l-2-4c0-.12,0-.12-.11-.12a1.77,1.77,0,0,1-.33-.67L89.27,66a.42.42,0,0,1-.11-.34v-.11c-.11-.11-.23-.45-.45-.78l-.45-.9a1,1,0,0,1-.11-.78,3,3,0,0,1,.56-.67l.45-.34c.33-.22.44-.33.56-.33l.33-.23a.43.43,0,0,0,.23-.11,2.5,2.5,0,0,1,2.12-.33.85.85,0,0,1,.56.22,2.7,2.7,0,0,1,.9.78l.11.11a.43.43,0,0,1,.11.23,1.06,1.06,0,0,1,.22.45c.34.56,1,1.67,2.13,3.69a.4.4,0,0,1,.11.33A39.1,39.1,0,0,1,99,71.58Zm-2.35.78a12,12,0,0,0-.56-1.23l-.56-1c-.11-.23-.11-.34-.22-.45l-.11-.11a.39.39,0,0,1-.11-.23l-1-1.9a2.17,2.17,0,0,0-.34-.56,4.53,4.53,0,0,0-.56-1c-.11-.12-.11-.12-.11-.23l-.22-.45A3.5,3.5,0,0,0,92,64s-.22-.11-.67.12l-.22.11.56,1.12c0,.11.11.11.11.33v.11l2.8,5.71a.11.11,0,0,0,.11.11l.11.11.67,1.46a.34.34,0,0,0,.11.22l.23.34a.85.85,0,0,1,.11.33l.56,1.12a2.5,2.5,0,0,0,.33.56h0l.12.22.22-.11h-.34a1.25,1.25,0,0,0,.67-.67,2.06,2.06,0,0,0-.22-1.34.49.49,0,0,1-.11-.34.38.38,0,0,0-.11-.22C97,73.15,96.76,72.81,96.65,72.36Zm-6.37,1.79a1.32,1.32,0,0,0,.22.34l.89,1.23a1,1,0,0,1,.34.56c.34.45.67.89,1.23,1.56a17.3,17.3,0,0,1,1.12,1.46l.11.22.11.34c.11.11.11.45-.22.78-.11,0-.11.11-.34.22h-.11l-.33.34a1.67,1.67,0,0,1-1.57.45,17.88,17.88,0,0,1-2.24-1.57,22.51,22.51,0,0,0-2.12-1.68c-.23-.22-.67-.56-1.23-1.11a2.05,2.05,0,0,1-.56-.45h0c-.11-.11-.23-.11-.34-.23l1.12,1.46c.56.78,1,1.34,1.23,1.68a5,5,0,0,0,.56.67l.67.89a.11.11,0,0,0,.11.11c.12.12.12.12.12.23l.11.11.67.89c.11.12.22.45-.23.9-.11.11-.22.34-.33.34a.38.38,0,0,1-.22.11l-.34.22a1,1,0,0,1-.56.11.4.4,0,0,1-.33-.11c-.12,0-.12-.11-.23-.22v-.11a.37.37,0,0,1,.23.11l-.23-.11-.11-.34v.22l-.22-.22-.12-.11c-.22-.34-.56-.67-.78-1A1.75,1.75,0,0,0,86,82l-.23-.22-.22-.45c-.23-.45-.67-1-1.12-1.68L82.56,77a6.58,6.58,0,0,1-.45-.67l-.34-.45a3.94,3.94,0,0,1-.55-.67,9.66,9.66,0,0,1-.56-.89l-1.23-1.68c-.56-.79-1-1.34-1.35-1.9l-.44-.56a.42.42,0,0,1-.12-.23v-.67L78,69a2,2,0,0,1,.56-.45A1.31,1.31,0,0,1,80,68.23a7.37,7.37,0,0,1,1,.67c3,2.9,4.81,4.58,5.59,5.25l.68.67.11.12.33.33.79.67a9.09,9.09,0,0,1-.56-.78l-.34-.45c-.11-.11-.22-.33-.33-.33l-.34-.56a.86.86,0,0,1-.22-.45h-.12l-.22-.22L86,72.7a1.32,1.32,0,0,1-.34-.45c-.11-.22-.34-.33-.34-.45l-.22-.33a5,5,0,0,1-.56-.67c-.22-.34-.45-.56-.56-.79a9.6,9.6,0,0,1-.78-1l-.34-.34a6.68,6.68,0,0,1-.44-.56c-.23-.33-.45-.56-.68-.89L81.66,67A.67.67,0,0,1,82,66.1l.22-.22.23-.23.22-.11a.83.83,0,0,1,.67-.11h0l.56.11.34.45c.11.22.22.33.33.56a.38.38,0,0,1,.11.22,2.21,2.21,0,0,0,.45.56,3.86,3.86,0,0,0,.56.67c.11.11.11.23.34.34l.44.56c.11.11.23.33.34.44l.45.67c.44.56,1,1.35,1.79,2.35ZM78.87,80c.11.11.22.22.33.22a3.47,3.47,0,0,0,.67.67l.45.56.22.23,1.68,1.79c.23.22.34.45.45.45l.67.67c0,.11.11.11.22.22l.12.11a1.43,1.43,0,0,1,2-.33c.67.44.78.89.78,1.11l-.11.56-1.12,1.23a.24.24,0,0,1-.22.23L83.9,89a2,2,0,0,1-.56.56l-.45.11h-.11a1.87,1.87,0,0,1-1.45-.78,1.07,1.07,0,0,1-.23-1.12,2.83,2.83,0,0,1,.56-.78l-.22-.23c0,.12-.11.12-.22-.11l-.45-.45c-.11-.22-.34-.33-.56-.56L74.73,80a5.46,5.46,0,0,1-.79-.89l-1.11-1.24-.12.12a2.66,2.66,0,0,1-1,.67,1,1,0,0,1-.9-.23,1,1,0,0,1-.44-.89c0-.56.33-1.12,1.9-2.69l.33-.33h0c1.23-1.23,1.68-1.57,2.24-1.34a2.29,2.29,0,0,1,1.23,1.12.87.87,0,0,1-.22.89,6.21,6.21,0,0,1-.9.9L76.74,78a5.34,5.34,0,0,0,.78.78,3.8,3.8,0,0,1,.56.67Zm-2.24,95c.34.22.56.44.89.67l.79-.9c.67-.78,1.23-1.56,1.9-2.35a12.33,12.33,0,0,0,1-1.23c.89-1.12,1.9-2.57,2.79-3.58a13,13,0,0,1,1.12-1.34c-.22-.11-.56-.45-.89-.67l1.11-1.34,1.23-1.57c3.36,2.58,5.71,4.7,5.93,4.59l-.33.33c-1,1.23-1.12,1.46-2,2.69l-.78-.56-2,2.35c-1.34,1.56-2.91,3.35-4.25,5a20.87,20.87,0,0,0-1.46,1.79c.45.34.67.56.79.45l-.34.33a20.22,20.22,0,0,0-1.79,2.47s-4.7-3.92-5-4a3.62,3.62,0,0,1-.79-.67l.9-1Zm13,9.17,1.35.67c.22-.45.44-.78.67-1.34,1-2,2.24-4.7,3.91-8.28a2.93,2.93,0,0,0-1.34-.78,8.42,8.42,0,0,0-.45.78,5.48,5.48,0,0,1-.78-.56,17.73,17.73,0,0,1-1.9-1,.83.83,0,0,0,.22-.44,24.57,24.57,0,0,0,2.13-4.25c.67.33,1.23.56,2.24,1a6.65,6.65,0,0,1,.89.45l1.34.67,1.34.67a42.82,42.82,0,0,1,4.93,2.69c1.11.56,1.45.89,1.9,1.12a.86.86,0,0,0-.23.44,25.36,25.36,0,0,0-2.12,4.25c-.67-.33-1.34-.56-2.46-1.11l-.45-.23.45-1c-.45-.22-1.12-.55-1.12-.44a6,6,0,0,0-.78,1.34c-.67,1.23-1.79,3.58-3.92,8.17.11,0,.11,0,.23.11.44.22,1.23.56,1.23.56l-.23.44a23.74,23.74,0,0,0-1.23,2.91l-1.9-1c-.22-.12-5-2.47-5.48-2.69l.67-1.23Zm12.64,6.37a3.93,3.93,0,0,0,1,.23c1.46-3.47,3-7.38,5.26-11.75-.56-.11-1-.22-1-.22.11-.45.23-.9.45-2.13a2,2,0,0,1,.45-1.11l2.12.56c.23.11.56.11,1.12.33l.67.11c.78.23,1.23.23,3.81.9L116,178a18.82,18.82,0,0,1-.67,2.57,3.46,3.46,0,0,1-.89-.22v6.48l-.23,6.38a3.66,3.66,0,0,1,.9.11c-.11.67-.23,1.34-.34,2.13a3.11,3.11,0,0,0-.11,1c-1.9-.33-4.59-1.12-5.93-1.34h-.11l.11-.45c.11-.67.23-.89.23-1.12.11-.67,0-.78.33-1.34a.88.88,0,0,0,.45.11,4.72,4.72,0,0,0-.11-1.34c-.56-.11-.45-.11-.9-.22-.22.33-.33.78-.56,1.12.12,0,.34.11.45.11-.11.45-.22.89-.45,2.12a1.7,1.7,0,0,1-.44,1c-.45-.11-.9-.33-1.35-.45a10.93,10.93,0,0,1-1.12-.33l-.67-.11c-.78-.23-.44-.12-2.9-.68l.11-.44A24.12,24.12,0,0,1,102.24,190.48Zm8.06-2.9c.45-3.81.67-5.26.67-5.26v-.22c-.11,0-.34,1.56-1.12,3.57l-.67,1.68Zm15.88-10v.45a29.71,29.71,0,0,0,0,3.13h-1.56c0,1.57.11,3.24.11,4.81s.11,3.13.11,4.7v1.68h3c0-1.35,0-2.24-.22-2.35h.44a33.51,33.51,0,0,0,3.47-.23V190c0,.22.23,6.15.23,6.6h-2.35c-.79,0-2.24.11-4.81.11H118.8v-1.9l-.11-1.79h1.12v-5.48c0-1.68-.12-3.14-.12-4.93v-1.34h-1.11v-3.58C122.83,177.73,126.18,177.84,126.18,177.62Zm12.87-1.79.11.45a31.75,31.75,0,0,0,.78,3.24l-.89.23c.22,1,.33,2.12.56,3.13.33,2,.78,4.36,1.23,6.49.11.78.33,1.56.44,2.23.56-.11.9-.22.9-.33l.11.45c.34,1.45.34,1.34.78,2.9,0,0-6,1.23-6.26,1.35a5.71,5.71,0,0,0-1,.22l-.22-1.34-.45-1.9c.34-.12.67-.12,1-.23l-.23-1.23c-.22-1-.44-2-.67-2.91-.11-.44-.22-1-.33-1.45-.34-1.34-.67-3.13-1-4.48l-.34-1.67a9.78,9.78,0,0,1-1.11.22l-.34-1.68-.45-1.9C135.8,176.61,139.05,176.06,139.05,175.83Zm3.24-.67a14.61,14.61,0,0,0,2-.78c.23-.11.56-.23,1.12-.45l.56-.22a38,38,0,0,1,3.58-1.46l.22.45c.45,1.12.68,1.79,1,2.46-.22.11-.56.22-.89.34,1.45,2,3,4.36,3.8,5.25l3.47,5.37c.22-.11.33-.22.78-.45.34.56.67,1.24,1,1.91.22.44.22.56.44.78-1.79.78-4.36,1.79-5.59,2.35h-.11l-.22-.34c-.23-.56-.34-.78-.45-1.12-.23-.67-.45-.67-.56-1.34.22,0,.33-.11.45-.11a4.16,4.16,0,0,0-.9-1c-.45.23-.45.12-.89.34a4.83,4.83,0,0,0,.22,1.23c.11-.11.34-.11.45-.22.22.33.33.78.89,2,.23.56.34.78.23,1.12-.45.11-.9.33-1.35.45-.22.11-.56.22-1.11.44l-.56.23a26.16,26.16,0,0,1-2.8,1.23l-.11-.34c-.45-1.12-.67-1.79-.9-2.46a3.47,3.47,0,0,0,.9-.34A123,123,0,0,1,144.41,178a5.67,5.67,0,0,0-.89.44c-.22-.33-.34-.78-.89-2C142.29,175.83,142.18,175.5,142.29,175.16Zm6.93,7.38.45,1.68,1-.45c-1.79-3.35-2.57-4.69-2.57-4.69l-.12-.23A37.2,37.2,0,0,1,149.22,182.54Zm-.44-19.91a9.13,9.13,0,0,1,1.12-.89l.22-.23a12.69,12.69,0,0,0,2-1.45c1.46-1.23,2.69-2.57,4-3.92h0a10.7,10.7,0,0,1,1.12-1.11c1-1,1.9-2,2.79-3,.56-.79,1.24-1.57,1.79-2.35a19.23,19.23,0,0,1,1.91-2.46l.11-.12.22.12c.11.11.45.11.78.11a3.14,3.14,0,0,1,1,.11l.23.11-.12.23a26.37,26.37,0,0,1-4,5.92c-.23.34-.45.56-.67.9l-.68,1-.78.78a3.42,3.42,0,0,0-.89.89,26.43,26.43,0,0,1-4.48,4.25c-.22.12-.45.34-.67.45s-.56.45-.89.67l-2.69,2c-.56.33-1,.67-1.56,1a27.93,27.93,0,0,1-8.39,4.14,46.69,46.69,0,0,1-13.43,2.46h-3.46a28.52,28.52,0,0,1-7.5-.78c-.67-.11-1.23-.34-1.9-.45-.9-.22-1.68-.33-2.57-.56-.56-.22-1.12-.45-1.79-.67a5.46,5.46,0,0,0-1.12-.45c-.34-.11-.78-.33-1.12-.44a32.94,32.94,0,0,1-4.59-2,38.14,38.14,0,0,1-7.49-5.37c-.45-.33-.9-.78-1.34-1.11-.67-.56-1.34-1-2.13-1.68a39.28,39.28,0,0,1-3.8-4.59V154c-.22-.34-.45-.56-.67-.9a13.49,13.49,0,0,1-2.8-5.14l-.11-.22.22-.12a4.8,4.8,0,0,1,1.79,0h.11l.12.12a19.29,19.29,0,0,1,2.68,4c.45.67.78,1.34,1.23,2a23.89,23.89,0,0,0,1.57,1.9l.67.67a18.18,18.18,0,0,0,3,2.68c.67.56,1.34,1.12,2.12,1.68s1.46,1.23,2.13,1.79a22.28,22.28,0,0,0,3.24,1.9c.45.23.79.45,1.23.67a37.55,37.55,0,0,0,12.64,4.37,7,7,0,0,0,1.57.11c.45,0,.89.11,1.34.11.23,0,.56.11.9.11,1.12.11,2.46.34,3.69.34a42.78,42.78,0,0,0,7.16-.67,28,28,0,0,0,4.58-1,46.27,46.27,0,0,0,11.41-4.81C148,163.3,148.44,163,148.78,162.63Zm9.62,13.31c-.67-.89-1.46-1.79-2.13-2.79l-1.56,1.23-1.23-1.68-1-1.23L153,171l1.9-1.56c.11-.12.34-.23.45-.34s.44-.34.89-.56a7.82,7.82,0,0,1,1.46-.67c1.67.67,4.81,2.57,6.48,3.47l-2.23-2.8-.67.56-1.24-1.68-1-1.23-.11-.11,2-1.57a10,10,0,0,0,1.12-.89l1.9-1.46c1,1.24,1.23,1.57,2.13,2.8l.33.34a2,2,0,0,0-.89.44l9.06,11.75c-.12.11-.12.22-.23.22a3.2,3.2,0,0,1-.67.67c-.22.23-2.12,1.46-2.24,1.57l-2.12-1c-1.9-1-3.58-1.9-4.81-2.68l2.24,2.8.67-.68.33.34a14.83,14.83,0,0,0,2,2.57l-3,2.35-2.13,1.68-.89-1.23-1.35-1.68a4.27,4.27,0,0,0,.79-.67c-.67-.78-1.23-1.57-1.9-2.35C160.3,178.4,159.4,177.17,158.4,175.94Z"/><path class="cls-1" d="M201.46,151.24a10.21,10.21,0,0,1-5-3c-1.09-1.4-1.09-3.42-1.25-5-.46-4.2-1.55-8.55-1.4-12.75a47.69,47.69,0,0,1,1.72-13.23c.46-1.86.31-4.35,1.71-5.75.77-.78,3.26-1.71,4.35-1.25,1.87.78,2.65,3.11,3.27,4.83.62,2,.93,4,1.4,6.22.31,2.18,1.24,4.2,1.71,6.22a37.74,37.74,0,0,1,2.33,12.29,38.24,38.24,0,0,1-.62,5.91C209.23,148.76,204.72,151.87,201.46,151.24Zm.62-45.26a44.62,44.62,0,0,0-4.82,1.24c-.63.16-1.4.47-2,.62a2.51,2.51,0,0,1-2.33-.93,7.15,7.15,0,0,1-.62-2.64c-.16-1.09-.47-2.65.31-3.43.16-.15.47-.31.62-.62a12.18,12.18,0,0,1,3.42-.46c2.49-.16,5.76-.63,7.47,1.71a6.59,6.59,0,0,1-.78,3.26C203,105.67,202.7,105.82,202.08,106ZM73,120.6a75,75,0,0,1-4.83,7.31c-1.86,2.65-3.26,5.6-5.13,8.4-.31.47-.62.93-.15,1.4.15.16.62.16,1.08.16a29.47,29.47,0,0,1,3.74.31c1.24.15,2.33.31,3.42.46a51.93,51.93,0,0,1,14.31,5.6c.47.78-.62,3-1.4,3.27a8.5,8.5,0,0,1-2,0,18.73,18.73,0,0,0-4.2-.15c-3,.15-6.07,0-9.33.46a19.46,19.46,0,0,0-3.12.47c-3.88,1.09-8.24,1.55-12.28,2.33-.63.16-1.4.31-2,.47-2.8.47-5.44.47-7.93-.93-.62-.63-1.56-1.09-2-1.87a2.56,2.56,0,0,1-1.25-3.11c.47-1.4,2.18-3.42,3.27-5,1.09-1.4,5-6.69,8.4-10.58a46.23,46.23,0,0,0,4.36-5.44,44.1,44.1,0,0,1,4.35-5.76c3.42-3.89,7-9,7-9-1.09-.62-3.11-.16-4.2-.47-3.11-.62-5.75.16-8.87-.15q-5.13,0-10.26-.47c-.62-1.55.31-3,.78-4.35.93-3,5.91-4.83,8.86-5.14a30.43,30.43,0,0,1,9.18.31c1.56.31,3.42.63,4.82.94a8.16,8.16,0,0,0,2,.31,9.51,9.51,0,0,0,2,.31,27.18,27.18,0,0,0,8.55-.62c1.71-.47,3.27,1.71,4.51,2.64,0,1.09-.93,1.71-1.55,2.65a28,28,0,0,0-3,4.51m16.49-3.27a4.92,4.92,0,0,1-2,.62c-1.25.16-2.49.78-3.89.62-.31,0-.47-.15-.78-.15-.46-.62-.62-1.56-1.09-2.33a4.53,4.53,0,0,1,.16-2c1.24-1.86,3.58-2.17,5.13-3.42a1.6,1.6,0,0,0,.94-.78,3.17,3.17,0,0,1,3.11.16c.93.47,2.17.93,2.49,1.87.15,1.55-.78,4.2-2.34,5C98,106.6,97.23,106.44,96.61,106.6ZM103,122.78c.62,2,1.55,3.89,2,5.91a40.49,40.49,0,0,1,.78,6.07,42.66,42.66,0,0,1-.47,12.6c-.31,1.55-2.18,2.8-3.58,3.42a6.47,6.47,0,0,1-5.13.15,10.43,10.43,0,0,1-4.35-3.42c-1.09-1.55-.78-4-.94-5.91-.31-4.36-.78-8.71-1.09-13.07-.15-4.51,1.09-9,2-13.37.46-2,.62-3.43,2.64-4.52,1.4-.77,2.49-.93,3.58.47a12.46,12.46,0,0,1,2.49,5.45A36,36,0,0,0,103,122.78Zm27.53,16.64a36.45,36.45,0,0,1,4,0c2.33.16,4.51-.15,6.84-.15H142c1.25.15,2.34,0,3.43.15a.94.94,0,0,1,.62,1.25,9,9,0,0,1-2,3.57,8.34,8.34,0,0,1-3.89,2.65,21.39,21.39,0,0,1-5.45.47c-2.64,0-6.06.15-9,0-.78,0-1.71-.16-2.64-.16-.47,0-1.09.16-1.72.16H119c-1.55.15-3.27.62-4.51-.16-2-1.24-3-3-1.87-4.67a19.68,19.68,0,0,1,1.87-2.95,15.16,15.16,0,0,0,1.4-1.87c.93-1.4,2.33-2.49,3-3.89s1.86-2.64,2.8-4l2.8-4.2c.77-1.25,1.71-2.49,2.64-3.74a26.21,26.21,0,0,0,2.33-3.11,21.08,21.08,0,0,0-4.35,0c-2.8.16-5.91-.15-8.71,0H115a17.6,17.6,0,0,1-2.8.16c-.16,0-.63,0-.78-.31v-.16c-.31-.93.15-1.71.62-2.64a9.18,9.18,0,0,1,2.18-2.8,12.49,12.49,0,0,1,2-1.09,7,7,0,0,1,3.11-1.25c2-.31,4.05,0,6.23-.15a14.77,14.77,0,0,1,5.28.62c1.09-.15,2.49.47,3.89.31a7.54,7.54,0,0,0,1.87-.31A20.53,20.53,0,0,1,141,111c.46,0,.93-.16,1.4-.16.77.16,1.55,1.09,2.33,1.87a2.56,2.56,0,0,1,1.24,2.33c-.15,1.24-1.4,1.87-2,2.8a34.16,34.16,0,0,0-1.87,3.11c-.62.93-1.24,2-1.86,2.8a33.49,33.49,0,0,1-2.18,2.65c-2.8,3-4.36,6.84-6.53,10.26-.63.94-1.56,1.56-2.18,2.65C129.59,139.58,130.06,139.27,130.52,139.42Zm46.36.31a36.37,36.37,0,0,0,4-.15H185c.62,0,1.71,0,1.86.62.32.78-.77,2.33-1.24,3.11a10.84,10.84,0,0,1-2.18,2.49c-1.4,1.09-3.26,1.4-4.82,1.87-1.24-.16-2.49.31-3.89,0-1.71,0-3.73-.16-5.75-.16h-1.87c-1.87-.15-3.89.16-5.91.16-1.25,0-3.11.15-4.67.15-.62,0-1.09,0-1.4-.31a11.3,11.3,0,0,1-2.49-2.18c-1.24-1.55.62-3.26,1.56-4.51,1.24-1.71,2.49-3.58,3.89-5.29.46-.62.62-1.24,1.09-1.86l2.17-2.65c.94-.93,1.4-2.33,2.18-3.42.78-1.4,2-2.49,3-3.89.93-1.24,1.86-2.33,2.8-3.58.15-.31.62-.77.62-1.09h-5.6a5.07,5.07,0,0,1-1.56,0,14.06,14.06,0,0,0-2.64-.31c-.47,0-1.09.16-1.56.16a22.17,22.17,0,0,0-3.26,0c-.63,0-2.65.62-3.11-.16-.32-.46.15-1.4.31-1.86a8.85,8.85,0,0,1,2.33-3.58,7.71,7.71,0,0,1,3.58-2.18c2-.15,4.35-.31,6.22-.31.93,0,2,.16,3.11.16h1.56c1.24,0,2.64-.32,3.73.15a21.61,21.61,0,0,1,3.11.16c2.49,0,5-.31,7.47-.16a18.64,18.64,0,0,1,1.4,1.71c.62.62,1.24,1.09,1.09,2,.31,1.87-1.71,3-2.8,4.36-1.25,1.71-2.49,3.89-3.74,5.76-.77.93-1.4,2-2.17,3.11a14.14,14.14,0,0,0-1.4,1.86,5.89,5.89,0,0,1-1.09,1.56,21.77,21.77,0,0,0-1.87,2c-1.24,1.56-2.18,3.73-3.27,5.29-.15.31-.31.47-.15.78C172.06,140,174.55,139.42,176.88,139.73Z"/></svg>