<svg xmlns="http://www.w3.org/2000/svg" viewBox="0 0 247 75.96"><defs><style>.cls-1{fill:#fff;fill-rule:evenodd;}</style></defs><title>client_9</title><g id="SCJ"><path class="cls-1" d="M48,48.29l-4.52,14h3.07c0-.12,1-3,1-3h4.66l.9,3h3.33c-.07-.23-4.54-13.89-4.59-14Zm.23,8.36,1.64-5.87.12.32,1.46,5.66H48.17l0-.11Z"/><path class="cls-1" d="M69.48,48.29v14h3V56.59h4.65v-2.5H72.51V50.8h4.86V48.29Z"/><path class="cls-1" d="M84,50.56,80.25,62.3H82.8l.8-2.54h3.94l.76,2.54h2.77c-.07-.23-3.81-11.62-3.84-11.74Zm.17,7,1.4-5,.11.32,1.23,4.77H84.17l0-.11Z"/><path class="cls-1" d="M104.13,50.56l-2.32,8.17-.11-.31-2.13-7.86h-4.1V62.3h2.46c0-.17-.06-9.28-.06-9.28H98s2.49,9.15,2.52,9.28h2.35L105.48,53h.16s0,9.11,0,9.28h2.46V50.56Z"/><path class="cls-1" d="M113.46,50.56V62.3H116V50.56Z"/><path class="cls-1" d="M121.48,50.56V62.3h6.7V60.12H124V50.56Z"/><path class="cls-1" d="M136.83,50.56l-2,4.92-2-4.92h-2.9l3.68,7.3s0,4.27,0,4.44h2.52V57.9s3.19-6.4,3.66-7.34Z"/><path class="cls-1" d="M215.23,57.59h-2.54l1.3-4.66h0l1.2,4.66Zm-2.79-7c0,.12-3.72,11.51-3.79,11.74h2.56c0-.12.8-2.54.8-2.54h3.93l.76,2.54h2.77c-.08-.23-3.81-11.62-3.85-11.74Z"/><path class="cls-1" d="M244.29,50.56l-2,4.92-2-4.92h-2.9l3.68,7.3s0,4.27,0,4.44h2.52V57.9s3.18-6.4,3.66-7.34Z"/><path class="cls-1" d="M151.27,55.33c0,5.3,3.68,7.18,6.84,7.18a11.35,11.35,0,0,0,3.48-.54c0-.13-.13-2.55-.14-2.78a7.29,7.29,0,0,1-2.92.69c-2.46,0-4.12-1.83-4.12-4.56s1.59-4.69,3.86-4.69a5.66,5.66,0,0,1,3.07.94c0-.24.23-2.73.24-2.86a10.75,10.75,0,0,0-3.48-.7c-4.27,0-6.82,2.73-6.82,7.31Z"/><path class="cls-1" d="M168.18,56.43c0-2.06.65-3.81,2.3-3.81s2.29,1.74,2.29,3.81-.65,3.81-2.29,3.81-2.3-1.85-2.3-3.81Zm-2.7,0c0,3.86,1.82,6.08,5,6.08s5-2.22,5-6.08-1.78-6.07-5-6.07-5,2.16-5,6.07Z"/><path class="cls-1" d="M188.84,50.56l-2.32,8.17-.11-.31-2.13-7.86h-4.1V62.3h2.46c0-.17-.06-9.28-.06-9.28h.14s2.49,9.15,2.52,9.28h2.35L190.23,53h.12s0,9.11,0,9.28h2.46V50.56Z"/><path class="cls-1" d="M198.56,50.56V62.3h2.53V58.14h1.13c2.46,0,3.93-1.4,3.93-3.75,0-2.61-1.41-3.82-4.45-3.82ZM201.09,56V52.64h.78a1.54,1.54,0,0,1,1.76,1.69,1.56,1.56,0,0,1-1.76,1.73h-.78V56Z"/><path class="cls-1" d="M230.76,50.56c0,.18,0,8.22,0,8.22h-.11l-3.49-8.21h-3.29V62.3h2.3c0-.17-.08-8.27-.08-8.27l.11,0s3.55,8.15,3.61,8.25H233V50.56Z"/><polygon class="cls-1" points="0 71.81 0 75.96 246.98 75.96 246.98 71.81 0 71.81 0 71.81"/><path class="cls-1" d="M116.65,11.41a14.68,14.68,0,0,0,5.77.72,4,4,0,0,0,3.93-3.93c0-2.17-1.41-3.71-3.93-3.69l-1.87,0a1,1,0,0,1-1-1c0-.54.61-1.07,1.52-1.07a7.88,7.88,0,0,1,4.52,1.08l.4-2.53a11.47,11.47,0,0,0-5.39-1,3.92,3.92,0,0,0-3.85,3.72,3.26,3.26,0,0,0,3.41,3.41c1.1,0,1.63,0,2.23,0a1.08,1.08,0,0,1,1.23,1.08,1.37,1.37,0,0,1-1.18,1.22,9.47,9.47,0,0,1-5.75-.93v2.87Z"/><path class="cls-1" d="M138.31,11.9a18.56,18.56,0,0,1-4.91.29,5.83,5.83,0,0,1-5.47-6,5.83,5.83,0,0,1,5.47-6,19.05,19.05,0,0,1,4.91.29V3a11.26,11.26,0,0,0-4-.43C132,2.86,131,4.12,131,6.16s1,3.29,3.29,3.55a11.22,11.22,0,0,0,4-.42V11.9Z"/><path class="cls-1" d="M128.3,23.76a5.84,5.84,0,0,1,5.83-5.56h2.79v-.68l-9.35-6-9.35,6v.68H121a5.85,5.85,0,0,1,5.84,5.56Z"/><path class="cls-1" d="M128.3,25.07a5.84,5.84,0,0,0,5.83,5.56h2.79v.67l-9.35,6-9.35-6v-.67H121a5.85,5.85,0,0,0,5.84-5.56Z"/><path class="cls-1" d="M118.41,14.48a13.56,13.56,0,1,0,22.75,10V0h8.13V24c0,13.59-10.75,16.6-21.72,16.6-12,0-21.69-3.31-21.69-14.89,0-6.52,5.79-12.16,12.52-12.16v.91Z"/><path class="cls-1" d="M233,13.56v19h5.6l0-14.85a1.44,1.44,0,1,1,2.89,0v12a2.83,2.83,0,0,0,2.83,2.83H247V17.76a4.2,4.2,0,0,0-4.2-4.2Z"/><path class="cls-1" d="M184.18,13.55v19h5.6V17.7a1.44,1.44,0,1,1,2.88,0v12a2.84,2.84,0,0,0,2.84,2.84h2.75V17.74a4.2,4.2,0,0,0-4.2-4.2Z"/><path class="cls-1" d="M173.49,13.55V5.42h-5.56V32.54h5.57l0-14.8a1.44,1.44,0,0,1,2.88,0v12a2.84,2.84,0,0,0,2.83,2.84H182V17.74a4.2,4.2,0,0,0-4.2-4.2Z"/><path class="cls-1" d="M225.39,13.31H222c-3.31,0-5.35,2.3-5.35,4.89v9.73c0,2.6,2,4.89,5.35,4.89h3.36c3.31,0,5.35-2.3,5.35-4.89V18.2c0-2.59-2-4.89-5.35-4.89Zm-.22,15.16a1.45,1.45,0,1,1-2.91,0V17.69a1.45,1.45,0,0,1,2.91,0V28.47Z"/><path class="cls-1" d="M160.37,13.31H157c-3.32,0-5.35,2.3-5.35,4.89v9.73c0,2.6,2,4.89,5.35,4.89h3.36c3.31,0,5.35-2.3,5.35-4.89V18.2c0-2.59-2-4.89-5.35-4.89Zm-.22,15.16a1.45,1.45,0,1,1-2.91,0V17.69a1.45,1.45,0,0,1,2.91,0V28.47Z"/><path class="cls-1" d="M214.49,27.86V25.94a4.33,4.33,0,0,0-4.2-4.2l-2.82-.28C206.39,21.3,206,20.81,206,20l0-2.32a1.45,1.45,0,0,1,2.91,0v1.25a1.45,1.45,0,0,0,1.44,1.45h4.15V18.2c0-2.59-2-4.89-5.35-4.89h-3.36c-3.32,0-5.35,2.3-5.35,4.89v1.88a4.32,4.32,0,0,0,4.2,4.2c1.83.19,1.76.21,2.84.28A1.48,1.48,0,0,1,208.91,26v2.46a1.45,1.45,0,1,1-2.91,0l0-1.47a1.45,1.45,0,0,0-1.45-1.44h-4.17v2.37c0,2.6,2,4.89,5.35,4.89h3.36c3.32,0,5.35-2.3,5.35-4.89v-.07Z"/></g></svg>