<svg xmlns="http://www.w3.org/2000/svg" viewBox="0 0 172.24 117.76"><defs><style>.cls-1{fill:#fff;fill-rule:evenodd;}</style></defs><title>client_6</title><g id="MTV"><path class="cls-1" d="M0,117.76V0H64.3L76,11.65,87.14,0H142.9l10.45,10.45v11.8L158.21,18c2.36-1.79,4.42-2.67,6.18-2.67a6.78,6.78,0,0,1,5.69,2.92c1.45,1.94,2.16,4.69,2.16,8.27a8.37,8.37,0,0,1-1.74,4.24,33.24,33.24,0,0,1-4.17,4.1,29.46,29.46,0,0,0-3.83,3.73c-1.25,1.62-2.85,3.56-4.78,5.79s-3.43,4-4.51,5.42v58.71l-9.84,9.27H87.14V76.84L75.49,87.43,64.74,79.78V108l-10.28,9.71ZM54.46,72.59v40.6l6.62-6.48V77.3l-6.62-4.71Zm88.91-7.38V114L150,107.3V55.05l-6.62,10.16Zm0-60.5V35.62l6.77-9.71V11.51l-6.77-6.8ZM110.86,47l-1.2,2.21a7.93,7.93,0,0,0-1,4,12.3,12.3,0,0,0,1.13,5,66.83,66.83,0,0,0,3.85,7.07c1.84,3,3.21,5.35,4.15,7.14a19.64,19.64,0,0,1,1.91,5.37Q121.47,92,127.32,92a8.12,8.12,0,0,0,1.62-.29,2.46,2.46,0,0,0,1.91-.78,5.12,5.12,0,0,0,1.08-2.06,18,18,0,0,0,.54-2.82q.15-1.55.29-3.16a16,16,0,0,1,1.86-5.18,16.93,16.93,0,0,0,1.82-4.1q3.53-7.1,5.5-10.4c1.3-2.23,3.34-5.42,6.16-9.62a30.65,30.65,0,0,1,2.21-3.88c.64-.86,1.62-2.13,3-3.8s2.53-3.24,3.48-4.69a34.22,34.22,0,0,1,5.32-5.79,35.77,35.77,0,0,0,5.59-6.11,12.26,12.26,0,0,0,1.77-6.92,5.06,5.06,0,0,0-1.37-3.21,4.49,4.49,0,0,0-3.66-1.64c-2.28.47-5.08,2.55-8.37,6.28A112.82,112.82,0,0,0,147,35.6c-2.72,4.1-5.5,8.44-8.32,13A26.69,26.69,0,0,0,136.6,54a39.6,39.6,0,0,1-2.06,5.59,14.66,14.66,0,0,0-2.13,3.61,16.3,16.3,0,0,1-2.67,4.22,5.31,5.31,0,0,1-4,1.45,12.64,12.64,0,0,1-2.94-5.67c-.69-2.45-1.47-5.81-2.36-10.11s-1.59-6.45-2.09-6.57a6.22,6.22,0,0,0-3.95-1.47A4.31,4.31,0,0,0,110.86,47Zm-30.2,0a30.67,30.67,0,0,1-3,3,37.39,37.39,0,0,1-4.29,2.87c-1.94,1.18-3.07,1.86-3.43,2.11a6.81,6.81,0,0,0-2.06,5,3,3,0,0,0,1.62,2.94,4.16,4.16,0,0,0,1.77.27c1.86,0,4-1.2,6.48-3.66C79.56,57.53,81.3,55.71,83,54a28.68,28.68,0,0,1,5.13-4.22,15.71,15.71,0,0,1,6-2.28q0,.11,1,3.83a23.81,23.81,0,0,1,1,5.91c0,3.26.07,6.55.22,9.81s.22,5.27.22,6.06a92,92,0,0,1-1,11,29.8,29.8,0,0,0-.61,4.56,24.67,24.67,0,0,0,1.47,7.07,20,20,0,0,1,.49,3,10.52,10.52,0,0,0,.66,3.07,1.63,1.63,0,0,0,1.64,1,3.92,3.92,0,0,0,1.62.47c1.5,0,2.7-1.13,3.56-3.36a23.06,23.06,0,0,0,1.3-8.29,42.87,42.87,0,0,1-1.35-10.45V75.83c.42-6.16.61-10.13.61-11.95a18.51,18.51,0,0,0-.15-2.94,48.49,48.49,0,0,0-1.13-5.3,24.44,24.44,0,0,1-.93-5.57,10.51,10.51,0,0,1,1.74-5.62q4.45-9.05,21.37-12.78c2.13-1.08,3.21-2.4,3.21-4,0-2-1.89-2.94-5.72-2.94a12.27,12.27,0,0,0-5,1,38,38,0,0,0-5.35,3,49.54,49.54,0,0,1-5.37,3.09A12.77,12.77,0,0,1,102.86,33c-1.45.07-2.75.12-3.85.2a7.88,7.88,0,0,0-3,.69,7.76,7.76,0,0,0-2.65,2.28,24.31,24.31,0,0,0-2.89,4.76c-.12.54-1.57,1.4-4.27,2.55A16.5,16.5,0,0,0,80.66,47Z"/></g></svg>