<svg xmlns="http://www.w3.org/2000/svg" viewBox="0 0 203.12 123.44"><defs><style>.cls-1{fill:#fff;}</style></defs><title>client_2</title><g id="Boots"><path class="cls-1" d="M101.56,0C45.47,0,0,27.63,0,61.72s45.47,61.72,101.56,61.72S203.12,95.81,203.12,61.72,157.65,0,101.56,0Zm65.17,61.06a26.88,26.88,0,0,1-2.65,1.67,2.92,2.92,0,0,0-.29.16c-1.78,3.8-2.91,8.31-7,10.69a31.94,31.94,0,0,1-7.53,3l-64.47,20a6,6,0,0,0-2.19,1.9c-1.95-2.16-1.74-5.89-.69-8.43,1.45-3.52,5.16-5.91,8.55-6.89l23.73-5.72,36.44-8.72a19.35,19.35,0,0,0,6.27-2.71A6.32,6.32,0,0,0,159,63.73v-.09a9.44,9.44,0,0,1-8-4c-4,4-8,9.07-14,8.55a5.05,5.05,0,0,1-3.44-2.23c-1.26-2-.31-4.51.45-6.49l7.67-17.1c-3.47-2.21-9-2-12.46.22a19.38,19.38,0,0,0-2,1.34c3,3.19,3.09,7.89,2.36,11.9-1.66,7.42-6.68,16-13.95,18.45A5.69,5.69,0,0,1,109.74,73c-3.73-3.87-2.28-10.19-.43-14.44a42.83,42.83,0,0,1,11.5-15.11c-4.66-.21-8.55,2-12.09,4.7-.07,6.6-2.92,12.28-5.82,17.84C99.46,71.83,94.26,79,87.08,79.71A5.27,5.27,0,0,1,82,77.15c-2.66-5.08-1-11.14.9-16A44.93,44.93,0,0,1,92.3,47.29c-1.76-1-4.23-.62-6,.14-3,2-5.56,4.58-8.76,6a48.72,48.72,0,0,1-5,2.25,51.3,51.3,0,0,1,2.21,4.75c3.75,8.48,2.38,19.67-3.76,26.72a22.22,22.22,0,0,1-22.92,7.74,24.65,24.65,0,0,1-6.46-2.78c-3.94,2.53-9.62,5.54-15.18,3.64-1.92-.71-4.16-2.35-4.39-4.58a4.8,4.8,0,0,1,2-4.83,5.08,5.08,0,0,1,4.35-.69,4.27,4.27,0,0,1,3,2.94,3.45,3.45,0,0,1-1,3.09,4.72,4.72,0,0,1-2.9,1.45c1.4,1.06,3.52.53,5,.17a12.22,12.22,0,0,0,6-4.23,11.39,11.39,0,0,1-2.19-11.38c1-3.16,4.18-6.13,7.53-6.41a9,9,0,0,1,4.76.84c.68-1.24,1.38-2.88,2.15-4.42L55.7,56.91l.5-1.19c-1.69-.88-3.54-2.5-3.49-4.53a3.88,3.88,0,0,1,1.88-3,10.22,10.22,0,0,1,6.08-.81c3.87-6,7.81-12.52,13.85-16.94l4.32-2.75C77,26,74.25,25.86,71.59,25.84a28.51,28.51,0,0,0-20,9.48c-2.18,2.87-4.11,6-3.59,9.84.38,1.73,2.28,2.56,3.8,2.82a6.43,6.43,0,0,1-4.11,3.78,7,7,0,0,1-7-3c-2.35-4-.07-8.65,2.4-11.93,6-7.48,14.2-11.52,23-13.23a32.58,32.58,0,0,1,17,1.62A22.51,22.51,0,0,1,89,22.7c.23,0,.39-.1.55.26a.51.51,0,0,1-.24.64c-1.28,1-2.8,1.69-3.89,3a12.08,12.08,0,0,1,4.77,11.71,18.08,18.08,0,0,1-2.52,5.87A7.62,7.62,0,0,1,92.85,44a9.89,9.89,0,0,1,1.92,1c2.05-1.56,6-4.62,10-3.65a5.15,5.15,0,0,1,3.42,3.59c4.77-3.14,11.07-5.63,17-3.33,4.33-2.94,11.07-4.87,16.46-2.3l1.07.43c1.28-2.33,2.42-4.8,3.63-7.2l-28.64,3.09L92,38.45c.76-3.8.09-8.36-2.92-11.21l-1.57-1.45H149.5l1.5-3.2,4.66-.26L154,26h16.9l-2.1,3.72-17,2.09L140.52,59.4c-.4,1.08-1.12,2.36-.64,3.59a1.37,1.37,0,0,0,1.55.59c1.83-.46,3.8-2.54,5.51-4L149.46,57c-1.14-3-.83-7,1.54-9.36a8.1,8.1,0,0,1,7.6-2.3l7.84-9.71c.51-1,.94-2.41,2.28-2.86a1.37,1.37,0,0,1,1.27.34,2.41,2.41,0,0,1-.59,2.68,8.9,8.9,0,0,1-1.59,1.33c0,5.18,3.9,9,4,14.42A12.24,12.24,0,0,1,166.73,61.06Z"/><path class="cls-1" d="M166.77,52.73c1.33-4.44,0-9.17-.86-13.37l-4.82,6.7a11.58,11.58,0,0,1,4.76,9.27,17.07,17.07,0,0,0,.92-2.6"/><path class="cls-1" d="M163,56.41a7.82,7.82,0,0,0-3.57-8c-2.25,3.11-4.7,6.13-6.91,9.24a6.8,6.8,0,0,0,3.8,2.69A6.43,6.43,0,0,0,162.07,59a13,13,0,0,0,1-2.64"/><path class="cls-1" d="M156.71,47.8a4.36,4.36,0,0,0-3.91,1,5.33,5.33,0,0,0-1.28,5.65c1.71-2.21,3.46-4.53,5.19-6.69"/><path class="cls-1" d="M104.09,48.5c0-1.07.33-2.54-.76-3.16s-1.88.4-2.66,1A66.23,66.23,0,0,0,87.08,66.15c-.94,2.12-2.59,5.52-1.45,8.12a1.94,1.94,0,0,0,1.4.95c1.76.26,3.61-1.78,5-3.21a60.84,60.84,0,0,0,9.53-15.61,43.14,43.14,0,0,0,2.52-7.91"/><path class="cls-1" d="M82.68,37.5c.12-2.66,0-5.39-1.54-7.34l-1.81,1.61c-5.16,5.65-8.62,12-12.18,18.29a11.87,11.87,0,0,1,3.16,2.57l3.52-1.95A18.72,18.72,0,0,0,82.68,37.5"/><path class="cls-1" d="M70.19,70.73c.88-4.44,1-10.24-1.24-14.11a24.5,24.5,0,0,1-5,.64c-3.23,7.13-6.39,14.28-10.52,21a80.65,80.65,0,0,1-8,10.66,17.63,17.63,0,0,0,14.87-2.5,25.58,25.58,0,0,0,9.88-15.72"/><polyline class="cls-1" points="65.18 53.8 67.25 53.54 65.8 52.68"/><path class="cls-1" d="M58.86,50a3.23,3.23,0,0,0-1.24-.4,2.19,2.19,0,0,0-2.28.69,1.42,1.42,0,0,0-.07,1.43,2.53,2.53,0,0,0,2,1.28"/><path class="cls-1" d="M44.23,81.16a6.87,6.87,0,0,1-2.59-5.68,7.68,7.68,0,0,0-2.56,4.61,7.33,7.33,0,0,0,1.81,6.15l.26-.26a36.89,36.89,0,0,0,3.08-4.82"/><path class="cls-1" d="M124.82,54.87c1-4.11.92-7.69-.67-9.14-.34-.31-3.64,3.75-3.64,3.75C116.72,54.58,113.3,59.85,112,66c-.14,1.54-.53,3.33.36,4.66a2.51,2.51,0,0,0,2.64.21c1.95-.8,3.89-3.42,5.23-5.51a43.64,43.64,0,0,0,4.61-10.48"/></g></svg>