<svg xmlns="http://www.w3.org/2000/svg" viewBox="0 0 241.8 177.4"><defs><style>.cls-1{fill:#fff;}</style></defs><title>client_13</title><g id="TKMAXX"><path class="cls-1" d="M64.72,86.15h0M53.28,62c0,7.92-1.27,12.21-4.07,15.22a14.33,14.33,0,0,1-10.58,4.08c-4.15,0-7.84-1.38-10-3.7s-3.36-5.78-3.36-10.74v-31c0-1.36-.51-2-2-2H2.14c-1.48,0-2,.58-2,2v28c0,11.2,2.89,17.59,7.93,22.63C14.65,93,25.84,96,36.48,96s21.69-3.76,28.24-9.81C71.15,92,82.81,96,95.69,96c17,0,29.53-7,36.83-19,3.24,5,5.64,8.76,7.94,12.16,3.39,5,6.47,6.85,13.38,6.85,6.54,0,10.46-1.57,14-7C177.12,74.81,185,58,190.72,42.61a15.71,15.71,0,0,0,1.22-4.22c0-.9-.59-1.61-2-2.06s-5-1.55-6.85-2.11a21.8,21.8,0,0,0-4.81-1.2c-1.23,0-1.9.69-2.33,2.11-4.27,14.22-10.78,30.19-16.58,40.12-1.9-3.63-5.41-9.93-8.67-15.62-5-8.8-10-17.67-12.52-21.75a22.67,22.67,0,0,0-1.88-2.67,6.51,6.51,0,0,0-5.67-2.55c-6.85,0-17,6.15-17,11.88,0,1.95.54,3.4,2.56,6.85l0,.06c2.27,3.89,3.41,7.06,3.41,11,0,9.75-7.28,18.58-21.35,18.58-6.67,0-11.83-1.89-15.18-5.34-3.2-3.29-4.75-7.71-4.75-15.09V48.18a22.08,22.08,0,0,0,8.7,1.51H98.19c1.5,0,2-.6,2-2V35.81c0-1.36-.53-2-2-2H78.36V14.33A6.42,6.42,0,0,0,76.44,9.2C74.5,7.44,70.52,6.58,65.82,6.58S57.14,7.44,55.2,9.2a6.43,6.43,0,0,0-1.92,5.14Z"/><path class="cls-1" d="M12.7,25.2c7.85,0,12.7-5.57,12.7-12.6S20.56,0,12.7,0,0,5.57,0,12.6,4.85,25.2,12.7,25.2Z"/><path class="cls-1" d="M5.57,137.15c0,.75-.64,1.12-2.74,1.12S.1,137.9.1,137.11V112.26H10.52c2.92,0,5.32.41,7.08,1.8,1.57,1.24,2.51,3.22,2.51,6.18a8.06,8.06,0,0,1-2.59,6.33,8.34,8.34,0,0,1-3,1.57l5.51,8.55c.3.49.37.67.37.86,0,.41-.79.71-2.66.71-2.21,0-3-.3-3.41-.94l-5.21-8.7H5.57Zm8.1-14a4.13,4.13,0,0,0,.86-2.92,3.62,3.62,0,0,0-.86-2.62c-.75-.75-1.84-.94-3.56-.94H5.57v7.53h4.76A4.31,4.31,0,0,0,13.67,123.17Z"/><path class="cls-1" d="M25.24,136c-1.76-1.72-2.55-4.39-2.55-7.8,0-6.56,3.26-10.2,9.45-10.2,5.66,0,8.81,3,8.81,8.92a19.82,19.82,0,0,1-.26,3H28a5.2,5.2,0,0,0,.71,2.77c.75,1,2.17,1.61,4.61,1.61a34.59,34.59,0,0,0,4.76-.37,3.73,3.73,0,0,1,.6-.08c.56,0,.64.3.71,1.12,0,.37.07,1.12.07,1.61a1.18,1.18,0,0,1-1,1.35,26.42,26.42,0,0,1-5.36.52C29.44,138.46,26.89,137.68,25.24,136Zm10.31-9.82a5.87,5.87,0,0,0-.67-3.15,3.14,3.14,0,0,0-2.77-1.16,3.63,3.63,0,0,0-2.85,1,5.33,5.33,0,0,0-1.09,3.3Z"/><path class="cls-1" d="M57.08,122.76a23.52,23.52,0,0,0-5-.67c-2.66,0-3.71.56-3.71,1.72s.79,1.39,2.92,1.87l1.91.45a7.73,7.73,0,0,1,4,2,5,5,0,0,1,1.27,3.64c0,4-2.4,6.67-8.43,6.67a20.05,20.05,0,0,1-5.7-.86c-.75-.3-.9-.49-.9-1.12,0-.3,0-1,.11-1.61.11-.94.3-1.42.82-1.42a4.78,4.78,0,0,1,1.09.26,18.46,18.46,0,0,0,4.57.67c2.51,0,3.64-.67,3.64-1.95s-1-1.72-3-2.21l-1.5-.37c-2.21-.56-3.56-1.2-4.42-2.14a5.06,5.06,0,0,1-1.27-3.56c0-4,2.89-6.15,8.13-6.15a26.45,26.45,0,0,1,5.77.75Z"/><path class="cls-1" d="M66.87,145.32c0,1-1,1.39-2.66,1.39s-2.66-.41-2.66-1.39V118.67a70.42,70.42,0,0,1,9.07-.67c6.22,0,9.75,3.37,9.75,9.86V128c0,7.31-3.94,10.46-9.41,10.46a11.64,11.64,0,0,1-4.09-.64Zm8.1-17.2c0-3.71-1.16-6-4.69-6a23.31,23.31,0,0,0-3.41.22v11.47a11.52,11.52,0,0,0,3.82.6C73.73,134.38,75,132.28,75,128.12Z"/><path class="cls-1" d="M83.05,128.27v-.15c0-6.75,3.56-10.12,9.78-10.12s9.78,3.37,9.78,10.12v.15c0,6.75-3.56,10.2-9.78,10.2S83.05,135,83.05,128.27Zm5.43,0c0,4.2,1.24,6.15,4.35,6.15s4.35-1.95,4.35-6.15c0-4.39-1.24-6.22-4.35-6.22S88.49,123.88,88.49,128.27Z"/><path class="cls-1" d="M124,136.89c0,1-1.09,1.39-2.74,1.39s-2.59-.41-2.59-1.39V126a4.92,4.92,0,0,0-.64-2.89,2.82,2.82,0,0,0-2.36-.86,9.19,9.19,0,0,0-4.46,1.35v13.31c0,1-1.09,1.39-2.74,1.39s-2.59-.41-2.59-1.39V118.37h4.84l.19,1.72a12.21,12.21,0,0,1,6.45-2.1,6.55,6.55,0,0,1,4.87,1.87c1.27,1.39,1.76,3.15,1.76,5.7Z"/><path class="cls-1" d="M141,122.76a23.52,23.52,0,0,0-5-.67c-2.66,0-3.71.56-3.71,1.72s.79,1.39,2.92,1.87l1.91.45a7.73,7.73,0,0,1,4,2,5,5,0,0,1,1.27,3.64c0,4-2.4,6.67-8.43,6.67a20.05,20.05,0,0,1-5.7-.86c-.75-.3-.9-.49-.9-1.12,0-.3,0-1,.11-1.61.11-.94.3-1.42.82-1.42a4.79,4.79,0,0,1,1.09.26,18.46,18.46,0,0,0,4.57.67c2.51,0,3.64-.67,3.64-1.95s-1-1.72-3-2.21l-1.5-.37c-2.21-.56-3.56-1.2-4.42-2.14a5.06,5.06,0,0,1-1.27-3.56c0-4,2.89-6.15,8.13-6.15a26.44,26.44,0,0,1,5.77.75Z"/><path class="cls-1" d="M151,112.3v.22c0,1.72-.86,2.81-3,2.81s-3-1.09-3-2.81v-.22c0-1.84.79-2.81,3-2.81S151,110.46,151,112.3Zm-.26,24.59c0,1-1.09,1.39-2.74,1.39s-2.59-.41-2.59-1.39V118.37h5.32Z"/><path class="cls-1" d="M155.72,137.83c-.67-.15-.9-.45-.9-1v-26.2h5.32v8.62a10.69,10.69,0,0,1,5.06-1.2c5.06,0,8.36,3.22,8.36,10v.19c0,6.45-3.64,10.31-10.12,10.31A42.24,42.24,0,0,1,155.72,137.83ZM160.15,123v11.13a29.56,29.56,0,0,0,3.22.26c3.26,0,4.87-2.17,4.87-6.18,0-4.31-1.5-6.11-4-6.11A8.76,8.76,0,0,0,160.15,123Z"/><path class="cls-1" d="M182.46,112.3v.22c0,1.72-.86,2.81-3,2.81s-3-1.09-3-2.81v-.22c0-1.84.79-2.81,3-2.81S182.46,110.46,182.46,112.3Zm-.26,24.59c0,1-1.09,1.39-2.74,1.39s-2.59-.41-2.59-1.39V118.37h5.32Z"/><path class="cls-1" d="M191.54,110.58v21.7a3.13,3.13,0,0,0,.23,1.35c.22.37.64.52,1.31.52a7.89,7.89,0,0,0,.94-.08,3.89,3.89,0,0,1,.56-.08c.34,0,.52.34.6,1a15.43,15.43,0,0,1,.11,1.8c0,.71-.15,1-.71,1.2a12.77,12.77,0,0,1-2.85.3c-4.2,0-5.51-1.72-5.51-5.7v-22Z"/><path class="cls-1" d="M203.17,112.3v.22c0,1.72-.86,2.81-3,2.81s-3-1.09-3-2.81v-.22c0-1.84.79-2.81,3-2.81S203.17,110.46,203.17,112.3Zm-.26,24.59c0,1-1.09,1.39-2.74,1.39s-2.59-.41-2.59-1.39V118.37h5.32Z"/><path class="cls-1" d="M212.48,113.35h1.65v5H220l-.23,4h-5.62v9.33a2.64,2.64,0,0,0,.52,1.95,2.45,2.45,0,0,0,1.84.52c.56,0,1.27-.07,1.61-.11s.64-.08.82-.08c.37,0,.64.3.67,1.12,0,.6.08,1.27.08,1.57,0,.79-.19,1.16-1,1.35a18,18,0,0,1-3.41.3c-2.29,0-4-.49-5-1.61s-1.42-2.77-1.42-4.95v-9.41h-2.89c-.53,0-.67-.3-.67-1.39,0-.9.11-1.31.64-1.72C207.83,117.74,210,115.71,212.48,113.35Z"/><path class="cls-1" d="M241.8,118.37c-2.62,8.55-6,18.55-9,27.36-.26.75-1,1-2.81,1-2.4,0-2.62-.49-2.4-1.12.71-1.91,1.95-5.21,2.77-7.5-1.16,0-1.76-.08-2.14-1.12-2-5.47-4.5-12.56-6.41-18.59h5.55c1.16,4.09,3.3,11,4.46,14.58h.26c1.42-4.57,2.89-9.78,4.2-14.58Z"/><path class="cls-1" d="M.52,165.82c0-2.45.62-4.32,1.87-5.51a6.71,6.71,0,0,1,4.84-1.59,13.7,13.7,0,0,1,3.13.36l-.14,1.31a14,14,0,0,0-2.89-.32c-1.85,0-3.05.38-3.84,1.21a6.55,6.55,0,0,0-1.33,4.56c0,4.16,1.71,5.77,5.06,5.77a14.52,14.52,0,0,0,2.33-.26c.52-.1.8-.18.88-.18s.22.06.28.5a5.13,5.13,0,0,1,.06.62c0,.16-.1.2-.34.26A14,14,0,0,1,7,173C2.67,173,.52,170.65.52,165.82Z"/><path class="cls-1" d="M13.92,172.28c0,.22-.06.56-.8.56s-.76-.34-.76-.56V162.21h1.37l.14,2.41A7,7,0,0,1,18,162v1.69a7.25,7.25,0,0,0-4.1,2.33Z"/><path class="cls-1" d="M24.19,173a5.44,5.44,0,0,1-4.06-1.29,5.83,5.83,0,0,1-1.25-4.16v-.06c0-3.54,1.55-5.47,4.74-5.47,2.91,0,4.36,1.57,4.36,4.7,0,.3,0,.88-.08,1.27H20.49a4,4,0,0,0,.78,2.83c.58.58,1.41.84,3.07.84a13.14,13.14,0,0,0,2.17-.22,2.84,2.84,0,0,1,.42-.06c.18,0,.22.06.24.32a5.13,5.13,0,0,1,.06.62c0,.24,0,.28-.32.36A12.57,12.57,0,0,1,24.19,173Zm2.19-6.27a2.13,2.13,0,0,0,0-.3c0-2-.82-3.16-2.77-3.16-2.19,0-3.05,1.31-3.13,3.46Z"/><path class="cls-1" d="M30.2,162.55a11.45,11.45,0,0,1,3.38-.54c1.71,0,2.73.32,3.36,1a3.66,3.66,0,0,1,.84,2.71v3.6c0,1.65.16,2.91.16,3.11s-.1.44-.64.44-.68-.14-.76-.46l-.2-.82A5.31,5.31,0,0,1,32.67,173c-2.07,0-3.44-1.25-3.44-3,0-2,1.47-3.3,4.36-3.3a12.24,12.24,0,0,1,2.61.28v-1.09a2.6,2.6,0,0,0-.5-1.89,3.27,3.27,0,0,0-2.33-.64,10.79,10.79,0,0,0-3.09.54Zm.6,7.34c0,1.13.74,1.91,2.23,1.91a4.52,4.52,0,0,0,3.18-1.41v-2.33a12.18,12.18,0,0,0-2.29-.24C31.88,167.81,30.8,168.46,30.8,169.88Z"/><path class="cls-1" d="M42.11,159.51h.7v2.69h3.34l-.06,1.23H42.82v6.13c0,.88,0,1.39.36,1.71a2,2,0,0,0,1.39.36c.46,0,1.15-.12,1.29-.12s.24,0,.26.28,0,.48,0,.58c0,.26-.1.28-.28.34a6.64,6.64,0,0,1-1.63.22c-2.33,0-3-.88-3-3.18v-6.33H39.34c-.24,0-.28-.12-.28-.36a.43.43,0,0,1,.24-.44A7.35,7.35,0,0,0,42.11,159.51Z"/><path class="cls-1" d="M49.61,159.05v.1a1,1,0,1,1-2.09,0v-.1c0-.68.3-1.09,1-1.09S49.61,158.37,49.61,159.05Zm-1.83,3.15h1.57v10.07c0,.22-.06.56-.8.56s-.76-.34-.76-.56Z"/><path class="cls-1" d="M59,166.11a3.29,3.29,0,0,0-.46-2.11,2.27,2.27,0,0,0-1.91-.68,6.57,6.57,0,0,0-3.48,1.25v7.72c0,.22-.06.56-.8.56s-.76-.34-.76-.56V162.21H53l.08,1.19A6.78,6.78,0,0,1,57,162a3.67,3.67,0,0,1,2.61.88,3.8,3.8,0,0,1,1,2.91v6.47c0,.22,0,.56-.78.56s-.78-.34-.78-.56Z"/><path class="cls-1" d="M70,171.89a5.18,5.18,0,0,1-3.16,1c-2.81,0-4.56-1.91-4.56-5.33v-.1c0-3.82,2.31-5.43,5.55-5.43a13,13,0,0,1,3.74.62v9.91a5.16,5.16,0,0,1-1.17,3.72,4.58,4.58,0,0,1-3.5,1.15,10.87,10.87,0,0,1-2.75-.3c-.2-.06-.3-.14-.3-.42a2.8,2.8,0,0,1,0-.5c.06-.28.16-.38.28-.38s.28,0,.54.08a12.7,12.7,0,0,0,2,.18,3.23,3.23,0,0,0,2.51-.68,3.77,3.77,0,0,0,.78-2.75Zm0-8.3a7.73,7.73,0,0,0-2.23-.34c-2.67,0-3.88,1.37-3.88,4.18,0,3,1,4.18,3.36,4.18a5.23,5.23,0,0,0,2.75-.84Z"/><path class="cls-1" d="M77.12,167.51c0-3.72,1.95-5.51,5.31-5.51a8,8,0,0,1,2.47.36l-.12,1.29a8.19,8.19,0,0,0-2.21-.34c-2.65,0-3.84,1.11-3.84,4.2,0,2.89,1.07,4.14,3.72,4.14a18.05,18.05,0,0,0,2.25-.22c.18,0,.3,0,.34.3a5.22,5.22,0,0,1,0,.62c0,.24-.08.3-.36.36a12.15,12.15,0,0,1-2.45.26C78.85,173,77.12,171,77.12,167.51Z"/><path class="cls-1" d="M94,166.11a3.29,3.29,0,0,0-.46-2.11,2.27,2.27,0,0,0-1.91-.68,6.58,6.58,0,0,0-3.48,1.25v7.72c0,.22-.06.56-.8.56s-.76-.34-.76-.56V158h1.57v5.33A6.64,6.64,0,0,1,92,162a3.67,3.67,0,0,1,2.61.88,3.8,3.8,0,0,1,1,2.91v6.47c0,.22,0,.56-.78.56s-.78-.34-.78-.56Z"/><path class="cls-1" d="M98.08,162.55a11.45,11.45,0,0,1,3.38-.54c1.71,0,2.73.32,3.36,1a3.65,3.65,0,0,1,.84,2.71v3.6c0,1.65.16,2.91.16,3.11s-.1.44-.64.44-.68-.14-.76-.46l-.2-.82a5.31,5.31,0,0,1-3.66,1.43c-2.07,0-3.44-1.25-3.44-3,0-2,1.47-3.3,4.36-3.3a12.25,12.25,0,0,1,2.61.28v-1.09a2.6,2.6,0,0,0-.5-1.89,3.27,3.27,0,0,0-2.33-.64,10.79,10.79,0,0,0-3.09.54Zm.6,7.34c0,1.13.74,1.91,2.23,1.91a4.53,4.53,0,0,0,3.18-1.41v-2.33a12.18,12.18,0,0,0-2.29-.24C99.76,167.81,98.68,168.46,98.68,169.88Z"/><path class="cls-1" d="M115.2,166.11a3.29,3.29,0,0,0-.46-2.11,2.27,2.27,0,0,0-1.91-.68,6.58,6.58,0,0,0-3.48,1.25v7.72c0,.22-.06.56-.8.56s-.76-.34-.76-.56V162.21h1.41l.08,1.19a6.78,6.78,0,0,1,3.92-1.39,3.67,3.67,0,0,1,2.61.88,3.8,3.8,0,0,1,1,2.91v6.47c0,.22,0,.56-.78.56s-.78-.34-.78-.56Z"/><path class="cls-1" d="M126.17,171.89a5.18,5.18,0,0,1-3.16,1c-2.81,0-4.56-1.91-4.56-5.33v-.1c0-3.82,2.31-5.43,5.55-5.43a13,13,0,0,1,3.74.62v9.91a5.16,5.16,0,0,1-1.17,3.72,4.58,4.58,0,0,1-3.5,1.15,10.87,10.87,0,0,1-2.75-.3c-.2-.06-.3-.14-.3-.42a2.8,2.8,0,0,1,0-.5c.06-.28.16-.38.28-.38s.28,0,.54.08a12.7,12.7,0,0,0,2,.18,3.23,3.23,0,0,0,2.51-.68,3.77,3.77,0,0,0,.78-2.75Zm0-8.3a7.73,7.73,0,0,0-2.23-.34c-2.67,0-3.88,1.37-3.88,4.18,0,3,1,4.18,3.36,4.18a5.23,5.23,0,0,0,2.75-.84Z"/><path class="cls-1" d="M134.73,173a5.44,5.44,0,0,1-4.06-1.29,5.83,5.83,0,0,1-1.25-4.16v-.06c0-3.54,1.55-5.47,4.74-5.47,2.91,0,4.36,1.57,4.36,4.7,0,.3,0,.88-.08,1.27H131a4,4,0,0,0,.78,2.83c.58.58,1.41.84,3.07.84a13.14,13.14,0,0,0,2.17-.22,2.84,2.84,0,0,1,.42-.06c.18,0,.22.06.24.32a5.11,5.11,0,0,1,.06.62c0,.24,0,.28-.32.36A12.57,12.57,0,0,1,134.73,173Zm2.19-6.27a2.14,2.14,0,0,0,0-.3c0-2-.82-3.16-2.77-3.16-2.19,0-3.05,1.31-3.13,3.46Z"/><path class="cls-1" d="M145.36,163.43h-1.75c-.3,0-.4-.1-.4-.54s.1-.54.4-.56l1.75-.12v-.86a3.78,3.78,0,0,1,.76-2.63,3.49,3.49,0,0,1,2.65-.88,7.2,7.2,0,0,1,1.79.2l-.06,1.21a6.19,6.19,0,0,0-1.37-.16,2.36,2.36,0,0,0-1.79.48c-.28.3-.42.72-.42,1.71v.94h3.22l-.06,1.23h-3.15v8.84c0,.22,0,.56-.78.56s-.78-.34-.78-.56Z"/><path class="cls-1" d="M150.81,167.43c0-3.62,1.83-5.43,4.94-5.43,3.28,0,4.94,1.81,4.94,5.41v.1c0,3.62-1.67,5.47-4.94,5.47-3.11,0-4.94-1.85-4.94-5.47Zm4.94,4.3c2.23,0,3.34-1.43,3.34-4.26s-1.09-4.22-3.34-4.22-3.34,1.23-3.34,4.22C152.41,170.31,153.44,171.73,155.75,171.73Z"/><path class="cls-1" d="M164,172.28c0,.22-.06.56-.8.56s-.76-.34-.76-.56V162.21h1.37l.14,2.41a7,7,0,0,1,4.16-2.61v1.69A7.25,7.25,0,0,0,164,166Z"/><path class="cls-1" d="M180.59,171.89a5.18,5.18,0,0,1-3.16,1c-2.81,0-4.56-1.91-4.56-5.33v-.1c0-3.82,2.31-5.43,5.55-5.43a13,13,0,0,1,3.74.62v9.91a5.16,5.16,0,0,1-1.17,3.72,4.58,4.58,0,0,1-3.5,1.15,10.87,10.87,0,0,1-2.75-.3c-.2-.06-.3-.14-.3-.42a2.8,2.8,0,0,1,0-.5c.06-.28.16-.38.28-.38s.28,0,.54.08a12.7,12.7,0,0,0,2,.18,3.23,3.23,0,0,0,2.51-.68,3.77,3.77,0,0,0,.78-2.75Zm0-8.3a7.73,7.73,0,0,0-2.23-.34c-2.67,0-3.88,1.37-3.88,4.18,0,3,1,4.18,3.36,4.18a5.23,5.23,0,0,0,2.75-.84Z"/><path class="cls-1" d="M183.84,167.43c0-3.62,1.83-5.43,4.94-5.43,3.28,0,4.94,1.81,4.94,5.41v.1c0,3.62-1.67,5.47-4.94,5.47-3.11,0-4.94-1.85-4.94-5.47Zm4.94,4.3c2.23,0,3.34-1.43,3.34-4.26s-1.09-4.22-3.34-4.22-3.34,1.23-3.34,4.22C185.45,170.31,186.48,171.73,188.79,171.73Z"/><path class="cls-1" d="M195.14,167.43c0-3.62,1.83-5.43,4.94-5.43,3.28,0,4.94,1.81,4.94,5.41v.1c0,3.62-1.67,5.47-4.94,5.47-3.11,0-4.94-1.85-4.94-5.47Zm4.94,4.3c2.23,0,3.34-1.43,3.34-4.26s-1.09-4.22-3.34-4.22-3.34,1.23-3.34,4.22C196.74,170.31,197.77,171.73,200.08,171.73Z"/><path class="cls-1" d="M214.21,158h1.57v13.89c0,.26,0,.3-.46.46a13.25,13.25,0,0,1-3.76.6c-3.26,0-5.12-1.73-5.12-5.49v-.1c0-2.83,1.53-5.39,4.86-5.39a7,7,0,0,1,2.91.66Zm0,5.85a6,6,0,0,0-2.71-.62c-2,0-3.46,1.13-3.46,4.2,0,2.75.78,4.28,3.58,4.28a11.73,11.73,0,0,0,2.59-.32Z"/></g></svg>