<svg xmlns="http://www.w3.org/2000/svg" viewBox="0 0 142.21 188.43"><defs><style>.cls-1{fill:#fff;fill-rule:evenodd;}</style></defs><title>client_3</title><g id="CH4"><polygon class="cls-1" points="106.73 18.91 106.73 165.13 86.78 165.13 86.78 42.69 106.73 18.91 106.73 18.91"/><polygon class="cls-1" points="39 188.43 39 168.47 59.37 168.47 59.37 188.43 39 188.43 39 188.43"/><polygon class="cls-1" points="110 129.28 110 109.33 142.21 109.33 142.21 129.28 110 129.28 110 129.28"/><polygon class="cls-1" points="86.36 188.43 86.36 168.47 129.42 168.47 129.42 188.43 86.36 188.43 86.36 188.43"/><polygon class="cls-1" points="62.64 188.33 62.64 132.36 82.59 132.36 82.59 188.33 62.64 188.33 62.64 188.33"/><polygon class="cls-1" points="62.65 105.4 62.65 33.42 82.59 9.54 82.59 105.4 62.65 105.4 62.65 105.4"/><polygon class="cls-1" points="2.62 105.4 59.14 37.62 59.14 68.92 28.8 105.4 2.62 105.4 2.62 105.4"/><polygon class="cls-1" points="86.48 4.84 90.52 0 106.24 12.28 86.48 36.04 86.48 4.84 86.48 4.84"/><polygon class="cls-1" points="0 129.28 0 109.33 82.69 109.33 82.69 129.28 0 129.28 0 129.28"/></g></svg>