<svg xmlns="http://www.w3.org/2000/svg" viewBox="0 0 204.55 70.54"><defs><style>.cls-1{fill:#fff;}</style></defs><title>client_4</title><g id="EAT"><polyline class="cls-1" points="54.6 0 54.6 15.2 21.84 15.2 21.84 25.38 52.39 25.38 52.39 40.29 21.84 40.29 21.84 54.02 57.41 54.02 57.41 68.92 0 68.92 0 0 54.6 0"/><path class="cls-1" d="M88,0,61.69,68.92H85.15l3-9.74h24.06l3,9.74h23.47L112.75,0Zm12.4,19.63L107.59,44H92.83l7.53-24.35"/><polyline class="cls-1" points="188.76 0 188.76 16.97 171.19 16.97 171.19 68.92 149.5 68.92 149.5 16.97 131.94 16.97 131.94 0 188.76 0"/><path class="cls-1" d="M185.8,61.1a9.37,9.37,0,1,1,9.3,9.45,9.26,9.26,0,0,1-9.3-9.45"/></g></svg>