<svg xmlns="http://www.w3.org/2000/svg" viewBox="0 0 241.57 190.12"><defs><style>.cls-1{fill:#fff;}</style></defs><title>client_15</title><g id="EAT"><path class="cls-1" d="M116.16,106.46c-.26-4.62-1.13-9.84-1.44-14.71a32.68,32.68,0,0,1-.13-4.36,85.4,85.4,0,0,1,9-.71c0,.09,2.14,21.89,2.64,47.68-.67,0-1.72-.53-4.27-2.78s-5.49-7.31-8.24-11.14-6.29-9.72-8.88-13.66c.06,5.42,1,12.6,1.29,18,.07,1.16.52,5.21.52,6.22-3.46-.05-4.48-.59-9.23-.53-.19-1.13-3.72-39.46-4.34-55.7,1.19.46,21.18,28.72,23,31.66"/><path class="cls-1" d="M44.85,84.84c1.91,0,5.39.09,6.95.88,0,.29-2.84,4.63-1.22,7,.84,0,2.15-.76,3.2-1.55,1.57-1.17,3.69-2.45,3.5-5.32a4.27,4.27,0,0,0-1.6-2.64c-2.41-1.9-5.3-1.75-9-.88-3.08.72-7.19,1.73-8.33,4.4a8.84,8.84,0,0,0-.92,4.79c1.16,5.56,7,7.54,11.29,10.79a26.72,26.72,0,0,1,7.16,8.2c4.06,7.64,1.1,16.73-.73,20.16-2.49,4.65-9.48,8.28-14.28,9.23A26.45,26.45,0,0,1,27.55,139a21.26,21.26,0,0,1-7.35-3.27c-4.41-3.25-8.62-11.58-6.28-19.22.23-.76,3.66-8.72,12-10.23,5.66-1,10.13,1.33,13.64,3.94,5.18,3.84,5.73,8.78,4.51,12.8a15.37,15.37,0,0,1-1.85,4c-2.44-.57-6.18-1.62-8.71-2.12,1.29-2.34,2.58-6.14.26-7.91-1.4-1.07-4.84-2.71-7.14-1.45C24,117,24.37,122.24,25.36,124c3,5.44,11.8,8,16.91,6.6,2.79-.79,4.74-3.66,5.2-7.2.5-3.88.52-7.13-.92-9.44-2.92-4.68-9-8.31-13.55-12-2.8-2.27-6.24-5.73-7.6-9.42a9.15,9.15,0,0,1-.86-3.74,15.68,15.68,0,0,1,1.72-6.47c1.33-3,3.59-4.93,7.35-6.92,4.11-2.19,13.35-3.3,17.32-3.23,4.4.08,10.8,1.38,13.28,4.1s3.38,7.64,2.5,11.91A14.69,14.69,0,0,1,60,97.74c-2.6,1.58-7.61,2.21-9.85,2-1.6-.18-7.38-2.34-7.34-6.9,0-1.74.58-5.67,2.07-7.95"/><path class="cls-1" d="M90.48,112.12c1.59,7.38,6.89,24.77,7.13,25.52-.49.21-7,2.66-8.62,3.13-1.36-2.16-6.56-23.66-7.46-29a48.57,48.57,0,0,0-8.31.5,118,118,0,0,0-4.47,20.33c-2.37.11-10,.26-9.9,0,.3-1.38,5-16.64,5.27-17.79,1.18-5.05,10.48-39.91,11.3-41.24a26.42,26.42,0,0,1,8.16,2.95c.15,1.48,6,31.72,6.89,35.6M75,105.61c1.18,0,5.72-.19,6.39-.27-.38-1.92-2-16-2.87-17.68-.36,1.71-3.18,16.22-3.53,17.95"/><path class="cls-1" d="M222.77,107.11c-6-4.7-13.55-1.22-16.35,1.31-3,2.68-2.58,8-2.58,8h0c.49,2.32,1.95,4.39,4.21,4.69a29.88,29.88,0,0,0,5.79.1c.16-1.27.78-3,1.23-5.6-.75-.26-3.88-.41-4.65-.72.38-1.45,1.63-2,2.94-2.52a3.5,3.5,0,0,1,3.36,1,8,8,0,0,1,2.12,7.73c-.73,2.32-3.58,4.23-6.51,4.7s-6.43.29-8.32-2.71-3-10.23-4.46-14.85c-3.22-10-11.87-20.56-12.8-21.47C178.91,100,170,125.19,169.32,126.31l-2.64,5.6c1.41-.18,8-1.46,11.77-1.79,0,0,4.4-15.08,4.64-15.38.31,0,7.15,0,9.32-.3.7,7.18,2.61,15.37,7.73,17.47s14.08,1.28,18.06-.53c.61-.28,5.49-2.69,7.61-6.73,1.29-2.45,1.56-5.74,1.61-8a11,11,0,0,0-4.65-9.55m-38.38,2.1c.47-1.7,2.64-7.35,3.25-9.18.14.25,3.83,5.49,4.11,9-1,0-6.34.24-7.35.22"/><path class="cls-1" d="M216.15,92.21a4.91,4.91,0,0,1,1.86.34,4.41,4.41,0,0,1,1.51,1,4.48,4.48,0,0,1,1,1.52,5.17,5.17,0,0,1,.37,2,5.24,5.24,0,0,1-.36,2,4.46,4.46,0,0,1-2.52,2.5,5.14,5.14,0,0,1-3.73,0,4.58,4.58,0,0,1-1.51-1,4.72,4.72,0,0,1-1-1.51,5.05,5.05,0,0,1-.37-2,5.13,5.13,0,0,1,.36-2,4.45,4.45,0,0,1,2.51-2.5,5.06,5.06,0,0,1,1.87-.35m0,8.64a3.79,3.79,0,0,0,1.46-.29,3.69,3.69,0,0,0,1.17-.8,3.61,3.61,0,0,0,.79-1.21,4.26,4.26,0,0,0,0-3.08,3.86,3.86,0,0,0-.79-1.22,3.69,3.69,0,0,0-1.18-.8,3.78,3.78,0,0,0-1.46-.28,3.69,3.69,0,0,0-1.46.29,3.57,3.57,0,0,0-1.17.8,3.75,3.75,0,0,0-.79,1.22,4.24,4.24,0,0,0,0,3.08,3.52,3.52,0,0,0,.79,1.21,3.59,3.59,0,0,0,2.64,1.08m-.57-1.8c0,.07-.05.13-.16.17a1.11,1.11,0,0,1-.39.07,1,1,0,0,1-.36-.07c-.1,0-.15-.09-.15-.17V94.73h2a2.37,2.37,0,0,1,.67.09,1.22,1.22,0,0,1,.49.29,1.1,1.1,0,0,1,.28.46,2.11,2.11,0,0,1,.09.61,1.7,1.7,0,0,1-.26,1,1.1,1.1,0,0,1-.71.5l.92,1.46s0,.09-.13.13a1.13,1.13,0,0,1-.39.06,1.77,1.77,0,0,1-.42,0,.36.36,0,0,1-.24-.16l-.73-1.41h-.56Zm0-2.17h.85a.6.6,0,0,0,.43-.13.44.44,0,0,0,.13-.23,1.61,1.61,0,0,0,0-.31,1.21,1.21,0,0,0,0-.26.5.5,0,0,0-.1-.2.67.67,0,0,0-.5-.17h-.81Z"/><path class="cls-1" d="M150.18,18.77c.33-.59-4.91-4.09-5.92-4.36-1.11.94-8.64,10.74-10.09,11.84-1.77-4.86-2.79-11.05-4.44-15.45a52.68,52.68,0,0,0-9.09-1c2.1,8.48,4.53,16.64,6.26,25.48-3.58,4.8-10.54,14.54-11.32,15.88,1.44.74,7.31,3,8.58,3.47.35-.56,3.82-6.44,6-8.31,1.41,4.35,3.06,8.47,4.64,12.64a93.88,93.88,0,0,1,10.28-1.3c-1.42-5.45-6.3-15.77-7.85-22.18,2.58-3,12.42-15.7,13-16.71"/><path class="cls-1" d="M117.12,19c-.54,3-.69,9.57-.79,10.14-.62.15-10.3.8-11.92.9a30.53,30.53,0,0,0-.81,6c2.83-.14,11.62-.63,13.19-.37.08,1.38-.72,6.81-.92,8.76-3.33.19-11,.78-13.25,1.11a58.69,58.69,0,0,0-1,9.8c4.2-.28,15.94-1.22,16.78-.85.07,2,.07,7.73.39,10.44-1.63.08-10.49.22-14.54.4s-11.26-.31-12.17,0a45.88,45.88,0,0,1,.2-12c.3-2.45,2.83-18.25,3.49-23.11.26-1.87,1.21-7.87,1.42-9.23,2.53-.7,14.13-1.22,20-2"/><path class="cls-1" d="M115.71,12.24a150,150,0,0,0-22.18.91,47.51,47.51,0,0,0-1.23,5.32c-.16.87-3.42,18.82-3.84,22.88-.49,4.87-1.1,9.34-1.46,14.4a99,99,0,0,0,.61,14.8C86.13,70,76.77,67.68,76,67.64c-.08-1,0-.7-.08-1.62-.33-4.56.79-10.35,1.41-15.45C78.85,38.49,80.9,26,83.21,14.85c-6.27.72-11.69,1.63-17.63,4.8-2,1.43-1.56,3.18-1.34,4.83.19,1.41,1.67,3,2.82,3s3.5-2.28,1.61-3.41a6.05,6.05,0,0,0-1.21-.4A15,15,0,0,1,73,19.51c.56.56,2.55,2,3,3.77,1,4.39-2.25,8.05-5.45,9.43C67,34.23,60.68,32.52,58,29.5c-3.81-4.25-1.36-14.08,2.83-17.26,2.75-2.08,10.83-4.15,13.25-4.6,4.6-.85,9.82-2.15,14.32-2.85,10.77-1.67,21.58-3.58,30-4,.16,0-1.89,7.72-2.7,11.46"/><path class="cls-1" d="M177.61,12.66c.1.91-1.61,9.31-1.94,12.89-2.11-.8-8.25-5.06-11.2-6-1.18,13.93-2.39,27.17-2.75,40.73,0,1.93-.54,7.51-.65,8.87-.69,0-8.36-.39-10.93-.49-.2-19,2.75-36.43,5.31-53.19-1.86-1-10.14-3.37-12.19-3.86-.69-.16-6.92-1.66-9.28-2-.16-2.93,1-8.74,1.55-9.63,1,.08,10.14,1.86,15.06,2.91,2.81.59,5.56,1.66,8.32,2.46,5.54,1.61,9.45,3.39,14.67,5.28.79.37,3.5,1.75,4,2"/><path class="cls-1" d="M183.13,75.94a205,205,0,0,0-26.06-2.68,9.82,9.82,0,0,1-9.41,4.93,9.14,9.14,0,0,1-7.29-5.06l-2.43.07c-2.45.08-4.92.26-7.58.3a181.62,181.62,0,0,0-24,2.59c.27,1.68,1.32,7.21,1.41,8,2.81-.3,22.79-2.93,23.21-2.78.06,4.67.5,8.38.3,12.74-.18,4,.1,20.07.13,20.46.32,4,0,10.68.15,13.56L165.2,128c0-4.39.67-11.34.79-14.09.15-3.26.29-6.53.12-9.91a181.53,181.53,0,0,1,.7-21.28c7.17-.14,20.94,1.59,23.08,1.81.66-2.29,1.42-5.66,2.23-7.78C190.53,76.48,184.63,76.06,183.13,75.94Zm-29,38s-.84,4.94-5.77,4.83c-4.93.12-5.77-4.83-5.77-4.83-6.76-2.11-3.79-8.76-3.79-8.76-1.76-3.76-.24-5.66.94-6.5s1,.28,1,.28-1.75,4.51,1,6.56,5.52-.38,6.64-.2c1.12-.18,3.92,2.26,6.65.2S156,99,156,99s-.19-1.13,1-.28,2.7,2.74.94,6.5C157.89,105.19,160.86,111.83,154.1,113.94Zm-4.64-17.51c0-.56.62-1.09,1.93-.7s2.47.7,2.11,1.62S149.42,97,149.46,96.43Zm2.45,3.3a6.82,6.82,0,0,0-2.16-.64c0-.31.17-1.31,1.37-.88A1.16,1.16,0,0,1,151.91,99.74Zm-2.25.6s.49-.08,1.52.93,1.51.87,2,.63.46.49.46.49,0,2.46-3.38,1.67a3.23,3.23,0,0,1-1.91-1.49,3.22,3.22,0,0,1-1.91,1.49c-3.35.79-3.38-1.67-3.38-1.67s0-.72.46-.49.93.38,2-.63,1.52-.93,1.52-.93a1.6,1.6,0,0,0,2.67,0Zm-4.35-2.13c1.2-.42,1.37.58,1.37.88a6.84,6.84,0,0,0-2.16.64A1.16,1.16,0,0,1,145.32,98.21ZM143,97.49c-.36-.91.69-1.2,2.11-1.62s1.89.14,1.93.7S143.32,98.4,143,97.49Zm17.59-2.32a2.41,2.41,0,0,1-2.45-2.37,2.3,2.3,0,0,1,.26-1.06c-.7-1.35-2.67-.8-2.67-.8a2.39,2.39,0,0,1,1.27,3.46c-1.05,1.93-3.13.74-3.13.74A12.8,12.8,0,0,0,146.08,94c-2,.21-5.67,2.57-6.5-.13s2.94-3.52,2.94-3.52c-.36-3,3.34-3.24,6.54-4.57s5.45-2,8.52.49c2.24,1.82,2.88,3.41,2.89,4.19h.07a2.37,2.37,0,1,1,0,4.75Z"/><path class="cls-1" d="M3.54,173.86a.56.56,0,0,1,.57.54l0,14.88a.56.56,0,0,1-.57.57h-3A.57.57,0,0,1,0,189.3V174.42a.56.56,0,0,1,.57-.55Z"/><path class="cls-1" d="M20.15,189.3a.56.56,0,0,1-.57.55H16.13a1.16,1.16,0,0,1-1.19-.57L10.22,180v9.31a.53.53,0,0,1-.55.55h-3a.55.55,0,0,1-.57-.54l0-14.91a.56.56,0,0,1,.57-.55h4.12a.78.78,0,0,1,.78.45l4.47,9V174.4a.56.56,0,0,1,.55-.55h3a.58.58,0,0,1,.57.55Z"/><path class="cls-1" d="M31.53,182.91h3.38l-1.7-5.83Zm4.56-9.08a.73.73,0,0,1,.71.57l4.7,14.49a1.83,1.83,0,0,1,.07.45.49.49,0,0,1-.53.48h-3.7a.65.65,0,0,1-.57-.55L36,186.75H30.41l-.73,2.54a.66.66,0,0,1-.57.55h-3.5a.48.48,0,0,1-.53-.48,2,2,0,0,1,.07-.46l4.67-14.5a.73.73,0,0,1,.71-.57Z"/><path class="cls-1" d="M58.87,183.23c.07-.16.16-.34.41-.34a.89.89,0,0,1,.34.09l2.65,1.17c.25.11.41.25.41.43a3.81,3.81,0,0,1-.07.48c-.27,1.88-3.27,5.11-8,5.11A8.26,8.26,0,0,1,46,181.85a8.35,8.35,0,0,1,8.66-8.38c4.64,0,7.64,3.19,8,5.18,0,.14,0,.34,0,.39s-.16.32-.41.43l-2.65,1.17a.83.83,0,0,1-.32.09.44.44,0,0,1-.43-.34c-.44-1.09-1.29-3.15-4-3.15a4.57,4.57,0,0,0,0,9.14c2.7,0,3.56-2,4-3.16"/><path class="cls-1" d="M78.17,173.79a.56.56,0,0,1,.57.55l0,14.89a.57.57,0,0,1-.57.57h-3a.57.57,0,0,1-.57-.57v-5.49H68.83v5.49a.57.57,0,0,1-.57.57h-3a.57.57,0,0,1-.57-.57l0-14.89a.56.56,0,0,1,.57-.55h3a.56.56,0,0,1,.57.55v5.51h5.81v-5.51a.56.56,0,0,1,.57-.55Z"/><path class="cls-1" d="M85.68,177.48v3.25h3.18a1.71,1.71,0,0,0,1.9-1.67c0-1.08-.87-1.58-1.85-1.58Zm-3.53,12.31a.55.55,0,0,1-.57-.55l0-14.91a.54.54,0,0,1,.57-.55h7.55a5,5,0,0,1,5.4,5,4.5,4.5,0,0,1-2.49,4.09L95.8,189a.74.74,0,0,1,.11.37c0,.23-.16.41-.48.41H92a.81.81,0,0,1-.92-.59l-2.27-5.05H85.68v5.08a.57.57,0,0,1-.57.57Z"/><path class="cls-1" d="M101.17,173.76a.56.56,0,0,1,.57.55l0,14.88a.56.56,0,0,1-.57.57h-3a.56.56,0,0,1-.57-.57l0-14.89a.56.56,0,0,1,.57-.54Z"/><path class="cls-1" d="M110.28,173.38a6.73,6.73,0,0,1,4.89,1.85c.5.52.6.82.6,1a.84.84,0,0,1-.34.62l-1.69,1.53a1,1,0,0,1-.64.25.78.78,0,0,1-.62-.34,3,3,0,0,0-2.29-1.14c-.87,0-1.51.35-1.51,1.06,0,.5.32.87,1.1,1.21,1.26.57,3,.77,4.37,1.58a4.33,4.33,0,0,1,2.24,3.93c0,3-2.35,5.17-6.33,5.18a7.64,7.64,0,0,1-5.81-2.21,2.09,2.09,0,0,1-.55-1.12c0-.23.14-.39.46-.64l1.8-1.45a.81.81,0,0,1,.55-.2c.32,0,.48.16.71.41a3.73,3.73,0,0,0,2.9,1.5c1.14,0,1.76-.5,1.76-1.17,0-1.3-2.36-1.44-4.44-2.33a4.65,4.65,0,0,1-3.23-4.41c0-3.13,2.6-5.12,6.06-5.13"/><path class="cls-1" d="M117.82,177.62a.57.57,0,0,1-.57-.57v-2.74a.57.57,0,0,1,.57-.57l13.53,0a.57.57,0,0,1,.57.58V177a.57.57,0,0,1-.57.57h-4.71v11.55a.57.57,0,0,1-.57.58h-3a.57.57,0,0,1-.57-.57V177.62Z"/><path class="cls-1" d="M141,189.71c-.39,0-.69-.07-.8-.55l-2.71-8.82v8.82a.53.53,0,0,1-.55.55h-3a.53.53,0,0,1-.55-.55l0-14.91a.56.56,0,0,1,.57-.55h4.94a.73.73,0,0,1,.8.5l2.73,9.23,2.73-9.24a.72.72,0,0,1,.8-.51h4.92a.56.56,0,0,1,.57.55l0,14.91a.53.53,0,0,1-.55.55h-3a.53.53,0,0,1-.55-.55v-8.83l-2.69,8.83c-.11.48-.41.55-.8.55Z"/><path class="cls-1" d="M159.31,182.77h3.38l-1.7-5.83Zm4.56-9.09a.74.74,0,0,1,.71.57l4.71,14.49a2,2,0,0,1,.07.46.48.48,0,0,1-.53.48h-3.7a.65.65,0,0,1-.57-.55l-.74-2.54h-5.63l-.73,2.54a.66.66,0,0,1-.57.55h-3.5a.48.48,0,0,1-.53-.48,2,2,0,0,1,.07-.46l4.67-14.5a.74.74,0,0,1,.71-.57Z"/><path class="cls-1" d="M176.7,173.3a6.7,6.7,0,0,1,4.89,1.84c.5.52.6.82.6,1a.86.86,0,0,1-.34.62l-1.69,1.54a1,1,0,0,1-.64.25.78.78,0,0,1-.62-.34,2.93,2.93,0,0,0-2.29-1.14c-.87,0-1.51.35-1.51,1.05,0,.5.32.87,1.1,1.21,1.26.57,3,.78,4.37,1.57a4.34,4.34,0,0,1,2.24,3.93c0,3-2.35,5.17-6.32,5.18a7.64,7.64,0,0,1-5.81-2.21,2.1,2.1,0,0,1-.55-1.12c0-.23.14-.39.46-.64l1.81-1.45a.82.82,0,0,1,.55-.21c.32,0,.48.16.71.41a3.72,3.72,0,0,0,2.91,1.5c1.14,0,1.76-.5,1.76-1.17,0-1.3-2.36-1.44-4.44-2.32a4.67,4.67,0,0,1-3.23-4.42c0-3.13,2.6-5.12,6.05-5.12"/><path class="cls-1" d="M199.12,181.35l4.47,7.54a.91.91,0,0,1,.16.43c0,.23-.23.32-.43.33h-3.43c-.48,0-.75,0-1-.46l-3.26-5.6h-2.29v5.49a.57.57,0,0,1-.57.57h-3a.56.56,0,0,1-.57-.57l0-14.89a.56.56,0,0,1,.57-.55h3a.56.56,0,0,1,.57.55v5.74h1.83l3.56-5.72a1,1,0,0,1,1-.58h3.52c.23,0,.41.11.41.32a.87.87,0,0,1-.16.41Z"/><path class="cls-1" d="M219.36,189.07a.56.56,0,0,1-.57.55h-3.45a1.17,1.17,0,0,1-1.19-.57l-4.72-9.28v9.3a.53.53,0,0,1-.55.55h-3a.55.55,0,0,1-.57-.55l0-14.91a.57.57,0,0,1,.57-.55H210a.78.78,0,0,1,.78.46l4.47,9v-8.91a.56.56,0,0,1,.55-.55h3a.58.58,0,0,1,.57.55Z"/><path class="cls-1" d="M224.91,173.62a.56.56,0,0,1,.57.54l0,14.88a.57.57,0,0,1-.57.57h-3a.57.57,0,0,1-.57-.57l0-14.88a.56.56,0,0,1,.57-.55Z"/><path class="cls-1" d="M227.46,177.49a.56.56,0,0,1-.57-.57v-2.75a.57.57,0,0,1,.57-.57H241a.56.56,0,0,1,.57.57v2.74a.57.57,0,0,1-.57.58h-4.71V189a.56.56,0,0,1-.57.57h-3a.57.57,0,0,1-.57-.58V177.49Z"/><path class="cls-1" d="M55.58,158.12l-3.22.11.28,8.34,3.22-.11a4,4,0,0,0,3.75-4.34,3.92,3.92,0,0,0-4-4m.51,12.28-6.91.23a.58.58,0,0,1-.6-.56L48.07,155a.57.57,0,0,1,.56-.57l6.91-.23c4.77-.17,8.27,2.94,8.43,7.78a7.8,7.8,0,0,1-7.88,8.43"/><path class="cls-1" d="M73.4,166.34a4.65,4.65,0,0,0-.31-9.27,4.64,4.64,0,0,0,.31,9.27m-.47-13.09A8.47,8.47,0,1,1,64.46,162a8.55,8.55,0,0,1,8.47-8.76"/><path class="cls-1" d="M95.56,153.16a.68.68,0,0,1,.63-.44l3.66-.13a.5.5,0,0,1,.57.47,1,1,0,0,1-.1.47l-5.16,9.9.17,5a.57.57,0,0,1-.53.6l-3,.1a.57.57,0,0,1-.6-.56l-.17-5L85.17,154a1,1,0,0,1-.13-.46.5.5,0,0,1,.54-.5L89.4,153a.7.7,0,0,1,.66.4L93,158.7Z"/><path class="cls-1" d="M108.4,165.07a4.65,4.65,0,0,0-.31-9.27,4.64,4.64,0,0,0,.31,9.27m-.47-13.1a8.47,8.47,0,1,1-8.47,8.75,8.54,8.54,0,0,1,8.47-8.75"/><path class="cls-1" d="M128.28,161.83l-.32-9.59a.57.57,0,0,1,.56-.58l3-.1a.56.56,0,0,1,.59.54l.32,9.43c.17,4.77-2.88,6.68-6.68,6.81s-7-1.57-7.13-6.35l-.32-9.43a.56.56,0,0,1,.56-.57l3-.11a.57.57,0,0,1,.6.54l.33,9.59a2.74,2.74,0,0,0,5.47-.19"/><path class="cls-1" d="M138.86,155.09l.11,3.29,3.22-.11a1.73,1.73,0,0,0,1.86-1.76c0-1.09-.93-1.57-1.93-1.54Zm-3.17,12.59a.56.56,0,0,1-.6-.54L134.58,152a.55.55,0,0,1,.56-.57l7.64-.26a5.1,5.1,0,0,1,5.64,4.87A4.57,4.57,0,0,1,146,160.3l3.45,6.12a.78.78,0,0,1,.13.37c0,.23-.15.42-.47.43l-3.47.12a.82.82,0,0,1-.95-.57l-2.47-5-3.17.11.17,5.14a.57.57,0,0,1-.56.6Z"/><path class="cls-1" d="M162.3,159.93l-3.82.13.11,3.33,3.82-.13c1.32,0,2-.74,1.93-1.72a1.76,1.76,0,0,0-2-1.62m-.79-6.12-3.25.11.1,2.94,3.25-.11c1.42,0,1.83-.8,1.8-1.57s-.46-1.42-1.9-1.37m1.9,12.9-8.3.28a.56.56,0,0,1-.6-.54L154,151.35a.54.54,0,0,1,.56-.57l7.49-.25c4.22-.14,5.57,2.2,5.63,4a3.48,3.48,0,0,1-1.93,3.29,4,4,0,0,1,2.94,3.94c.08,2.41-1.48,4.83-5.28,5"/><path class="cls-1" d="M173.16,150.15a.57.57,0,0,1,.6.54l.51,15.08a.58.58,0,0,1-.56.6l-3,.1a.57.57,0,0,1-.6-.56l-.51-15.09a.57.57,0,0,1,.56-.58Z"/><path class="cls-1" d="M176.11,154a.57.57,0,0,1-.6-.56l-.09-2.78a.57.57,0,0,1,.56-.59l13.72-.47a.58.58,0,0,1,.6.56l.09,2.78a.57.57,0,0,1-.55.6l-4.78.16.4,11.7a.57.57,0,0,1-.56.6l-3,.1a.57.57,0,0,1-.6-.56l-.39-11.7Z"/></g></svg>