<svg xmlns="http://www.w3.org/2000/svg" viewBox="0 0 246.96 74.69"><defs><style>.cls-1{fill:#fff;}</style></defs><title>client-15</title><g id="Arcadia"><path class="cls-1" d="M86.64.12a3.25,3.25,0,0,0,.82.07,4.85,4.85,0,0,1,1.39.29,1.9,1.9,0,0,1,.61.37,1.31,1.31,0,0,1,.39,1.4,2.21,2.21,0,0,1-.48.89,8.43,8.43,0,0,1-1.13,1.1,25,25,0,0,1-3.17,2.15c-1.44.84-2.92,1.6-4.43,2.32-1.69.81-3.41,1.57-5.15,2.29q-3.4,1.42-6.85,2.7c-1.94.72-3.88,1.42-5.84,2.08-1.41.47-2.82,1-4.24,1.42q-3.78,1.24-7.6,2.36-3.42,1-6.87,1.93c-1.75.47-3.51.93-5.27,1.36-1.93.47-3.87.94-5.81,1.35-1.36.29-2.72.58-4.08.86-.88.18-1.77.33-2.66.49a1.11,1.11,0,0,0-.62.31,9.13,9.13,0,0,0-2.22,3.4,4,4,0,0,0-.24,1.1,2.18,2.18,0,0,0,.68,1.83,3.63,3.63,0,0,0,1.15.7,7.86,7.86,0,0,0,1.89.47,14.52,14.52,0,0,0,2.81.13c.64,0,1.28,0,1.91-.1.38,0,.77,0,1.16-.08,1-.08,1.94-.18,2.91-.3,1.27-.15,2.53-.35,3.79-.55l.77-.14c.17,0,.2-.06.2-.21a5,5,0,0,1,1.07-3,11.28,11.28,0,0,1,2.54-2.49,15.77,15.77,0,0,1,4.39-2.27,14.22,14.22,0,0,1,2.92-.66,13.45,13.45,0,0,1,1.95-.12,6.13,6.13,0,0,1,1.59.22,2.86,2.86,0,0,1,1.18.63,1.87,1.87,0,0,1,.55,1.89,3.59,3.59,0,0,1-1.19,1.87,7.29,7.29,0,0,1-1.61,1,41.11,41.11,0,0,1-4.55,2,51.57,51.57,0,0,1-5.24,1.58l-1.5.35s-.11,0-.11.07,0,.08.09.11a2.7,2.7,0,0,0,.63.33,6.73,6.73,0,0,0,1.64.39,12.72,12.72,0,0,0,2,.12c.61,0,1.23,0,1.84-.1l1.76-.18,1.9-.25,2.19-.34c.94-.16,1.88-.31,2.81-.48q2-.38,4.09-.8c1.12-.23,2.23-.47,3.34-.71l5.5-1.19L74.87,29l.18,0a.07.07,0,0,1,.08.06c0,.11,0,.22,0,.34q0,2.5,0,5,0,.71,0,1.43a.83.83,0,0,0,0,.15.08.08,0,0,0,.06,0,.7.7,0,0,0,.15-.26A10.92,10.92,0,0,1,77,33.22a9,9,0,0,1,1.42-1.28A15.3,15.3,0,0,1,83,29.63a14.74,14.74,0,0,1,2.79-.58A13.11,13.11,0,0,1,88,29a13.62,13.62,0,0,1,3.84.84,7.72,7.72,0,0,1,1.52.74,6.27,6.27,0,0,1,2.41,2.95,7.4,7.4,0,0,1,.54,2.14c0,.17,0,.35.07.52.11,0,.09-.1.12-.15a14.21,14.21,0,0,1,1-1.77,9.34,9.34,0,0,1,2.39-2.47,15.34,15.34,0,0,1,4.38-2.19,14,14,0,0,1,2.79-.57,13.78,13.78,0,0,1,2.36,0,13.49,13.49,0,0,1,3.59.77,8.43,8.43,0,0,1,1.59.76,6.39,6.39,0,0,1,2.7,3.36,8.15,8.15,0,0,1,.46,2c0,.38,0,.75,0,1.12q0,9.81,0,19.63c0,.62-.08.53.54.53h3a.11.11,0,0,1,.12.12c0,.34,0,.68,0,1a.12.12,0,0,1-.12.12H103.79c-.39,0-.38,0-.37-.37s0-.5,0-.75,0-.15.16-.16h3.12c.37,0,.38,0,.38-.37q0-3.16,0-6.32c0-4.4,0-8.8,0-13.2a9.25,9.25,0,0,0-.27-2.46,3.54,3.54,0,0,0-.38-.9,2.35,2.35,0,0,0-1.16-1,4.17,4.17,0,0,0-1.2-.28,6.12,6.12,0,0,0-3.95.92,7.28,7.28,0,0,0-2.34,2.45,9.49,9.49,0,0,0-1.21,3.41,11.88,11.88,0,0,0-.14,1.91q0,7.67,0,15.34c0,.1,0,.2,0,.3s0,.17.19.17H100a.1.1,0,0,1,.09.1q0,.53,0,1.05a.1.1,0,0,1-.09.1H82.58c-.51,0-.47,0-.47-.46,0-.21,0-.43,0-.64s0-.17.19-.17h3.23c.19,0,.2,0,.21-.23s0-.18,0-.26q0-9.72,0-19.44A9.93,9.93,0,0,0,85.51,35a3.76,3.76,0,0,0-.31-.85,2.4,2.4,0,0,0-1.52-1.25,5.83,5.83,0,0,0-2.42-.17,6.08,6.08,0,0,0-3.1,1.34,7.37,7.37,0,0,0-1.79,2.11,9.68,9.68,0,0,0-1.18,3.58,14,14,0,0,0-.12,1.83q0,7.59,0,15.19c0,.47,0,.42.43.42h3.08c.09,0,.15,0,.15.13q0,.51,0,1a.12.12,0,0,1-.12.12H61.24c-.43,0-.41,0-.41-.41,0-.24,0-.48,0-.71s0-.15.16-.16h3.35a.12.12,0,0,0,.11-.12c0-.1,0-.2,0-.3q0-11.82,0-23.65a.8.8,0,0,0,0-.41,1.46,1.46,0,0,0-.52.08c-1.51.31-3,.64-4.52.93s-3.27.62-4.91.87c-1,.16-2,.33-3,.44-.77.09-1.54.19-2.31.27a22.75,22.75,0,0,1-3.75.08,8.16,8.16,0,0,1-2.7-.58A3.65,3.65,0,0,1,41,33.61a.26.26,0,0,0-.3-.1l-.85.15c-1,.18-1.92.32-2.89.45s-1.74.22-2.61.31-1.89.17-2.84.23c-.6,0-1.2,0-1.8.08a9.24,9.24,0,0,1-1,0,15.86,15.86,0,0,1-3.09-.36,6.27,6.27,0,0,1-2.23-1A3.41,3.41,0,0,1,22,31.3a4.26,4.26,0,0,1,0-1.57,7.71,7.71,0,0,1,1.16-2.79c.17-.28.37-.54.55-.81a.14.14,0,0,0,0-.1c0-.06-.08,0-.12,0L22,26.26l-1.82.26-2,.28L16.68,27l-1.83.19-.93.09-1.39.09c-.72,0-1.45.09-2.17.13-.54,0-1.08,0-1.62,0s-1.28,0-1.92,0c-.8,0-1.6-.08-2.39-.18a17.2,17.2,0,0,1-2.17-.41,5.23,5.23,0,0,1-1.51-.64,1.68,1.68,0,0,1-.66-.7.78.78,0,0,1,.13-.88.65.65,0,0,1,.65-.22,2.84,2.84,0,0,1,.81.28,15.37,15.37,0,0,0,1.44.65,10.3,10.3,0,0,0,2.5.64,27.26,27.26,0,0,0,4.12.2c.71,0,1.43,0,2.14-.08s1.52-.12,2.28-.19,1.35-.11,2-.18,1.42-.17,2.12-.26l1.94-.25L22,25l2.11-.33,1-.16a.82.82,0,0,0,.43-.21,29.06,29.06,0,0,1,2.76-2.14c2-1.37,4-2.6,6.1-3.78,2.37-1.34,4.79-2.57,7.23-3.76,2.21-1.09,4.46-2.12,6.71-3.11q4.73-2.08,9.55-3.93,4.15-1.6,8.37-3,3-1,6.1-1.89c2-.56,3.94-1.07,5.93-1.5C79.38.89,80.48.68,81.6.51,82.31.4,83,.33,83.76.25S85,.19,85.56.16a.57.57,0,0,0,.25,0ZM28,23.92h.11l2.72-.55c2.11-.43,4.21-.91,6.3-1.42q4.63-1.12,9.22-2.41Q52.21,17.91,58,16,61.3,15,64.61,13.8c3.74-1.32,7.46-2.72,11.11-4.26,2.18-.92,4.34-1.89,6.45-3,1.08-.55,2.15-1.12,3.19-1.76a24.84,24.84,0,0,0,2.18-1.47,3.72,3.72,0,0,0,.88-.92A1,1,0,0,0,88.59,2a.37.37,0,0,0-.21-.4,1.93,1.93,0,0,0-.57-.18,9.11,9.11,0,0,0-1.95-.06c-.7,0-1.39.13-2.09.19-.87.07-1.74.19-2.6.33-1.3.21-2.58.48-3.86.78-3.37.79-6.67,1.77-10,2.85C65.15,6.21,63,7,60.82,7.78s-4.45,1.69-6.65,2.59-4.25,1.78-6.35,2.72-3.9,1.78-5.82,2.71c-1.08.53-2.15,1.08-3.22,1.62Q35.54,19.08,32.41,21c-1.43.86-2.82,1.77-4.17,2.76C28.17,23.77,28.07,23.81,28,23.92Zm13.72,7.83c0,.17,0,.26.22.21l1-.23a52,52,0,0,0,6.53-2,39.19,39.19,0,0,0,4.21-1.89,3.78,3.78,0,0,0,1.39-1.18,1.68,1.68,0,0,0,.32-.71.64.64,0,0,0-.23-.64,1.56,1.56,0,0,0-.49-.27,4.33,4.33,0,0,0-1.33-.22,11.56,11.56,0,0,0-1.39.06,14.11,14.11,0,0,0-6.55,2.31,11,11,0,0,0-2.54,2.21A6.1,6.1,0,0,0,42,31,3.09,3.09,0,0,0,41.75,31.75Z"/><path class="cls-1" d="M247,32.15a6.58,6.58,0,0,0-1.38,0c-.21,0-.43,0-.64,0a12.63,12.63,0,0,0-4.16.92,9.79,9.79,0,0,0-5.24,5,11.26,11.26,0,0,0-1,3.48,15.83,15.83,0,0,0-.13,1.95q0,7.37,0,14.74c0,.11,0,.23,0,.34a.13.13,0,0,1-.15.14h-1.13c-.11,0-.15,0-.15-.17s0-.2,0-.3q0-13.25,0-26.5c0-.09,0-.18,0-.26s0-.17.15-.17h1.13a.13.13,0,0,1,.15.14c0,.11,0,.23,0,.34q0,2.42,0,4.85V37c.13,0,.13-.13.17-.2a9.27,9.27,0,0,1,1-1.69,9.66,9.66,0,0,1,3-2.75,12.57,12.57,0,0,1,4-1.45,16,16,0,0,1,3.28-.31H247Z"/><path class="cls-1" d="M149.77,46.59q0,4.06,0,8.12c0,.31,0,.63,0,.94a3.31,3.31,0,0,0,.08.56.94.94,0,0,0,.79.76,4,4,0,0,0,1.16,0,12.14,12.14,0,0,0,2-.35c.12,0,.19,0,.19.14,0,.35,0,.7,0,1.05a.28.28,0,0,1-.22.31,7.9,7.9,0,0,1-1,.24,8.67,8.67,0,0,1-1.31.12,4.15,4.15,0,0,1-1.59-.23,2.18,2.18,0,0,1-1.41-1.54,4.41,4.41,0,0,1-.14-1.23q0-1,0-1.92c0-.07,0-.15,0-.22l0,0a0,0,0,0,0-.07,0l-.15.22a11.17,11.17,0,0,1-5.21,4.38,16.25,16.25,0,0,1-4.15,1.14,22.19,22.19,0,0,1-2.58.23c-.39,0-.78,0-1.16,0a17.7,17.7,0,0,1-3.91-.44,10.53,10.53,0,0,1-3.41-1.43,7,7,0,0,1-3.09-4.58,7.09,7.09,0,0,1-.16-1.57c0-.23,0-.45,0-.68a7.05,7.05,0,0,1,1.2-3.86A6.76,6.76,0,0,1,128,44.66a10.24,10.24,0,0,1,3.23-1.08,21.74,21.74,0,0,1,3.1-.24c.89,0,1.78-.07,2.66-.11.54,0,1.08,0,1.62,0,.76,0,1.53,0,2.29-.08l1.61-.06a26,26,0,0,0,3.21-.3,5.49,5.49,0,0,0,1.26-.36,2,2,0,0,0,1.19-1.45,5.94,5.94,0,0,0,.14-1.23c0-.7,0-1.4,0-2.1a4.59,4.59,0,0,0-1-2.88,4.92,4.92,0,0,0-1.33-1.09,9.08,9.08,0,0,0-2.56-1,19.13,19.13,0,0,0-2.56-.39c-1.09-.1-2.17-.14-3.26-.15-.85,0-1.7,0-2.55.1a15.59,15.59,0,0,0-3.07.52,7.15,7.15,0,0,0-2.45,1.19,5.43,5.43,0,0,0-1.61,2,9.16,9.16,0,0,0-.73,2.63c-.05.38-.09.77-.14,1.16,0,.16,0,.18-.18.18h-1.13c-.11,0-.16-.06-.15-.17s0-.48,0-.71a11.49,11.49,0,0,1,.59-2.82,7.6,7.6,0,0,1,1.34-2.38,7.44,7.44,0,0,1,2.08-1.7,10.65,10.65,0,0,1,2.92-1.07,20.19,20.19,0,0,1,3.16-.4c1.06-.06,2.13-.06,3.19,0a27.56,27.56,0,0,1,3.81.36,14,14,0,0,1,3,.82,7.45,7.45,0,0,1,2.26,1.4A5.47,5.47,0,0,1,149.57,36a7.26,7.26,0,0,1,.2,1.71q0,4.42,0,8.83Zm-1.52-3.34a.43.43,0,0,0-.18.09,3.71,3.71,0,0,1-.94.46,8.93,8.93,0,0,1-1.2.31,25.88,25.88,0,0,1-3,.36c-.72.05-1.45.07-2.17.1l-.68,0-2.51.11c-.45,0-.9,0-1.35,0-.84.05-1.68.08-2.51.1a14.47,14.47,0,0,0-2.87.33,8,8,0,0,0-2.18.8,5.07,5.07,0,0,0-2.53,3.17,7.17,7.17,0,0,0-.14,3.34,5.62,5.62,0,0,0,2.12,3.44,8,8,0,0,0,2.42,1.26,14.55,14.55,0,0,0,4.1.68c.64,0,1.28,0,1.91,0a20.17,20.17,0,0,0,3.09-.41,13.35,13.35,0,0,0,4-1.52,9.24,9.24,0,0,0,4.67-7.84c0-1.53,0-3.06,0-4.58C148.29,43.4,148.32,43.32,148.24,43.25Z"/><path class="cls-1" d="M218.68,45a15,15,0,0,1-.53,4.2,13.17,13.17,0,0,1-8.4,9.14,16.43,16.43,0,0,1-3.61.86c-.47.06-.95.09-1.42.11s-.73,0-1.09,0A16.91,16.91,0,0,1,197.05,58a13.17,13.17,0,0,1-7.62-9.16,16.06,16.06,0,0,1-.43-4.77,14.74,14.74,0,0,1,1.75-6.35A12.82,12.82,0,0,1,194,33.85a13.5,13.5,0,0,1,2.36-1.53,15,15,0,0,1,3.42-1.22,16,16,0,0,1,2.15-.35,18.22,18.22,0,0,1,3.15,0c.54,0,1.07.09,1.6.17a15.63,15.63,0,0,1,4.06,1.18,13.33,13.33,0,0,1,3.43,2.2,12.84,12.84,0,0,1,2.6,3.19,14.24,14.24,0,0,1,1.74,5.09A13.3,13.3,0,0,1,218.68,45Zm-1.47-.06a13.87,13.87,0,0,0-.41-3.44,12,12,0,0,0-3.34-5.9,11.58,11.58,0,0,0-3.15-2.15,14.67,14.67,0,0,0-5.48-1.3,17.88,17.88,0,0,0-2.51,0,16.19,16.19,0,0,0-2.81.48,12.12,12.12,0,0,0-5.05,2.7,11.55,11.55,0,0,0-3,4.31,13.71,13.71,0,0,0-.92,3.74,15.73,15.73,0,0,0,0,2.78,13.2,13.2,0,0,0,.52,2.84,11.92,11.92,0,0,0,3.43,5.55A12.05,12.05,0,0,0,198.6,57a14.31,14.31,0,0,0,2.88.67,18,18,0,0,0,2,.15c.53,0,1.05,0,1.58,0s1-.08,1.45-.16a14.06,14.06,0,0,0,3.15-.84,11.61,11.61,0,0,0,6.58-6.54A13.91,13.91,0,0,0,217.21,44.95Z"/><path class="cls-1" d="M160.61,36.76l.3-.51a10.48,10.48,0,0,1,5.78-4.72,15.26,15.26,0,0,1,3.33-.74,21.76,21.76,0,0,1,3.41-.11,18.85,18.85,0,0,1,3.72.49,11,11,0,0,1,3.38,1.41,8.08,8.08,0,0,1,3.26,4.1,12.31,12.31,0,0,1,.68,3,18.13,18.13,0,0,1,.07,1.84q0,8.23,0,16.47c0,.53.07.49-.47.49h-.83a.13.13,0,0,1-.14-.14c0-.11,0-.23,0-.34q0-8.21,0-16.43a14.32,14.32,0,0,0-.35-3.32,7.47,7.47,0,0,0-1.55-3.18,6.81,6.81,0,0,0-2-1.58A10.87,10.87,0,0,0,176,32.44a20.2,20.2,0,0,0-4.64-.28,14.68,14.68,0,0,0-4.48.87,9,9,0,0,0-5.48,5.43,12.47,12.47,0,0,0-.69,2.76,17.5,17.5,0,0,0-.15,2.43q0,7.2,0,14.4c0,.45,0,.46-.44.46h-.83c-.16,0-.19,0-.2-.21s0-.18,0-.26q0-13,0-26.09c0-.51,0-.45.47-.46h.83c.13,0,.16,0,.17.15s0,.23,0,.34q0,2.2,0,4.4,0,.18,0,.37Z"/><path class="cls-1" d="M223.94,45q0-6.54,0-13.08c0-.05,0-.1,0-.15,0-.29,0-.29.3-.29h.94c.18,0,.21,0,.22.22s0,.18,0,.26q0,13,0,26c0,.56.06.5-.5.5h-.75c-.16,0-.19,0-.19-.21s0-.25,0-.38Q223.94,51.46,223.94,45Z"/><path class="cls-1" d="M224,71.94c0-.12,0-.24,0-.36q0-2.65,0-5.3c0-.49,0-.45.44-.45h.64a.12.12,0,0,1,.12.12c0,.09,0,.18,0,.26q0,3.78,0,7.55c0,.06,0,.13,0,.19s0,.21-.23.21h-.75a.37.37,0,0,1-.34-.19l-1-1.44-3-4.16-.23-.3a.1.1,0,0,0-.06,0s0,0,0,0,0,.22,0,.34q0,2.65,0,5.3c0,.46,0,.43-.43.43h-.56c-.2,0-.23,0-.24-.25,0-.06,0-.13,0-.19q0-3.74,0-7.48c0-.47,0-.42.43-.42h.6a.31.31,0,0,1,.28.14l.52.73,3.51,4.92.25.33Z"/><path class="cls-1" d="M114.15,73.1l1,.73c.13.09.13.13,0,.24l-.52.62a.46.46,0,0,1-.28-.14l-.91-.67a.25.25,0,0,0-.31,0,4.14,4.14,0,0,1-2.18.45A3.71,3.71,0,0,1,107.53,72a4.79,4.79,0,0,1,.2-4.35,3.65,3.65,0,0,1,3-1.93,4.59,4.59,0,0,1,1.38.08,3.56,3.56,0,0,1,2.51,1.86,4.94,4.94,0,0,1,.15,4.49A4.52,4.52,0,0,1,114.15,73.1Zm-5.81-3.41a4.49,4.49,0,0,0,.27,1.83,2.55,2.55,0,0,0,1.86,1.65,3.52,3.52,0,0,0,.52.08,3.19,3.19,0,0,0,1.18-.15l0,0s0-.06,0-.09l-.12-.09-.64-.47c-.1-.08-.11-.12,0-.22l.46-.55c.11-.13.13-.12.28,0l.85.62c.19.14.21.13.36-.06a3,3,0,0,0,.48-.93A4.18,4.18,0,0,0,114,69.1a3.43,3.43,0,0,0-.51-1.24,2.43,2.43,0,0,0-1.26-1,3.1,3.1,0,0,0-1.18-.15,2.55,2.55,0,0,0-2.28,1.46A3.56,3.56,0,0,0,108.34,69.69Z"/><path class="cls-1" d="M198.92,68.54h-.5a.13.13,0,0,1-.15-.13c0-.09,0-.18,0-.26a1.43,1.43,0,0,0-.59-1,2.16,2.16,0,0,0-1-.39,2.9,2.9,0,0,0-1.33.13,1.16,1.16,0,0,0-.86,1.15.81.81,0,0,0,.38.77,2.17,2.17,0,0,0,.69.27l1.9.46a5.06,5.06,0,0,1,1.3.48,2,2,0,0,1,1,1.21,2.29,2.29,0,0,1-1,2.59,3.44,3.44,0,0,1-1.16.42,5.72,5.72,0,0,1-2.31-.06,3.1,3.1,0,0,1-1.51-.79A2.38,2.38,0,0,1,193,72a1.92,1.92,0,0,1,0-.75.15.15,0,0,1,.16-.13h.9a.13.13,0,0,1,.14.15c0,.1,0,.2,0,.3a1.51,1.51,0,0,0,1.11,1.48,3.69,3.69,0,0,0,2.07.09,2,2,0,0,0,.77-.39,1.11,1.11,0,0,0,.43-.8.89.89,0,0,0-.36-.82,2.14,2.14,0,0,0-.63-.33c-.37-.13-.75-.21-1.12-.3l-1.53-.37a2.74,2.74,0,0,1-.82-.37,1.84,1.84,0,0,1-.85-1.94,2.29,2.29,0,0,1,1.59-1.92,4.47,4.47,0,0,1,2.91,0,2.85,2.85,0,0,1,1.17.79,2.18,2.18,0,0,1,.54,1.18,1.36,1.36,0,0,1,0,.62A2,2,0,0,1,198.92,68.54Z"/><path class="cls-1" d="M235.88,68.54h-.45c-.16,0-.18,0-.19-.17s0-.1,0-.15a1.5,1.5,0,0,0-.9-1.25,2.72,2.72,0,0,0-1.62-.2A2.24,2.24,0,0,0,232,67a1.2,1.2,0,0,0-.6,1.31.79.79,0,0,0,.38.53,2,2,0,0,0,.59.24l2,.47a5,5,0,0,1,1.23.44,2.53,2.53,0,0,1,.68.53,2.24,2.24,0,0,1-.05,2.81,2.44,2.44,0,0,1-1.07.73,5.19,5.19,0,0,1-3.5,0,2.54,2.54,0,0,1-1.36-1.07,2.79,2.79,0,0,1-.37-1.62c0-.14.07-.2.21-.2h.83c.14,0,.17,0,.18.19s0,.3,0,.45A1.38,1.38,0,0,0,232,73a3.48,3.48,0,0,0,2.5.1,1.72,1.72,0,0,0,.69-.45,1.12,1.12,0,0,0,.29-.56.87.87,0,0,0-.24-.83,2,2,0,0,0-.77-.45,10.76,10.76,0,0,0-1.09-.28l-1.31-.31a3.54,3.54,0,0,1-.74-.26,1.93,1.93,0,0,1-1.11-2.33,2.3,2.3,0,0,1,1.51-1.69,3.68,3.68,0,0,1,1-.22,4.43,4.43,0,0,1,1.45.09,3.08,3.08,0,0,1,1.63.88,2.25,2.25,0,0,1,.62,1.42c0,.09,0,.17,0,.26s0,.2-.19.21Z"/><path class="cls-1" d="M168.56,68.49s0,0-.07,0h-1a.14.14,0,0,1-.15-.13,4.43,4.43,0,0,0-.07-.44,1.43,1.43,0,0,0-.85-1,2.75,2.75,0,0,0-2.16-.05,1.16,1.16,0,0,0-.76,1.35.77.77,0,0,0,.4.56,2.05,2.05,0,0,0,.63.24l1.9.46c.27.07.53.15.79.23a3,3,0,0,1,.61.29,2.08,2.08,0,0,1,.86,2.62A2.34,2.34,0,0,1,167.24,74a4.39,4.39,0,0,1-1.32.28,5.39,5.39,0,0,1-2-.21,2.88,2.88,0,0,1-1.36-.84,2.62,2.62,0,0,1-.6-2c0-.11.05-.15.17-.15H163c.11,0,.16,0,.15.16a2.82,2.82,0,0,0,.07.6,1.43,1.43,0,0,0,.77,1,2.45,2.45,0,0,0,.78.25,3.71,3.71,0,0,0,1.6,0,2,2,0,0,0,.73-.37,1.19,1.19,0,0,0,.43-.68.9.9,0,0,0-.27-.89,1.67,1.67,0,0,0-.72-.4c-.37-.11-.75-.2-1.12-.3l-1.28-.3a3.15,3.15,0,0,1-1.1-.46,1.85,1.85,0,0,1-.82-1.78,2.25,2.25,0,0,1,1.62-2.06,4,4,0,0,1,3.37.27,2.32,2.32,0,0,1,1.26,2C168.53,68.28,168.55,68.39,168.56,68.49Z"/><path class="cls-1" d="M208.85,74.32a4.13,4.13,0,0,1-2-.46,3.72,3.72,0,0,1-1.79-2.09,4.89,4.89,0,0,1,.18-4,3.67,3.67,0,0,1,3.15-2.12,4.38,4.38,0,0,1,1.56.12,3.7,3.7,0,0,1,2.56,2.29,4.9,4.9,0,0,1,.35,2.31,4.75,4.75,0,0,1-.56,1.93,3.65,3.65,0,0,1-2.79,1.93l-.37.05ZM211.7,70a3.79,3.79,0,0,0-.33-1.69,2.52,2.52,0,0,0-1.8-1.5,3.2,3.2,0,0,0-.82-.07,2.54,2.54,0,0,0-2.37,1.49,4,4,0,0,0-.35,1.26,4.08,4.08,0,0,0,.26,2.06,2.51,2.51,0,0,0,1.58,1.55,3.25,3.25,0,0,0,1.3.13,2.48,2.48,0,0,0,2.14-1.42A3.71,3.71,0,0,0,211.7,70Z"/><path class="cls-1" d="M132.19,74.17l.31-.76,2.82-6.76c.08-.18.16-.37.23-.56a.34.34,0,0,1,.39-.27,4.43,4.43,0,0,0,.68,0,.27.27,0,0,1,.3.21c.17.44.36.88.54,1.32l2.56,6.3.1.24c.09.24.08.26-.16.26s-.53,0-.79,0a.3.3,0,0,1-.33-.23c-.15-.37-.3-.74-.45-1.11l-.4-1a.22.22,0,0,0-.23-.15h-3a.28.28,0,0,0-.31.21c-.25.64-.51,1.28-.77,1.92a1.48,1.48,0,0,0-.05.14.27.27,0,0,1-.31.21Zm2.75-3.55.15,0h2.29a.07.07,0,0,0,.06-.08,1.25,1.25,0,0,0-.06-.21l-1.06-2.72c0-.05,0-.12-.09-.15s-.05,0-.06,0l-1.21,3A.37.37,0,0,0,134.95,70.62Z"/><path class="cls-1" d="M73.64,68.72q0-1.22,0-2.44c0-.1,0-.2,0-.3a.13.13,0,0,1,.14-.14h.53c.6,0,.52-.07.52.51q0,2.18,0,4.36a5.51,5.51,0,0,0,.08,1,1.64,1.64,0,0,0,1.52,1.52,3.54,3.54,0,0,0,1.45-.06A1.53,1.53,0,0,0,79.06,72,3.66,3.66,0,0,0,79.21,71q0-2.33,0-4.66c0-.1,0-.2,0-.3s0-.17.19-.17h.86c.14,0,.17,0,.17.19s0,.18,0,.26q0,2.37,0,4.73a4.17,4.17,0,0,1-.14,1.11,2.72,2.72,0,0,1-1.84,2,4.38,4.38,0,0,1-2.84,0,2.75,2.75,0,0,1-1.9-2.23,4,4,0,0,1-.07-.82C73.65,70.27,73.64,69.5,73.64,68.72Z"/><path class="cls-1" d="M68.94,74.17h-.45a.22.22,0,0,1-.23-.15l-.41-1c-.16-.38-.31-.77-.46-1.15a.22.22,0,0,0-.22-.16H64a.17.17,0,0,0-.17.12l-.29.73L63,73.81l-.1.24a.19.19,0,0,1-.18.12h-1c-.1,0-.13-.05-.08-.15l.46-1.11L65,66.11,65,66a.2.2,0,0,1,.2-.14h.86a.22.22,0,0,1,.22.16l.43,1,1.82,4.49.94,2.29c.14.34.13.35-.24.35h-.3Zm-3.3-6.72a.18.18,0,0,0-.11.11c-.44,1-1.11,2.73-1.18,3,0,.05.11,0,.17,0h2.25a.08.08,0,0,0,.07-.11,2.23,2.23,0,0,0-.07-.21l-.82-2.1Z"/><path class="cls-1" d="M180.61,74.17h-.49a.17.17,0,0,1-.18-.11l-.07-.17c-.26-.64-.53-1.27-.77-1.92a.37.37,0,0,0-.42-.27h-2.93a.26.26,0,0,0-.27.19c-.24.61-.48,1.21-.72,1.81l-.15.35a.18.18,0,0,1-.18.12h-1.05c-.06,0-.08-.05-.06-.11l.18-.45,1.81-4.33c.45-1.07.9-2.15,1.35-3.22a.28.28,0,0,1,.3-.21c.25,0,.5,0,.75,0A.26.26,0,0,1,178,66c.19.49.39,1,.59,1.46l1.89,4.66.69,1.71c0,.06,0,.12.06.18a.1.1,0,0,1-.09.13h-.53ZM176,70.63h2.52s0-.07,0-.08l-1.12-2.91a.26.26,0,0,0-.14-.19C176.83,68.49,176.41,69.53,176,70.63Z"/><path class="cls-1" d="M127.4,68.79c0,.79,0,1.58,0,2.37a3.53,3.53,0,0,1-.19,1.18,2.72,2.72,0,0,1-1.77,1.76,4.49,4.49,0,0,1-2,.19,4.11,4.11,0,0,1-.91-.22,2.72,2.72,0,0,1-1.71-1.82,3.38,3.38,0,0,1-.16-1.07c0-1.65,0-3.31,0-5,0-.09,0-.18,0-.26a.12.12,0,0,1,.12-.12h.94a.11.11,0,0,1,.12.12c0,.11,0,.23,0,.34q0,2.2,0,4.4a6.16,6.16,0,0,0,.07,1,1.63,1.63,0,0,0,1.46,1.53,3.71,3.71,0,0,0,1.45,0,1.6,1.6,0,0,0,1.31-1.38,4.27,4.27,0,0,0,.08-.86c0-1.54,0-3.08,0-4.62,0-.11,0-.23,0-.34a.11.11,0,0,1,.11-.12h1a.1.1,0,0,1,.1.09c0,.1,0,.2,0,.3Q127.4,67.51,127.4,68.79Z"/><path class="cls-1" d="M92.48,65.89a.89.89,0,0,1-.19.3l-1.88,2.58-.62.85c-.2.29-.21.23,0,.51l.91,1.24,1.84,2.52a.84.84,0,0,1,.09.16s0,.07,0,.09H91.43a.31.31,0,0,1-.28-.16l-.74-1-1.29-1.81L89,71c-.13-.16-.16-.16-.27,0L87,73.42l-.44.61a.28.28,0,0,1-.25.14H85.26c-.12,0-.15-.07-.08-.18l.59-.83,2.2-3,.1-.16a.16.16,0,0,0,0-.18l-.21-.31-2.31-3.2L85.34,66c-.06-.08,0-.14.09-.14h1.09a.31.31,0,0,1,.28.16l.62.89,1.27,1.82a1.84,1.84,0,0,0,.13.18.08.08,0,0,0,.13,0l.4-.54c.54-.75,1.09-1.5,1.62-2.26a.51.51,0,0,1,.5-.25c.27,0,.55,0,.83,0C92.36,65.83,92.42,65.81,92.48,65.89Z"/><path class="cls-1" d="M147.48,70.54q0,1.6,0,3.19c0,.1,0,.2,0,.3a.12.12,0,0,1-.12.12h-1a.1.1,0,0,1-.1-.1c0-.11,0-.22,0-.34q0-3.18,0-6.35c0-.11,0-.23,0-.34s-.06-.13-.15-.13h-2.56c-.09,0-.15,0-.15-.13q0-.39,0-.79a.13.13,0,0,1,.14-.14h6.35c.44,0,.41,0,.41.41a1.41,1.41,0,0,1,0,.62,1.78,1.78,0,0,1-.59,0h-2.07a.13.13,0,0,0-.13.15c0,.1,0,.2,0,.3Q147.48,68.94,147.48,70.54Z"/><path class="cls-1" d="M187.41,70q0,1.92,0,3.83c0,.35,0,.35-.35.35h-.64c-.18,0-.2,0-.21-.23s0-.13,0-.19q0-3.74,0-7.48c0-.08,0-.15,0-.23s0-.21.22-.21h.79c.16,0,.18,0,.19.21s0,.2,0,.3Q187.41,68.16,187.41,70Z"/><path class="cls-1" d="M223.26,25.92a1.4,1.4,0,0,1,1.4-1.42,1.43,1.43,0,1,1,0,2.86A1.4,1.4,0,0,1,223.26,25.92Z"/><path class="cls-1" d="M156.16,68.68c.1-.19.2-.37.29-.57a1,1,0,0,0,.11-.51c0-.18-.1-.26-.28-.29l-.15,0a.75.75,0,0,1-.58-1,.79.79,0,0,1,1-.5,1,1,0,0,1,.67.74,1.6,1.6,0,0,1-.14,1.16A2.16,2.16,0,0,1,156.16,68.68Z"/></g></svg>