<svg xmlns="http://www.w3.org/2000/svg" viewBox="0 0 241.57 111.03"><defs><style>.cls-1{fill:#fff;}</style></defs><title>client_16</title><g id="EAT"><g id="Text"><rect id="_Path_" data-name="&lt;Path&gt;" class="cls-1" x="203.78" width="0.69" height="50.8"/><path id="_Path_2" data-name="&lt;Path&gt;" class="cls-1" d="M180.38,15.33a9.67,9.67,0,0,1,.68-1.23c.12-.19.26-.32.38-.51a.25.25,0,0,0-.18.05c-.12.09-.18.24-.28.31s-.23.35-.35.44a.75.75,0,0,0-.22.25,1.24,1.24,0,0,0-.14.3c0,.06-.06,0-.15.13a1.52,1.52,0,0,0-.22.54c0,.06-.12.1-.19.23a1.73,1.73,0,0,0-.2.62c0,.06-.12.1-.19.27a1.2,1.2,0,0,0-.13.38c0,.14-.09.15-.16.36a2.07,2.07,0,0,0-.07.5,2,2,0,0,1-.13.23,1.64,1.64,0,0,0-.14.5,3.4,3.4,0,0,0-.17.46,2.82,2.82,0,0,0,0,.57,3.52,3.52,0,0,0-.09,1,2.88,2.88,0,0,1,0,.49c0,.49-.06.9-.05,1.46a8.94,8.94,0,0,0,.07,1.07c0,.38.12.68.12.68h1.25a11.09,11.09,0,0,1,0-1.49,6.87,6.87,0,0,1,.25-1.28,8.88,8.88,0,0,1,.44-1.22s0-.07-.07,0a1.72,1.72,0,0,0-.34.36,6.35,6.35,0,0,0-.38.68c-.15.28-.23.53-.39.87a2.71,2.71,0,0,1,.08-.72,4.88,4.88,0,0,1,.63-1.6,2.51,2.51,0,0,1,.43-.5l.56-.49c-.21-.11-.48.12-.54.13-.29.06-.41.33-.5.36a.67.67,0,0,0-.29.24c-.07.08-.09.2-.16.25a.82.82,0,0,0-.29.34c0,.07-.12.37-.22.33a7.11,7.11,0,0,1,1.12-2.85,5.31,5.31,0,0,1,1.36-1.43c.08-.05.09-.08,0-.08a1,1,0,0,0-.68.35.76.76,0,0,0-.26.19c-.12.12-.12.23-.17.26a.76.76,0,0,0-.24.26c0,.06-.1.2-.15.24a1,1,0,0,0-.35.33,2.12,2.12,0,0,1-.14.29,1.24,1.24,0,0,1-.26.25,9.68,9.68,0,0,1,.41-1.41,15,15,0,0,1,.68-1.71"/><path id="_Path_3" data-name="&lt;Path&gt;" class="cls-1" d="M181.65,18.89a16.19,16.19,0,0,1,1.62-2.79l.23-.35.23-.33c.22-.33.31-.43.53-.74a.78.78,0,0,0,.14-.25c0-.18-.11-.3-.15-.48a.78.78,0,0,1,.06-.53,1.51,1.51,0,0,0,.15-.26c.1-.25.07-.78.18-.79a2.91,2.91,0,0,0,0,.78c0,.28.22.45.29.75a2,2,0,0,1,.56,0,1.36,1.36,0,0,0,.52-.09c.22-.08.4-.21.63-.27a3.78,3.78,0,0,1-.69.39.69.69,0,0,0-.21.21c-.09.14-.17.28-.31.34a3.11,3.11,0,0,1-.76.11,9.06,9.06,0,0,0-1.2,1.67,20.13,20.13,0,0,0-2.19,4.94c.16-.29.31-.58.48-.86s.4-.62.63-.92c.54-.71,1.08-1.34,1.68-2a7.78,7.78,0,0,1,1.61-1.35,3.75,3.75,0,0,1,2.6-.66.68.68,0,0,1,.3.11,3.55,3.55,0,0,0-2.73.79,9.42,9.42,0,0,0-1.52,1.5c-.25.28-.47.6-.7.9s-.44.66-.65,1a16,16,0,0,0-1.6,3.6s0,.08,0,.12l.06-.09a7.22,7.22,0,0,1,1.93-2.2.45.45,0,0,0,.16-.21c.08-.34-.17-.5.18-1,.08-.11.19-.15.27-.25a6.63,6.63,0,0,1,.38-.73,7.49,7.49,0,0,0-.24.8,5,5,0,0,0,.05.84,2.86,2.86,0,0,1,.53.17,1.52,1.52,0,0,0,.66,0,1.69,1.69,0,0,1,.42,0c-.24.13-.57.11-.82.23s-.23.22-.47.27a.81.81,0,0,1-.53-.05.31.31,0,0,0-.29,0,2.19,2.19,0,0,0-.64.51,6.8,6.8,0,0,0-1.25,1.73c-.1.19-.18.38-.27.57l-.14.36h-1.26s0-.37,0-.5.06-.46.11-.73.15-.74.25-1.11.2-.71.33-1.06c.26-.73.53-1.43.84-2.11"/><path id="_Path_4" data-name="&lt;Path&gt;" class="cls-1" d="M169.45,28.72a9.81,9.81,0,0,1,1.26-.87c.19-.11.47-.24.69-.34a7.6,7.6,0,0,1,2.85-.64h7.45a.91.91,0,0,1,.61.22,1,1,0,0,1,.25.56,1.31,1.31,0,0,1,0,.53,1,1,0,0,1-.14.37.72.72,0,0,1-.19.2.61.61,0,0,1-.39.11H173a13,13,0,0,0-1.72.1,10.66,10.66,0,0,0-1.27.23,15.88,15.88,0,0,0-1.53.51,5.77,5.77,0,0,1,1-1"/><path id="_Path_5" data-name="&lt;Path&gt;" class="cls-1" d="M172,25.78a6.69,6.69,0,0,1,1.5-.79,8.41,8.41,0,0,1,.84-.26,4.85,4.85,0,0,1,1-.15h6.36l.18,0a.89.89,0,0,1,.26.1,1.1,1.1,0,0,1,.29.3,1.21,1.21,0,0,1,.14.87c-.06.35-.33.75-.69.76h-7.07l-.59,0a9.75,9.75,0,0,0-1,.09,5.93,5.93,0,0,0-.75.15,17.67,17.67,0,0,0-2.36,1,6.77,6.77,0,0,1,1.91-2.1"/><path id="_Path_6" data-name="&lt;Path&gt;" class="cls-1" d="M168.47,30.1a7.75,7.75,0,0,1,3.65-1h9.69c.57,0,.79.57.78,1a1.12,1.12,0,0,1-.07.41,1.08,1.08,0,0,1-.21.36.73.73,0,0,1-.22.14,1.24,1.24,0,0,1-.3,0h-7.06l-.65,0-.53-.08a11.24,11.24,0,0,1-1.31-.39,6.09,6.09,0,0,0-.88-.19,7.64,7.64,0,0,0-1.76-.08,8.72,8.72,0,0,0-2.07.42,3.89,3.89,0,0,1,.94-.65"/><path id="_Path_7" data-name="&lt;Path&gt;" class="cls-1" d="M173.58,33.07a4.24,4.24,0,0,1-.92-.45,6.22,6.22,0,0,0-1-.66,12.27,12.27,0,0,0-1.31-.58,6.66,6.66,0,0,0-1.11-.3c-.55-.09-1.08-.14-1.08-.14a.93.93,0,0,1,.18-.09,7.12,7.12,0,0,1,1.62-.3,6.15,6.15,0,0,1,1.47.09,5.5,5.5,0,0,1,.71.17,9.84,9.84,0,0,0,2.38.55h7.12a.91.91,0,0,1,.77.36,1.24,1.24,0,0,1,.09,1.11,1.08,1.08,0,0,1-.24.39.61.61,0,0,1-.35.14h-6.28a6.56,6.56,0,0,1-2-.29"/><path id="_Path_8" data-name="&lt;Path&gt;" class="cls-1" d="M176.4,35.26c-.17-.18-.42-.45-.63-.71a4.1,4.1,0,0,1-.6-1h4.12a5.84,5.84,0,0,1-.08,1,5.31,5.31,0,0,1-.48,1.44c0,.4.16.77.19,1.17a5.66,5.66,0,0,0-1,.7s0,0-.06,0c-.16-.61-.25-1.15-.38-1.75a8.93,8.93,0,0,1-1.05-.89"/><path id="_Path_9" data-name="&lt;Path&gt;" class="cls-1" d="M180.64,34.93a5,5,0,0,0-.33-.67c0,.15,0,.24,0,.39s-.12.06-.14,0-.12-.36-.17-.53a3.06,3.06,0,0,1-.12-.53h.69s0,0,0,.07,0,.34.07.54a5.21,5.21,0,0,0,.23.73c.08.21.19.42.27.63a.13.13,0,0,1,0,.11.06.06,0,0,1-.09,0,3.68,3.68,0,0,1-.43-.76"/><path id="_Path_10" data-name="&lt;Path&gt;" class="cls-1" d="M181.7,35.42a1.8,1.8,0,0,1-.27-.81c.08.1.11.17.21.23s.15,0,.12-.08-.12-.28-.18-.5-.2-.65-.2-.65h-.7a4.06,4.06,0,0,0,.2.72,8.41,8.41,0,0,0,.59,1.24,5.23,5.23,0,0,0,.59.89c.07.08.26,0,.18-.1a5.7,5.7,0,0,1-.54-.93"/><path id="_Path_11" data-name="&lt;Path&gt;" class="cls-1" d="M186.24,11.78a.68.68,0,0,0-.36.29c-.05.11-.09.27,0,.36s.41,0,.49-.17a1.31,1.31,0,0,0,.08-.6l-.23.11"/><path id="_Path_12" data-name="&lt;Path&gt;" class="cls-1" d="M186.4,12.76a1.09,1.09,0,0,1,.37-.36l.5-.29a.38.38,0,0,0,.15-.13,1.06,1.06,0,0,0-.16.07,9.28,9.28,0,0,1-.81.47,2.4,2.4,0,0,1-.64.12,4.8,4.8,0,0,1-.11-.64,2.59,2.59,0,0,1,.05-.38c.07-.36.08-.54.08-.54a.39.39,0,0,0-.07.21c0,.14,0,.19-.07.36a.88.88,0,0,1-.19.48.66.66,0,0,0-.19.71c.07.14.2.12.23.15s.07.12.18.16.55-.14.68-.4"/><path id="_Path_13" data-name="&lt;Path&gt;" class="cls-1" d="M186.07,13.49a.86.86,0,0,1,.31-.32l.53-.3a.19.19,0,0,0,.13-.13,4.36,4.36,0,0,0-.53.27,1.67,1.67,0,0,1-.65.23l-.19,0a1.55,1.55,0,0,0-.29,0,2.35,2.35,0,0,0-.1-.31,1.2,1.2,0,0,1-.1-.26,1.51,1.51,0,0,1,0-.29,5,5,0,0,0,.07-.68c-.14.3-.08.66-.25.9a1.52,1.52,0,0,0-.18.29.61.61,0,0,0,0,.6c.07.11.23.11.26.13s.08.15.23.18a.71.71,0,0,0,.73-.31"/><path id="_Path_14" data-name="&lt;Path&gt;" class="cls-1" d="M186.15,19.32a3.72,3.72,0,0,1,.18-.41c-.18,0-.21,0-.47.07a.6.6,0,0,0-.21.1.37.37,0,0,0-.15.37.2.2,0,0,0,.11.13.47.47,0,0,0,.54-.27"/><path id="_Path_15" data-name="&lt;Path&gt;" class="cls-1" d="M186.36,19.65a2.3,2.3,0,0,1,.64-.14,4.27,4.27,0,0,1-.77.24,1.57,1.57,0,0,0-.51.33.53.53,0,0,1-.56.08A.32.32,0,0,1,185,20s-.1-.09-.15-.13a.28.28,0,0,1-.07-.17c0-.34.25-.47.5-.67s.43-.78.58-.91a8.92,8.92,0,0,1-.41.89,4,4,0,0,0-.12.68c.18,0,.37.05.55.05a1.78,1.78,0,0,0,.45-.06"/><path id="_Path_16" data-name="&lt;Path&gt;" class="cls-1" d="M186.11,20.18l-.42.09c-.4.08-.59-.12-.91-.11,0-.36-.1-.53,0-.76s.18-.43.26-.61a1.14,1.14,0,0,0,.08-.26s-.09.14-.37.68c-.1.18-.27.22-.42.4s-.28.63,0,.81c.06,0,.05.14.1.19a.73.73,0,0,0,.92-.06,1.48,1.48,0,0,1,.7-.29,1.41,1.41,0,0,0,.25-.09.53.53,0,0,0-.26,0"/><path class="cls-1" d="M178.53,17.43a7.63,7.63,0,0,0,.26-1.3,2.58,2.58,0,0,0-.52-1.86c0,.22.09.4.12.63a2.34,2.34,0,0,1-.07.86,3.57,3.57,0,0,1-.24.61,3.8,3.8,0,0,1-.44.69c-.46.57-1.18,1.7-1.18,1.7h-.09a3.47,3.47,0,0,1,.49-.89c.37-.59.64-.9,1-1.42a2.86,2.86,0,0,0,.4-1.06,2,2,0,0,0-.85-1.87,2.11,2.11,0,0,1-.17,1.62A7.39,7.39,0,0,0,175.94,17s-.1-.11-.17-.15,0-.22-.07-.34a.78.78,0,0,0-.08-.18c-.11-.13-.22-.15-.25-.19a.92.92,0,0,0-.12-.3c0-.07-.18-.12-.23-.18s-.08-.28-.24-.37-.11-.17-.18-.23a.7.7,0,0,0-.47-.17,1.16,1.16,0,0,0-.36-.19c-.19,0-.29.09-.39.05a.56.56,0,0,0-.75.17c-.08.09-.22,0-.39.14s-.15.22-.23.23a.42.42,0,0,0-.3.27,1.28,1.28,0,0,0-.07.28,2.32,2.32,0,0,0-.09.32c0,.12,0,.19,0,.24s-.08.15-.09.22a.41.41,0,0,0,0,.21c0,.08,0,.14-.06.23a.68.68,0,0,0-.06.29c0,.13.09.18,0,.28a.65.65,0,0,0,0,.73c0,.06-.09.17-.09.34a.82.82,0,0,0,.13.4s0,0,0,.06a13.86,13.86,0,0,0-1.48-1.43,7.42,7.42,0,0,0-1.06-.7,5.76,5.76,0,0,0-3.27-.78c.41.33.91.56,1.33.93s.75.65,1.11,1A14.42,14.42,0,0,1,169.53,20l.37.55c.13.21.28.44.4.65.61,1.06,1.11,2,1.61,3.12.14.3.26.61.39.91,0,.08.09,0,.13,0a6.16,6.16,0,0,1,.57-.28c.15-.07.29-.12.42-.17a6.73,6.73,0,0,1,1-.28,10,10,0,0,1,1.67-.1h2.09c0-.59-.16-1.15-.19-1.73s0-.93,0-1.41a19.5,19.5,0,0,1,.52-3.83m-2.38,1c0,.11.09.2,0,.31s-.19.16-.31.2-.31.1-.41,0-.16-.36,0-.46.61-.32.7,0m-1.45,2.33c-.14.16-.36.15-.58.21s-.18,0-.23-.13-.16-.34,0-.48.31-.11.46-.16a.28.28,0,0,1,.24,0,.37.37,0,0,1,.11.53m.27.55a.31.31,0,0,1-.16.41c-.2.07-.48.17-.64.07s-.28-.48-.07-.62.76-.27.86.15m-2.58-4.74c.05-.16.25-.15.4-.13a.25.25,0,0,1,.16.36c-.09.14-.3.11-.46.09s-.14-.19-.1-.32m0-.52a.12.12,0,0,1,.07-.07.39.39,0,0,1,.38,0,.17.17,0,0,1,0,.25.36.36,0,0,1-.4,0,.17.17,0,0,1-.06-.22m1.2.26a.52.52,0,0,1-.5,0A.25.25,0,0,1,173,16a.46.46,0,0,1,.52-.13.24.24,0,0,1,0,.42m.19.24a.31.31,0,0,1,.08.41.54.54,0,0,1-.66.11c-.11-.08-.17-.41.05-.49a.64.64,0,0,1,.53,0m-1.26.55c.17-.07.5-.13.56.12s-.32.39-.53.33a.27.27,0,0,1,0-.45m0,.75a.57.57,0,0,1,.58-.15c.12,0,.18.17.17.33a.2.2,0,0,1-.12.17.91.91,0,0,1-.45.08.28.28,0,0,1-.18-.44m.1.69a.68.68,0,0,1,.57-.12c.12,0,.17.13.18.26,0,.36-.43.41-.66.33a.32.32,0,0,1-.1-.47m.68-.89c-.12-.36.34-.48.6-.42a.31.31,0,0,1,.08.51c-.21.14-.59.18-.68-.08m1.83.41c-.1.19-.45.21-.61.19s-.19-.19-.18-.34a.16.16,0,0,1,.08-.16.86.86,0,0,1,.54-.13.31.31,0,0,1,.17.43m.09.37a.33.33,0,0,1,0,.39.72.72,0,0,1-.59.14.24.24,0,0,1-.15-.21.28.28,0,0,1,.06-.29.66.66,0,0,1,.47-.12.26.26,0,0,1,.19.09m-.25-1.11c-.12.18-.6.29-.71.11s-.13-.32,0-.41a.72.72,0,0,1,.51-.12.31.31,0,0,1,.17.42m-.34-.6a.67.67,0,0,1-.28.13.27.27,0,0,1-.34-.22c0-.26.25-.3.43-.33a.23.23,0,0,1,.24.17.23.23,0,0,1-.05.24m-1.12,1.35c.2-.12.63-.26.73.06,0,.13,0,.3-.08.35a.65.65,0,0,1-.61.06c-.16-.1-.18-.4,0-.48m.18.75c.21-.15.62-.25.72.08a.31.31,0,0,1,0,.24.64.64,0,0,1-.61.21.31.31,0,0,1-.11-.53m.16.74c.17-.09.42-.2.61-.08a.38.38,0,0,1,.11.38.65.65,0,0,1-.68.22.31.31,0,0,1,0-.52m.84,0c0-.11-.08-.27,0-.34s.56-.25.71,0a.31.31,0,0,1-.1.45c-.18.09-.52.19-.62-.06m1.17-2c.09,0,.16.1.2.2a.31.31,0,0,1,0,.3c-.1.07-.42.26-.62.15a.38.38,0,0,1-.15-.29c0-.28.4-.39.61-.36m-.08-.47a.29.29,0,0,1,0,.28.56.56,0,0,1-.54.17.28.28,0,0,1-.08-.39.55.55,0,0,1,.5-.17s.07.05.1.1m-.36-.77c.17,0,.21.27.17.36a.48.48,0,0,1-.17.16.45.45,0,0,1-.39,0,.27.27,0,0,1-.1-.34.49.49,0,0,1,.49-.21m-.2-.35c0,.14-.06.2-.16.26s-.26.11-.33,0a.23.23,0,0,1,0-.34c.15-.14.42-.24.52,0m-.45-.58a.15.15,0,0,1,.13.12.19.19,0,0,1-.08.2.54.54,0,0,1-.27.09.19.19,0,0,1-.15-.27.37.37,0,0,1,.36-.14m-.27-.38a.12.12,0,0,1,.08.17.34.34,0,0,1-.12.12c-.11.07-.21,0-.25,0s.15-.29.29-.24m-.16.75a.21.21,0,0,1,.05.3.48.48,0,0,1-.33.15.21.21,0,0,1-.22-.13c0-.07,0-.2,0-.26a.36.36,0,0,1,.45-.06m-.19-.44c.07.12,0,.23-.09.27s-.28.1-.35,0a.2.2,0,0,1,.11-.29c.12,0,.23-.12.33,0m-.64-.38a.3.3,0,0,1,.37-.16s.09.06.1.1a.22.22,0,0,1-.09.23.3.3,0,0,1-.3.05.17.17,0,0,1-.07-.23m.06.57a.26.26,0,0,1-.21.19c-.12,0-.27,0-.34,0a.2.2,0,0,1,0-.23.42.42,0,0,1,.45-.15.19.19,0,0,1,.14.24m-.69-.54a.29.29,0,0,1,.36-.19.19.19,0,0,1,.08.3.38.38,0,0,1-.18.1c-.16,0-.31-.05-.26-.21m-.09.79c-.14,0-.33,0-.37-.09s.23-.27.39-.23a.18.18,0,0,1,0,.32m-.39-.61a.18.18,0,0,1,.1-.09.3.3,0,0,1,.2,0c.13.05.11.21,0,.26a.37.37,0,0,1-.2,0c-.08,0-.11-.1-.08-.19m-.39.28a.28.28,0,0,1,.28,0c.09.1,0,.25-.15.25l-.16,0a.15.15,0,0,1,0-.24m-.11.43a.47.47,0,0,1,.34,0,.16.16,0,0,1,.08.17.22.22,0,0,1-.23.13c-.1,0-.21,0-.25-.09a.18.18,0,0,1,.06-.23m.36.53a.16.16,0,0,1,.09.12c0,.12,0,.26-.13.28s-.45,0-.45-.21.28-.28.49-.19m-.5.59c.16-.07.44-.1.56.08s0,.32-.07.35-.49.09-.58-.12a.24.24,0,0,1,.08-.31m-.1.69c.15-.15.35-.08.54-.06a.18.18,0,0,1,.1.06.29.29,0,0,1,0,.44c-.16.12-.36,0-.56,0a.16.16,0,0,1-.12-.1.36.36,0,0,1,0-.37m0,.82c.1-.22.47-.22.67-.13a.32.32,0,0,1,0,.51.77.77,0,0,1-.52,0c-.22,0-.23-.25-.16-.41m.12,1c-.1-.09,0-.25.06-.3a.85.85,0,0,1,.58,0c.1,0,.16.19.14.36s0,.14-.07.17a.64.64,0,0,1-.47.06c-.11,0-.15-.17-.24-.25m.77.94a1.78,1.78,0,0,1-.34-.44s0-.06,0-.06c.28-.08.49.06.44.37,0,.06,0,.2-.12.14m.19-1c0-.08.1-.11.18-.13a.7.7,0,0,1,.56,0c.06,0,.07.1.08.18s0,.24-.09.3a.77.77,0,0,1-.57.07c-.17,0-.18-.26-.15-.41m.24.67c.23-.15.66-.26.73.14a.27.27,0,0,1-.17.33.8.8,0,0,1-.52.05.32.32,0,0,1,0-.52m-.06.95s0-.12,0-.14a.89.89,0,0,1,.63-.14c.26,0,.32.27.27.47s-.46.3-.58.26-.19-.3-.32-.45m.49.82s-.08-.16,0-.17c.34-.12.59-.12.66.24s-.12.48-.37.39c-.07,0-.14-.3-.25-.46m.7,1.28c-.19-.16-.2-.4-.33-.59a.31.31,0,0,1,.44.1c.06.14.1.35,0,.46s-.05,0-.07,0m.27.65c-.08,0-.08-.14-.11-.21s-.1-.15-.07-.23a.38.38,0,0,1,.18.44m.36-.52a3.08,3.08,0,0,1-.1.32c0,.05-.06,0-.06,0a.63.63,0,0,1-.06-.48.32.32,0,0,1,.27-.17,1.42,1.42,0,0,1-.05.35m.3-1.07c-.05.14-.07.27-.13.39a.38.38,0,0,1-.41.13c-.18-.06-.34-.46-.13-.62a1,1,0,0,1,.52-.16.48.48,0,0,1,.17,0c0,.08,0,.13,0,.24m.27-.93c-.05.08-.19-.18-.21-.3-.05-.34.25-.43.5-.42a1.47,1.47,0,0,1-.29.72m.41-1c-.08.2-.3.22-.49.26a.28.28,0,0,1-.19,0,.41.41,0,0,1-.14-.33.26.26,0,0,1,.17-.2c.16-.06.34-.16.5-.07a.33.33,0,0,1,.15.38m.64-1a6.16,6.16,0,0,1-.34.53.16.16,0,0,1-.26-.05c-.07-.1-.18-.25-.09-.35a.74.74,0,0,1,.65-.25.09.09,0,0,1,0,.13m1.86,5.24h0"/><path id="_Path_17" data-name="&lt;Path&gt;" class="cls-1" d="M164.68,12.6a3.25,3.25,0,0,0-.75,1,2.74,2.74,0,0,0-.36,1A5.44,5.44,0,0,0,165.65,13c.44-.52.79-1.21,1.23-1.72a5.9,5.9,0,0,0-2.2,1.37"/><path id="_Path_18" data-name="&lt;Path&gt;" class="cls-1" d="M162.34,13.72a5.89,5.89,0,0,1,1.2-1.46,6,6,0,0,0-.56,1.51c-.18,1.12-.34,1.9-.53,2.92.51-.36,1-.93,1.58-1.33s.83-.51,1.26-.8a4.8,4.8,0,0,0,.63-.61,5.34,5.34,0,0,1-1.85,2.63,14.31,14.31,0,0,0-2.48,2.09,8,8,0,0,1,.75-5"/><path id="_Path_19" data-name="&lt;Path&gt;" class="cls-1" d="M159.6,19.33a13.24,13.24,0,0,1,.38-2.43,3.81,3.81,0,0,1,.93-1.85,5.68,5.68,0,0,0-.11.76,24.4,24.4,0,0,0,.1,2.85,6.33,6.33,0,0,1-.06,1.2,4.39,4.39,0,0,0,0,1,5.14,5.14,0,0,0,.45-.61,7.46,7.46,0,0,1,1-1.37,9.89,9.89,0,0,1,1.58-1.37,5.81,5.81,0,0,1-.5,1c-.17.28-.24.55-.63,1.21-.55.92-.8,1-1.42,2-.13.21-.68,1-.81,1.28-.29-.59-.4-1.12-.75-2.09a3.85,3.85,0,0,1-.16-1.63"/><path id="_Path_20" data-name="&lt;Path&gt;" class="cls-1" d="M158.74,23.89a10.42,10.42,0,0,1-.6-2.58,4.29,4.29,0,0,1,.16-1.84c.05.13.16.46.17.52a9.1,9.1,0,0,0,.42,1.22,10.73,10.73,0,0,0,.56,1,9.26,9.26,0,0,1,.48,1.1c.44,1.08.47,2.08.64,2.19a2,2,0,0,0,.17-.63,5,5,0,0,1,1.78-3.66,3.94,3.94,0,0,1,0,1.59,8.45,8.45,0,0,1-.72,2.2c-.21.46-.49,1.13-.56,1.36-.2.58-.27.89-.4,1.23a24.83,24.83,0,0,1-2.09-3.72"/><path id="_Path_21" data-name="&lt;Path&gt;" class="cls-1" d="M159.91,29.3a8.14,8.14,0,0,1-1-1.79,6.88,6.88,0,0,1-.52-1.56,2.16,2.16,0,0,1-.07-1,11.58,11.58,0,0,0,1.18,2.1c.41.47.8.87,1.13,1.26.5.61.89,1.18,1.37,1.82A4.1,4.1,0,0,0,162,29a6,6,0,0,1,.09-2,12.25,12.25,0,0,1,.58-2.19,6.74,6.74,0,0,1,.46,2.34,15.78,15.78,0,0,1-.38,4,7.5,7.5,0,0,0,0,.87,20.33,20.33,0,0,1-1.93-1.71,9.61,9.61,0,0,1-.9-1.06"/><path id="_Path_22" data-name="&lt;Path&gt;" class="cls-1" d="M162.56,34.79A9.42,9.42,0,0,1,161,33.4a7.22,7.22,0,0,1-1.11-1.94,3.22,3.22,0,0,1-.29-.93c1.28,1.54,2.42,1.77,3.64,3.05.45.47.91.91,1.15,1.13a1.05,1.05,0,0,0,.42.23,1.68,1.68,0,0,0-.14-.56,8.88,8.88,0,0,1-.84-4.92,6.06,6.06,0,0,1,.73,1.21,11.32,11.32,0,0,1,.51,1.08c.69,1.73.88,3.73,1.31,4.74a11.89,11.89,0,0,1-3.78-1.7"/><path id="_Path_23" data-name="&lt;Path&gt;" class="cls-1" d="M168,38.88a8,8,0,0,1-1.44,0A6.87,6.87,0,0,1,162,35.65a10.78,10.78,0,0,0,2.1,1.07c.63.21,1.23.28,2.28.58.64.18,1.27.43,1.49.52a2.07,2.07,0,0,0,1,.19s0-.1-.26-.39c-.52-.58-.72-.71-1.15-1.15a5.27,5.27,0,0,1-.63-1c-.47-.93-.52-1.67-.94-2.69A8.18,8.18,0,0,1,169,36.57a6.08,6.08,0,0,0,.91,1.35c.21.21.51.52.51.52s-.22.06-.89.15a14.11,14.11,0,0,1-1.54.29"/><path id="_Path_24" data-name="&lt;Path&gt;" class="cls-1" d="M175.54,39a13.94,13.94,0,0,1,2.3.59c.2.07.5.22.71.33a10.28,10.28,0,0,1,1.29.76,10.86,10.86,0,0,1,2.23,1.88s.13.13.05.2-.48.27-.6.16c-.65-.58-.62-.76-1.4-1.48a8.33,8.33,0,0,0-.87-.69,10.34,10.34,0,0,0-1.19-.7,3.17,3.17,0,0,0-1.23-.23h0c-.14,0-1,0-1.15,0a7.48,7.48,0,0,0-2.46.51,19.15,19.15,0,0,1-2.39.46,9.5,9.5,0,0,1-2.36,0,7.21,7.21,0,0,1-3.08-1c.79,0,1.6.16,2.38.1a6.32,6.32,0,0,0,1.23-.18c.72-.23,1.14-.31,1.9-.52a11.81,11.81,0,0,1,2-.32,9.7,9.7,0,0,1,2.62,0"/><path id="_Path_25" data-name="&lt;Path&gt;" class="cls-1" d="M190.25,12.6a3.25,3.25,0,0,1,.75,1,2.78,2.78,0,0,1,.36,1A5.42,5.42,0,0,1,189.27,13c-.45-.52-.79-1.21-1.23-1.72a5.91,5.91,0,0,1,2.2,1.37"/><path id="_Path_26" data-name="&lt;Path&gt;" class="cls-1" d="M192.58,13.72a6,6,0,0,0-1.2-1.46,7.56,7.56,0,0,1,.56,1.51c.12,1.12.35,1.9.53,2.92-.51-.36-1-.93-1.58-1.33s-.83-.51-1.26-.8a5,5,0,0,1-.63-.61,5.31,5.31,0,0,0,1.85,2.63,14.38,14.38,0,0,1,2.48,2.09,7.94,7.94,0,0,0-.75-5"/><path id="_Path_27" data-name="&lt;Path&gt;" class="cls-1" d="M195.33,19.33a13.18,13.18,0,0,0-.38-2.43A3.81,3.81,0,0,0,194,15a5.56,5.56,0,0,1,.11.76,23.61,23.61,0,0,1-.1,2.85,6.33,6.33,0,0,0,.06,1.2,4.47,4.47,0,0,1,0,1,5.45,5.45,0,0,1-.46-.61,7.29,7.29,0,0,0-1-1.37,9.75,9.75,0,0,0-1.58-1.37,5.82,5.82,0,0,0,.5,1c.17.28.24.55.63,1.21.56.92.8,1,1.42,2,.13.21.68,1,.81,1.28.29-.59.39-1.12.75-2.09a3.84,3.84,0,0,0,.16-1.63"/><path id="_Path_28" data-name="&lt;Path&gt;" class="cls-1" d="M196.18,23.89a10.25,10.25,0,0,0,.6-2.58,4.23,4.23,0,0,0-.16-1.84c0,.13-.16.46-.17.52A9.43,9.43,0,0,1,196,21.2a11.09,11.09,0,0,1-.56,1,9.93,9.93,0,0,0-.48,1.1c-.44,1.08-.47,2.08-.64,2.19a1.91,1.91,0,0,1-.17-.63,5,5,0,0,0-1.78-3.66,3.89,3.89,0,0,0,0,1.59,8.42,8.42,0,0,0,.72,2.2c.21.46.49,1.13.56,1.36.2.58.27.89.4,1.23a25.1,25.1,0,0,0,2.09-3.72"/><path id="_Path_29" data-name="&lt;Path&gt;" class="cls-1" d="M195,29.3a8.27,8.27,0,0,0,1-1.79,7,7,0,0,0,.52-1.56,2.15,2.15,0,0,0,.07-1,11.58,11.58,0,0,1-1.18,2.1c-.41.47-.8.87-1.13,1.26-.5.61-.89,1.18-1.37,1.82A4,4,0,0,1,193,29a6,6,0,0,0-.09-2,12.57,12.57,0,0,0-.58-2.19,6.74,6.74,0,0,0-.46,2.34,15.74,15.74,0,0,0,.38,4,7,7,0,0,1,0,.87,20.09,20.09,0,0,0,1.93-1.71,10.12,10.12,0,0,0,.9-1.06"/><path id="_Path_30" data-name="&lt;Path&gt;" class="cls-1" d="M192.36,34.79a9.39,9.39,0,0,0,1.58-1.4,7.36,7.36,0,0,0,1.11-1.94,3.34,3.34,0,0,0,.29-.93c-1.28,1.54-2.43,1.77-3.64,3.05-.45.47-.91.91-1.15,1.13a1,1,0,0,1-.42.23,1.68,1.68,0,0,1,.14-.56,8.91,8.91,0,0,0,.84-4.92,5.91,5.91,0,0,0-.72,1.21,10.86,10.86,0,0,0-.51,1.08c-.7,1.73-.88,3.73-1.31,4.74a11.91,11.91,0,0,0,3.77-1.7"/><path id="_Path_31" data-name="&lt;Path&gt;" class="cls-1" d="M186.92,38.88a8,8,0,0,0,1.44,0,6.87,6.87,0,0,0,4.56-3.19,10.78,10.78,0,0,1-2.1,1.07c-.63.21-1.23.28-2.28.58-.64.18-1.27.43-1.49.52a2.06,2.06,0,0,1-1,.19s0-.1.26-.39c.52-.58.72-.71,1.15-1.15a5.24,5.24,0,0,0,.63-1c.47-.93.52-1.67.95-2.69a8.19,8.19,0,0,0-3.13,3.76,6.08,6.08,0,0,1-.9,1.35c-.21.21-.51.52-.51.52s.22.06.89.15a14.17,14.17,0,0,0,1.54.29"/><path id="_Path_32" data-name="&lt;Path&gt;" class="cls-1" d="M179.38,39a13.92,13.92,0,0,0-2.3.59,7.46,7.46,0,0,0-.72.33,10.49,10.49,0,0,0-1.29.76,10.88,10.88,0,0,0-2.23,1.88s-.13.13-.05.2.48.27.6.16c.65-.58.62-.76,1.4-1.48a8.37,8.37,0,0,1,.87-.69,10.26,10.26,0,0,1,1.19-.7,3.17,3.17,0,0,1,1.23-.23h0c.14,0,1,0,1.15,0a7.49,7.49,0,0,1,2.46.51,19.22,19.22,0,0,0,2.39.46,9.53,9.53,0,0,0,2.36,0,7.24,7.24,0,0,0,3.08-1c-.79,0-1.6.16-2.38.1a6.37,6.37,0,0,1-1.23-.18c-.72-.23-1.14-.31-1.9-.52a11.83,11.83,0,0,0-2-.32,9.7,9.7,0,0,0-2.62,0"/><polygon id="_Path_33" data-name="&lt;Path&gt;" class="cls-1" points="176.5 3.69 175.05 9.06 173.52 9.06 172.56 5.56 171.62 9.06 170.09 9.06 168.65 3.69 170.09 3.69 170.91 7.38 171.9 3.69 173.29 3.69 174.22 7.38 175.09 3.69 176.5 3.69"/><polygon id="_Path_34" data-name="&lt;Path&gt;" class="cls-1" points="181.26 4.73 178.79 4.73 178.79 5.72 181.08 5.72 181.08 6.76 178.79 6.76 178.79 9.06 177.42 9.06 177.42 3.69 181.26 3.69 181.26 4.73"/><path class="cls-1" d="M186.65,5.38a2.1,2.1,0,0,1-.13.71,1.56,1.56,0,0,1-.36.57,2.22,2.22,0,0,1-.71.48,2.6,2.6,0,0,1-1,.16h-.86V9.06h-1.38V3.69h2.27a3.59,3.59,0,0,1,.87.09A1.88,1.88,0,0,1,186,4a1.44,1.44,0,0,1,.5.54,1.75,1.75,0,0,1,.17.8m-1.43,0a.64.64,0,0,0-.12-.39.65.65,0,0,0-.29-.23,1.2,1.2,0,0,0-.42-.09h-.79v1.6h.4a3.27,3.27,0,0,0,.58,0,.8.8,0,0,0,.38-.17.67.67,0,0,0,.19-.28,1.09,1.09,0,0,0,.06-.39"/><polygon id="_Path_35" data-name="&lt;Path&gt;" class="cls-1" points="170.31 46.5 169.35 49.61 168.29 49.61 167.65 47.51 167.03 49.61 165.96 49.61 165 46.5 166.05 46.5 166.58 48.64 167.25 46.5 168.13 46.5 168.76 48.64 169.29 46.5 170.31 46.5"/><path id="_Path_36" data-name="&lt;Path&gt;" class="cls-1" d="M173.1,46H173l-.17,0a.88.88,0,0,0-.23,0,.55.55,0,0,0-.4.1.58.58,0,0,0-.11.41v0h.77v.68h-.73v2.44h-1V47.17h-.43V46.5h.43v-.09a1.1,1.1,0,0,1,.3-.85,1.29,1.29,0,0,1,.92-.29l.4,0,.32,0Z"/><path class="cls-1" d="M176.72,48a2,2,0,0,1-.12.7,1.55,1.55,0,0,1-.31.52,1.31,1.31,0,0,1-.45.33,1.27,1.27,0,0,1-.54.11,1.5,1.5,0,0,1-.45-.06,2,2,0,0,1-.38-.16v1.3h-1V46.5h1v.33a2.32,2.32,0,0,1,.47-.3,1.27,1.27,0,0,1,.55-.11,1.07,1.07,0,0,1,.9.43,1.9,1.9,0,0,1,.32,1.17m-1,0a1.08,1.08,0,0,0-.16-.66.56.56,0,0,0-.49-.21,1,1,0,0,0-.29,0,1.08,1.08,0,0,0-.28.12V48.9a.65.65,0,0,0,.21.05h.23a.71.71,0,0,0,.59-.23,1.06,1.06,0,0,0,.19-.7"/><rect id="_Path_37" data-name="&lt;Path&gt;" class="cls-1" x="177.48" y="48.52" width="1.04" height="1.09"/><path class="cls-1" d="M182.68,48.06a1.63,1.63,0,0,1-.45,1.21,2,2,0,0,1-2.51,0,1.86,1.86,0,0,1,0-2.42,2,2,0,0,1,2.51,0,1.64,1.64,0,0,1,.45,1.21m-1.23.75a.74.74,0,0,0,.15-.28,1.64,1.64,0,0,0,.05-.46,1.77,1.77,0,0,0-.05-.46.79.79,0,0,0-.14-.29.46.46,0,0,0-.21-.16.76.76,0,0,0-.27,0,.8.8,0,0,0-.26,0,.49.49,0,0,0-.21.16.8.8,0,0,0-.15.3,1.74,1.74,0,0,0-.05.47,1.85,1.85,0,0,0,0,.44.74.74,0,0,0,.14.3.55.55,0,0,0,.21.16A.73.73,0,0,0,181,49a.79.79,0,0,0,.26,0,.49.49,0,0,0,.21-.16"/><path id="_Path_38" data-name="&lt;Path&gt;" class="cls-1" d="M185.65,47.45h-.09l-.2,0h-.24l-.37,0-.35.1v2.08h-1V46.5h1V47a2,2,0,0,1,.57-.37,1.19,1.19,0,0,1,.45-.1h.23Z"/><path class="cls-1" d="M189.24,49.25a1.94,1.94,0,0,1-.13.73,1.12,1.12,0,0,1-.35.47,1.45,1.45,0,0,1-.54.24,2.87,2.87,0,0,1-.71.08,5.29,5.29,0,0,1-.64,0,5,5,0,0,1-.54-.1v-.78h.12a2.93,2.93,0,0,0,.45.13,2.14,2.14,0,0,0,.47.06,1.5,1.5,0,0,0,.45-.05.57.57,0,0,0,.27-.15.55.55,0,0,0,.13-.22,1.26,1.26,0,0,0,0-.34v-.06a1.59,1.59,0,0,1-.4.23,1.47,1.47,0,0,1-1.49-.3A1.75,1.75,0,0,1,186,48a1.84,1.84,0,0,1,.11-.67,1.5,1.5,0,0,1,.3-.48,1.26,1.26,0,0,1,.45-.3,1.43,1.43,0,0,1,.55-.11,1.54,1.54,0,0,1,.46.06,1.34,1.34,0,0,1,.38.16l0-.14h1Zm-1-.62V47.22a.86.86,0,0,0-.21-.06l-.22,0a.74.74,0,0,0-.59.23,1.17,1.17,0,0,0,0,1.26.67.67,0,0,0,.5.17.93.93,0,0,0,.29,0,1.1,1.1,0,0,0,.26-.12"/><path id="_Path_39" data-name="&lt;Path&gt;" class="cls-1" d="M221.47,38.24,220.19,42l-.45-.15a.91.91,0,0,1-.34-.24,1.44,1.44,0,0,1-.18-.38l-.56-1.65L217.85,42l-.45-.15a.88.88,0,0,1-.37-.29,1.7,1.7,0,0,1-.15-.36l-1.07-3h.91l.88,2.51.83-2.51h.6l.88,2.52.78-2.52Z"/><path class="cls-1" d="M225.75,40.07a1.84,1.84,0,0,1-.6,1.42,2.44,2.44,0,0,1-3,0,2,2,0,0,1,0-2.83,2.42,2.42,0,0,1,3,0,1.83,1.83,0,0,1,.6,1.41m-1,0a1.42,1.42,0,0,0-.29-.92,1.15,1.15,0,0,0-1.73,0,1.41,1.41,0,0,0-.3.91,1.39,1.39,0,0,0,.3.92,1,1,0,0,0,.86.39,1.06,1.06,0,0,0,.87-.39,1.42,1.42,0,0,0,.29-.92"/><path class="cls-1" d="M229.41,41.91h-1l-1.26-1.68v1.68h-.84V38.24a6.42,6.42,0,0,1,.91-.05,2.36,2.36,0,0,1,1.19.23,1,1,0,0,1,.52.88,1,1,0,0,1-.2.64.9.9,0,0,1-.58.32ZM228,39.32q0-.56-.71-.56h-.18v1.12h.18c.48,0,.71-.19.71-.57"/><path id="_Path_40" data-name="&lt;Path&gt;" class="cls-1" d="M232.36,41.25l-.26.65h-2.23V38.24h.84v3.11l.43,0a5.11,5.11,0,0,0,1.22-.11"/><path class="cls-1" d="M236.17,40.07a1.67,1.67,0,0,1-.66,1.39,2.73,2.73,0,0,1-1.73.49,6.32,6.32,0,0,1-1-.07V38.25a6.54,6.54,0,0,1,1-.07,2.73,2.73,0,0,1,1.73.49,1.69,1.69,0,0,1,.66,1.4m-.93,0a1.27,1.27,0,0,0-.37-1,1.45,1.45,0,0,0-1-.32h-.25v2.57h.25q1.37,0,1.37-1.29"/><path class="cls-1" d="M217.49,49.35h-1.64l-2.11-2.65v2.65H212.4V43.53a11.21,11.21,0,0,1,1.48-.08,3.86,3.86,0,0,1,1.91.37,1.55,1.55,0,0,1,.82,1.39,1.41,1.41,0,0,1-1.29,1.51Zm-2.14-4.12c0-.64-.54-.86-1.29-.86l-.32,0v1.75a2.1,2.1,0,0,0,.32,0c.75,0,1.29-.33,1.29-.93"/><path id="_Path_41" data-name="&lt;Path&gt;" class="cls-1" d="M229.42,48.75a3.23,3.23,0,0,1-2.21.82,3.67,3.67,0,0,1-2.48-.94,2.81,2.81,0,0,1-.87-2.23,3,3,0,0,1,.89-2.19,3.27,3.27,0,0,1,2.35-.83,4.21,4.21,0,0,1,1.82.34v1a3,3,0,0,0-1.62-.43,2,2,0,0,0-1.51.6,2.23,2.23,0,0,0,0,3,2,2,0,0,0,1.48.59,2.16,2.16,0,0,0,.87-.18V46.47h1.28Z"/><path class="cls-1" d="M234.94,47.51a1.6,1.6,0,0,1-1.06,1.59,4.53,4.53,0,0,1-2,.34,12.35,12.35,0,0,1-1.49-.07V43.48c.6-.05,1.1,0,1.5,0a4.2,4.2,0,0,1,2,.38,1.23,1.23,0,0,1,.56,1.12,1.25,1.25,0,0,1-.62,1l-.11.06-.11,0a2.07,2.07,0,0,1,.65.26l.09.06a1.44,1.44,0,0,1,.57,1s0,.09,0,.14M233.23,45c0-.55-.51-.73-1.18-.73h-.35v1.46h.41c.68,0,1.12-.24,1.12-.73m.44,2.58c0-.67-.58-1-1.43-1h-.55v2h.6c1,0,1.38-.38,1.38-1"/><path id="_Path_42" data-name="&lt;Path&gt;" class="cls-1" d="M220.39,49.57a2.37,2.37,0,0,1-2.6-2.59V43.53h1.36v3.41c0,.95.48,1.52,1.26,1.52s1.26-.55,1.26-1.47V43.53H223v3.4a2.4,2.4,0,0,1-2.63,2.63"/><polygon id="_Path_43" data-name="&lt;Path&gt;" class="cls-1" points="239.13 43.53 237.7 45.82 236.28 43.53 234.79 43.53 237.05 47.04 237.05 49.35 237.7 49.35 238.35 49.35 238.35 47.04 240.61 43.53 239.13 43.53"/><path id="_Path_44" data-name="&lt;Path&gt;" class="cls-1" d="M217.48,21.11a49.48,49.48,0,0,1-.23-12.86l0-.32a35.13,35.13,0,0,0-4.46,3.41,36.35,36.35,0,0,0-.16,3.9,27.69,27.69,0,0,0,1.12,7.66,19.14,19.14,0,0,0,3.69,6.86,13.6,13.6,0,0,0,5.78,4.17l.6.18-.44-.44c-3-3-5-7.21-5.92-12.57"/><path id="_Path_45" data-name="&lt;Path&gt;" class="cls-1" d="M230.76,14.27a96.48,96.48,0,0,0-.57-12.45,36.59,36.59,0,0,0-8.83,3.77s-.22,4.56-.2,7.18c0,11.35,1.37,16.91,2.53,19.58.94,2,2.22,2.21,2.27,2.22s1.33-.22,2.27-2.22c1.57-3.6,2.44-9.85,2.52-18.07"/><path id="_Path_46" data-name="&lt;Path&gt;" class="cls-1" d="M236.8,0a16.24,16.24,0,0,0-3.37.79C239.08,24.36,228.17,34,228.17,34c18.19-8,8.63-34,8.63-34"/><polygon id="_Path_47" data-name="&lt;Path&gt;" class="cls-1" points="239.29 48.19 240.23 48.19 240.23 48.36 239.86 48.36 239.86 49.35 239.66 49.35 239.66 48.36 239.29 48.36 239.29 48.19"/><polygon id="_Path_48" data-name="&lt;Path&gt;" class="cls-1" points="240.36 48.19 240.65 48.19 240.97 49.1 240.97 49.1 241.28 48.19 241.57 48.19 241.57 49.35 241.37 49.35 241.37 48.45 241.37 48.45 241.05 49.35 240.88 49.35 240.56 48.45 240.56 48.45 240.56 49.35 240.36 49.35 240.36 48.19"/><path class="cls-1" d="M164.6,80.54a5.4,5.4,0,1,1,5.45-5.4,5.2,5.2,0,0,1-5.45,5.4m22.78-8c-2,0-3.72.37-4.55,1.13a2.75,2.75,0,0,0-.82,2.2V96.32c0,3.4-.55,5.24-1.75,6.53a6.15,6.15,0,0,1-4.54,1.75,5.93,5.93,0,0,1-4.3-1.59A6.31,6.31,0,0,1,170,98.4V85.09c0-.58-.22-.84-.86-.84h-9c-.64,0-.85.25-.85.84v12c0,4.8,1.24,7.55,3.4,9.71,2.81,2.81,7.61,4.06,12.17,4.06s9.31-1.62,12.11-4.21c2.76,2.51,7.76,4.21,13.29,4.21,7.3,0,12.67-3,15.8-8.15,1.39,2.15,2.42,3.76,3.41,5.22,1.45,2.15,2.78,2.94,5.74,2.94,2.8,0,4.49-.67,6-3A102,102,0,0,0,241,88a6.75,6.75,0,0,0,.52-1.81c0-.39-.25-.69-.85-.88l-2.94-.91a9.33,9.33,0,0,0-2.07-.52c-.53,0-.82.3-1,.91A88.28,88.28,0,0,1,227.52,102c-.81-1.55-2.32-4.26-3.72-6.7-2.16-3.77-4.3-7.58-5.37-9.33s-1.81-2.24-3.24-2.24c-2.94,0-7.29,2.64-7.29,5.1a5.46,5.46,0,0,0,1.1,2.94,8.86,8.86,0,0,1,1.48,4.73c0,4.18-3.12,8-9.16,8a8.79,8.79,0,0,1-6.51-2.29c-1.37-1.41-2-3.31-2-6.47V90.4a9.48,9.48,0,0,0,3.73.65h4.78c.64,0,.87-.26.87-.84V85.09c0-.58-.23-.84-.87-.84h-8.51V75.88a2.75,2.75,0,0,0-.82-2.2c-.83-.76-2.54-1.13-4.55-1.13"/><g id="_Group_" data-name="&lt;Group&gt;"><path id="_Compound_Path_" data-name="&lt;Compound Path&gt;" class="cls-1" d="M184.42,59.77l0,.39a3.34,3.34,0,0,0-.87-.13c-.59,0-1,.18-1,.67s.23.57.72.7l.42.11a1.75,1.75,0,0,1,.81.4,1,1,0,0,1,.26.76c0,.8-.58,1.17-1.44,1.17a3.15,3.15,0,0,1-1.13-.19.1.1,0,0,1-.07-.1,1,1,0,0,1,0-.15c0-.12.06-.14.1-.14l.1,0a3.35,3.35,0,0,0,1,.15c.66,0,1-.25,1-.75s-.15-.6-.71-.75l-.4-.11a1.75,1.75,0,0,1-.77-.39,1,1,0,0,1-.3-.73c0-.71.58-1.09,1.39-1.09A3.31,3.31,0,0,1,184.42,59.77Z"/><path id="_Compound_Path_2" data-name="&lt;Compound Path&gt;" class="cls-1" d="M185.61,63.54a1.26,1.26,0,0,1-.24-.87v-2h.46v2a1,1,0,0,0,.14.62.66.66,0,0,0,.55.2,1.49,1.49,0,0,0,.86-.34V60.65h.46v2.09c0,.49,0,.86,0,.92s0,.13-.19.13-.2,0-.23-.14l-.05-.22a1.6,1.6,0,0,1-1,.4A1,1,0,0,1,185.61,63.54Z"/><path id="_Compound_Path_3" data-name="&lt;Compound Path&gt;" class="cls-1" d="M188.66,60.8a3.92,3.92,0,0,1,1.23-.2c1,0,1.52.51,1.52,1.62v0A1.47,1.47,0,0,1,190,63.83a2.22,2.22,0,0,1-.85-.18V65c0,.07,0,.17-.24.17s-.23-.1-.23-.17Zm.46,2.51a2,2,0,0,0,.74.16c.63,0,1.08-.35,1.08-1.24a1.43,1.43,0,0,0-.28-1,1,1,0,0,0-.8-.27,2.62,2.62,0,0,0-.74.11Z"/><path id="_Compound_Path_4" data-name="&lt;Compound Path&gt;" class="cls-1" d="M192.12,60.8a3.92,3.92,0,0,1,1.23-.2c1,0,1.52.51,1.52,1.62v0a1.47,1.47,0,0,1-1.44,1.59,2.22,2.22,0,0,1-.85-.18V65c0,.07,0,.17-.24.17s-.23-.1-.23-.17Zm.46,2.51a2,2,0,0,0,.74.16c.63,0,1.08-.35,1.08-1.24a1.43,1.43,0,0,0-.28-1,1,1,0,0,0-.8-.27,2.62,2.62,0,0,0-.74.11Z"/><path id="_Compound_Path_5" data-name="&lt;Compound Path&gt;" class="cls-1" d="M195.47,62.2c0-1.07.54-1.6,1.46-1.6s1.46.53,1.46,1.6v0c0,1.07-.49,1.61-1.46,1.61s-1.46-.55-1.46-1.61Zm1.46,1.27c.66,0,1-.42,1-1.26s-.32-1.25-1-1.25-1,.36-1,1.25S196.25,63.47,196.93,63.47Z"/><path id="_Compound_Path_6" data-name="&lt;Compound Path&gt;" class="cls-1" d="M199.56,63.63c0,.07,0,.17-.24.17s-.23-.1-.23-.17v-3h.4l0,.71a2.08,2.08,0,0,1,1.23-.77v.5a2.14,2.14,0,0,0-1.21.69Z"/><path id="_Compound_Path_7" data-name="&lt;Compound Path&gt;" class="cls-1" d="M202,59.86h.21v.79h1l0,.36h-1v1.81c0,.26,0,.41.11.5a.59.59,0,0,0,.41.11c.14,0,.34,0,.38,0s.07,0,.08.08,0,.14,0,.17,0,.08-.08.1a2,2,0,0,1-.48.07c-.69,0-.88-.26-.88-.94V61h-.56c-.07,0-.08,0-.08-.11a.13.13,0,0,1,.07-.13A2.17,2.17,0,0,0,202,59.86Z"/><path id="_Compound_Path_8" data-name="&lt;Compound Path&gt;" class="cls-1" d="M205.27,63.83a1.61,1.61,0,0,1-1.2-.38,1.72,1.72,0,0,1-.37-1.23v0c0-1,.46-1.61,1.4-1.61s1.29.46,1.29,1.39c0,.09,0,.26,0,.37h-2.19a.92.92,0,0,0,1.14,1.09,3.88,3.88,0,0,0,.64-.07l.12,0c.05,0,.07,0,.07.09a1.52,1.52,0,0,1,0,.18c0,.07,0,.08-.09.11A3.72,3.72,0,0,1,205.27,63.83Zm.65-1.85a.63.63,0,0,0,0-.09c0-.61-.24-.93-.82-.93s-.9.39-.93,1Z"/><path id="_Compound_Path_9" data-name="&lt;Compound Path&gt;" class="cls-1" d="M209.28,59.42h.46v4.1c0,.08,0,.09-.14.14a3.91,3.91,0,0,1-1.11.18c-1,0-1.51-.51-1.51-1.62v0a1.43,1.43,0,0,1,1.44-1.59,2.08,2.08,0,0,1,.86.2Zm0,1.73a1.78,1.78,0,0,0-.8-.18c-.59,0-1,.33-1,1.24s.23,1.26,1.06,1.26a3.46,3.46,0,0,0,.77-.09Z"/><path id="_Compound_Path_10" data-name="&lt;Compound Path&gt;" class="cls-1" d="M211.89,63.55V59.42h.46v1.45a2.14,2.14,0,0,1,1-.28c.74,0,1.26.52,1.26,1.59v0a1.71,1.71,0,0,1-.4,1.21,1.65,1.65,0,0,1-1.21.41,4.46,4.46,0,0,1-1.06-.15C211.9,63.66,211.89,63.63,211.89,63.55Zm.46-.17a3.43,3.43,0,0,0,.72.08,1,1,0,0,0,.78-.25,1.37,1.37,0,0,0,.32-1c0-.93-.34-1.25-.93-1.25a1.87,1.87,0,0,0-.9.27Z"/><path id="_Compound_Path_11" data-name="&lt;Compound Path&gt;" class="cls-1" d="M217.86,60.65c-.43,1.36-.83,2.6-1.41,4.35,0,.07-.08.14-.27.14s-.2-.06-.2-.11a.23.23,0,0,1,0-.08c.18-.46.3-.83.42-1.17h-.16a.15.15,0,0,1-.16-.11c-.33-.91-.69-2-1-3h.49c.17.6.36,1.17.87,2.78h.08l.85-2.78Z"/></g><path class="cls-1" d="M0,2.83l6.38.69L6.31,56.16l14.8-2L18.59,3.53,24.21,3l2,71.89-4.51.42L21,59.4,6.52,60,4.85,75.21l-3.61-.69Z"/><path class="cls-1" d="M145,0l1.54.49.34,97,.05,2.69-.4,10.74-.87-.49Z"/><g id="_Group_2" data-name="&lt;Group&gt;"><path id="_Compound_Path_12" data-name="&lt;Compound Path&gt;" class="cls-1" d="M37.21,32.69l-2-28.19-4.85,1-.92-3.43,15.79-.59-.5,1.69-5.31.73L39.22,33Z"/><path id="_Compound_Path_13" data-name="&lt;Compound Path&gt;" class="cls-1" d="M57.85,22.62l-7.23-.37L47.09,32l-2.47.37,8-31.21,2.93.82,7.83,30.39-4.44.37Zm-6.77-2.06,6.22-.5L55.47,11.6c-.46-2.2-.92-4.53-1.28-6.77L53.86,5Z"/><path id="_Compound_Path_14" data-name="&lt;Compound Path&gt;" class="cls-1" d="M80.63,5.42A7.32,7.32,0,0,0,77,4.59c-4.76,0-8.37,5.13-8.37,13s3,13,8.79,13A9.24,9.24,0,0,0,80,30.17l.73,1.42a12,12,0,0,1-5,1.1h-.41c-5.22-.32-10.16-3.8-10.16-14,0-.55,0-1.14,0-1.74.5-9.52,4.07-16,11.58-16A9.77,9.77,0,0,1,82,2Z"/><path id="_Compound_Path_15" data-name="&lt;Compound Path&gt;" class="cls-1" d="M85.81,32.6,84.43,1.12l4.12,1-.27,14.83h.09L95.55,1.12l3.89.78L91.89,15.16,101.5,31.5l-3.89,1.92L90.34,17.09,88.5,20.15,88.32,33Z"/><path id="_Compound_Path_16" data-name="&lt;Compound Path&gt;" class="cls-1" d="M105,32.55,103.65,2.26l3.48-.73.18,28.78L116.56,29l1,2.75Z"/><path id="_Compound_Path_17" data-name="&lt;Compound Path&gt;" class="cls-1" d="M132.21,14.62l.64,1.92L125,17.64,123.7,29l9.84.5.32,1.92-12.9,1.28.46-31L132.62,1l.73,3.48-9.2-.55.73,10.48Z"/></g><g id="_Group_3" data-name="&lt;Group&gt;"><path id="_Compound_Path_18" data-name="&lt;Compound Path&gt;" class="cls-1" d="M47.11,44.36l-.34,19.18C46.64,70.6,43.56,74.11,39,74.11c-4.32,0-7.32-2.74-7.49-10.15L31.1,45.69l2.23-.56L34.91,64c.47,5.57,2.4,7.53,5,7.53s4.41-1.8,4.41-6.29c0-.39,0-.81,0-1.24L43.09,45.47Z"/><path id="_Compound_Path_19" data-name="&lt;Compound Path&gt;" class="cls-1" d="M56.49,73.77l-2.81,1-2-34.08,5.32-.2L67.79,69.1h.1l-.3-29.86,3.71.7-1.2,33.28-2.56.55L55.59,45.16h-.1c-.05,4.77-.1,8.83.3,15.76Z"/><path id="_Compound_Path_20" data-name="&lt;Compound Path&gt;" class="cls-1" d="M87,55.79l9.4.46L96,73.2a20.85,20.85,0,0,1-7.13,1.34,12.47,12.47,0,0,1-9.2-3.87c-2.53-2.69-3.93-7.59-3.93-13.9.05-13.07,6.92-18.13,13.79-18.13A11.77,11.77,0,0,1,95.14,40l-1.65,1.76A10.28,10.28,0,0,0,89.66,41c-6.1,0-10.23,4.86-10.23,13.74C79.43,64.47,82.9,70,89.15,70a6.77,6.77,0,0,0,4-1l-.72-10.18-5.11.88Z"/><path id="_Compound_Path_21" data-name="&lt;Compound Path&gt;" class="cls-1" d="M113.38,54.92l.68,2-8.38,1.17-1.36,12.08,10.47.54.34,2L101.4,74.16l.49-33,11.93-.78.78,3.7-9.79-.58.78,11.16Z"/><path id="_Compound_Path_22" data-name="&lt;Compound Path&gt;" class="cls-1" d="M119.72,74.46l-1.28-31.3a20.34,20.34,0,0,1,5.58-.59c6.09,0,9.24,4.85,9.24,9.47,0,5-3.75,6.86-4.9,6.91V59c2.33.69,4.26,2.75,5.17,6.64a24.56,24.56,0,0,0,2.75,7.23l-4.3.87a44.63,44.63,0,0,1-2.11-7.6c-1-4.44-2.65-6-5.77-6.31l-2.2-.23.6,13.82Zm4.48-16.93a6.51,6.51,0,0,0,6.18-6.73c0-5.67-4.94-5.67-6.59-5.67a5,5,0,0,0-1.28.14l-.37,12.4Z"/></g><g id="_Group_4" data-name="&lt;Group&gt;"><path id="_Compound_Path_23" data-name="&lt;Compound Path&gt;" class="cls-1" d="M7.56,110.74,5.75,85.28l-4.38.91-.83-3.1,14.26-.54-.45,1.53-4.79.66L9.38,111Z"/><path id="_Compound_Path_24" data-name="&lt;Compound Path&gt;" class="cls-1" d="M15.38,97.14c0-10.58,4.22-14.92,9.05-14.92,5.33,0,8,4.13,8,13.43,0,12.4-5.08,15.09-8.93,15.09C18.48,110.74,15.38,107.06,15.38,97.14Zm14.09.37c0-5.66-1.49-12.81-6-12.81-4.22,0-5.21,5.29-5.21,10.37,0,7.27,1.94,13.18,6,13.18S29.47,102.56,29.47,97.52Z"/><path id="_Compound_Path_25" data-name="&lt;Compound Path&gt;" class="cls-1" d="M44.23,96l7.52.37L51.42,110a16.68,16.68,0,0,1-5.7,1.07,10,10,0,0,1-7.36-3.1c-2-2.15-3.14-6.08-3.14-11.12,0-10.46,5.54-14.51,11-14.51a9.42,9.42,0,0,1,4.46,1.07l-1.32,1.41a8.23,8.23,0,0,0-3.06-.58c-4.88,0-8.18,3.89-8.18,11,0,7.77,2.77,12.23,7.77,12.23a5.41,5.41,0,0,0,3.22-.79l-.58-8.14-4.09.7Z"/><path id="_Compound_Path_26" data-name="&lt;Compound Path&gt;" class="cls-1" d="M66,94.42l.58,1.74-7.11,1-1.16,10.25,8.89.45.29,1.74-11.66,1.16.41-28,10.13-.66.66,3.14-8.31-.5.66,9.46Z"/><path id="_Compound_Path_27" data-name="&lt;Compound Path&gt;" class="cls-1" d="M75.89,110.74,74.07,85.28l-4.38.91-.83-3.1,14.26-.54-.45,1.53-4.79.66L77.7,111Z"/><path id="_Compound_Path_28" data-name="&lt;Compound Path&gt;" class="cls-1" d="M86.59,82.14l3.8.41L89,94.87l9.26-.29-.62-12,3.35-.33.29,28.19-2.69.25-.37-13-9.09-.54-1,13.47L86,110.2Z"/><path id="_Compound_Path_29" data-name="&lt;Compound Path&gt;" class="cls-1" d="M116.76,94.42l.58,1.74-7.11,1-1.16,10.25,8.89.45.29,1.74-11.66,1.16.41-28,10.13-.66.66,3.14-8.31-.5.66,9.46Z"/><path id="_Compound_Path_30" data-name="&lt;Compound Path&gt;" class="cls-1" d="M122.34,111l-1.16-28.27a18.38,18.38,0,0,1,5-.54c5.5,0,8.35,4.38,8.35,8.56,0,4.55-3.39,6.2-4.42,6.24v.08c2.11.62,3.84,2.48,4.67,6a22.17,22.17,0,0,0,2.48,6.53l-3.89.79a40.3,40.3,0,0,1-1.9-6.86c-.91-4-2.4-5.41-5.21-5.7l-2-.21.54,12.48Zm4.05-15.29A5.88,5.88,0,0,0,132,89.66c0-5.13-4.46-5.13-6-5.13a4.5,4.5,0,0,0-1.16.12l-.33,11.2Z"/></g></g></g></svg>