<svg xmlns="http://www.w3.org/2000/svg" viewBox="0 0 168.35 221.69"><defs><style>.cls-1,.cls-2{fill:#fff;}.cls-2{opacity:0;}</style></defs><title>client_5</title><g id="EY"><path class="cls-1" d="M3.73,189.31H7.27l.48-.1.38-.1.38-.19.19-.19.19-.19.1-.29.1-.58L9,187.3l-.1-.29-.1-.29-.19-.19-.29-.19-.38-.1-.86-.09H3.73Zm0,6.59h4l.48-.1.38-.19.29-.29.29-.29.19-.38.1-.38.1-.48-.1-.48-.1-.48-.19-.38L9,192.18,8.6,192l-.38-.19-.38-.1H3.73Zm-2.68,2.48V183.58H7.36l1,.1,1,.19.76.29.67.48.57.58.38.67.19.77.1.86-.1.38-.1.48-.1.38-.19.48-.29.29-.29.38-.29.29-.38.19.67.38.38.29.38.38.29.38.29.57.1.57.1.76-.1,1.05-.29,1-.38.76-.57.67-.76.57-.86.38-1.05.19-1.15.09Z"/><path class="cls-2" d="M7.27,189.31H3.73v-3.15H7.07l.86.09.38.1.29.19.19.19.1.29.1.29.1.38-.1.57-.1.29-.19.19-.19.19-.38.19-.38.1Zm0,6.59H3.73v-4.2H7.84l.38.1.38.19.38.19.19.29.19.38.1.48.1.48-.1.48-.1.38-.19.38-.29.29-.29.29-.38.19-.48.1Zm5.16-2.2h0l-.1-.76-.1-.57-.29-.57-.29-.38-.38-.38-.38-.29-.67-.38.38-.19.29-.29.29-.38.29-.29.19-.48.1-.38.1-.48.1-.38-.1-.86-.19-.76-.38-.67-.57-.58-.67-.48-.76-.29-1-.19-1-.1H1.05v14.81H7.27l1.15-.1,1.05-.19.86-.38.76-.57.57-.67.38-.76.29-1Z"/><polygon class="cls-1" points="17.78 198.57 17.21 198.48 16.73 198.38 16.25 198.1 15.87 197.91 15.58 197.52 15.01 196.86 14.63 196.09 14.44 195.23 14.34 194.47 14.34 193.7 14.34 187.59 17.02 187.59 17.02 193.51 17.02 194.18 17.11 194.75 17.3 195.14 17.49 195.52 17.78 195.81 18.07 196 18.55 196.19 19.02 196.19 19.41 196.19 19.89 196 20.17 195.81 20.46 195.52 20.74 195.14 20.84 194.75 20.94 194.18 21.03 193.61 21.03 187.59 23.61 187.59 23.61 198.38 21.03 198.38 21.03 197.52 20.46 198 19.89 198.38 19.12 198.57 18.35 198.67 17.78 198.57"/><polygon class="cls-2" points="18.35 198.67 18.35 198.67 19.12 198.57 19.89 198.38 20.46 198 21.03 197.52 21.03 198.38 23.61 198.38 23.61 187.59 21.03 187.59 21.03 193.61 20.94 194.18 20.84 194.75 20.74 195.14 20.46 195.52 20.17 195.81 19.89 196 19.41 196.19 19.02 196.19 18.55 196.19 18.07 196 17.78 195.81 17.49 195.52 17.3 195.14 17.11 194.75 17.02 194.18 17.02 193.51 17.02 187.59 14.34 187.59 14.34 193.7 14.34 194.47 14.44 195.23 14.63 196.09 15.01 196.86 15.58 197.52 15.87 197.91 16.25 198.1 16.73 198.38 17.21 198.48 17.78 198.57 18.35 198.67"/><polygon class="cls-1" points="59.08 198.38 59.08 192.46 59.08 191.79 58.98 191.31 58.79 190.84 58.6 190.45 58.31 190.17 58.03 189.98 57.55 189.88 57.17 189.78 56.69 189.88 56.21 189.98 55.92 190.17 55.64 190.45 55.35 190.84 55.16 191.31 55.06 191.79 55.06 192.46 55.06 198.38 52.39 198.38 52.39 187.59 55.06 187.59 55.06 188.54 55.64 187.97 56.31 187.68 56.98 187.4 57.74 187.4 58.7 187.4 59.46 187.68 60.13 188.06 60.7 188.64 61.18 189.31 61.47 190.17 61.66 191.12 61.76 192.27 61.76 198.38 59.08 198.38"/><polygon class="cls-2" points="55.06 192.46 55.06 192.46 55.06 191.79 55.16 191.31 55.35 190.84 55.64 190.45 55.92 190.17 56.21 189.98 56.69 189.88 57.17 189.78 57.55 189.88 58.03 189.98 58.31 190.17 58.6 190.45 58.79 190.84 58.98 191.31 59.08 191.79 59.08 192.46 59.08 198.38 61.76 198.38 61.76 192.27 61.66 191.12 61.47 190.17 61.18 189.31 60.7 188.64 60.13 188.06 59.46 187.68 58.7 187.4 57.74 187.4 56.98 187.4 56.31 187.68 55.64 187.97 55.06 188.54 55.06 187.59 52.39 187.59 52.39 198.38 55.06 198.38 55.06 192.46"/><rect class="cls-1" x="26.1" y="187.59" width="2.68" height="10.8"/><rect class="cls-2" x="26.1" y="187.59" width="2.68" height="10.8"/><polygon class="cls-1" points="31.07 198.38 31.07 184.44 33.74 183.1 33.74 198.38 31.07 198.38"/><polygon class="cls-2" points="31.07 198.38 33.74 198.38 33.74 183.1 31.07 184.44 31.07 198.38"/><path class="cls-1" d="M40.05,189.88l-.38.1-.38.09-.29.29-.29.38-.19.57-.1.67-.1.86.1,1,.1.76.19.58.29.38.38.29.29.19.38.19h.38l.57-.09.57-.29.38-.29.29-.38v-4.3l-.29-.29-.38-.38-.57-.29-.67-.09Zm-1.15,8.7-.86-.29-.67-.48-.67-.67-.48-.86-.29-1-.19-1.15-.1-1.24.1-1.24.19-1.15.38-.86.48-.86.57-.58.76-.48.76-.29,1-.1h.67l.67.19.57.29.48.48v-3.92l2.68-1.34v15.29H42.25v-.77l-.57.38-.57.38-.57.19-.67.09Z"/><path class="cls-2" d="M40.44,196.18h-.38l-.38-.19-.29-.19-.38-.29-.29-.38-.19-.57-.1-.76-.1-1,.1-.86.1-.67.19-.57.29-.38.29-.29.38-.09.38-.1.29-.09.67.09.57.29.38.38.29.29v4.3l-.29.38-.38.29-.57.29Zm1.82-7.83h0l-.48-.48-.57-.29-.67-.19h-.67l-1,.1-.76.29-.76.48-.57.58-.48.86-.38.86-.19,1.15-.1,1.24.1,1.24.19,1.15.29,1,.48.86.67.67.67.48.86.29,1,.09.67-.09.57-.19.57-.38.57-.38v.76h2.68V183.1l-2.68,1.34Z"/><path class="cls-1" d="M99.52,189.88l-.57.19-.38.38-.38.48v4.2l.29.29.38.38.57.29.29.09h.38l.48-.09.38-.1.38-.29.29-.38.19-.48.1-.57.1-.67.1-.76-.1-.76-.1-.67-.19-.48-.29-.48-.29-.29-.38-.19-.38-.1-.29-.09Zm.38,8.7-.67-.19-.57-.38-.48-.38v.76H95.5V184.72l2.68-1.34v5l.48-.38.67-.38.57-.19h.67l1,.1.76.29.77.48.57.58.48.86.38.86.19,1.15.1,1.24-.1,1.24-.19,1.15-.29,1-.48.86-.67.67-.67.48-.86.29-1,.09Z"/><path class="cls-2" d="M100.09,189.78h0l.29.1.38.1.38.19.29.29.29.48.19.48.1.67.1.76-.1.76-.1.67-.1.57-.19.48-.29.38L101,196l-.38.1-.48.09h-.38l-.29-.09-.57-.29-.38-.39-.29-.29v-4.2l.38-.48.38-.38.57-.19Zm.48-2.39H99.9l-.57.19-.67.38-.48.38v-5l-2.68,1.34v13.66h2.68v-.76l.48.38.57.38.67.19.67.09,1-.09.86-.29.67-.48.67-.67.48-.86.29-1,.19-1.15.1-1.24-.1-1.24-.19-1.15-.38-.86-.48-.86-.57-.58-.77-.48-.76-.29Z"/><path class="cls-1" d="M67.59,189.88l-.38.19-.29.29-.29.38-.19.57-.1.67-.1.86.1,1,.1.67.19.67.29.38.29.29.38.19.38.19h.29l.67-.09.48-.29.48-.29.29-.38v-4.3l-.29-.38-.38-.29-.57-.29-.67-.1h-.38Zm-1,10.8h.1l1.15-.09.86-.19.57-.29.48-.38.19-.48.19-.48v-1.15l-.57.38-.57.38-.57.19-.76.09-.86-.09-.86-.39-.67-.48-.67-.57-.48-.86-.29-1-.29-1.15V191.7l.29-1.15.29-1,.57-.76.57-.67.76-.38.77-.29,1-.1h.67l.67.19.57.38.48.38v-.77h2.68v9.84l-.1,1.24-.19,1.05-.48,1-.19.38-.38.38-.29.29-.38.29-1,.38-1.05.29-1.24.09Z"/><path class="cls-2" d="M70.17,190.83v4.3l-.29.38-.48.29-.48.29-.67.1H68l-.38-.19-.38-.19-.29-.29-.29-.38-.19-.67-.1-.67-.1-1,.1-.86.1-.67.19-.57.29-.38.29-.29.38-.19.29-.1h.38l.67.1.57.29.38.29Zm0-2.48h0l-.48-.38-.57-.38-.67-.19h-.67l-1,.1-.77.29-.76.38-.57.67-.57.76-.29,1-.29,1.15v2.49l.29,1.15.29,1,.48.86.67.57.67.48.86.38.86.1.76-.1.57-.19.57-.38.57-.38v1.15l-.19.48-.19.48-.48.38-.57.29-.86.19-1.15.09h-.1l1,2.1,1.24-.09,1.05-.29,1-.38.38-.29.29-.29.38-.38.19-.38.48-1,.19-1.05.1-1.24v-9.84H70.17Z"/><path class="cls-1" d="M83,193.41l-.29.1-.29.19-.19.19-.19.29-.1.29v.67l.1.38.19.29.19.19.29.19.29.1.38.1.38.1.67-.1.67-.29.38-.38.38-.38V193.8l-.48-.19-.48-.19-.57-.1h-1Zm-.48,5.16-.67-.09-.67-.29-.57-.38-.57-.57-.38-.67-.29-.76-.1-1,.1-1,.29-.77.48-.57.57-.48.67-.39.67-.19.76-.19h1.34l.67.09.57.19.48.19v-1.05l-.1-.38-.19-.29-.19-.19-.29-.19-.38-.09-.76-.1-.76.1-.76.09-.67.29-.57.29-1.05-1.82,1-.48,1-.38,1.05-.19h2l.86.19.76.38.67.38.48.57.38.58.19.76.1.86v7.26H85.85v-.86l-.57.48-.76.38-.67.19-.57.1Z"/><path class="cls-2" d="M81.93,194.85h0v-.38l.1-.29.19-.29.19-.19.29-.19.29-.1.38-.1h1l.57.1.48.19.48.19v1.53l-.38.38-.38.38-.67.29-.67.1-.38-.1-.38-.1-.29-.1L82.4,196l-.19-.19-.19-.29-.1-.38Zm-.77-4.59h0l.57-.29.67-.29.76-.1.76-.09.76.09.38.1.29.19.19.19.19.29.1.38v1.05l-.48-.19-.57-.19-.67-.09H82.79l-.76.19-.67.19-.67.38-.57.48-.48.57-.29.77-.1,1,.1,1,.29.76.38.67.57.57.57.38.67.29.67.09.76.1.57-.1.67-.19.76-.38.57-.48v.86h2.68v-7.26l-.1-.86-.19-.76-.38-.58-.48-.57L86.7,188l-.76-.38-.86-.19h-2l-1.05.19-1,.38-1,.48Z"/><path class="cls-1" d="M110.51,189.69l-.38.1-.38.19-.29.29-.19.29-.19.38-.19.48v.48h4l-.1-.86-.19-.38-.19-.29-.29-.29-.38-.29-.38-.1-.48-.1Zm-.38,8.88-1.05-.38-.86-.48-.67-.57-.67-.86-.38-1-.29-1.05-.1-1.24.1-1.24.29-1.05.38-1,.58-.86.76-.67.76-.48,1-.29,1.05-.1,1,.1.86.29.77.48.67.67.57.77.38,1,.19,1.15.1,1.24v.76h-6.69l.19.77.19.57.38.38.29.29.48.19.28.09.67.1.67-.1.57-.19.48-.29.38-.38,1.72,1.72-.48.38-.38.38-.48.29-.48.19-1,.38-1,.1Z"/><path class="cls-2" d="M108.89,191.89h0v-.48l.19-.48.19-.38.19-.29.29-.29.38-.19.38-.1.38-.1.48.1.38.1.38.29.29.29.19.29.19.38.1.86Zm4.49,3.34h0l-.38.38-.48.29-.57.19-.67.1-.67-.1-.28-.09-.48-.19-.29-.29-.38-.38-.19-.57-.19-.77h6.69V193l-.1-1.24-.19-1.15-.38-1-.57-.77-.67-.67-.77-.48-.86-.29-1-.1-1.05.1-1,.29-.76.48-.76.67-.58.86-.38,1-.29,1.05-.1,1.24.1,1.24.29,1.05.38,1,.67.86.67.57.86.48,1.05.38,1.15.1,1-.1,1-.38.48-.19.48-.29.38-.38.48-.38Z"/><path class="cls-1" d="M136.23,189.69l-.38.1-.29.19-.29.29-.29.29-.19.38-.1.48v.48h4l-.19-.86-.1-.38-.19-.29-.29-.29-.38-.29-.38-.1-.48-.1Zm-.29,8.88-1.05-.38-.86-.48-.77-.57-.57-.86-.48-1-.19-1.05-.1-1.24.1-1.24.19-1.05.48-1,.57-.86.67-.67.86-.48,1-.29,1-.09,1,.09.86.29.76.48.67.67.48.77.38,1,.29,1.15.09,1.24v.76H134.6l.1.77.29.57.29.38.38.29.38.19.38.09.57.1.67-.1.57-.19.48-.29.48-.38,1.63,1.72-.38.38-.48.38-.38.29-.48.19-1.05.38-1.05.1Z"/><path class="cls-2" d="M134.69,191.88h0v-.48l.1-.48.19-.38.29-.29.29-.29.29-.19.38-.1.48-.1.48.1.38.1.38.29.29.29.19.29.1.38.19.86Zm4.49,3.34h0l-.48.38-.48.29-.57.19-.67.1-.57-.1L136,196l-.38-.19-.38-.29-.29-.38-.29-.57-.1-.77h6.69V193l-.09-1.24-.29-1.15-.38-1-.48-.77-.67-.67-.76-.48-.86-.29-1-.09-1,.09-1,.29-.86.48-.67.67-.57.86-.48,1-.19,1.05-.1,1.24.1,1.24.19,1.05.48,1,.57.86.77.57.86.48,1.05.38,1.05.1,1.05-.1,1.05-.38.48-.19.38-.29.48-.38.38-.38Z"/><polygon class="cls-1" points="127.72 198.57 127.05 198.29 126.57 198 126.19 197.52 125.9 197.04 125.71 196.47 125.61 195.9 125.52 195.32 125.52 190.07 123.89 190.07 123.89 187.59 125.52 187.59 125.52 184.81 128.19 183.48 128.19 187.59 130.68 187.59 130.68 190.07 128.19 190.07 128.19 194.65 128.29 195.32 128.48 195.71 128.67 195.9 128.86 195.99 129.34 196.09 129.82 196.09 130.2 195.99 130.97 195.61 130.68 198.1 130.2 198.38 129.63 198.48 129.05 198.57 128.38 198.67 127.72 198.57"/><polygon class="cls-2" points="128.19 190.07 130.68 190.07 130.68 187.59 128.19 187.59 128.19 183.48 125.52 184.81 125.52 187.59 123.89 187.59 123.89 190.07 125.52 190.07 125.52 195.32 125.61 195.9 125.71 196.47 125.9 197.04 126.19 197.52 126.57 198 127.05 198.29 127.72 198.57 128.38 198.67 129.05 198.57 129.63 198.48 130.2 198.38 130.68 198.1 130.97 195.61 130.2 195.99 129.82 196.09 129.34 196.09 128.86 195.99 128.67 195.9 128.48 195.71 128.29 195.32 128.19 194.65 128.19 190.07"/><polygon class="cls-1" points="120.07 198.57 119.4 198.29 118.92 198 118.54 197.52 118.25 197.04 118.06 196.47 117.97 195.9 117.87 195.32 117.87 190.07 116.25 190.07 116.25 187.59 117.87 187.59 117.87 184.81 120.55 183.48 120.55 187.59 122.84 187.59 122.84 190.07 120.55 190.07 120.55 194.65 120.64 195.32 120.83 195.71 121.02 195.9 121.22 195.99 121.69 196.09 122.17 196.09 122.56 195.99 123.32 195.61 123.03 198.1 122.56 198.38 121.98 198.48 121.41 198.57 120.74 198.67 120.07 198.57"/><polygon class="cls-2" points="123.32 195.61 123.32 195.61 122.56 195.99 122.17 196.09 121.69 196.09 121.22 195.99 121.02 195.9 120.83 195.71 120.64 195.32 120.55 194.65 120.55 190.07 122.84 190.07 122.84 187.59 120.55 187.59 120.55 183.48 117.87 184.81 117.87 187.59 116.25 187.59 116.25 190.07 117.87 190.07 117.87 195.32 117.97 195.9 118.06 196.47 118.25 197.04 118.54 197.52 118.92 198 119.4 198.29 120.07 198.57 120.74 198.67 121.41 198.57 121.98 198.48 122.56 198.38 123.03 198.1 123.32 195.61"/><polygon class="cls-1" points="143.01 198.38 143.01 187.59 145.69 187.59 145.69 188.54 146.16 187.97 146.74 187.68 147.41 187.39 148.08 187.39 148.56 187.39 149.13 187.49 149.61 187.78 150.09 187.97 149.32 190.64 148.94 190.36 148.56 190.16 148.08 190.07 147.6 190.07 147.12 190.07 146.74 190.16 146.45 190.36 146.16 190.64 145.97 191.03 145.78 191.41 145.69 191.98 145.69 192.55 145.69 198.38 143.01 198.38"/><polygon class="cls-2" points="150.09 187.97 150.09 187.97 149.61 187.78 149.13 187.49 148.56 187.39 148.08 187.39 147.41 187.39 146.74 187.68 146.16 187.97 145.69 188.54 145.69 187.59 143.01 187.59 143.01 198.38 145.69 198.38 145.69 192.55 145.69 191.98 145.78 191.41 145.97 191.03 146.16 190.64 146.45 190.36 146.74 190.16 147.12 190.07 147.6 190.07 148.08 190.07 148.56 190.16 148.94 190.36 149.32 190.64 150.09 187.97"/><rect class="cls-1" x="26.1" y="183.38" width="2.68" height="2.67"/><rect class="cls-2" x="26.1" y="183.38" width="2.68" height="2.67"/><rect class="cls-1" x="47.32" y="187.58" width="2.68" height="10.8"/><rect class="cls-2" x="47.32" y="187.58" width="2.68" height="10.8"/><rect class="cls-1" x="47.32" y="183.38" width="2.68" height="2.67"/><rect class="cls-2" x="47.32" y="183.38" width="2.68" height="2.67"/><path class="cls-1" d="M120.74,208.79l-.29.19-.29.29-.29.38-.19.48-.19.77v1.72l.19.76.19.58.29.48.29.29.38.19.29.09h1l.48-.29.38-.38.38-.38v-4.2l-.29-.38-.48-.29-.48-.29-.67-.1h-.38Zm.19,8.69-1-.09-.77-.29-.76-.48-.57-.67-.48-.77-.38-1-.19-1.05-.1-1.34.1-1.24.19-1.05.38-1,.48-.76.57-.67.76-.48.86-.29,1-.1.57.1.67.19.57.29.57.48v-3.92l2.68-1.34V217.3h-2.68v-.86l-.57.48-.67.38-.57.19Z"/><path class="cls-2" d="M121.5,215h-.38l-.29-.09-.38-.19-.29-.29-.29-.48-.19-.57-.19-.76V210.9l.19-.77.19-.48.29-.38.29-.29.29-.19.38-.1h.38l.67.1.48.29.48.29.29.38V214l-.38.38-.38.38-.48.29Zm1.91-7.74h0l-.57-.48-.57-.29-.67-.19-.57-.1-1,.1-.86.29-.77.48-.57.67-.48.76-.38,1-.19,1.05-.1,1.24.1,1.34.19,1.05.38,1,.48.77.57.67.77.48.76.29,1,.09h.67l.57-.19.67-.38.57-.48v.86h2.68V202l-2.68,1.34Z"/><polygon class="cls-1" points="26.29 217.3 26.29 206.5 28.97 206.5 28.97 207.46 29.44 206.88 30.02 206.5 30.59 206.31 31.36 206.22 31.83 206.31 32.41 206.41 32.88 206.6 33.36 206.88 32.6 209.46 32.22 209.27 31.74 209.08 31.36 208.99 30.88 208.89 30.4 208.99 30.02 209.08 29.64 209.27 29.44 209.56 29.16 209.85 29.06 210.32 28.97 210.8 28.97 211.47 28.97 217.3 26.29 217.3"/><polygon class="cls-2" points="33.36 206.88 33.36 206.88 32.88 206.59 32.41 206.41 31.83 206.31 31.36 206.22 30.59 206.31 30.02 206.5 29.44 206.88 28.97 207.46 28.97 206.5 26.29 206.5 26.29 217.3 28.97 217.3 28.97 211.47 28.97 210.8 29.06 210.32 29.16 209.84 29.44 209.56 29.64 209.27 30.02 209.08 30.4 208.99 30.88 208.89 31.36 208.99 31.74 209.08 32.22 209.27 32.6 209.46 33.36 206.88"/><polygon class="cls-1" points="8.89 217.3 7.74 212.81 7.07 210.42 6.5 212.9 5.35 217.3 3.06 217.3 2.96 217.2 0.1 206.88 0.1 206.5 2.68 206.5 3.73 210.51 4.21 213.19 4.59 211.76 4.88 210.42 6.02 206.5 8.32 206.5 9.37 210.42 10.04 213.19 10.61 210.42 11.57 206.5 14.24 206.5 11.19 217.3 8.89 217.3"/><polygon class="cls-2" points="10.61 210.42 10.61 210.42 10.04 213.19 9.37 210.42 8.32 206.5 6.02 206.5 4.88 210.42 4.59 211.76 4.21 213.19 3.73 210.51 2.68 206.5 0 206.5 2.96 217.2 3.06 217.3 5.35 217.3 6.5 212.9 7.07 210.42 7.74 212.81 8.89 217.3 11.19 217.3 14.24 206.5 11.57 206.5 10.61 210.42"/><path class="cls-1" d="M18.83,209l-.38.29-.38.29-.19.48-.19.57-.1.57-.1.67.1.67.1.67.19.48.19.48.38.38.38.29.38.1.48.09.48-.09.38-.1.38-.29.38-.38.19-.48.19-.48.19-.67v-1.34l-.19-.57-.19-.57-.19-.48-.38-.29-.38-.29-.38-.19h-1Zm-.19,8.41-1-.29-.76-.48-.76-.67-.57-.86-.48-1-.19-1.05-.1-1.24.1-1.15.19-1.05.48-1.05.57-.76.76-.67.76-.48,1-.38,1.05-.1,1.05.1,1,.38.77.48.76.67.57.76.48,1.05.19,1.05.1,1.15-.1,1.24-.19,1.05-.48,1-.57.86-.76.67-.77.48-1,.29-1.05.09Z"/><path class="cls-2" d="M19.69,215h0l-.48-.1-.38-.09-.38-.29-.38-.38-.19-.48-.19-.48-.1-.67-.1-.67.1-.67.1-.57.19-.58.19-.48.38-.29.38-.29.38-.19h1l.38.19.38.29.38.29.19.48.19.58.19.57v1.34l-.19.67-.19.48-.19.48-.38.38-.38.29-.38.09Zm0-8.79h0l-1.05.1-1,.38-.76.48-.76.67-.57.76-.48,1.05-.19,1.05-.1,1.15.1,1.24.19,1.05.48,1,.57.86.76.67.76.48,1,.29,1.05.1,1.05-.1,1-.29.77-.48.76-.67.57-.86.48-1,.19-1.05.1-1.24-.1-1.15-.19-1.05-.48-1.05-.57-.76-.76-.67-.77-.48-1-.38Z"/><polygon class="cls-1" points="103.82 217.3 103.82 206.5 106.5 206.5 106.5 207.46 107.07 206.88 107.64 206.5 108.22 206.31 108.89 206.22 109.46 206.31 110.03 206.41 110.51 206.59 110.89 206.88 110.22 209.46 109.84 209.27 109.36 209.08 108.89 208.99 108.41 208.89 108.02 208.99 107.64 209.08 107.26 209.27 106.97 209.56 106.78 209.84 106.69 210.32 106.59 210.8 106.5 211.47 106.5 217.3 103.82 217.3"/><polygon class="cls-2" points="110.89 206.88 110.89 206.88 110.51 206.59 110.03 206.41 109.46 206.31 108.89 206.22 108.22 206.31 107.64 206.5 107.07 206.88 106.5 207.46 106.5 206.5 103.82 206.5 103.82 217.3 106.5 217.3 106.5 211.47 106.59 210.8 106.69 210.32 106.78 209.84 106.97 209.56 107.26 209.27 107.64 209.08 108.02 208.99 108.41 208.89 108.89 208.99 109.36 209.08 109.84 209.27 110.22 209.46 110.89 206.88"/><polygon class="cls-1" points="86.51 217.3 85.27 212.81 84.7 210.42 84.13 212.9 82.88 217.3 80.59 217.3 80.59 217.2 77.53 206.5 80.3 206.5 81.26 210.51 81.83 213.19 82.12 211.76 82.5 210.42 83.65 206.5 85.85 206.5 86.99 210.42 87.66 213.19 88.24 210.42 89.19 206.5 91.87 206.5 88.81 217.3 86.51 217.3"/><polygon class="cls-2" points="88.24 210.42 88.24 210.42 87.66 213.19 86.99 210.42 85.85 206.5 83.65 206.5 82.5 210.42 82.12 211.76 81.83 213.19 81.26 210.51 80.3 206.5 77.53 206.5 80.59 217.2 80.59 217.3 82.88 217.3 84.13 212.9 84.7 210.42 85.27 212.81 86.51 217.3 88.81 217.3 91.87 206.5 89.19 206.5 88.24 210.42"/><path class="cls-1" d="M96.36,209l-.38.29-.29.29-.29.48-.19.58-.1.57v1.34l.1.67.19.48.29.48.29.38.38.29.48.09.48.1.48-.1.38-.09.38-.29.29-.38.29-.48.19-.48.1-.67v-1.34l-.1-.57-.19-.58-.29-.48-.29-.29-.38-.29-.38-.19h-1Zm-.1,8.41-1-.29-.86-.48-.67-.67-.57-.86-.48-1-.29-1.05-.09-1.24.09-1.15.29-1,.48-1,.57-.86.67-.67.86-.48,1-.38,1.05-.09,1,.09,1,.38.86.48.67.67.67.86.38,1,.29,1,.1,1.15-.1,1.24-.29,1.05-.38,1-.67.86-.67.67-.86.48-1,.29-1,.1Z"/><path class="cls-2" d="M97.32,215h0l-.48-.1-.48-.09-.38-.29-.29-.38-.29-.48-.19-.48-.1-.67v-1.34l.1-.57.19-.58.29-.48.29-.29.38-.29.48-.19h1l.38.19.38.29.29.29.29.48.19.58.1.57v1.34l-.1.67-.19.48-.29.48-.29.38-.38.29-.38.09Zm0-8.79h0l-1.05.09-1,.38-.86.48-.67.67-.57.86-.48,1-.29,1-.09,1.15.09,1.24.29,1.05.48,1,.57.86.67.67.86.48,1,.29,1.05.1,1-.1,1-.29.86-.48.67-.67.67-.86.38-1,.29-1.05.1-1.24-.1-1.15-.29-1-.38-1-.67-.86-.67-.67-.86-.48-1-.38Z"/><polygon class="cls-1" points="40.91 217.3 38.62 212.23 37.28 214.05 37.28 217.3 34.61 217.3 34.61 203.35 37.28 202.01 37.28 210.61 38.24 209.27 40.34 206.5 43.5 206.5 40.63 210.03 43.88 217.3 40.91 217.3"/><polygon class="cls-2" points="43.5 206.5 40.34 206.5 38.24 209.27 37.28 210.61 37.28 202.01 34.61 203.35 34.61 217.3 37.28 217.3 37.28 214.05 38.62 212.23 40.91 217.3 43.88 217.3 40.63 210.03 43.5 206.5"/><polygon class="cls-1" points="57.26 217.3 57.26 211.28 57.26 210.7 57.17 210.13 56.98 209.65 56.78 209.37 56.5 209.08 56.21 208.89 55.83 208.7 55.35 208.7 54.87 208.7 54.39 208.89 54.11 209.08 53.82 209.37 53.53 209.75 53.44 210.13 53.34 210.7 53.25 211.28 53.25 217.3 50.57 217.3 50.57 206.5 53.25 206.5 53.25 207.36 53.82 206.88 54.49 206.5 55.16 206.31 56.02 206.21 56.88 206.31 57.74 206.59 58.41 206.98 58.98 207.46 59.37 208.22 59.65 209.08 59.84 210.03 59.94 211.18 59.94 217.3 57.26 217.3"/><polygon class="cls-2" points="53.25 211.28 53.25 211.28 53.34 210.7 53.44 210.13 53.53 209.75 53.82 209.37 54.11 209.08 54.39 208.89 54.87 208.7 55.35 208.7 55.83 208.7 56.21 208.89 56.5 209.08 56.78 209.37 56.98 209.65 57.17 210.13 57.26 210.7 57.26 211.28 57.26 217.3 59.94 217.3 59.94 211.18 59.84 210.03 59.65 209.08 59.37 208.22 58.98 207.46 58.41 206.98 57.74 206.59 56.88 206.31 56.02 206.21 55.16 206.31 54.49 206.5 53.82 206.88 53.25 207.36 53.25 206.5 50.57 206.5 50.57 217.3 53.25 217.3 53.25 211.28"/><path class="cls-1" d="M65.77,208.79l-.38.19-.29.29-.29.39-.19.48-.1.76-.1.77.1,1,.1.76.19.57.29.48.38.29.29.19.38.1h1l.48-.29.48-.38.29-.38v-4.2l-.29-.38-.38-.29-.57-.29-.67-.1h-.29Zm-1,10.8h.1l1.15-.1.86-.19.57-.38.48-.38.19-.38.19-.48v-1.24l-.48.48-.67.29-.57.29H66l-1-.1-.86-.29-.67-.48-.67-.67-.48-.76L62,214.14,61.85,213l-.1-1.24.1-1.24.19-1.05.38-1,.48-.76.57-.67.77-.48.76-.29,1-.1.67.1.67.19.57.29.48.48v-.77H71v9.75l-.1,1.24-.19,1.15-.38,1-.29.38-.29.29-.38.38-.38.29-1,.38L67,221.6l-1.24.1Z"/><path class="cls-2" d="M68.35,209.75V214l-.29.38-.48.38-.48.29h-1l-.38-.1-.29-.19-.38-.29-.29-.48-.19-.57-.1-.76-.1-1,.1-.77.1-.76.19-.48.29-.38.29-.29.38-.19.38-.09h.29l.67.09.57.29.38.29Zm0-2.48h0l-.48-.48-.57-.29-.67-.19-.67-.1-1,.1-.76.29-.77.48-.57.67-.48.76-.38,1-.19,1.05-.1,1.24.1,1.24.19,1.15.29,1.05.48.76.67.67.67.48.86.29,1,.1h.67l.57-.29.67-.29.48-.48v1.24l-.19.48-.19.38-.48.38-.57.38-.86.19-1.15.1h-.1l1,2.1,1.24-.1,1.05-.29,1-.38.38-.29.38-.38.29-.29.29-.38.38-1,.19-1.15.1-1.24V206.5H68.35Z"/><rect class="cls-1" x="45.5" y="206.5" width="2.68" height="10.8"/><rect class="cls-2" x="45.5" y="206.5" width="2.68" height="10.8"/><rect class="cls-1" x="45.5" y="202.29" width="2.68" height="2.68"/><rect class="cls-2" x="45.5" y="202.29" width="2.68" height="2.68"/><polygon class="cls-1" points="112.23 217.29 112.23 203.35 114.91 202.01 114.91 217.29 112.23 217.29"/><polygon class="cls-2" points="112.23 217.29 114.91 217.29 114.91 202.01 112.23 203.35 112.23 217.29"/><polygon class="cls-1" points="0.1 89.7 168.33 28.31 168.35 28.31 168.35 60.03 0.1 89.72 0.1 89.7"/><polygon class="cls-2" points="0 89.74 168.35 28.31 168.35 60.03 0 89.74"/><polygon class="cls-1" points="1.05 168.76 1.05 107.99 35.56 107.99 43.59 121.94 19.21 121.94 19.21 131.97 41.3 131.97 41.3 144.78 19.21 144.78 19.21 154.81 49.71 154.81 49.71 168.76 1.05 168.76"/><polygon class="cls-2" points="19.21 144.78 41.3 144.78 41.3 131.97 19.21 131.97 19.21 121.94 43.59 121.94 35.56 107.99 1.05 107.99 1.05 168.76 49.71 168.76 49.71 154.81 19.21 154.81 19.21 144.78"/><polygon class="cls-1" points="62.52 168.76 62.52 144.78 41.3 107.99 61.47 107.99 71.7 127.86 82.02 107.99 102 107.99 80.68 144.78 80.68 168.76 62.52 168.76"/><polygon class="cls-2" points="82.02 107.99 71.7 127.86 61.47 107.99 41.3 107.99 62.52 144.78 62.52 168.76 80.68 168.76 80.68 144.78 102 107.99 82.02 107.99"/></g></svg>