<?xml version="1.0" encoding="utf-8"?>
<!-- Generator: Adobe Illustrator 21.0.2, SVG Export Plug-In . SVG Version: 6.00 Build 0)  -->
<svg version="1.1" id="Layer_1" xmlns="http://www.w3.org/2000/svg" xmlns:xlink="http://www.w3.org/1999/xlink" x="0px" y="0px"
	 viewBox="0 0 296 118.5" style="enable-background:new 0 0 296 118.5;" xml:space="preserve">
<style type="text/css">
	.st0{enable-background:new    ;}
	.st1{fill:#F1F1F1;}
</style>
<title>agcg</title>
<g>
	<g class="st0">
		<path class="st1" d="M21.1,107.9l-0.3-1.8h-0.2c-1.3,1.2-2.9,2.2-5.5,2.2c-4.2,0-4.8-2.8-4.8-4.9c0-3.3,2-4.8,6.2-5.1l3.8-0.3
			v-1.8c0-1.6-0.2-2.6-2.2-2.6c-1.6,0-2.4,0.2-2.4,2.2L11,95.4c0-4.5,4.1-5.1,7.1-5.1c5,0,7,1.4,7,6v8c0,0.5,0,0.6,0.5,0.7l1.6,0.3
			v2.6L21.1,107.9L21.1,107.9z M20.2,100.8L18,101c-1.9,0.1-2.6,0.6-2.6,1.9s0.8,1.8,1.9,1.8s2.2-0.6,3-1.2L20.2,100.8L20.2,100.8z"
			/>
	</g>
	<g class="st0">
		<path class="st1" d="M42.7,93.7c0.6,0.8,1.2,1.8,1.2,3.3c0,3.7-2.9,5.8-7,5.8c-1.1,0-2-0.1-2.6-0.3l-1.1,1.7l3.2,0.2
			c5.7,0.4,9.1,0.5,9.1,4.9c0,3.8-3.3,5.9-9.1,5.9c-6,0-8.3-1.5-8.3-4.1c0-1.5,0.7-2.3,1.8-3.4c-1.1-0.5-1.5-1.3-1.5-2.2
			c0-0.7,0.4-1.4,1-2s1.3-1.3,2-2c-1.6-0.8-2.8-2.5-2.8-5c0-3.8,2.5-6.4,7.6-6.4c1.4,0,2.3,0.1,3,0.3h6.4v2.8L42.7,93.7z
			 M32.9,108.8c-0.4,0.5-0.9,1.1-0.9,1.7c0,1.3,1.7,1.7,4,1.7c1.9,0,4.5-0.1,4.5-1.9c0-1.1-1.3-1.1-2.8-1.2L32.9,108.8z M36.6,93.6
			c-1.8,0-3.2,0.9-3.2,3c0,1.6,0.9,2.7,3.1,2.7c1.8,0,3.1-1.1,3.1-2.8C39.6,94.7,38.4,93.6,36.6,93.6z"/>
	</g>
	<g class="st0">
		<path class="st1" d="M60,107.9l-0.3-1.8h-0.2c-1.4,1-3.1,2.2-5.9,2.2c-3.5,0-4.8-2-4.8-5.8v-8.1c0-0.5,0-0.6-0.5-0.7l-1.6-0.3
			l0.3-2.7h6.8v10.9c0,2,0.3,2.8,1.7,2.8c1.5,0,2.6-0.8,3.4-1.5v-8.5c0-0.5,0-0.6-0.5-0.7L57,93.4l0.4-2.7H64v13.7
			c0,0.4,0,0.6,0.5,0.6l1.7,0.2v2.6H60V107.9z"/>
	</g>
	<g class="st0">
		<path class="st1" d="M69.5,114.9v-2.7l2.6-0.3c0.4,0,0.6-0.3,0.8-0.7l1.4-3.1L68,94.3c-0.1-0.4-0.3-0.5-0.7-0.6L66,93.4l0.5-2.7
			h8.7v2.7l-2.1,0.3l3.7,8.7H77l3.5-8.7l-2.1-0.3l0.4-2.7h7.4v2.7l-1.1,0.2c-0.4,0.1-0.7,0.2-0.8,0.6L77,112l3.4,0.4v2.6L69.5,114.9
			L69.5,114.9z"/>
	</g>
	<g class="st0">
		<path class="st1" d="M101.6,106.7c-1.5,0.9-3.9,1.6-6.3,1.6c-6,0-8.6-3.7-8.6-8.7c0-6.2,3.8-9.2,9-9.2c2.6,0,4.9,0.7,5.9,1.4V97
			L98,96.8l-0.4-2.2c0-0.2-0.1-0.4-0.4-0.5c-0.4-0.1-1-0.2-1.7-0.2c-2,0-3.7,1.4-3.7,5.2c0,4.3,1.9,5.5,4.3,5.5c1.7,0,3.1-0.5,4.1-1
			L101.6,106.7z"/>
	</g>
	<g class="st0">
		<path class="st1" d="M114.1,107.9l-0.3-1.8h-0.2c-1.3,1.2-2.9,2.2-5.5,2.2c-4.2,0-4.8-2.8-4.8-4.9c0-3.3,2-4.8,6.2-5.1l3.8-0.3
			v-1.8c0-1.6-0.2-2.6-2.2-2.6c-1.6,0-2.4,0.2-2.4,2.2l-4.7-0.4c0-4.5,4.1-5.1,7.1-5.1c5,0,7,1.4,7,6v8c0,0.5,0,0.6,0.5,0.7l1.6,0.3
			v2.6L114.1,107.9L114.1,107.9z M113.2,100.8L111,101c-1.9,0.1-2.6,0.6-2.6,1.9s0.8,1.8,1.9,1.8s2.2-0.6,3-1.2v-2.7H113.2z"/>
		<path class="st1" d="M121.2,107.9v-2.6l1.7-0.2c0.5-0.1,0.5-0.2,0.5-0.7V87c0-0.4-0.1-0.6-0.4-0.7l-1.8-0.6l0.4-2.7h6.9v21.4
			c0,0.5,0,0.6,0.5,0.7l1.6,0.2v2.6H121.2z"/>
	</g>
	<g class="st0">
		<path class="st1" d="M131.6,107.9v-2.6l1.7-0.2c0.5-0.1,0.5-0.2,0.5-0.7V87c0-0.4-0.1-0.6-0.4-0.7l-1.8-0.6L132,83h6.9v21.4
			c0,0.5,0,0.6,0.5,0.7l1.6,0.2v2.6H131.6z"/>
	</g>
	<g class="st0">
		<path class="st1" d="M157.3,106.6c-2,1-4.3,1.7-6.8,1.7c-6.4,0-8.5-4-8.5-9.1c0-6,3.7-8.8,8.2-8.8c4.4,0,7.3,2.3,7.3,8
			c0,0.4,0,1.6-0.1,2.2h-10.1c0.2,2.3,1.2,3.9,3.9,3.9c1.3,0,2.7-0.3,4.9-1.1L157.3,106.6z M152.5,97.4c0-2.8-1.1-3.5-2.5-3.5
			s-2.6,0.8-2.8,3.5H152.5z"/>
	</g>
	<g class="st0">
		<path class="st1" d="M171.8,107.9l-0.3-1.8h-0.2c-1.4,1.4-3,2.3-5.4,2.3c-3.9,0-6.4-2.5-6.4-8.8c0-6.6,3.3-9.1,7-9.1
			c1.9,0,3.4,0.7,4.7,1.6v-5c0-0.3-0.1-0.6-0.4-0.7l-1.8-0.6l0.4-2.7h6.6v21.5c0,0.5,0,0.6,0.5,0.6l1.6,0.2v2.6L171.8,107.9
			L171.8,107.9z M170.9,95.2c-0.8-0.6-1.9-1-2.8-1c-2.4,0-3.4,2.3-3.4,5.2c0,3.2,0.9,5,3,5c1.1,0,2.3-0.7,3.2-1.4V95.2z"/>
	</g>
	<g class="st0">
		<path class="st1" d="M193.8,93.7c0.6,0.8,1.2,1.8,1.2,3.3c0,3.7-2.9,5.8-7,5.8c-1.1,0-2-0.1-2.6-0.3l-1.1,1.7l3.2,0.2
			c5.7,0.4,9.1,0.5,9.1,4.9c0,3.8-3.3,5.9-9.1,5.9c-6,0-8.3-1.5-8.3-4.1c0-1.5,0.7-2.3,1.8-3.4c-1.1-0.5-1.5-1.3-1.5-2.2
			c0-0.7,0.4-1.4,1-2s1.3-1.3,2-2c-1.6-0.8-2.8-2.5-2.8-5c0-3.8,2.5-6.4,7.6-6.4c1.4,0,2.3,0.1,3,0.3h6.4v2.8L193.8,93.7z
			 M184,108.8c-0.4,0.5-0.9,1.1-0.9,1.7c0,1.3,1.7,1.7,4,1.7c1.9,0,4.5-0.1,4.5-1.9c0-1.1-1.3-1.1-2.8-1.2L184,108.8z M187.6,93.6
			c-1.8,0-3.2,0.9-3.2,3c0,1.6,0.9,2.7,3.1,2.7c1.8,0,3.1-1.1,3.1-2.8C190.6,94.7,189.5,93.6,187.6,93.6z"/>
	</g>
	<g class="st0">
		<path class="st1" d="M208.4,107.9l-0.3-1.8h-0.2c-1.3,1.2-2.9,2.2-5.5,2.2c-4.2,0-4.8-2.8-4.8-4.9c0-3.3,2-4.8,6.2-5.1l3.8-0.3
			v-1.8c0-1.6-0.2-2.6-2.2-2.6c-1.6,0-2.4,0.2-2.4,2.2l-4.7-0.4c0-4.5,4.1-5.1,7.1-5.1c5,0,7,1.4,7,6v8c0,0.5,0,0.6,0.5,0.7l1.6,0.3
			v2.6L208.4,107.9L208.4,107.9z M207.5,100.8l-2.2,0.2c-1.9,0.1-2.6,0.6-2.6,1.9s0.8,1.8,1.9,1.8c1.1,0,2.2-0.6,3-1.2L207.5,100.8
			L207.5,100.8z"/>
		<path class="st1" d="M215.6,107.9v-2.7l1.5-0.2c0.5-0.1,0.5-0.2,0.5-0.7v-9.7c0-0.4-0.1-0.6-0.4-0.7l-1.8-0.6l0.4-2.7h5.8l0.4,2.6
			h0.2c1.1-1.7,2.5-3,4.7-3c0.8,0,2.3,0.1,2.9,0.3v6l-4-0.1l-0.3-1.7c-0.1-0.3-0.2-0.4-0.4-0.4c-0.9,0-1.9,0.7-2.4,1.2v8.7
			c0,0.5,0,0.6,0.5,0.7l3.3,0.3v2.6L215.6,107.9L215.6,107.9z"/>
	</g>
	<g class="st0">
		<path class="st1" d="M234,114.9v-2.7l2.6-0.3c0.4,0,0.6-0.3,0.8-0.7l1.4-3.1l-6.3-13.8c-0.1-0.4-0.3-0.5-0.7-0.6l-1.4-0.3l0.5-2.7
			h8.7v2.7l-2.1,0.3l3.7,8.7h0.2l3.5-8.7l-2.1-0.3l0.4-2.7h7.4v2.7l-1.1,0.2c-0.4,0.1-0.7,0.2-0.8,0.6l-7.3,17.8l3.4,0.4v2.6
			L234,114.9L234,114.9z"/>
	</g>
	<g class="st0">
		<path class="st1" d="M252,108.3c-1.9,0-2.8-0.9-2.8-2.6s0.9-2.6,2.8-2.6c1.8,0,2.8,0.9,2.8,2.6S253.9,108.3,252,108.3z"/>
	</g>
	<g class="st0">
		<path class="st1" d="M271.8,106.7c-1.5,0.9-3.9,1.6-6.3,1.6c-6,0-8.6-3.7-8.6-8.7c0-6.2,3.8-9.2,9-9.2c2.6,0,4.9,0.7,5.9,1.4V97
			l-3.5-0.2l-0.4-2.2c0-0.2-0.1-0.4-0.4-0.5c-0.4-0.1-1-0.2-1.7-0.2c-2,0-3.7,1.4-3.7,5.2c0,4.3,1.9,5.5,4.3,5.5
			c1.7,0,3.1-0.5,4.1-1L271.8,106.7z"/>
	</g>
	<g class="st0">
		<path class="st1" d="M273.3,99.4c0-5.5,2.9-9,8.9-9c6.1,0,8.5,3.6,8.5,8.7c0,5.6-2.8,9.2-8.9,9.2
			C275.7,108.3,273.3,104.6,273.3,99.4z M285.5,99.2c0-3.9-1.2-5.3-3.3-5.3c-2.2,0-3.6,1.4-3.6,5.3c0,4,1.3,5.6,3.5,5.6
			C284.1,104.8,285.5,103.3,285.5,99.2z"/>
	</g>
	<g>
		<path class="st1" d="M101.4,22.7c-3.6,2.7,1,9,4.5,8.4c9-2,23.3,0.2,23.3,0.2L108,22.1C105.9,21.1,103.3,21.3,101.4,22.7z"/>
	</g>
	<g>
		<path class="st1" d="M57.3,19.2c-9-2.6-16.8-2.7-24.8-2.6c0,0,19.4-11.3,27.2-7.8C67.3,12.2,60.5,19.6,57.3,19.2z"/>
	</g>
	<g>
		<path class="st1" d="M140.5,70c-3.8,9.7-26.2,6.3-37.9,3c-10-2.9-11.8-17-11.8-21.2s-1.1-8.7,7.4-11.2c19.3-4.8,34-0.1,41.7,2
			S144.3,60.3,140.5,70z M80.5,46.8c1.9,0.2,3.6,1.3,4.5,3c0.8,1.9,4.2,13.9,6,16.8s4.1,7.4,10,9.3s19.7,5.7,35.3,2.4
			c5.4-1.1,9-8.7,9-8.7s4-10.9,4.9-12.1s2.2-1.2,2.6-3.1l0.9-10.4c0,0,0.5-1.4-2.1-2.3c-9.9-3.8-20.3-5.9-30.9-6.2
			c-18-0.7-27.2,3.1-39.9,2.6s-21.6-5-39.6-5.7c-10.5-0.4-21.1,0.9-31.3,4c-2.6,0.6-2.2,2.1-2.2,2.1L7.8,49c0.2,1.9,1.5,2,2.3,3.3
			s4,12.4,4,12.4s3,7.8,8.3,9.3c15.3,4.4,29.3,1.7,35.3,0.3s8.6-5.7,10.7-8.5s6.4-14.5,7.3-16.3C76.8,47.8,78.6,46.8,80.5,46.8z
			 M69.9,51c-0.2,4.1-3.2,18.1-13.4,20.2c-12,2.4-34.6,4.1-37.6-5.9S13.8,39.5,21.6,38s22.9-5,41.7,1.3C71.7,42.3,70,46.9,69.9,51
			L69.9,51z"/>
	</g>
</g>
</svg>
