<?xml version="1.0" encoding="utf-8"?>
<!-- Generator: Adobe Illustrator 20.1.0, SVG Export Plug-In . SVG Version: 6.00 Build 0)  -->
<svg version="1.1" id="Layer_1" xmlns="http://www.w3.org/2000/svg" xmlns:xlink="http://www.w3.org/1999/xlink" x="0px" y="0px"
	 viewBox="0 0 120 59" style="enable-background:new 0 0 120 59;" xml:space="preserve">
<style type="text/css">
	.st0{fill:#FFFFFF;}
</style>
<g>
	<path class="st0" d="M77.2,12.3c-3,2.2,0.7,7.4,3.6,6.9c7.4-1.6,19.1,0.3,19.1,0.3l-17.3-7.7C80.8,11.1,78.7,11.2,77.2,12.3z"/>
	<path class="st0" d="M40.9,9.1c-7.4-2.3-13.8-2.4-20.3-2.3c0,0,16.1-9.1,22.4-6.2C49.2,3.4,43.5,9.4,40.9,9.1z"/>
	<path class="st0" d="M108.9,51.2c-3.2,8-21.6,5-31.2,2.1c-8.2-2.4-9.6-14.1-9.5-17.5c0.1-3.3-0.8-7.2,6.1-9.1
		c15.9-3.8,28,0.2,34.3,2C114.9,30.4,112.1,43.3,108.9,51.2z M59.8,31.6c1.1,0.1,3,1,3.7,2.5c0.7,1.6,3.4,11.4,4.8,13.9
		c1.5,2.4,3.3,6.1,8.1,7.7c4.8,1.6,16.1,4.8,29,2.3c4.5-0.9,7.5-7,7.5-7s3.4-9,4.2-9.9c0.8-0.9,1.8-0.9,2.2-2.5l0.8-8.6
		c0,0,0.4-1.2-1.7-1.9c-2.1-0.7-10.5-4.6-25.4-5.4s-22.4,2.3-32.8,1.8c-10.4-0.5-17.7-4.3-32.5-5S4,22,1.9,22.5
		C-0.3,23,0,24.2,0,24.2l0,8.6c0.2,1.6,1.2,1.7,1.9,2.7c0.7,1,3.2,10.2,3.2,10.2s2.4,6.4,6.8,7.7c12.5,3.8,24.1,1.6,29.1,0.5
		c5-1.1,7.1-4.6,8.8-6.9c1.7-2.3,5.4-11.9,6.2-13.3C56.7,32.3,58.7,31.6,59.8,31.6z M51,35c-0.2,3.4-2.8,14.9-11.2,16.5
		C30,53.4,11.4,54.6,9,46.4c-2.4-8.2-4-21.3,2.5-22.4c6.4-1.2,18.9-3.9,34.3,1.4C52.5,27.9,51.2,31.6,51,35z"/>
</g>
</svg>
