<?xml version="1.0" encoding="utf-8"?>
<!-- Generator: Adobe Illustrator 21.0.2, SVG Export Plug-In . SVG Version: 6.00 Build 0)  -->
<svg version="1.1" id="Layer_1" xmlns="http://www.w3.org/2000/svg" xmlns:xlink="http://www.w3.org/1999/xlink" x="0px" y="0px"
	 viewBox="0 0 248.5 118.5" style="enable-background:new 0 0 248.5 118.5;" xml:space="preserve">
<style type="text/css">
	.st0{fill:#F1F1F1;}
</style>
<title>agcg</title>
<g>
	<g>
		<path class="st0" d="M9.2,108.7v-2.6l1.7-0.2c0.5-0.1,0.5-0.2,0.5-0.7V87.6c0-0.4-0.1-0.6-0.4-0.7l-1.8-0.6l0.4-2.7h6.9v21.6
			c0,0.5,0,0.6,0.5,0.7l1.6,0.2v2.6H9.2z"/>
		<path class="st0" d="M35.1,107.4c-2.1,1-4.3,1.7-6.8,1.7c-6.4,0-8.6-4-8.6-9.2c0-6,3.7-8.9,8.3-8.9c4.4,0,7.3,2.3,7.3,8.1
			c0,0.4,0,1.6-0.1,2.2H25c0.2,2.4,1.2,3.9,3.9,3.9c1.3,0,2.7-0.3,5-1.1L35.1,107.4z M30.3,98.2c0-2.8-1.1-3.5-2.5-3.5
			c-1.4,0-2.6,0.8-2.8,3.5H30.3z"/>
		<path class="st0" d="M47.9,108.7l-0.3-1.8l-0.2,0c-1.3,1.2-2.9,2.2-5.6,2.2c-4.2,0-4.9-2.9-4.9-4.9c0-3.3,2.1-4.9,6.2-5.1l3.8-0.3
			V97c0-1.6-0.2-2.6-2.2-2.6c-1.6,0-2.4,0.2-2.4,2.2l-4.7-0.4c0-4.5,4.1-5.1,7.2-5.1c5.1,0,7.1,1.4,7.1,6v8.1c0,0.5,0,0.6,0.5,0.7
			l1.6,0.3v2.6H47.9z M47,101.6l-2.3,0.2c-2,0.1-2.7,0.6-2.7,2s0.8,1.8,1.9,1.8c1.1,0,2.3-0.6,3-1.2V101.6z"/>
		<path class="st0" d="M67.6,108.7V97.9c0-1-0.1-2.8-1.8-2.8c-1.2,0-2.6,0.6-3.5,1.2v8.9c0,0.5,0,0.6,0.5,0.7l1.6,0.2v2.6h-9.2v-2.6
			l1.5-0.2c0.5-0.1,0.5-0.2,0.5-0.7V87.6c0-0.4-0.1-0.6-0.4-0.7l-1.8-0.6l0.4-2.7h6.9V93l0.2,0c1.5-1.2,3.2-2,5.3-2
			c3.5,0,4.8,1.9,4.8,5.4v8.8c0,0.5,0,0.6,0.5,0.7l1.7,0.2v2.6H67.6z"/>
		<path class="st0" d="M77.8,115.8v-2.7l2.6-0.3c0.4,0,0.6-0.3,0.8-0.7l1.4-3.2L76.3,95c-0.1-0.4-0.3-0.5-0.7-0.6l-1.4-0.3l0.5-2.7
			h8.8v2.7l-2.1,0.3l3.7,8.8h0.2l3.5-8.8l-2.2-0.3l0.4-2.7h7.4v2.7l-1.1,0.2c-0.4,0.1-0.7,0.2-0.8,0.6l-7.3,17.9l3.5,0.4v2.7H77.8z"
			/>
		<path class="st0" d="M108,108.7l-0.3-1.9l-0.2,0c-1.4,1.4-3,2.3-5.5,2.3c-3.9,0-6.5-2.5-6.5-8.9c0-6.7,3.4-9.2,7.1-9.2
			c1.9,0,3.4,0.7,4.7,1.6v-5.1c0-0.3-0.1-0.6-0.4-0.7l-1.8-0.6l0.4-2.7h6.7v21.6c0,0.5,0,0.6,0.5,0.6l1.6,0.2v2.6H108z M107.1,95.9
			c-0.8-0.6-1.9-1-2.9-1c-2.5,0-3.4,2.3-3.4,5.3c0,3.2,0.9,5,3,5c1.1,0,2.4-0.7,3.3-1.4V95.9z"/>
		<path class="st0" d="M130.8,107.4c-2.1,1-4.3,1.7-6.8,1.7c-6.4,0-8.6-4-8.6-9.2c0-6,3.7-8.9,8.3-8.9c4.4,0,7.3,2.3,7.3,8.1
			c0,0.4,0,1.6-0.1,2.2h-10.2c0.2,2.4,1.2,3.9,3.9,3.9c1.3,0,2.7-0.3,5-1.1L130.8,107.4z M126,98.2c0-2.8-1.1-3.5-2.5-3.5
			c-1.4,0-2.6,0.8-2.8,3.5H126z"/>
		<path class="st0" d="M143,96.6l-0.3-1.7c0-0.3-0.1-0.4-0.3-0.5c-0.4-0.1-1.2-0.3-2.1-0.3c-1.7,0-2.6,0.6-2.6,1.7
			c0,1.4,1.8,1.7,3.9,2.1c2.6,0.6,5.6,1.5,5.6,5.4c0,4.1-3.3,5.7-7.5,5.7c-3,0-6-0.8-6.6-1.2v-4.8l3.6,0.3l0.3,1.9
			c0,0.3,0.1,0.4,0.4,0.5c0.4,0.1,1.3,0.3,2.6,0.3c1.8,0,2.8-0.5,2.8-1.7c0-1.3-1.3-1.7-3-2c-2.8-0.5-6.5-1.1-6.5-5.5
			c0-4.1,3.5-5.8,7.4-5.8c2.6,0,5.2,0.6,6.1,1v4.8L143,96.6z"/>
		<path class="st0" d="M148.6,108.7v-2.6l1.7-0.2c0.5-0.1,0.5-0.2,0.5-0.7v-9.8c0-0.4-0.1-0.6-0.4-0.7l-1.8-0.6l0.4-2.7h6.9v13.8
			c0,0.5,0,0.6,0.5,0.7l1.7,0.2v2.6H148.6z M152.9,88.7c-1.9,0-3-1.1-3-3c0-1.9,1.1-2.9,3-2.9c1.9,0,3,1,3,2.9
			C155.9,87.6,154.8,88.7,152.9,88.7z"/>
		<path class="st0" d="M173.7,94.5c0.6,0.8,1.2,1.8,1.2,3.4c0,3.7-2.9,5.9-7.1,5.9c-1.1,0-2-0.1-2.6-0.3l-1.1,1.8l3.3,0.2
			c5.8,0.4,9.2,0.5,9.2,5c0,3.8-3.4,6-9.2,6c-6,0-8.3-1.5-8.3-4.2c0-1.5,0.7-2.3,1.8-3.4c-1.1-0.5-1.5-1.3-1.5-2.2
			c0-0.7,0.4-1.4,1-2s1.3-1.3,2.1-2c-1.6-0.8-2.9-2.5-2.9-5c0-3.8,2.5-6.5,7.6-6.5c1.4,0,2.3,0.1,3.1,0.3h6.5v2.8L173.7,94.5z
			 M163.9,109.6c-0.4,0.5-0.9,1.1-0.9,1.8c0,1.3,1.7,1.7,4,1.7c1.9,0,4.6-0.1,4.6-1.9c0-1.1-1.3-1.1-2.9-1.2L163.9,109.6z
			 M167.6,94.4c-1.8,0-3.2,0.9-3.2,3.1c0,1.6,0.9,2.8,3.1,2.8c1.9,0,3.1-1.1,3.1-2.8C170.6,95.4,169.5,94.4,167.6,94.4z"/>
		<path class="st0" d="M190.4,108.7V98c0-1.6-0.1-2.9-1.8-2.9c-1.2,0-2.8,0.7-3.5,1.2v8.9c0,0.5,0,0.6,0.5,0.7l1.6,0.2v2.6h-9.2
			v-2.7l1.5-0.2c0.5-0.1,0.5-0.2,0.5-0.7v-9.8c0-0.4-0.1-0.6-0.4-0.7l-1.8-0.6l0.4-2.7h5.8l0.3,1.7l0.1,0.1c1.7-1.2,3.6-2.1,5.9-2.1
			c3.6,0,5,2,5,5.7v8.5c0,0.5,0,0.6,0.5,0.7l1.7,0.2v2.6H190.4z"/>
		<path class="st0" d="M202.5,109.1c-1.9,0-2.9-0.9-2.9-2.6c0-1.7,0.9-2.6,2.9-2.6c1.9,0,2.8,0.9,2.8,2.6S204.4,109.1,202.5,109.1z"
			/>
		<path class="st0" d="M222.5,107.5c-1.5,0.9-3.9,1.6-6.3,1.6c-6,0-8.7-3.8-8.7-8.8c0-6.2,3.8-9.3,9.1-9.3c2.6,0,4.9,0.7,5.9,1.4
			v5.2l-3.6-0.2l-0.4-2.2c0-0.2-0.1-0.4-0.4-0.5c-0.4-0.1-1-0.2-1.7-0.2c-2,0-3.7,1.4-3.7,5.3c0,4.3,1.9,5.6,4.3,5.6
			c1.7,0,3.2-0.5,4.2-1L222.5,107.5z"/>
		<path class="st0" d="M224,100.2c0-5.5,2.9-9.1,9-9.1c6.2,0,8.6,3.7,8.6,8.8c0,5.7-2.9,9.3-9,9.3C226.4,109.1,224,105.4,224,100.2z
			 M236.3,100c0-3.9-1.2-5.3-3.4-5.3c-2.2,0-3.7,1.4-3.7,5.4c0,4,1.3,5.6,3.5,5.6C234.9,105.6,236.3,104.2,236.3,100z"/>
	</g>
	<g>
		<g>
			<path class="st0" d="M101.6,22.8c-3.6,2.7,1,9.1,4.5,8.5c9-2,23.5,0.2,23.5,0.2l-21.3-9.2C106,21.2,103.5,21.4,101.6,22.8z"/>
		</g>
		<g>
			<path class="st0" d="M57.1,19.2c-9-2.7-17-2.7-25-2.6c0,0,19.6-11.3,27.4-7.9C67.2,12.2,60.3,19.7,57.1,19.2z"/>
		</g>
		<g>
			<path class="st0" d="M141,70.5c-3.8,9.8-26.4,6.3-38.3,3c-10.1-2.9-11.9-17.2-11.9-21.4c0.1-4.1-1.1-8.8,7.4-11.3
				c19.4-4.9,34.3-0.1,42.1,2C148.1,44.9,144.8,60.7,141,70.5z M80.5,47.1c1.4,0.1,3.7,1.1,4.5,3.1c0.8,1.9,4.3,14,6.1,17
				c1.8,3,4.1,7.5,10.1,9.4c5.9,1.9,19.9,5.7,35.6,2.5c5.5-1.1,9.1-8.7,9.1-8.7s4-11,5-12.2c1-1.1,2.2-1.2,2.6-3.1l0.9-10.5
				c0,0,0.5-1.4-2.1-2.3c-2.6-0.8-13-5.5-31.2-6.2c-18.2-0.7-27.5,3.1-40.2,2.6c-12.8-0.5-21.7-5-39.9-5.7S12,36,9.4,36.6
				c-2.6,0.6-2.2,2.1-2.2,2.1l0.1,10.6c0.2,2,1.5,2.1,2.4,3.3c0.9,1.2,4,12.5,4,12.5s3,7.9,8.4,9.4c15.4,4.5,29.6,1.7,35.6,0.3
				c6.1-1.4,8.7-5.7,10.8-8.6c2-2.8,6.4-14.6,7.4-16.4C76.7,47.9,79.1,47,80.5,47.1z M69.7,51.3c-0.2,4.2-3.2,18.3-13.5,20.4
				c-12.1,2.4-34.9,4.1-37.9-5.9c-3-10.1-5.1-26.1,2.8-27.6c7.9-1.5,23.1-5.1,42.1,1.3C71.5,42.6,69.9,47.2,69.7,51.3z"/>
		</g>
	</g>
</g>
</svg>
