<svg xmlns="http://www.w3.org/2000/svg" viewBox="0 0 250 250"><defs><style>.cls-1{fill-rule:evenodd;}</style></defs><title>client_9</title><g id="SCJ"><path class="cls-1" d="M49.37,135.33l-4.52,14h3.07c0-.12,1-3,1-3h4.66l.9,3h3.33c-.07-.23-4.54-13.89-4.59-14Zm.23,8.36,1.64-5.87.12.32,1.46,5.66H49.57l0-.11Z"/><path class="cls-1" d="M70.88,135.33v14h3v-5.71h4.65v-2.5H73.91v-3.28h4.86v-2.51Z"/><path class="cls-1" d="M85.44,137.6l-3.78,11.74h2.55l.8-2.54h3.94l.76,2.54h2.77c-.07-.23-3.81-11.62-3.84-11.74Zm.17,7,1.4-5,.11.32,1.23,4.77H85.58l0-.11Z"/><path class="cls-1" d="M105.53,137.6l-2.32,8.17-.11-.31L101,137.6h-4.1v11.74h2.46c0-.17-.06-9.28-.06-9.28h.13s2.49,9.15,2.52,9.28h2.35l2.61-9.28H107s0,9.11,0,9.28h2.46V137.6Z"/><path class="cls-1" d="M114.86,137.6v11.74h2.53V137.6Z"/><path class="cls-1" d="M122.88,137.6v11.74h6.7v-2.18h-4.18V137.6Z"/><path class="cls-1" d="M138.23,137.6l-2,4.92-2-4.92h-2.9l3.68,7.3s0,4.27,0,4.44h2.52v-4.4s3.19-6.4,3.66-7.34Z"/><path class="cls-1" d="M216.63,144.63H214.1l1.3-4.66h0l1.2,4.66Zm-2.79-7c0,.12-3.72,11.51-3.79,11.74h2.56c0-.12.8-2.54.8-2.54h3.93l.76,2.54h2.77c-.08-.23-3.81-11.62-3.85-11.74Z"/><path class="cls-1" d="M245.69,137.6l-2,4.92-2-4.92h-2.9l3.68,7.3s0,4.27,0,4.44h2.52v-4.4s3.18-6.4,3.66-7.34Z"/><path class="cls-1" d="M152.67,142.37c0,5.3,3.68,7.18,6.84,7.18A11.35,11.35,0,0,0,163,149c0-.13-.13-2.55-.14-2.78a7.29,7.29,0,0,1-2.92.69c-2.46,0-4.12-1.83-4.12-4.56s1.59-4.69,3.86-4.69a5.66,5.66,0,0,1,3.07.94c0-.24.23-2.73.24-2.86a10.75,10.75,0,0,0-3.48-.7c-4.27,0-6.82,2.73-6.82,7.31Z"/><path class="cls-1" d="M169.58,143.46c0-2.06.65-3.81,2.3-3.81s2.29,1.74,2.29,3.81-.65,3.81-2.29,3.81-2.3-1.85-2.3-3.81Zm-2.7,0c0,3.86,1.82,6.08,5,6.08s5-2.22,5-6.08-1.78-6.07-5-6.07-5,2.16-5,6.07Z"/><path class="cls-1" d="M190.24,137.6l-2.32,8.17-.11-.31-2.13-7.86h-4.1v11.74H184c0-.17-.06-9.28-.06-9.28h.14s2.49,9.15,2.52,9.28H189l2.65-9.28h.12s0,9.11,0,9.28h2.46V137.6Z"/><path class="cls-1" d="M200,137.6v11.74h2.53v-4.16h1.13c2.46,0,3.93-1.4,3.93-3.75,0-2.61-1.41-3.82-4.45-3.82Zm2.53,5.41v-3.34h.78a1.54,1.54,0,0,1,1.76,1.69,1.56,1.56,0,0,1-1.76,1.73h-.78V143Z"/><path class="cls-1" d="M232.16,137.6c0,.18,0,8.22,0,8.22h-.11l-3.49-8.21h-3.29v11.74h2.3c0-.17-.08-8.27-.08-8.27l.11,0s3.55,8.15,3.61,8.25h3.2V137.6Z"/><polygon class="cls-1" points="1.41 158.84 1.41 162.99 248.38 162.99 248.38 158.84 1.41 158.84 1.41 158.84"/><path class="cls-1" d="M118.06,98.44a14.68,14.68,0,0,0,5.77.72,4,4,0,0,0,3.93-3.93c0-2.17-1.41-3.71-3.93-3.69l-1.87,0a1,1,0,0,1-1-1c0-.54.61-1.07,1.52-1.07A7.88,7.88,0,0,1,127,90.57l.4-2.53A11.47,11.47,0,0,0,122,87a3.92,3.92,0,0,0-3.85,3.72,3.26,3.26,0,0,0,3.41,3.41c1.1,0,1.63,0,2.23,0A1.08,1.08,0,0,1,125,95.28a1.37,1.37,0,0,1-1.18,1.22,9.47,9.47,0,0,1-5.75-.93v2.87Z"/><path class="cls-1" d="M139.72,98.93a18.56,18.56,0,0,1-4.91.29,6.06,6.06,0,0,1,0-12.06,19.05,19.05,0,0,1,4.91.29v2.62a11.26,11.26,0,0,0-4-.43c-2.26.26-3.29,1.51-3.29,3.55s1,3.29,3.29,3.55a11.22,11.22,0,0,0,4-.42v2.62Z"/><path class="cls-1" d="M129.71,110.79a5.84,5.84,0,0,1,5.83-5.56h2.79v-.68l-9.35-6-9.35,6v.68h2.79a5.85,5.85,0,0,1,5.84,5.56Z"/><path class="cls-1" d="M129.71,112.11a5.84,5.84,0,0,0,5.83,5.56h2.79v.67l-9.35,6-9.35-6v-.67h2.79a5.85,5.85,0,0,0,5.84-5.56Z"/><path class="cls-1" d="M119.82,101.51a13.56,13.56,0,1,0,22.75,10V87.07h8.13v24c0,13.59-10.75,16.6-21.72,16.6-12,0-21.69-3.31-21.69-14.89,0-6.52,5.79-12.16,12.52-12.16v.91Z"/><path class="cls-1" d="M234.37,100.59v19H240l0-14.85a1.44,1.44,0,1,1,2.89,0v12a2.83,2.83,0,0,0,2.83,2.83h2.75v-14.8a4.2,4.2,0,0,0-4.2-4.2Z"/><path class="cls-1" d="M185.59,100.58v19h5.6V104.73a1.44,1.44,0,1,1,2.88,0v12a2.84,2.84,0,0,0,2.84,2.84h2.75v-14.8a4.2,4.2,0,0,0-4.2-4.2Z"/><path class="cls-1" d="M174.9,100.58V92.45h-5.56v27.12h5.57l0-14.8a1.44,1.44,0,0,1,2.88,0v12a2.84,2.84,0,0,0,2.83,2.84h2.75v-14.8a4.2,4.2,0,0,0-4.2-4.2Z"/><path class="cls-1" d="M226.79,100.34h-3.36c-3.31,0-5.35,2.3-5.35,4.89V115c0,2.6,2,4.89,5.35,4.89h3.36c3.31,0,5.35-2.3,5.35-4.89v-9.73c0-2.59-2-4.89-5.35-4.89Zm-.22,15.16a1.45,1.45,0,1,1-2.91,0V104.72a1.45,1.45,0,0,1,2.91,0V115.5Z"/><path class="cls-1" d="M161.77,100.34h-3.36c-3.32,0-5.35,2.3-5.35,4.89V115c0,2.6,2,4.89,5.35,4.89h3.36c3.31,0,5.35-2.3,5.35-4.89v-9.73c0-2.59-2-4.89-5.35-4.89Zm-.22,15.16a1.45,1.45,0,1,1-2.91,0V104.72a1.45,1.45,0,0,1,2.91,0V115.5Z"/><path class="cls-1" d="M215.89,114.89V113a4.33,4.33,0,0,0-4.2-4.2l-2.82-.28c-1.08-.15-1.44-.65-1.44-1.44l0-2.32a1.45,1.45,0,0,1,2.91,0V106a1.45,1.45,0,0,0,1.44,1.45h4.15v-2.18c0-2.59-2-4.89-5.35-4.89h-3.36c-3.32,0-5.35,2.3-5.35,4.89v1.88a4.32,4.32,0,0,0,4.2,4.2c1.83.19,1.76.21,2.84.28a1.48,1.48,0,0,1,1.44,1.44v2.46a1.45,1.45,0,1,1-2.91,0l0-1.47a1.45,1.45,0,0,0-1.45-1.44h-4.17V115c0,2.6,2,4.89,5.35,4.89h3.36c3.32,0,5.35-2.3,5.35-4.89v-.07Z"/></g></svg>