<svg xmlns="http://www.w3.org/2000/svg" viewBox="0 0 250 250"><title>client_13</title><g id="TKMAXX"><path d="M68.82,122.45h0M57.38,98.27c0,7.92-1.27,12.21-4.07,15.22a14.33,14.33,0,0,1-10.58,4.08c-4.15,0-7.84-1.38-10-3.7s-3.36-5.78-3.36-10.74v-31c0-1.36-.51-2-2-2H6.24c-1.48,0-2,.58-2,2v28c0,11.2,2.89,17.59,7.93,22.63,6.55,6.55,17.74,9.47,28.38,9.47s21.69-3.76,28.24-9.81c6.43,5.85,18.09,9.8,31,9.8,17,0,29.53-7,36.83-19,3.24,5,5.64,8.76,7.94,12.16,3.39,5,6.47,6.85,13.38,6.85,6.54,0,10.46-1.57,14-7,9.27-14.18,17.18-30.95,22.88-46.38A15.71,15.71,0,0,0,196,74.69c0-.9-.59-1.61-2-2.06s-5-1.55-6.85-2.11a21.8,21.8,0,0,0-4.81-1.2c-1.23,0-1.9.69-2.33,2.11-4.27,14.22-10.78,30.19-16.58,40.12-1.9-3.63-5.41-9.93-8.67-15.62-5-8.8-10-17.67-12.52-21.75a22.67,22.67,0,0,0-1.88-2.67A6.51,6.51,0,0,0,134.74,69c-6.85,0-17,6.15-17,11.88,0,1.95.54,3.4,2.56,6.85l0,.06c2.27,3.89,3.41,7.06,3.41,11,0,9.75-7.28,18.58-21.35,18.58-6.67,0-11.83-1.89-15.18-5.34-3.2-3.29-4.75-7.71-4.75-15.09V84.48A22.08,22.08,0,0,0,91.16,86h11.13c1.5,0,2-.6,2-2V72.11c0-1.36-.53-2-2-2H82.46V50.63a6.42,6.42,0,0,0-1.92-5.13c-1.93-1.76-5.92-2.62-10.62-2.62s-8.68.86-10.62,2.62a6.43,6.43,0,0,0-1.92,5.14Z"/><path d="M16.8,61.5c7.85,0,12.7-5.57,12.7-12.6S24.66,36.3,16.8,36.3,4.1,41.87,4.1,48.9,8.95,61.5,16.8,61.5Z"/><path d="M9.67,173.45c0,.75-.64,1.12-2.74,1.12s-2.74-.37-2.74-1.16V148.56H14.62c2.92,0,5.32.41,7.08,1.8,1.57,1.24,2.51,3.22,2.51,6.18a8.06,8.06,0,0,1-2.59,6.33,8.34,8.34,0,0,1-3,1.57L24.18,173c.3.49.37.67.37.86,0,.41-.79.71-2.66.71-2.21,0-3-.3-3.41-.94l-5.21-8.7H9.67Zm8.1-14a4.13,4.13,0,0,0,.86-2.92,3.62,3.62,0,0,0-.86-2.62c-.75-.75-1.84-.94-3.56-.94H9.67v7.53h4.76A4.31,4.31,0,0,0,17.77,159.47Z"/><path d="M29.34,172.29c-1.76-1.72-2.55-4.39-2.55-7.8,0-6.56,3.26-10.2,9.45-10.2,5.66,0,8.81,3,8.81,8.92a19.82,19.82,0,0,1-.26,3H32.15a5.2,5.2,0,0,0,.71,2.77c.75,1,2.17,1.61,4.61,1.61a34.59,34.59,0,0,0,4.76-.37,3.73,3.73,0,0,1,.6-.08c.56,0,.64.3.71,1.12,0,.37.07,1.12.07,1.61a1.18,1.18,0,0,1-1,1.35,26.42,26.42,0,0,1-5.36.52C33.54,174.76,31,174,29.34,172.29Zm10.31-9.82a5.87,5.87,0,0,0-.67-3.15,3.14,3.14,0,0,0-2.77-1.16,3.63,3.63,0,0,0-2.85,1,5.33,5.33,0,0,0-1.09,3.3Z"/><path d="M61.18,159.06a23.52,23.52,0,0,0-5-.67c-2.66,0-3.71.56-3.71,1.72s.79,1.39,2.92,1.87l1.91.45a7.73,7.73,0,0,1,4,2,5,5,0,0,1,1.27,3.64c0,4-2.4,6.67-8.43,6.67a20.05,20.05,0,0,1-5.7-.86c-.75-.3-.9-.49-.9-1.12,0-.3,0-1,.11-1.61.11-.94.3-1.42.82-1.42a4.78,4.78,0,0,1,1.09.26,18.46,18.46,0,0,0,4.57.67c2.51,0,3.64-.67,3.64-1.95s-1-1.72-3-2.21l-1.5-.37c-2.21-.56-3.56-1.2-4.42-2.14a5.06,5.06,0,0,1-1.27-3.56c0-4,2.89-6.15,8.13-6.15a26.45,26.45,0,0,1,5.77.75Z"/><path d="M71,181.62c0,1-1,1.39-2.66,1.39s-2.66-.41-2.66-1.39V155a70.42,70.42,0,0,1,9.07-.67c6.22,0,9.75,3.37,9.75,9.86v.15c0,7.31-3.94,10.46-9.41,10.46a11.64,11.64,0,0,1-4.09-.64Zm8.1-17.2c0-3.71-1.16-6-4.69-6a23.31,23.31,0,0,0-3.41.22v11.47a11.52,11.52,0,0,0,3.82.6C77.83,170.68,79.06,168.58,79.06,164.42Z"/><path d="M87.15,164.57v-.15c0-6.75,3.56-10.12,9.78-10.12s9.78,3.37,9.78,10.12v.15c0,6.75-3.56,10.2-9.78,10.2S87.15,171.31,87.15,164.57Zm5.43,0c0,4.2,1.24,6.15,4.35,6.15s4.35-1.95,4.35-6.15c0-4.39-1.24-6.22-4.35-6.22S92.59,160.18,92.59,164.57Z"/><path d="M128.15,173.19c0,1-1.09,1.39-2.74,1.39s-2.59-.41-2.59-1.39V162.28a4.92,4.92,0,0,0-.64-2.89,2.82,2.82,0,0,0-2.36-.86,9.19,9.19,0,0,0-4.46,1.35v13.31c0,1-1.09,1.39-2.74,1.39s-2.59-.41-2.59-1.39V154.67h4.84l.19,1.72a12.21,12.21,0,0,1,6.45-2.1,6.55,6.55,0,0,1,4.87,1.87c1.27,1.39,1.76,3.15,1.76,5.7Z"/><path d="M145.05,159.06a23.52,23.52,0,0,0-5-.67c-2.66,0-3.71.56-3.71,1.72s.79,1.39,2.92,1.87l1.91.45a7.73,7.73,0,0,1,4,2,5,5,0,0,1,1.27,3.64c0,4-2.4,6.67-8.43,6.67a20.05,20.05,0,0,1-5.7-.86c-.75-.3-.9-.49-.9-1.12,0-.3,0-1,.11-1.61.11-.94.3-1.42.82-1.42a4.79,4.79,0,0,1,1.09.26,18.46,18.46,0,0,0,4.57.67c2.51,0,3.64-.67,3.64-1.95s-1-1.72-3-2.21l-1.5-.37c-2.21-.56-3.56-1.2-4.42-2.14a5.06,5.06,0,0,1-1.27-3.56c0-4,2.89-6.15,8.13-6.15a26.44,26.44,0,0,1,5.77.75Z"/><path d="M155.09,148.6v.22c0,1.72-.86,2.81-3,2.81s-3-1.09-3-2.81v-.22c0-1.84.79-2.81,3-2.81S155.09,146.76,155.09,148.6Zm-.26,24.59c0,1-1.09,1.39-2.74,1.39s-2.59-.41-2.59-1.39V154.67h5.32Z"/><path d="M159.82,174.13c-.67-.15-.9-.45-.9-1v-26.2h5.32v8.62a10.69,10.69,0,0,1,5.06-1.2c5.06,0,8.36,3.22,8.36,10v.19c0,6.45-3.64,10.31-10.12,10.31A42.24,42.24,0,0,1,159.82,174.13Zm4.42-14.84v11.13a29.56,29.56,0,0,0,3.22.26c3.26,0,4.87-2.17,4.87-6.18,0-4.31-1.5-6.11-4-6.11A8.76,8.76,0,0,0,164.25,159.28Z"/><path d="M186.56,148.6v.22c0,1.72-.86,2.81-3,2.81s-3-1.09-3-2.81v-.22c0-1.84.79-2.81,3-2.81S186.56,146.76,186.56,148.6Zm-.26,24.59c0,1-1.09,1.39-2.74,1.39s-2.59-.41-2.59-1.39V154.67h5.32Z"/><path d="M195.64,146.88v21.7a3.13,3.13,0,0,0,.23,1.35c.22.37.64.52,1.31.52a7.89,7.89,0,0,0,.94-.08,3.89,3.89,0,0,1,.56-.08c.34,0,.52.34.6,1a15.43,15.43,0,0,1,.11,1.8c0,.71-.15,1-.71,1.2a12.77,12.77,0,0,1-2.85.3c-4.2,0-5.51-1.72-5.51-5.7v-22Z"/><path d="M207.27,148.6v.22c0,1.72-.86,2.81-3,2.81s-3-1.09-3-2.81v-.22c0-1.84.79-2.81,3-2.81S207.27,146.76,207.27,148.6ZM207,173.19c0,1-1.09,1.39-2.74,1.39s-2.59-.41-2.59-1.39V154.67H207Z"/><path d="M216.58,149.65h1.65v5h5.85l-.23,4h-5.62v9.33a2.64,2.64,0,0,0,.52,1.95,2.45,2.45,0,0,0,1.84.52c.56,0,1.27-.07,1.61-.11s.64-.08.82-.08c.37,0,.64.3.67,1.12,0,.6.08,1.27.08,1.57,0,.79-.19,1.16-1,1.35a18,18,0,0,1-3.41.3c-2.29,0-4-.49-5-1.61s-1.42-2.77-1.42-4.95v-9.41H210c-.53,0-.67-.3-.67-1.39,0-.9.11-1.31.64-1.72C211.93,154,214.14,152,216.58,149.65Z"/><path d="M245.9,154.67c-2.62,8.55-6,18.55-9,27.36-.26.75-1,1-2.81,1-2.4,0-2.62-.49-2.4-1.12.71-1.91,1.95-5.21,2.77-7.5-1.16,0-1.76-.08-2.14-1.12-2-5.47-4.5-12.56-6.41-18.59h5.55c1.16,4.09,3.3,11,4.46,14.58h.26c1.42-4.57,2.89-9.78,4.2-14.58Z"/><path d="M4.62,202.12c0-2.45.62-4.32,1.87-5.51A6.71,6.71,0,0,1,11.33,195a13.7,13.7,0,0,1,3.13.36l-.14,1.31a14,14,0,0,0-2.89-.32c-1.85,0-3.05.38-3.84,1.21a6.55,6.55,0,0,0-1.33,4.56c0,4.16,1.71,5.77,5.06,5.77a14.52,14.52,0,0,0,2.33-.26c.52-.1.8-.18.88-.18s.22.06.28.5a5.13,5.13,0,0,1,.06.62c0,.16-.1.2-.34.26a14,14,0,0,1-3.4.42C6.77,209.28,4.62,206.95,4.62,202.12Z"/><path d="M18,208.58c0,.22-.06.56-.8.56s-.76-.34-.76-.56V198.51h1.37l.14,2.41a7,7,0,0,1,4.16-2.61V200a7.25,7.25,0,0,0-4.1,2.33Z"/><path d="M28.29,209.28A5.44,5.44,0,0,1,24.23,208,5.83,5.83,0,0,1,23,203.83v-.06c0-3.54,1.55-5.47,4.74-5.47,2.91,0,4.36,1.57,4.36,4.7,0,.3,0,.88-.08,1.27H24.59a4,4,0,0,0,.78,2.83c.58.58,1.41.84,3.07.84a13.14,13.14,0,0,0,2.17-.22,2.84,2.84,0,0,1,.42-.06c.18,0,.22.06.24.32a5.13,5.13,0,0,1,.06.62c0,.24,0,.28-.32.36A12.57,12.57,0,0,1,28.29,209.28ZM30.48,203a2.13,2.13,0,0,0,0-.3c0-2-.82-3.16-2.77-3.16-2.19,0-3.05,1.31-3.13,3.46Z"/><path d="M34.3,198.85a11.45,11.45,0,0,1,3.38-.54c1.71,0,2.73.32,3.36,1a3.66,3.66,0,0,1,.84,2.71v3.6c0,1.65.16,2.91.16,3.11s-.1.44-.64.44-.68-.14-.76-.46l-.2-.82a5.31,5.31,0,0,1-3.66,1.43c-2.07,0-3.44-1.25-3.44-3,0-2,1.47-3.3,4.36-3.3a12.24,12.24,0,0,1,2.61.28v-1.09a2.6,2.6,0,0,0-.5-1.89,3.27,3.27,0,0,0-2.33-.64,10.79,10.79,0,0,0-3.09.54Zm.6,7.34c0,1.13.74,1.91,2.23,1.91a4.52,4.52,0,0,0,3.18-1.41v-2.33a12.18,12.18,0,0,0-2.29-.24C36,204.11,34.9,204.76,34.9,206.18Z"/><path d="M46.21,195.81h.7v2.69h3.34l-.06,1.23H46.92v6.13c0,.88,0,1.39.36,1.71a2,2,0,0,0,1.39.36c.46,0,1.15-.12,1.29-.12s.24,0,.26.28,0,.48,0,.58c0,.26-.1.28-.28.34a6.64,6.64,0,0,1-1.63.22c-2.33,0-3-.88-3-3.18v-6.33H43.44c-.24,0-.28-.12-.28-.36a.43.43,0,0,1,.24-.44A7.35,7.35,0,0,0,46.21,195.81Z"/><path d="M53.71,195.35v.1a1,1,0,1,1-2.09,0v-.1c0-.68.3-1.09,1-1.09S53.71,194.67,53.71,195.35Zm-1.83,3.15h1.57v10.07c0,.22-.06.56-.8.56s-.76-.34-.76-.56Z"/><path d="M63.09,202.41a3.29,3.29,0,0,0-.46-2.11,2.27,2.27,0,0,0-1.91-.68,6.57,6.57,0,0,0-3.48,1.25v7.72c0,.22-.06.56-.8.56s-.76-.34-.76-.56V198.51h1.41l.08,1.19a6.78,6.78,0,0,1,3.92-1.39,3.67,3.67,0,0,1,2.61.88,3.8,3.8,0,0,1,1,2.91v6.47c0,.22,0,.56-.78.56s-.78-.34-.78-.56Z"/><path d="M74.06,208.19a5.18,5.18,0,0,1-3.16,1c-2.81,0-4.56-1.91-4.56-5.33v-.1c0-3.82,2.31-5.43,5.55-5.43a13,13,0,0,1,3.74.62v9.91a5.16,5.16,0,0,1-1.17,3.72A4.58,4.58,0,0,1,71,213.7a10.87,10.87,0,0,1-2.75-.3c-.2-.06-.3-.14-.3-.42a2.8,2.8,0,0,1,0-.5c.06-.28.16-.38.28-.38s.28,0,.54.08a12.7,12.7,0,0,0,2,.18,3.23,3.23,0,0,0,2.51-.68,3.77,3.77,0,0,0,.78-2.75Zm0-8.3a7.73,7.73,0,0,0-2.23-.34c-2.67,0-3.88,1.37-3.88,4.18,0,3,1,4.18,3.36,4.18a5.23,5.23,0,0,0,2.75-.84Z"/><path d="M81.22,203.81c0-3.72,1.95-5.51,5.31-5.51a8,8,0,0,1,2.47.36L88.87,200a8.19,8.19,0,0,0-2.21-.34c-2.65,0-3.84,1.11-3.84,4.2,0,2.89,1.07,4.14,3.72,4.14a18.05,18.05,0,0,0,2.25-.22c.18,0,.3,0,.34.3a5.22,5.22,0,0,1,0,.62c0,.24-.08.3-.36.36a12.15,12.15,0,0,1-2.45.26C82.95,209.28,81.22,207.33,81.22,203.81Z"/><path d="M98.08,202.41a3.29,3.29,0,0,0-.46-2.11,2.27,2.27,0,0,0-1.91-.68,6.58,6.58,0,0,0-3.48,1.25v7.72c0,.22-.06.56-.8.56s-.76-.34-.76-.56V194.33h1.57v5.33a6.64,6.64,0,0,1,3.84-1.35,3.67,3.67,0,0,1,2.61.88,3.8,3.8,0,0,1,1,2.91v6.47c0,.22,0,.56-.78.56s-.78-.34-.78-.56Z"/><path d="M102.18,198.85a11.45,11.45,0,0,1,3.38-.54c1.71,0,2.73.32,3.36,1a3.65,3.65,0,0,1,.84,2.71v3.6c0,1.65.16,2.91.16,3.11s-.1.44-.64.44-.68-.14-.76-.46l-.2-.82a5.31,5.31,0,0,1-3.66,1.43c-2.07,0-3.44-1.25-3.44-3,0-2,1.47-3.3,4.36-3.3a12.25,12.25,0,0,1,2.61.28v-1.09a2.6,2.6,0,0,0-.5-1.89,3.27,3.27,0,0,0-2.33-.64,10.79,10.79,0,0,0-3.09.54Zm.6,7.34c0,1.13.74,1.91,2.23,1.91a4.53,4.53,0,0,0,3.18-1.41v-2.33a12.18,12.18,0,0,0-2.29-.24C103.87,204.11,102.78,204.76,102.78,206.18Z"/><path d="M119.3,202.41a3.29,3.29,0,0,0-.46-2.11,2.27,2.27,0,0,0-1.91-.68,6.58,6.58,0,0,0-3.48,1.25v7.72c0,.22-.06.56-.8.56s-.76-.34-.76-.56V198.51h1.41l.08,1.19a6.78,6.78,0,0,1,3.92-1.39,3.67,3.67,0,0,1,2.61.88,3.8,3.8,0,0,1,1,2.91v6.47c0,.22,0,.56-.78.56s-.78-.34-.78-.56Z"/><path d="M130.27,208.19a5.18,5.18,0,0,1-3.16,1c-2.81,0-4.56-1.91-4.56-5.33v-.1c0-3.82,2.31-5.43,5.55-5.43a13,13,0,0,1,3.74.62v9.91a5.16,5.16,0,0,1-1.17,3.72,4.58,4.58,0,0,1-3.5,1.15,10.87,10.87,0,0,1-2.75-.3c-.2-.06-.3-.14-.3-.42a2.8,2.8,0,0,1,0-.5c.06-.28.16-.38.28-.38s.28,0,.54.08a12.7,12.7,0,0,0,2,.18,3.23,3.23,0,0,0,2.51-.68,3.77,3.77,0,0,0,.78-2.75Zm0-8.3a7.73,7.73,0,0,0-2.23-.34c-2.67,0-3.88,1.37-3.88,4.18,0,3,1,4.18,3.36,4.18a5.23,5.23,0,0,0,2.75-.84Z"/><path d="M138.83,209.28a5.44,5.44,0,0,1-4.06-1.29,5.83,5.83,0,0,1-1.25-4.16v-.06c0-3.54,1.55-5.47,4.74-5.47,2.91,0,4.36,1.57,4.36,4.7,0,.3,0,.88-.08,1.27h-7.42a4,4,0,0,0,.78,2.83c.58.58,1.41.84,3.07.84a13.14,13.14,0,0,0,2.17-.22,2.84,2.84,0,0,1,.42-.06c.18,0,.22.06.24.32a5.11,5.11,0,0,1,.06.62c0,.24,0,.28-.32.36A12.57,12.57,0,0,1,138.83,209.28ZM141,203a2.14,2.14,0,0,0,0-.3c0-2-.82-3.16-2.77-3.16-2.19,0-3.05,1.31-3.13,3.46Z"/><path d="M149.46,199.73h-1.75c-.3,0-.4-.1-.4-.54s.1-.54.4-.56l1.75-.12v-.86a3.78,3.78,0,0,1,.76-2.63,3.49,3.49,0,0,1,2.65-.88,7.2,7.2,0,0,1,1.79.2l-.06,1.21a6.19,6.19,0,0,0-1.37-.16,2.36,2.36,0,0,0-1.79.48c-.28.3-.42.72-.42,1.71v.94h3.22l-.06,1.23H151v8.84c0,.22,0,.56-.78.56s-.78-.34-.78-.56Z"/><path d="M154.91,203.73c0-3.62,1.83-5.43,4.94-5.43,3.28,0,4.94,1.81,4.94,5.41v.1c0,3.62-1.67,5.47-4.94,5.47-3.11,0-4.94-1.85-4.94-5.47Zm4.94,4.3c2.23,0,3.34-1.43,3.34-4.26s-1.09-4.22-3.34-4.22-3.34,1.23-3.34,4.22C156.51,206.61,157.54,208,159.85,208Z"/><path d="M168.11,208.58c0,.22-.06.56-.8.56s-.76-.34-.76-.56V198.51h1.37l.14,2.41a7,7,0,0,1,4.16-2.61V200a7.25,7.25,0,0,0-4.1,2.33Z"/><path d="M184.69,208.19a5.18,5.18,0,0,1-3.16,1c-2.81,0-4.56-1.91-4.56-5.33v-.1c0-3.82,2.31-5.43,5.55-5.43a13,13,0,0,1,3.74.62v9.91a5.16,5.16,0,0,1-1.17,3.72,4.58,4.58,0,0,1-3.5,1.15,10.87,10.87,0,0,1-2.75-.3c-.2-.06-.3-.14-.3-.42a2.8,2.8,0,0,1,0-.5c.06-.28.16-.38.28-.38s.28,0,.54.08a12.7,12.7,0,0,0,2,.18,3.23,3.23,0,0,0,2.51-.68,3.77,3.77,0,0,0,.78-2.75Zm0-8.3a7.73,7.73,0,0,0-2.23-.34c-2.67,0-3.88,1.37-3.88,4.18,0,3,1,4.18,3.36,4.18a5.23,5.23,0,0,0,2.75-.84Z"/><path d="M187.94,203.73c0-3.62,1.83-5.43,4.94-5.43,3.28,0,4.94,1.81,4.94,5.41v.1c0,3.62-1.67,5.47-4.94,5.47-3.11,0-4.94-1.85-4.94-5.47Zm4.94,4.3c2.23,0,3.34-1.43,3.34-4.26s-1.09-4.22-3.34-4.22-3.34,1.23-3.34,4.22C189.55,206.61,190.58,208,192.89,208Z"/><path d="M199.24,203.73c0-3.62,1.83-5.43,4.94-5.43,3.28,0,4.94,1.81,4.94,5.41v.1c0,3.62-1.67,5.47-4.94,5.47-3.11,0-4.94-1.85-4.94-5.47Zm4.94,4.3c2.23,0,3.34-1.43,3.34-4.26s-1.09-4.22-3.34-4.22-3.34,1.23-3.34,4.22C200.84,206.61,201.87,208,204.18,208Z"/><path d="M218.31,194.33h1.57v13.89c0,.26,0,.3-.46.46a13.25,13.25,0,0,1-3.76.6c-3.26,0-5.12-1.73-5.12-5.49v-.1c0-2.83,1.53-5.39,4.86-5.39a7,7,0,0,1,2.91.66Zm0,5.85a6,6,0,0,0-2.71-.62c-2,0-3.46,1.13-3.46,4.2,0,2.75.78,4.28,3.58,4.28a11.73,11.73,0,0,0,2.59-.32Z"/></g></svg>